<svg width="24" height="24" viewBox="0 0 24 24" fill="none" xmlns="http://www.w3.org/2000/svg">
<g clip-path="url(#clip0_4002_889)">
<path d="M9.17085 11.0938H2.55036C2.11175 11.0933 1.69124 10.9188 1.38109 10.6087C1.07095 10.2985 0.896491 9.87802 0.895996 9.43941V2.81891C0.896491 2.3803 1.07095 1.9598 1.38109 1.64965C1.69124 1.3395 2.11175 1.16505 2.55036 1.16455H9.17085C10.0832 1.16455 10.8252 1.90676 10.8252 2.81891V9.43941C10.8252 10.3516 10.0832 11.0938 9.17085 11.0938ZM2.55036 2.15455C2.37424 2.15474 2.20539 2.2248 2.08087 2.34936C1.95636 2.47392 1.88635 2.64279 1.88623 2.81891V9.43941C1.88648 9.61541 1.9565 9.78413 2.08095 9.90858C2.2054 10.033 2.37413 10.1031 2.55013 10.1033H9.17085C9.34689 10.1031 9.51567 10.0331 9.64018 9.90866C9.76468 9.78421 9.83473 9.61545 9.83498 9.43941V2.81891C9.8348 2.64287 9.7648 2.47409 9.64034 2.34959C9.51588 2.22509 9.34713 2.15503 9.17109 2.15478L2.55036 2.15455ZM21.4494 11.0938H14.8289C13.9165 11.0938 13.1746 10.3516 13.1746 9.43941V2.81891C13.1746 1.90676 13.9165 1.16455 14.8289 1.16455H21.4494C21.888 1.16505 22.3085 1.3395 22.6187 1.64965C22.9288 1.9598 23.1033 2.3803 23.1038 2.81891V9.43941C23.1033 9.87802 22.9288 10.2985 22.6187 10.6087C22.3085 10.9188 21.888 11.0933 21.4494 11.0938ZM14.8289 2.15455C14.6528 2.15474 14.484 2.2248 14.3594 2.34936C14.2349 2.47392 14.1649 2.64279 14.1648 2.81891V9.43941C14.165 9.61541 14.2351 9.78413 14.3595 9.90858C14.484 10.033 14.6527 10.1031 14.8287 10.1033H21.4494C21.6255 10.1031 21.7942 10.0331 21.9187 9.90866C22.0432 9.78421 22.1133 9.61545 22.1136 9.43941V2.81891C22.1134 2.64287 22.0434 2.47409 21.9189 2.34959C21.7945 2.22509 21.6257 2.15503 21.4497 2.15478L14.8289 2.15455ZM9.17085 23.3723H2.55036C2.11175 23.3718 1.69124 23.1974 1.38109 22.8872C1.07095 22.5771 0.896491 22.1566 0.895996 21.718V15.0975C0.896491 14.6589 1.07095 14.2384 1.38109 13.9282C1.69124 13.6181 2.11175 13.4436 2.55036 13.4431H9.17085C10.0832 13.4431 10.8252 14.1853 10.8252 15.0975V21.718C10.8252 22.6301 10.0832 23.3723 9.17085 23.3723ZM2.55036 14.4334C2.37432 14.4335 2.20554 14.5035 2.08104 14.628C1.95653 14.7525 1.88648 14.9212 1.88623 15.0973V21.718C1.88642 21.894 1.95641 22.0628 2.08087 22.1873C2.20533 22.3118 2.37409 22.3819 2.55013 22.3821H9.17085C9.34689 22.3819 9.51567 22.3119 9.64018 22.1875C9.76468 22.063 9.83473 21.8943 9.83498 21.7182V15.0973C9.83473 14.9213 9.76471 14.7525 9.64026 14.6281C9.51581 14.5036 9.34709 14.4336 9.17109 14.4334H2.55036ZM21.4494 23.3723H14.8289C13.9165 23.3723 13.1746 22.6301 13.1746 21.718V15.0975C13.1746 14.1853 13.9165 13.4431 14.8289 13.4431H21.4494C21.888 13.4436 22.3085 13.6181 22.6187 13.9282C22.9288 14.2384 23.1033 14.6589 23.1038 15.0975V21.718C23.1033 22.1566 22.9288 22.5771 22.6187 22.8872C22.3085 23.1974 21.888 23.3718 21.4494 23.3723ZM14.8289 14.4334C14.6529 14.4335 14.4841 14.5035 14.3596 14.628C14.2351 14.7525 14.165 14.9212 14.1648 15.0973V21.718C14.165 21.894 14.235 22.0628 14.3594 22.1873C14.4839 22.3118 14.6527 22.3819 14.8287 22.3821H21.4494C21.6255 22.3819 21.7942 22.3119 21.9187 22.1875C22.0432 22.063 22.1133 21.8943 22.1136 21.7182V15.0973C22.1133 14.9213 22.0433 14.7525 21.9188 14.6281C21.7944 14.5036 21.6257 14.4336 21.4497 14.4334H14.8289Z" fill="#B4BDBD"/>
</g>
<defs>
<clipPath id="clip0_4002_889">
<rect width="23.3766" height="23.3766" fill="white" transform="translate(0.311523 0.580078)"/>
</clipPath>
</defs>
</svg>
