<svg width="1054" height="1135" viewBox="0 0 1054 1135" fill="none" xmlns="http://www.w3.org/2000/svg">
<g opacity="0.5" filter="url(#filter0_f_4349_10)">
<path d="M602.156 293H426.247L293 842.351H761.701L602.156 293Z" fill="url(#paint0_linear_4349_10)"/>
</g>
<rect x="56.5844" y="340.376" width="88.8312" height="88.8312" stroke="#131313" stroke-width="1.16883"/>
<rect x="146.584" y="340.376" width="88.8312" height="88.8312" stroke="#131313" stroke-width="1.16883"/>
<rect x="236.584" y="340.376" width="88.8312" height="88.8312" stroke="#131313" stroke-width="1.16883"/>
<rect x="326.584" y="340.376" width="88.8312" height="88.8312" stroke="#131313" stroke-width="1.16883"/>
<rect x="416.584" y="340.376" width="88.8312" height="88.8312" stroke="#131313" stroke-width="1.16883"/>
<rect x="506.584" y="340.376" width="88.8312" height="88.8312" stroke="#131313" stroke-width="1.16883"/>
<rect x="596.584" y="340.376" width="88.8312" height="88.8312" stroke="#131313" stroke-width="1.16883"/>
<rect x="686.584" y="340.376" width="88.8312" height="88.8312" stroke="#131313" stroke-width="1.16883"/>
<rect x="776.584" y="340.376" width="88.8312" height="88.8312" stroke="#131313" stroke-width="1.16883"/>
<rect x="56.5844" y="430.376" width="88.8312" height="88.8312" stroke="#131313" stroke-width="1.16883"/>
<rect x="146.584" y="430.376" width="88.8312" height="88.8312" stroke="#131313" stroke-width="1.16883"/>
<rect x="236.584" y="430.376" width="88.8312" height="88.8312" stroke="#131313" stroke-width="1.16883"/>
<rect x="326.584" y="430.376" width="88.8312" height="88.8312" stroke="#131313" stroke-width="1.16883"/>
<rect x="416.584" y="430.376" width="88.8312" height="88.8312" stroke="#131313" stroke-width="1.16883"/>
<rect x="506.584" y="430.376" width="88.8312" height="88.8312" stroke="#131313" stroke-width="1.16883"/>
<rect x="596.584" y="430.376" width="88.8312" height="88.8312" stroke="#131313" stroke-width="1.16883"/>
<rect x="686.584" y="430.376" width="88.8312" height="88.8312" stroke="#131313" stroke-width="1.16883"/>
<rect x="776.584" y="430.376" width="88.8312" height="88.8312" stroke="#131313" stroke-width="1.16883"/>
<rect x="56.5844" y="520.376" width="88.8312" height="88.8312" stroke="#131313" stroke-width="1.16883"/>
<rect x="146.584" y="520.376" width="88.8312" height="88.8312" stroke="#131313" stroke-width="1.16883"/>
<rect x="236.584" y="520.376" width="88.8312" height="88.8312" stroke="#131313" stroke-width="1.16883"/>
<rect x="326.584" y="520.376" width="88.8312" height="88.8312" stroke="#131313" stroke-width="1.16883"/>
<rect x="416.584" y="520.376" width="88.8312" height="88.8312" stroke="#131313" stroke-width="1.16883"/>
<rect x="506.584" y="520.376" width="88.8312" height="88.8312" stroke="#131313" stroke-width="1.16883"/>
<rect x="596.584" y="520.376" width="88.8312" height="88.8312" stroke="#131313" stroke-width="1.16883"/>
<rect x="686.584" y="520.376" width="88.8312" height="88.8312" stroke="#131313" stroke-width="1.16883"/>
<rect x="776.584" y="520.376" width="88.8312" height="88.8312" stroke="#131313" stroke-width="1.16883"/>
<rect x="56.5844" y="610.376" width="88.8312" height="88.8312" stroke="#131313" stroke-width="1.16883"/>
<rect opacity="0.5" x="146" y="609.792" width="90" height="90" fill="#D9D9D9" fill-opacity="0.15"/>
<rect x="236.584" y="610.376" width="88.8312" height="88.8312" stroke="#131313" stroke-width="1.16883"/>
<rect x="326.584" y="610.376" width="88.8312" height="88.8312" stroke="#131313" stroke-width="1.16883"/>
<rect x="416.584" y="610.376" width="88.8312" height="88.8312" stroke="#131313" stroke-width="1.16883"/>
<rect x="506.584" y="610.376" width="88.8312" height="88.8312" stroke="#131313" stroke-width="1.16883"/>
<rect x="596.584" y="610.376" width="88.8312" height="88.8312" stroke="#131313" stroke-width="1.16883"/>
<rect x="686.584" y="610.376" width="88.8312" height="88.8312" stroke="#131313" stroke-width="1.16883"/>
<rect x="776.584" y="610.376" width="88.8312" height="88.8312" stroke="#131313" stroke-width="1.16883"/>
<rect x="56.5844" y="700.376" width="88.8312" height="88.8312" stroke="#131313" stroke-width="1.16883"/>
<rect x="146.584" y="700.376" width="88.8312" height="88.8312" stroke="#131313" stroke-width="1.16883"/>
<rect x="236.584" y="700.376" width="88.8312" height="88.8312" stroke="#131313" stroke-width="1.16883"/>
<rect x="326.584" y="700.376" width="88.8312" height="88.8312" stroke="#131313" stroke-width="1.16883"/>
<rect x="416.584" y="700.376" width="88.8312" height="88.8312" stroke="#131313" stroke-width="1.16883"/>
<rect x="506.584" y="700.376" width="88.8312" height="88.8312" stroke="#131313" stroke-width="1.16883"/>
<rect x="596.584" y="700.376" width="88.8312" height="88.8312" stroke="#131313" stroke-width="1.16883"/>
<rect x="686.584" y="700.376" width="88.8312" height="88.8312" stroke="#131313" stroke-width="1.16883"/>
<rect opacity="0.5" x="776" y="699.792" width="90" height="90" fill="white" fill-opacity="0.15"/>
<rect x="56.5844" y="790.376" width="88.8312" height="88.8312" stroke="#131313" stroke-width="1.16883"/>
<rect x="146.584" y="790.376" width="88.8312" height="88.8312" stroke="#131313" stroke-width="1.16883"/>
<rect opacity="0.5" x="236" y="789.792" width="90" height="90" fill="white" fill-opacity="0.15"/>
<rect x="326.584" y="790.376" width="88.8312" height="88.8312" stroke="#131313" stroke-width="1.16883"/>
<rect x="416.584" y="790.376" width="88.8312" height="88.8312" stroke="#131313" stroke-width="1.16883"/>
<rect x="506.584" y="790.376" width="88.8312" height="88.8312" stroke="#131313" stroke-width="1.16883"/>
<rect x="596.584" y="790.376" width="88.8312" height="88.8312" stroke="#131313" stroke-width="1.16883"/>
<rect x="686.584" y="790.376" width="88.8312" height="88.8312" stroke="#131313" stroke-width="1.16883"/>
<rect x="776.584" y="790.376" width="88.8312" height="88.8312" stroke="#131313" stroke-width="1.16883"/>
<rect opacity="0.5" x="866" y="339.792" width="90" height="90" fill="#D9D9D9" fill-opacity="0.2"/>
<rect x="866.584" y="430.376" width="88.8312" height="88.8312" stroke="#131313" stroke-width="1.16883"/>
<rect x="866.584" y="520.376" width="88.8312" height="88.8312" stroke="#131313" stroke-width="1.16883"/>
<rect x="866.584" y="610.376" width="88.8312" height="88.8312" stroke="#131313" stroke-width="1.16883"/>
<rect x="866.584" y="700.376" width="88.8312" height="88.8312" stroke="#131313" stroke-width="1.16883"/>
<rect x="866.584" y="790.376" width="88.8312" height="88.8312" stroke="#131313" stroke-width="1.16883"/>
<circle cx="866" cy="429.793" r="4.67532" fill="white" fill-opacity="0.49"/>
<circle cx="866" cy="519.793" r="4.67532" fill="white" fill-opacity="0.49"/>
<circle cx="866" cy="609.793" r="4.67532" fill="white" fill-opacity="0.49"/>
<circle cx="146" cy="429.793" r="4.67532" fill="white" fill-opacity="0.49"/>
<circle cx="146" cy="519.793" r="4.67532" fill="white" fill-opacity="0.49"/>
<circle cx="146" cy="609.793" r="4.67532" fill="white" fill-opacity="0.49"/>
<defs>
<filter id="filter0_f_4349_10" x="0.792206" y="0.792206" width="1053.12" height="1133.77" filterUnits="userSpaceOnUse" color-interpolation-filters="sRGB">
<feFlood flood-opacity="0" result="BackgroundImageFix"/>
<feBlend mode="normal" in="SourceGraphic" in2="BackgroundImageFix" result="shape"/>
<feGaussianBlur stdDeviation="146.104" result="effect1_foregroundBlur_4349_10"/>
</filter>
<linearGradient id="paint0_linear_4349_10" x1="527.351" y1="842.351" x2="527.351" y2="293" gradientUnits="userSpaceOnUse">
<stop stop-color="#7AE8FF"/>
<stop offset="0.51" stop-color="#108888"/>
<stop offset="1"/>
</linearGradient>
</defs>
</svg>
