<svg viewBox="56.58 293 899.42 586.79" fill="none" xmlns="http://www.w3.org/2000/svg">
<g opacity="0.5" filter="url(#filter0_f_4349_9)">
<path d="M602.156 293H426.247L293 842.351H761.701L602.156 293Z" fill="url(#paint0_linear_4349_9)"></path>
</g>
<rect x="56.5844" y="340.377" width="88.8312" height="88.8312" stroke="#131313" stroke-width="1.16883"></rect>
<rect x="146.584" y="340.377" width="88.8312" height="88.8312" stroke="#131313" stroke-width="1.16883"></rect>
<rect x="236.584" y="340.377" width="88.8312" height="88.8312" stroke="#131313" stroke-width="1.16883"></rect>
<rect x="326.584" y="340.377" width="88.8312" height="88.8312" stroke="#131313" stroke-width="1.16883"></rect>
<rect x="416.584" y="340.377" width="88.8312" height="88.8312" stroke="#131313" stroke-width="1.16883"></rect>
<rect x="506.584" y="340.377" width="88.8312" height="88.8312" stroke="#131313" stroke-width="1.16883"></rect>
<rect x="596.584" y="340.377" width="88.8312" height="88.8312" stroke="#131313" stroke-width="1.16883"></rect>
<rect x="686.584" y="340.377" width="88.8312" height="88.8312" stroke="#131313" stroke-width="1.16883"></rect>
<rect x="776.584" y="340.377" width="88.8312" height="88.8312" stroke="#131313" stroke-width="1.16883"></rect>
<rect x="56.5844" y="430.377" width="88.8312" height="88.8312" stroke="#131313" stroke-width="1.16883"></rect>
<rect x="146.584" y="430.377" width="88.8312" height="88.8312" stroke="#131313" stroke-width="1.16883"></rect>
<rect x="236.584" y="430.377" width="88.8312" height="88.8312" stroke="#131313" stroke-width="1.16883"></rect>
<rect x="326.584" y="430.377" width="88.8312" height="88.8312" stroke="#131313" stroke-width="1.16883"></rect>
<rect x="416.584" y="430.377" width="88.8312" height="88.8312" stroke="#131313" stroke-width="1.16883"></rect>
<rect x="506.584" y="430.377" width="88.8312" height="88.8312" stroke="#131313" stroke-width="1.16883"></rect>
<rect x="596.584" y="430.377" width="88.8312" height="88.8312" stroke="#131313" stroke-width="1.16883"></rect>
<rect x="686.584" y="430.377" width="88.8312" height="88.8312" stroke="#131313" stroke-width="1.16883"></rect>
<rect x="776.584" y="430.377" width="88.8312" height="88.8312" stroke="#131313" stroke-width="1.16883"></rect>
<rect x="56.5844" y="520.377" width="88.8312" height="88.8312" stroke="#131313" stroke-width="1.16883"></rect>
<rect x="146.584" y="520.377" width="88.8312" height="88.8312" stroke="#131313" stroke-width="1.16883"></rect>
<rect x="236.584" y="520.377" width="88.8312" height="88.8312" stroke="#131313" stroke-width="1.16883"></rect>
<rect x="326.584" y="520.377" width="88.8312" height="88.8312" stroke="#131313" stroke-width="1.16883"></rect>
<rect x="416.584" y="520.377" width="88.8312" height="88.8312" stroke="#131313" stroke-width="1.16883"></rect>
<rect x="506.584" y="520.377" width="88.8312" height="88.8312" stroke="#131313" stroke-width="1.16883"></rect>
<rect x="596.584" y="520.377" width="88.8312" height="88.8312" stroke="#131313" stroke-width="1.16883"></rect>
<rect x="686.584" y="520.377" width="88.8312" height="88.8312" stroke="#131313" stroke-width="1.16883"></rect>
<rect x="776.584" y="520.377" width="88.8312" height="88.8312" stroke="#131313" stroke-width="1.16883"></rect>
<rect x="56.5844" y="610.377" width="88.8312" height="88.8312" stroke="#131313" stroke-width="1.16883"></rect>
<rect opacity="0.5" x="146" y="609.792" width="90" height="90" fill="#D9D9D9" fill-opacity="0.15"></rect>
<rect x="236.584" y="610.377" width="88.8312" height="88.8312" stroke="#131313" stroke-width="1.16883"></rect>
<rect x="326.584" y="610.377" width="88.8312" height="88.8312" stroke="#131313" stroke-width="1.16883"></rect>
<rect x="416.584" y="610.377" width="88.8312" height="88.8312" stroke="#131313" stroke-width="1.16883"></rect>
<rect x="506.584" y="610.377" width="88.8312" height="88.8312" stroke="#131313" stroke-width="1.16883"></rect>
<rect x="596.584" y="610.377" width="88.8312" height="88.8312" stroke="#131313" stroke-width="1.16883"></rect>
<rect x="686.584" y="610.377" width="88.8312" height="88.8312" stroke="#131313" stroke-width="1.16883"></rect>
<rect x="776.584" y="610.377" width="88.8312" height="88.8312" stroke="#131313" stroke-width="1.16883"></rect>
<rect x="56.5844" y="700.377" width="88.8312" height="88.8312" stroke="#131313" stroke-width="1.16883"></rect>
<rect x="146.584" y="700.377" width="88.8312" height="88.8312" stroke="#131313" stroke-width="1.16883"></rect>
<rect x="236.584" y="700.377" width="88.8312" height="88.8312" stroke="#131313" stroke-width="1.16883"></rect>
<rect x="326.584" y="700.377" width="88.8312" height="88.8312" stroke="#131313" stroke-width="1.16883"></rect>
<rect x="416.584" y="700.377" width="88.8312" height="88.8312" stroke="#131313" stroke-width="1.16883"></rect>
<rect x="506.584" y="700.377" width="88.8312" height="88.8312" stroke="#131313" stroke-width="1.16883"></rect>
<rect x="596.584" y="700.377" width="88.8312" height="88.8312" stroke="#131313" stroke-width="1.16883"></rect>
<rect x="686.584" y="700.377" width="88.8312" height="88.8312" stroke="#131313" stroke-width="1.16883"></rect>
<rect opacity="0.5" x="776" y="699.792" width="90" height="90" fill="white" fill-opacity="0.15"></rect>
<rect x="56.5844" y="790.377" width="88.8312" height="88.8312" stroke="#131313" stroke-width="1.16883"></rect>
<rect x="146.584" y="790.377" width="88.8312" height="88.8312" stroke="#131313" stroke-width="1.16883"></rect>
<rect opacity="0.5" x="236" y="789.792" width="90" height="90" fill="white" fill-opacity="0.15"></rect>
<rect x="326.584" y="790.377" width="88.8312" height="88.8312" stroke="#131313" stroke-width="1.16883"></rect>
<rect x="416.584" y="790.377" width="88.8312" height="88.8312" stroke="#131313" stroke-width="1.16883"></rect>
<rect x="506.584" y="790.377" width="88.8312" height="88.8312" stroke="#131313" stroke-width="1.16883"></rect>
<rect x="596.584" y="790.377" width="88.8312" height="88.8312" stroke="#131313" stroke-width="1.16883"></rect>
<rect x="686.584" y="790.377" width="88.8312" height="88.8312" stroke="#131313" stroke-width="1.16883"></rect>
<rect x="776.584" y="790.377" width="88.8312" height="88.8312" stroke="#131313" stroke-width="1.16883"></rect>
<rect opacity="0.5" x="866" y="339.792" width="90" height="90" fill="#D9D9D9" fill-opacity="0.2"></rect>
<rect x="866.584" y="430.377" width="88.8312" height="88.8312" stroke="#131313" stroke-width="1.16883"></rect>
<rect x="866.584" y="520.377" width="88.8312" height="88.8312" stroke="#131313" stroke-width="1.16883"></rect>
<rect x="866.584" y="610.377" width="88.8312" height="88.8312" stroke="#131313" stroke-width="1.16883"></rect>
<rect x="866.584" y="700.377" width="88.8312" height="88.8312" stroke="#131313" stroke-width="1.16883"></rect>
<rect x="866.584" y="790.377" width="88.8312" height="88.8312" stroke="#131313" stroke-width="1.16883"></rect>
<circle cx="866" cy="429.792" r="4.67532" fill="white" fill-opacity="0.49"></circle>
<circle cx="866" cy="519.792" r="4.67532" fill="white" fill-opacity="0.49"></circle>
<circle cx="866" cy="609.792" r="4.67532" fill="white" fill-opacity="0.49"></circle>
<circle cx="146" cy="429.792" r="4.67532" fill="white" fill-opacity="0.49"></circle>
<circle cx="146" cy="519.792" r="4.67532" fill="white" fill-opacity="0.49"></circle>
<circle cx="146" cy="609.792" r="4.67532" fill="white" fill-opacity="0.49"></circle>
<defs>
<filter id="filter0_f_4349_9" x="0.792206" y="0.792206" width="1053.12" height="1133.77" filterUnits="userSpaceOnUse" color-interpolation-filters="sRGB">
<feFlood flood-opacity="0" result="BackgroundImageFix"></feFlood>
<feBlend mode="normal" in="SourceGraphic" in2="BackgroundImageFix" result="shape"></feBlend>
<feGaussianBlur stdDeviation="146.104" result="effect1_foregroundBlur_4349_9"></feGaussianBlur>
</filter>
<linearGradient id="paint0_linear_4349_9" x1="527.351" y1="842.351" x2="527.351" y2="293" gradientUnits="userSpaceOnUse">
<stop stop-color="#7AE8FF"></stop>
<stop offset="0.51" stop-color="#108888"></stop>
<stop offset="1"></stop>
</linearGradient>
</defs>
</svg>