<svg width="51" height="50" viewBox="0 0 51 50" fill="none" xmlns="http://www.w3.org/2000/svg">
<rect x="0.5" width="50" height="50" rx="25" fill="white"/>
<g clip-path="url(#clip0_4002_910)">
<path d="M20.0455 21.3635C21.0497 21.3635 21.8637 20.5494 21.8637 19.5453C21.8637 18.5411 21.0497 17.7271 20.0455 17.7271C19.0413 17.7271 18.2273 18.5411 18.2273 19.5453C18.2273 20.5494 19.0413 21.3635 20.0455 21.3635Z" fill="black"/>
<path d="M18.2273 22.2729H21.8636V32.2729H18.2273V22.2729Z" fill="black"/>
<path d="M25.5 5C14.4543 5 5.5 13.9543 5.5 25C5.5 36.0457 14.4543 45 25.5 45C36.5457 45 45.5 36.0457 45.5 25C45.5 13.9543 36.5457 5 25.5 5ZM25.5 43.1818C15.4584 43.1818 7.3182 35.0416 7.3182 25C7.3182 14.9584 15.4584 6.8182 25.5 6.8182C35.5416 6.8182 43.6818 14.9584 43.6818 25C43.6818 35.0416 35.5416 43.1818 25.5 43.1818Z" fill="black"/>
<path d="M30.3727 22.2729C27.6455 22.2729 27.3182 23.8912 27.3182 23.8912V22.2729H23.6819V32.2729H27.3182V26.8184C27.3182 26.8184 27.3182 25.0002 28.8637 25.0002C29.7727 25.0002 30.0455 25.8093 30.0455 26.8184V32.2729H33.6818V26.8184C33.6818 23.9729 32.4455 22.2729 30.3727 22.2729Z" fill="black"/>
</g>
<defs>
<clipPath id="clip0_4002_910">
<rect width="40" height="40" fill="white" transform="translate(5.5 5)"/>
</clipPath>
</defs>
</svg>
