<svg width="95" height="75" viewBox="0 0 95 75" fill="none" xmlns="http://www.w3.org/2000/svg">
<mask id="mask0_4049_2615" style="mask-type:luminance" maskUnits="userSpaceOnUse" x="0" y="61" width="7" height="8">
<path d="M6.3161 68.4156H0V61.6136H6.3161V68.4156Z" fill="white"/>
</mask>
<g mask="url(#mask0_4049_2615)">
<path d="M2.50941 61.6136L2.57674 61.8156L5.05847 68.3471H6.07818V68.2701L3.47133 61.6136H2.50941ZM2.50941 61.6136L-0.0974121 68.2701V68.3471H0.92223L3.40399 61.8156L3.47133 61.6136H2.50941Z" fill="white"/>
</g>
<mask id="mask1_4049_2615" style="mask-type:luminance" maskUnits="userSpaceOnUse" x="7" y="61" width="2" height="8">
<path d="M8.45389 61.6136H7.38501V68.4156H8.45389V61.6136Z" fill="white"/>
</mask>
<g mask="url(#mask1_4049_2615)">
<path d="M7.43604 68.4156V61.6821H8.39803V68.4156H7.43604Z" fill="white"/>
</g>
<path d="M35.0619 61.7108L35.1292 61.9128L37.611 68.4443H38.6307V68.3673L36.0239 61.7108H35.0619ZM35.0619 61.7108L32.4551 68.3673V68.4443H33.4747L35.9565 61.9128L36.0239 61.7108H35.0619Z" fill="white"/>
<path d="M18.9482 68.4443V61.7108H19.9101V68.4443H18.9482Z" fill="white"/>
<mask id="mask2_4049_2615" style="mask-type:luminance" maskUnits="userSpaceOnUse" x="11" y="61" width="7" height="8">
<path d="M17.8796 61.6136H11.5635V68.4156H17.8796V61.6136Z" fill="white"/>
</mask>
<g mask="url(#mask2_4049_2615)">
<path d="M14.2367 68.4156L14.304 68.2136L16.7858 61.6821H17.8054V61.7591L15.1986 68.4156H14.2367ZM14.2367 68.4156L11.6299 61.7591V61.6821H12.6495L15.1312 68.2136L15.1986 68.4156H14.2367Z" fill="white"/>
</g>
<mask id="mask3_4049_2615" style="mask-type:luminance" maskUnits="userSpaceOnUse" x="20" y="61" width="7" height="8">
<path d="M26.236 61.5164H20.9888V68.6099H26.236V61.5164Z" fill="white"/>
</mask>
<g mask="url(#mask3_4049_2615)">
<path d="M23.7465 68.5502C23.2847 68.5502 22.8679 68.4669 22.4959 68.3001C22.124 68.1334 21.813 67.8993 21.5629 67.598C21.3192 67.2965 21.1556 66.9438 21.0723 66.5398L21.9477 66.3186L22.0535 66.3378C22.1369 66.5879 22.2587 66.8123 22.419 67.0111C22.5857 67.2035 22.7845 67.3575 23.0154 67.4729C23.2463 67.5819 23.4964 67.6364 23.7656 67.6364C24.0414 67.6364 24.2819 67.5915 24.4871 67.5018C24.6988 67.412 24.8655 67.2901 24.9874 67.1362C25.1092 66.9759 25.1701 66.7931 25.1701 66.5879C25.1701 66.3186 25.0932 66.1102 24.9393 65.9627C24.7854 65.8152 24.5609 65.7029 24.2659 65.626L23.0154 65.2797C22.4638 65.1322 22.0439 64.895 21.7553 64.5679C21.4667 64.2344 21.3224 63.8496 21.3224 63.4136C21.3224 63.048 21.4154 62.7274 21.6014 62.4516C21.7938 62.1694 22.0599 61.9483 22.3997 61.7879C22.7396 61.6276 23.1308 61.5474 23.5733 61.5474C24.0029 61.5474 24.3877 61.6276 24.7276 61.7879C25.0739 61.9418 25.3592 62.1598 25.5837 62.442C25.8146 62.7242 25.9653 63.0609 26.0358 63.4521L25.1893 63.6348L25.0836 63.6155C25.0002 63.2565 24.8238 62.9743 24.5545 62.7691C24.2851 62.5638 23.9548 62.4612 23.5637 62.4612C23.1918 62.4612 22.8935 62.551 22.6691 62.7306C22.4446 62.9037 22.3325 63.1314 22.3325 63.4136C22.3325 63.6508 22.4125 63.8464 22.5729 64.0003C22.7396 64.1542 22.9769 64.2761 23.2847 64.3659L24.5352 64.7026C25.0675 64.8437 25.4747 65.0712 25.7569 65.3855C26.0455 65.6997 26.1898 66.0845 26.1898 66.5398C26.1898 66.9438 26.0871 67.2965 25.8819 67.598C25.6767 67.8993 25.3913 68.1334 25.0258 68.3001C24.6603 68.4669 24.2338 68.5502 23.7465 68.5502Z" fill="white"/>
</g>
<mask id="mask4_4049_2615" style="mask-type:luminance" maskUnits="userSpaceOnUse" x="27" y="61" width="6" height="8">
<path d="M32.455 61.6136H27.3049V68.4156H32.455V61.6136Z" fill="white"/>
</mask>
<g mask="url(#mask4_4049_2615)">
<path d="M29.381 68.4156V61.6821H30.3429V68.4156H29.381ZM27.332 62.6055V61.6821H32.3918V62.6055H27.332Z" fill="white"/>
</g>
<mask id="mask5_4049_2615" style="mask-type:luminance" maskUnits="userSpaceOnUse" x="41" y="61" width="7" height="8">
<path d="M47.0307 61.5164H41.7834V68.6099H47.0307V61.5164Z" fill="white"/>
</mask>
<g mask="url(#mask5_4049_2615)">
<path d="M44.5412 68.5502C44.0794 68.5502 43.6626 68.4669 43.2906 68.3001C42.9187 68.1334 42.6077 67.8993 42.3576 67.598C42.1139 67.2965 41.9503 66.9438 41.8669 66.5398L42.7424 66.3186L42.8482 66.3378C42.9315 66.5879 43.0534 66.8123 43.2136 67.0111C43.3804 67.2035 43.5792 67.3575 43.8101 67.4729C44.0409 67.5819 44.2911 67.6364 44.5603 67.6364C44.8361 67.6364 45.0766 67.5915 45.2818 67.5018C45.4935 67.412 45.6602 67.2901 45.7821 67.1362C45.9039 66.9759 45.9648 66.7931 45.9648 66.5879C45.9648 66.3186 45.8879 66.1102 45.734 65.9627C45.58 65.8152 45.3556 65.7029 45.0606 65.626L43.8101 65.2797C43.2585 65.1322 42.8386 64.895 42.55 64.5679C42.2614 64.2344 42.1171 63.8496 42.1171 63.4136C42.1171 63.048 42.2101 62.7274 42.396 62.4516C42.5884 62.1694 42.8546 61.9483 43.1944 61.7879C43.5343 61.6276 43.9255 61.5474 44.368 61.5474C44.7976 61.5474 45.1824 61.6276 45.5223 61.7879C45.8686 61.9418 46.1539 62.1598 46.3784 62.442C46.6093 62.7242 46.76 63.0609 46.8305 63.4521L45.984 63.6348L45.8782 63.6155C45.7949 63.2565 45.6185 62.9743 45.3492 62.7691C45.0798 62.5638 44.7495 62.4612 44.3584 62.4612C43.9864 62.4612 43.6882 62.551 43.4637 62.7306C43.2393 62.9037 43.1271 63.1314 43.1271 63.4136C43.1271 63.6508 43.2072 63.8464 43.3676 64.0003C43.5343 64.1542 43.7716 64.2761 44.0794 64.3659L45.3299 64.7026C45.8622 64.8437 46.2694 65.0712 46.5515 65.3855C46.8401 65.6997 46.9844 66.0845 46.9844 66.5398C46.9844 66.9438 46.8818 67.2965 46.6766 67.598C46.4714 67.8993 46.186 68.1334 45.8205 68.3001C45.455 68.4669 45.0285 68.5502 44.5412 68.5502Z" fill="#00A8A8"/>
</g>
<mask id="mask6_4049_2615" style="mask-type:luminance" maskUnits="userSpaceOnUse" x="48" y="61" width="7" height="8">
<path d="M54.61 61.5164H48.0996V68.6099H54.61V61.5164Z" fill="white"/>
</mask>
<g mask="url(#mask6_4049_2615)">
<path d="M51.3661 68.5502C50.7441 68.5502 50.1893 68.4059 49.702 68.1173C49.2146 67.8223 48.833 67.412 48.5573 66.8861C48.288 66.3602 48.1533 65.7478 48.1533 65.0488C48.1533 64.3498 48.288 63.7374 48.5573 63.2116C48.833 62.6857 49.2146 62.2784 49.702 61.9899C50.1893 61.6949 50.7441 61.5474 51.3661 61.5474C51.9946 61.5474 52.5493 61.6949 53.0302 61.9899C53.5176 62.2784 53.896 62.6857 54.1653 63.2116C54.441 63.7374 54.5789 64.3498 54.5789 65.0488C54.5789 65.7478 54.441 66.3602 54.1653 66.8861C53.896 67.412 53.5176 67.8223 53.0302 68.1173C52.5493 68.4059 51.9946 68.5502 51.3661 68.5502ZM51.3661 67.6268C51.7958 67.6268 52.1806 67.521 52.5205 67.3094C52.8603 67.0977 53.1264 66.7995 53.3188 66.4147C53.5112 66.0236 53.6074 65.5683 53.6074 65.0488C53.6074 64.523 53.5112 64.0676 53.3188 63.6828C53.1264 63.2982 52.8603 62.9999 52.5205 62.7883C52.1806 62.5767 51.7958 62.4708 51.3661 62.4708C50.9365 62.4708 50.5517 62.5767 50.2118 62.7883C49.8783 62.9999 49.6122 63.2982 49.4134 63.6828C49.221 64.0676 49.1248 64.523 49.1248 65.0488C49.1248 65.5683 49.221 66.0236 49.4134 66.4147C49.6122 66.7995 49.8783 67.0977 50.2118 67.3094C50.5517 67.521 50.9365 67.6268 51.3661 67.6268Z" fill="#00A8A8"/>
</g>
<mask id="mask7_4049_2615" style="mask-type:luminance" maskUnits="userSpaceOnUse" x="55" y="61" width="6" height="8">
<path d="M60.0514 61.7108H55.6787V68.5128H60.0514V61.7108Z" fill="white"/>
</mask>
<g mask="url(#mask7_4049_2615)">
<path d="M55.7297 68.5128V61.7793H56.6917V68.5128H55.7297ZM56.2204 68.5128V67.5894H60.0103V68.5128H56.2204Z" fill="#00A8A8"/>
</g>
<mask id="mask8_4049_2615" style="mask-type:luminance" maskUnits="userSpaceOnUse" x="61" y="61" width="6" height="8">
<path d="M66.2704 61.6136H61.1204V68.6099H66.2704V61.6136Z" fill="white"/>
</mask>
<g mask="url(#mask8_4049_2615)">
<path d="M63.6928 68.5502C63.1735 68.5502 62.7245 68.4476 62.3461 68.2424C61.9679 68.0308 61.6761 67.7327 61.4708 67.3479C61.272 66.9567 61.1726 66.4917 61.1726 65.9531V61.6821H62.1346V65.9723C62.1346 66.5045 62.266 66.915 62.5289 67.2036C62.7983 67.4857 63.1863 67.6268 63.6928 67.6268C64.1995 67.6268 64.5843 67.4857 64.8472 67.2036C65.1165 66.915 65.2512 66.5045 65.2512 65.9723V61.6821H66.2228V65.9531C66.2228 66.4917 66.1202 66.9567 65.9149 67.3479C65.7097 67.7327 65.4179 68.0308 65.0395 68.2424C64.6612 68.4476 64.2123 68.5502 63.6928 68.5502Z" fill="#00A8A8"/>
</g>
<mask id="mask9_4049_2615" style="mask-type:luminance" maskUnits="userSpaceOnUse" x="67" y="61" width="6" height="8">
<path d="M72.4894 61.7108H67.3394V68.5128H72.4894V61.7108Z" fill="white"/>
</mask>
<g mask="url(#mask9_4049_2615)">
<path d="M69.4149 68.5128V61.7793H70.3768V68.5128H69.4149ZM67.366 62.7027V61.7793H72.4257V62.7027H67.366Z" fill="#00A8A8"/>
</g>
<mask id="mask10_4049_2615" style="mask-type:luminance" maskUnits="userSpaceOnUse" x="73" y="61" width="2" height="8">
<path d="M74.627 61.7108H73.5581V68.5128H74.627V61.7108Z" fill="white"/>
</mask>
<g mask="url(#mask10_4049_2615)">
<path d="M73.6091 68.5128V61.7793H74.5711V68.5128H73.6091Z" fill="#00A8A8"/>
</g>
<mask id="mask11_4049_2615" style="mask-type:luminance" maskUnits="userSpaceOnUse" x="75" y="61" width="8" height="8">
<path d="M82.2065 61.5164H75.696V68.6099H82.2065V61.5164Z" fill="white"/>
</mask>
<g mask="url(#mask11_4049_2615)">
<path d="M78.9625 68.5502C78.3405 68.5502 77.7858 68.4059 77.2985 68.1173C76.8111 67.8223 76.4295 67.412 76.1537 66.8861C75.8844 66.3602 75.7498 65.7478 75.7498 65.0488C75.7498 64.3498 75.8844 63.7374 76.1537 63.2116C76.4295 62.6857 76.8111 62.2784 77.2985 61.9899C77.7858 61.6949 78.3405 61.5474 78.9625 61.5474C79.591 61.5474 80.1458 61.6949 80.6267 61.9899C81.1141 62.2784 81.4924 62.6857 81.7617 63.2116C82.0375 63.7374 82.1754 64.3498 82.1754 65.0488C82.1754 65.7478 82.0375 66.3602 81.7617 66.8861C81.4924 67.412 81.1141 67.8223 80.6267 68.1173C80.1458 68.4059 79.591 68.5502 78.9625 68.5502ZM78.9625 67.6268C79.3922 67.6268 79.777 67.521 80.1169 67.3094C80.4567 67.0977 80.7229 66.7995 80.9153 66.4147C81.1077 66.0236 81.2039 65.5683 81.2039 65.0488C81.2039 64.523 81.1077 64.0676 80.9153 63.6828C80.7229 63.2982 80.4567 62.9999 80.1169 62.7883C79.777 62.5767 79.3922 62.4708 78.9625 62.4708C78.5329 62.4708 78.1481 62.5767 77.8082 62.7883C77.4747 62.9999 77.2087 63.2982 77.0099 63.6828C76.8175 64.0676 76.7213 64.523 76.7213 65.0488C76.7213 65.5683 76.8175 66.0236 77.0099 66.4147C77.2087 66.7995 77.4747 67.0977 77.8082 67.3094C78.1481 67.521 78.5329 67.6268 78.9625 67.6268Z" fill="#00A8A8"/>
</g>
<mask id="mask12_4049_2615" style="mask-type:luminance" maskUnits="userSpaceOnUse" x="83" y="61" width="6" height="8">
<path d="M88.717 61.7108H83.2754V68.5128H88.717V61.7108Z" fill="white"/>
</mask>
<g mask="url(#mask12_4049_2615)">
<path d="M87.732 68.5128L83.3264 62.0391V61.7793H84.2884L88.7037 68.253V68.5128H87.732ZM83.3264 68.5128V61.7793H84.2884V68.5128H83.3264ZM87.732 68.5128V61.7793H88.7037V68.5128H87.732Z" fill="#00A8A8"/>
</g>
<path d="M92.557 68.5503C92.0954 68.5503 91.6785 68.4669 91.3065 68.3001C90.9345 68.1334 90.6234 67.8993 90.3734 67.598C90.1297 67.2966 89.9662 66.9438 89.8828 66.5398L90.7581 66.3186L90.8639 66.3379C90.9473 66.5879 91.0692 66.8124 91.2295 67.0112C91.3962 67.2036 91.595 67.3575 91.8262 67.4729C92.0565 67.582 92.3072 67.6365 92.5764 67.6365C92.8523 67.6365 93.0924 67.5916 93.2974 67.5018C93.5092 67.412 93.6764 67.2901 93.7978 67.1362C93.9193 66.9759 93.9805 66.7931 93.9805 66.5879C93.9805 66.3186 93.9037 66.1102 93.7502 65.9627C93.5957 65.8152 93.3712 65.703 93.0768 65.626L91.8262 65.2797C91.2744 65.1322 90.8543 64.895 90.5658 64.5679C90.2772 64.2344 90.1329 63.8496 90.1329 63.4136C90.1329 63.0481 90.2259 62.7274 90.4119 62.4516C90.6042 62.1694 90.8704 61.9483 91.2103 61.788C91.5503 61.6276 91.9409 61.5475 92.384 61.5475C92.8135 61.5475 93.1983 61.6276 93.5384 61.788C93.8843 61.9419 94.17 62.1598 94.3945 62.442C94.6247 62.7242 94.7754 63.0609 94.8463 63.4521L93.9999 63.6348L93.894 63.6155C93.8105 63.2565 93.6346 62.9743 93.3654 62.7691C93.0953 62.5639 92.7649 62.4613 92.3743 62.4613C92.0021 62.4613 91.7038 62.551 91.4793 62.7306C91.2552 62.9038 91.1429 63.1314 91.1429 63.4136C91.1429 63.6508 91.2231 63.8464 91.3834 64.0003C91.5503 64.1543 91.7874 64.2761 92.0954 64.3659L93.346 64.7026C93.8785 64.8437 94.2856 65.0713 94.5674 65.3855C94.856 65.6998 94.9998 66.0846 94.9998 66.5398C94.9998 66.9438 94.8978 67.2966 94.6928 67.598C94.4868 67.8993 94.202 68.1334 93.8367 68.3001C93.4703 68.4669 93.0447 68.5503 92.557 68.5503Z" fill="#00A8A8"/>
<path d="M12.4246 72.9317H12.0552C12.0245 72.4699 11.8012 72.4045 11.3626 72.4045C11.0355 72.4045 10.7584 72.4353 10.7584 72.8509C10.7584 73.0895 10.8816 73.1472 11.0931 73.2011L11.8436 73.3858C12.29 73.4935 12.4978 73.709 12.4978 74.1284C12.4978 74.7715 12.0206 74.9556 11.4202 74.9556C10.7776 74.9556 10.3081 74.7438 10.2966 74.0053H10.666C10.6853 74.5328 10.9546 74.6245 11.451 74.6245C11.8667 74.6245 12.1283 74.5631 12.1283 74.1323C12.1283 73.9092 12.0629 73.8129 11.6627 73.7167L10.9777 73.5513C10.5891 73.455 10.389 73.2703 10.389 72.8624C10.389 72.4006 10.6468 72.0735 11.3857 72.0735C12.2476 72.0735 12.4131 72.5161 12.4246 72.9317ZM13.3328 74.8942H12.9634V72.1352H13.5213L14.2948 73.6667L15.0722 72.1352H15.6031V74.8942H15.2338V72.5815L14.4603 74.0823H14.1063L13.3328 72.57V74.8942ZM16.9193 73.7552H17.6428C17.4965 73.3357 17.3349 72.924 17.1618 72.5045C16.8193 73.2704 16.5268 74.0631 16.3036 74.8942H15.9187C16.2074 73.9707 16.5537 73.051 16.9655 72.1352H17.3772C17.7851 73.0548 18.1315 73.9745 18.4201 74.8942H18.0121C17.9314 74.6245 17.8467 74.3517 17.7543 74.0785H16.8193L16.9193 73.7552ZM19.1396 72.4584V74.8942H18.7702V72.1352H19.8554C20.4595 72.1352 20.9637 72.2005 20.9637 72.8932C20.9637 73.455 20.7059 73.6359 20.2864 73.6859L21.1291 74.8942H20.6712L19.8515 73.709H19.409V73.3858H19.9901C20.4057 73.3858 20.5827 73.3203 20.5827 72.8971C20.5827 72.5045 20.3672 72.4584 19.9978 72.4584H19.1396ZM22.5151 74.8942H22.1456V72.7354H22.5151V74.8942ZM21.2183 72.4661V72.1352H23.4425V72.4661H21.2183ZM26.8891 72.9317H26.5196C26.4888 72.4699 26.2656 72.4045 25.8269 72.4045C25.4998 72.4045 25.2228 72.4353 25.2228 72.8509C25.2228 73.0895 25.3459 73.1472 25.5576 73.2011L26.308 73.3858C26.7543 73.4935 26.9622 73.709 26.9622 74.1284C26.9622 74.7715 26.485 74.9556 25.8847 74.9556C25.2421 74.9556 24.7726 74.7438 24.761 74.0053H25.1304C25.1496 74.5328 25.4191 74.6245 25.9155 74.6245C26.3311 74.6245 26.5927 74.5631 26.5927 74.1323C26.5927 73.9092 26.5273 73.8129 26.1271 73.7167L25.4422 73.5513C25.0535 73.455 24.8534 73.2703 24.8534 72.8624C24.8534 72.4006 25.1112 72.0735 25.85 72.0735C26.7121 72.0735 26.8775 72.5161 26.8891 72.9317ZM29.5981 73.5166C29.5981 72.7354 29.3249 72.4006 28.6438 72.4006C27.955 72.4006 27.6895 72.7431 27.6895 73.5128C27.6895 74.2747 27.9473 74.6288 28.6438 74.6288C29.3364 74.6288 29.5981 74.2824 29.5981 73.5166ZM29.9791 73.5128C29.9791 74.3093 29.6828 74.96 28.6438 74.96C27.5855 74.96 27.3085 74.2824 27.3085 73.5089C27.3085 72.7162 27.6009 72.0697 28.64 72.0697C29.6982 72.0697 29.9791 72.7393 29.9791 73.5128ZM32.1892 74.8942H30.4306V72.1352H30.7999V74.5631H32.1892V74.8942ZM34.2311 73.8283V72.1352H34.6005V73.7398C34.6005 74.5129 34.435 74.9556 33.4923 74.9556C32.6264 74.9556 32.4301 74.583 32.4301 73.7667V72.1352H32.7996V73.7475C32.7996 74.3286 32.8535 74.6245 33.5269 74.6245C33.9848 74.6245 34.2311 74.4905 34.2311 73.8283ZM36.2617 74.8942H35.8923V72.7354H36.2617V74.8942ZM34.9649 72.4661V72.1352H37.1891V72.4661H34.9649ZM37.9754 74.8942H37.6059V72.1352H37.9754V74.8942ZM40.7781 73.5166C40.7781 72.7354 40.5048 72.4006 39.8238 72.4006C39.1349 72.4006 38.8694 72.7431 38.8694 73.5128C38.8694 74.2747 39.1272 74.6288 39.8238 74.6288C40.5164 74.6288 40.7781 74.2824 40.7781 73.5166ZM41.159 73.5128C41.159 74.3093 40.8627 74.96 39.8238 74.96C38.7655 74.96 38.4884 74.2824 38.4884 73.5089C38.4884 72.7162 38.7809 72.0697 39.8199 72.0697C40.8781 72.0697 41.159 72.7393 41.159 73.5128ZM41.9876 74.8942H41.6182V72.1352H42.0454L43.4307 74.3247V72.1352H43.8001V74.8942H43.3845L41.9876 72.7085V74.8942ZM46.408 72.9317H46.0385C46.0077 72.4699 45.7846 72.4045 45.3458 72.4045C45.0187 72.4045 44.7417 72.4353 44.7417 72.8509C44.7417 73.0895 44.8648 73.1472 45.0765 73.2011L45.8268 73.3858C46.2733 73.4935 46.481 73.709 46.481 74.1284C46.481 74.7715 46.0038 74.9556 45.4036 74.9556C44.7609 74.9556 44.2915 74.7438 44.2799 74.0053H44.6494C44.6685 74.5328 44.9379 74.6245 45.4344 74.6245C45.8499 74.6245 46.1116 74.5631 46.1116 74.1323C46.1116 73.9092 46.0462 73.8129 45.646 73.7167L44.961 73.5513C44.5723 73.455 44.3722 73.2703 44.3722 72.8624C44.3722 72.4006 44.6301 72.0735 45.3689 72.0735C46.2309 72.0735 46.3964 72.5161 46.408 72.9317ZM48.8643 74.0246H47.8869V73.6821H48.8643V74.0246ZM52.3982 72.9317H52.0287C51.9979 72.4699 51.7747 72.4045 51.336 72.4045C51.0089 72.4045 50.7319 72.4353 50.7319 72.8509C50.7319 73.0895 50.855 73.1472 51.0667 73.2011L51.817 73.3858C52.2634 73.4935 52.4712 73.709 52.4712 74.1284C52.4712 74.7715 51.994 74.9556 51.3938 74.9556C50.7511 74.9556 50.2817 74.7438 50.2701 74.0053H50.6395C50.6587 74.5328 50.9281 74.6245 51.4246 74.6245C51.8401 74.6245 52.1018 74.5631 52.1018 74.1323C52.1018 73.9092 52.0364 73.8129 51.6361 73.7167L50.9512 73.5513C50.5625 73.455 50.3624 73.2703 50.3624 72.8624C50.3624 72.4006 50.6203 72.0735 51.3591 72.0735C52.2211 72.0735 52.3866 72.5161 52.3982 72.9317ZM53.3063 74.8942H52.9368V72.1352H53.4948L54.2683 73.6667L55.0456 72.1352H55.5767V74.8942H55.2072V72.5815L54.4338 74.0823H54.0797L53.3063 72.57V74.8942ZM56.8928 73.7552H57.6162C57.47 73.3357 57.3084 72.924 57.1352 72.5045C56.7927 73.2704 56.5002 74.0631 56.2771 74.8942H55.8922C56.1808 73.9707 56.5272 73.051 56.9389 72.1352H57.3507C57.7586 73.0548 58.1049 73.9745 58.3935 74.8942H57.9856C57.9048 74.6245 57.8202 74.3517 57.7279 74.0785H56.7927L56.8928 73.7552ZM59.1131 72.4584V74.8942H58.7437V72.1352H59.8289C60.4331 72.1352 60.9372 72.2005 60.9372 72.8932C60.9372 73.455 60.6793 73.6359 60.2599 73.6859L61.1027 74.8942H60.6447L59.8251 73.709H59.3825V73.3858H59.9636C60.3792 73.3858 60.5562 73.3203 60.5562 72.8971C60.5562 72.5045 60.3406 72.4584 59.9713 72.4584H59.1131ZM62.4885 74.8942H62.1191V72.7354H62.4885V74.8942ZM61.1917 72.4661V72.1352H63.4159V72.4661H61.1917ZM64.4408 73.6359V73.3126H65.6876V73.6359H64.4408ZM64.1715 72.4584V74.5709H65.8454V74.8942H63.802V72.1352H65.8069V72.4584H64.1715ZM66.7343 72.4584V74.8942H66.3648V72.1352H67.45C68.0542 72.1352 68.5583 72.2005 68.5583 72.8932C68.5583 73.455 68.3005 73.6359 67.8811 73.6859L68.7238 74.8942H68.2658L67.4461 73.709H67.0036V73.3858H67.5847C68.0003 73.3858 68.1774 73.3203 68.1774 72.8971C68.1774 72.5045 67.9618 72.4584 67.5924 72.4584H66.7343ZM70.5863 74.8942H70.2168V72.1352H72.114V72.4584H70.5863V74.8942ZM71.9216 73.6359H70.8556V73.3126H71.9216V73.6359ZM74.3549 73.8283V72.1352H74.7243V73.7398C74.7243 74.5129 74.5588 74.9556 73.616 74.9556C72.7502 74.9556 72.554 74.583 72.554 73.7667V72.1352H72.9233V73.7475C72.9233 74.3286 72.9772 74.6245 73.6507 74.6245C74.1086 74.6245 74.3549 74.4905 74.3549 73.8283ZM76.3855 74.8942H76.016V72.7354H76.3855V74.8942ZM75.0887 72.4661V72.1352H77.3129V72.4661H75.0887ZM79.4846 73.8283V72.1352H79.8539V73.7398C79.8539 74.5129 79.6884 74.9556 78.7456 74.9556C77.8799 74.9556 77.6836 74.583 77.6836 73.7667V72.1352H78.053V73.7475C78.053 74.3286 78.1069 74.6245 78.7803 74.6245C79.2382 74.6245 79.4846 74.4905 79.4846 73.8283ZM80.8417 72.4584V74.8942H80.4722V72.1352H81.5575C82.1616 72.1352 82.6657 72.2005 82.6657 72.8932C82.6657 73.455 82.4078 73.6359 81.9884 73.6859L82.8312 74.8942H82.3733L81.5536 73.709H81.111V73.3858H81.6921C82.1077 73.3858 82.2847 73.3203 82.2847 72.8971C82.2847 72.5045 82.0692 72.4584 81.6998 72.4584H80.8417ZM83.892 73.6359V73.3126H85.1388V73.6359H83.892ZM83.6227 72.4584V74.5709H85.2966V74.8942H83.2532V72.1352H85.2582V72.4584H83.6227Z" fill="white"/>
<path d="M5.01362 73.4179C5.02187 73.4249 5.14326 73.4696 5.28232 73.5179C5.42138 73.5673 5.58874 73.6339 5.65355 73.666C5.88926 73.7843 6.11671 73.9818 6.26521 74.1999C6.36538 74.3457 6.4078 74.4349 6.51741 74.7308C6.60933 74.978 6.62937 75.0126 6.66944 74.9879C6.6824 74.9797 6.72719 74.875 6.7814 74.7308C6.891 74.4349 6.93343 74.3457 7.0336 74.1999C7.18209 73.9818 7.40955 73.7843 7.64526 73.666C7.71008 73.6339 7.87743 73.5673 8.01649 73.519C8.15555 73.4696 8.27695 73.4226 8.28637 73.4146C8.2958 73.4065 8.29934 73.3893 8.29462 73.372C8.28873 73.348 8.25927 73.3342 8.04949 73.2618C7.9175 73.2159 7.76075 73.155 7.69947 73.1275C7.36595 72.9748 7.09371 72.7153 6.92636 72.3904C6.89807 72.3352 6.84032 72.1974 6.79907 72.0838C6.68005 71.7623 6.68712 71.7773 6.64587 71.7818C6.61169 71.7852 6.60933 71.7887 6.51388 72.0436C6.46084 72.186 6.39485 72.3468 6.36656 72.3995C6.19921 72.721 5.93051 72.9759 5.59935 73.1275C5.53806 73.155 5.3825 73.2148 5.25285 73.2607C5.12322 73.3054 5.01362 73.3491 5.00891 73.356C4.99476 73.3766 4.9983 73.4053 5.01362 73.4179Z" fill="white"/>
<path d="M87.3103 73.4179C87.3185 73.4249 87.4399 73.4696 87.5794 73.5179C87.7178 73.5673 87.8851 73.6339 87.9502 73.666C88.1859 73.7843 88.4134 73.9818 88.5618 74.1999C88.6623 74.3457 88.7044 74.4349 88.814 74.7308C88.9063 74.978 88.9261 75.0126 88.9664 74.9879C88.9788 74.9797 89.0241 74.875 89.0777 74.7308C89.1873 74.4349 89.2302 74.3457 89.3299 74.1999C89.4791 73.9818 89.7065 73.7843 89.9423 73.666C90.0065 73.6339 90.1739 73.5673 90.3131 73.519C90.4524 73.4696 90.5736 73.4226 90.5826 73.4146C90.5925 73.4065 90.5958 73.3893 90.5909 73.372C90.5851 73.348 90.5563 73.3342 90.3461 73.2618C90.2142 73.2159 90.0577 73.155 89.9958 73.1275C89.6629 72.9748 89.3901 72.7153 89.2228 72.3904C89.1947 72.3352 89.137 72.1974 89.0958 72.0838C88.9763 71.7623 88.9837 71.7773 88.9425 71.7818C88.9087 71.7852 88.9063 71.7887 88.8107 72.0436C88.7571 72.186 88.6912 72.3468 88.6631 72.3995C88.4958 72.721 88.2272 72.9759 87.8958 73.1275C87.8348 73.155 87.6791 73.2148 87.5497 73.2607C87.4199 73.3054 87.3103 73.3491 87.3056 73.356C87.2914 73.3766 87.2949 73.4053 87.3103 73.4179Z" fill="#00A8A8"/>
<path d="M47.7637 57.5275C63.6495 57.5275 76.5275 44.6495 76.5275 28.7637C76.5275 12.878 63.6495 0 47.7637 0C31.878 0 19 12.878 19 28.7637C19 44.6495 31.878 57.5275 47.7637 57.5275Z" fill="#00A8A8"/>
<path d="M29.0643 42.6923H25L34.9448 29.0284L44.8895 42.6923H33.2152L36.0689 38.7142H37.7985L34.9448 34.7361L29.0643 42.6923Z" fill="white"/>
<path d="M48.6944 42.6923L36.8472 26.3475L38.9226 23.4936L52.8452 42.6923H48.6944Z" fill="white"/>
<path d="M56.5637 42.6923L40.9116 20.8992L42.8141 18.1319L58.7257 39.8384L66.5085 29.0284H70.6593L60.801 42.6923H56.5637Z" fill="white"/>
<path d="M55.1078 18.1495C55.1233 18.1628 55.3509 18.2489 55.6116 18.3416C55.8724 18.4366 56.1862 18.5647 56.3077 18.6265C56.7497 18.8539 57.1761 19.2337 57.4546 19.6532C57.6423 19.9337 57.7219 20.1059 57.9274 20.6734C58.0997 21.1503 58.1373 21.2165 58.2125 21.168C58.2368 21.1525 58.3208 20.9516 58.4224 20.6734C58.6279 20.1059 58.7075 19.9337 58.8953 19.6532C59.1737 19.2337 59.6002 18.8539 60.0422 18.6265C60.1636 18.5647 60.4774 18.4366 60.7382 18.3439C60.9989 18.2489 61.2266 18.1584 61.2442 18.1429C61.2619 18.1275 61.2685 18.0944 61.2597 18.0612C61.2487 18.0148 61.1934 17.9884 60.8001 17.8493C60.5526 17.7609 60.2587 17.6439 60.1438 17.5909C59.5184 17.2972 59.008 16.7982 58.6942 16.1733C58.6411 16.0673 58.5329 15.8024 58.4555 15.5838C58.2324 14.9656 58.2456 14.9942 58.1683 15.0031C58.1042 15.0097 58.0997 15.0163 57.9208 15.5065C57.8213 15.7803 57.6976 16.0894 57.6446 16.191C57.3308 16.8092 56.827 17.2995 56.206 17.5909C56.0911 17.6439 55.7995 17.7587 55.5564 17.847C55.3133 17.9332 55.1078 18.0171 55.099 18.0303C55.0725 18.0701 55.0791 18.1253 55.1078 18.1495Z" fill="white"/>
</svg>
