<svg width="18" height="19" viewBox="0 0 18 19" fill="none" xmlns="http://www.w3.org/2000/svg">
<path fill-rule="evenodd" clip-rule="evenodd" d="M2.20943 3.958L7.07224 8.82293C8.13283 9.88148 9.86653 9.88239 10.928 8.82293L15.7908 3.958C15.8023 3.94657 15.8112 3.93275 15.8167 3.91752C15.8223 3.90229 15.8244 3.88602 15.823 3.86987C15.8216 3.85372 15.8166 3.83808 15.8084 3.82407C15.8003 3.81005 15.7892 3.798 15.7758 3.78876C15.2799 3.44286 14.6764 3.23779 14.0264 3.23779H3.97392C3.32385 3.23779 2.72039 3.44289 2.22441 3.78876C2.21108 3.798 2.19995 3.81005 2.1918 3.82407C2.18365 3.83808 2.17868 3.85372 2.17725 3.86987C2.17582 3.88602 2.17797 3.90229 2.18353 3.91752C2.18909 3.93275 2.19793 3.94657 2.20943 3.958ZM0.909913 6.30177C0.909517 5.80746 1.02965 5.32051 1.25989 4.88311C1.26793 4.86769 1.27949 4.85438 1.29364 4.84427C1.30779 4.83416 1.32412 4.82753 1.34132 4.82492C1.35851 4.82231 1.37608 4.82379 1.39259 4.82925C1.4091 4.8347 1.42409 4.84398 1.43634 4.85632L6.2376 9.65757C7.758 11.1802 10.2414 11.1811 11.7627 9.65757L16.5639 4.85632C16.5762 4.84398 16.5912 4.8347 16.6077 4.82925C16.6242 4.82379 16.6418 4.82231 16.659 4.82492C16.6762 4.82753 16.6925 4.83416 16.7066 4.84427C16.7208 4.85438 16.7323 4.86769 16.7404 4.88311C16.9706 5.32052 17.0907 5.80746 17.0904 6.30177V12.698C17.0904 14.3888 15.715 15.762 14.0264 15.762H3.97392C2.2853 15.762 0.909913 14.3888 0.909913 12.698V6.30177Z" fill="white"/>
</svg>
