<svg width="58" height="58" viewBox="0 0 58 58" fill="none" xmlns="http://www.w3.org/2000/svg">
<path d="M28.7637 57.5275C44.6495 57.5275 57.5275 44.6495 57.5275 28.7637C57.5275 12.878 44.6495 0 28.7637 0C12.878 0 0 12.878 0 28.7637C0 44.6495 12.878 57.5275 28.7637 57.5275Z" fill="#00A8A8"/>
<path d="M10.0643 42.6923H6L15.9448 29.0284L25.8895 42.6923H14.2152L17.0689 38.7142H18.7985L15.9448 34.7361L10.0643 42.6923Z" fill="white"/>
<path d="M29.6944 42.6923L17.8472 26.3475L19.9226 23.4936L33.8452 42.6923H29.6944Z" fill="white"/>
<path d="M37.5637 42.6923L21.9116 20.8992L23.8141 18.1319L39.7257 39.8384L47.5085 29.0284H51.6593L41.801 42.6923H37.5637Z" fill="white"/>
<path d="M36.1078 18.1495C36.1233 18.1628 36.3509 18.2489 36.6116 18.3416C36.8724 18.4366 37.1862 18.5647 37.3077 18.6265C37.7497 18.8539 38.1761 19.2337 38.4546 19.6532C38.6423 19.9337 38.7219 20.1059 38.9274 20.6734C39.0997 21.1503 39.1373 21.2165 39.2125 21.168C39.2368 21.1525 39.3208 20.9515 39.4224 20.6734C39.6279 20.1059 39.7075 19.9337 39.8953 19.6532C40.1737 19.2337 40.6002 18.8539 41.0422 18.6265C41.1636 18.5647 41.4774 18.4366 41.7382 18.3439C41.9989 18.2489 42.2266 18.1584 42.2442 18.1429C42.2619 18.1275 42.2685 18.0944 42.2597 18.0612C42.2487 18.0148 42.1934 17.9884 41.8001 17.8493C41.5526 17.7609 41.2587 17.6439 41.1438 17.5909C40.5184 17.2972 40.008 16.7982 39.6942 16.1733C39.6411 16.0673 39.5329 15.8024 39.4555 15.5838C39.2324 14.9656 39.2456 14.9942 39.1683 15.0031C39.1042 15.0097 39.0997 15.0163 38.9208 15.5065C38.8213 15.7803 38.6976 16.0894 38.6446 16.191C38.3308 16.8092 37.827 17.2995 37.206 17.5909C37.0911 17.6439 36.7995 17.7587 36.5564 17.847C36.3133 17.9332 36.1078 18.0171 36.099 18.0303C36.0725 18.0701 36.0791 18.1253 36.1078 18.1495Z" fill="white"/>
</svg>
