<svg width="18" height="19" viewBox="0 0 18 19" fill="none" xmlns="http://www.w3.org/2000/svg">
<g clip-path="url(#clip0_4092_11)">
<path d="M13.7177 11.727C15.3633 12.3872 16.591 13.2676 17.5224 14.3028C17.7573 15.9791 16.4469 17.2082 15.2495 17.9627C12.412 18.4644 8.38141 16.7881 5.04673 13.4534C1.71205 10.1187 0.0358933 6.08813 0.537373 3.25061C1.29193 2.05325 2.52097 0.742852 4.19731 0.977752C5.23249 1.90907 6.11287 3.13685 6.77311 4.78259C6.88291 5.05655 6.82009 5.36903 6.61939 5.58539C6.28999 5.94035 5.69419 6.53831 4.77529 7.30925C4.54381 7.50347 4.48729 7.83539 4.63507 8.09891C5.27659 9.24371 6.11107 10.3516 7.12987 11.3702C8.14795 12.3885 9.25729 13.2246 10.4005 13.8679C10.6644 14.0164 10.997 13.9597 11.1914 13.7277C11.9622 12.8072 12.5598 12.2108 12.9145 11.8811C13.1309 11.68 13.4437 11.617 13.7177 11.727Z" fill="white"/>
</g>
<defs>
<clipPath id="clip0_4092_11">
<rect width="18" height="18" fill="white" transform="translate(0 0.5)"/>
</clipPath>
</defs>
</svg>
