<svg width="15" height="15" viewBox="0 0 15 15" fill="none" xmlns="http://www.w3.org/2000/svg">
<g clip-path="url(#clip0_4044_1620)">
<path d="M7.49999 0.149902C11.5594 0.149902 14.8501 3.44052 14.8501 7.49999C14.8501 11.5589 11.5594 14.8501 7.49999 14.8501C3.44047 14.8501 0.149902 11.5589 0.149902 7.49999C0.149902 3.44052 3.44052 0.149902 7.49999 0.149902Z" fill="#D6D4D1"/>
<mask id="mask0_4044_1620" style="mask-type:luminance" maskUnits="userSpaceOnUse" x="0" y="0" width="15" height="15">
<path d="M7.5007 14.6703C11.4608 14.6703 14.6711 11.4601 14.6711 7.49997C14.6711 3.53988 11.4608 0.32959 7.5007 0.32959C3.54061 0.32959 0.330322 3.53988 0.330322 7.49997C0.330322 11.4601 3.54061 14.6703 7.5007 14.6703Z" fill="white"/>
</mask>
<g mask="url(#mask0_4044_1620)">
<path d="M-3.25244 0.329102H3.91857V14.6705H-3.25244V0.329102Z" fill="white"/>
<path d="M3.91797 0.328125H18.2581V14.6692H3.91797V0.328125Z" fill="#02411D"/>
<path d="M12.7651 8.93935C12.761 8.93642 12.7561 8.93506 12.7511 8.93552C12.7461 8.93598 12.7414 8.93822 12.7379 8.94184C12.6829 8.99739 12.6262 9.05135 12.5681 9.10366C11.9471 9.65654 11.1447 9.96207 10.3132 9.96219C9.83285 9.96196 9.35794 9.8601 8.91971 9.66328C8.48148 9.46647 8.08985 9.17916 7.77056 8.82023C7.16962 8.14268 6.86577 7.26943 6.91948 6.36343C6.97256 5.45769 7.37526 4.62731 8.05335 4.02458C8.11223 3.97293 8.17258 3.92297 8.23433 3.87477C8.23864 3.87191 8.24172 3.86754 8.24298 3.86251C8.24423 3.85749 8.24356 3.85218 8.2411 3.84763C8.23618 3.83741 8.2257 3.83371 8.21517 3.8362C6.65363 4.33521 5.60522 5.77144 5.60522 7.41056C5.60522 9.47985 7.28821 11.1634 9.35835 11.1634C10.8227 11.1634 12.1647 10.3 12.7731 8.96533C12.7753 8.96081 12.7758 8.95559 12.7743 8.95076C12.7728 8.94592 12.7695 8.94184 12.7651 8.93935Z" fill="white"/>
<path d="M9.73627 6.05762L10.6034 6.24754L10.6899 7.131C10.6905 7.13553 10.6925 7.13977 10.6956 7.14314C10.6987 7.14651 10.7027 7.14885 10.7072 7.14983C10.7084 7.15047 10.7109 7.15047 10.7121 7.15047C10.7158 7.15032 10.7195 7.14929 10.7227 7.14746C10.7259 7.14563 10.7287 7.14305 10.7307 7.13994L11.1803 6.3738L12.0462 6.56372C12.0478 6.56417 12.0494 6.56439 12.0511 6.56436H12.0523C12.0582 6.56433 12.0638 6.56198 12.068 6.55782C12.0722 6.55366 12.0745 6.54802 12.0746 6.54213C12.0746 6.53472 12.069 6.52763 12.0641 6.52387L11.4774 5.86431L11.927 5.09912C11.9294 5.09507 11.9304 5.09032 11.9298 5.08562C11.9293 5.08093 11.9271 5.07656 11.9238 5.07319C11.9207 5.0696 11.9165 5.06709 11.9118 5.06603C11.9072 5.06498 11.9023 5.06543 11.898 5.06732L11.0858 5.42335L10.4947 4.76066C10.4919 4.75696 10.4879 4.7543 10.4835 4.75312C10.479 4.75194 10.4742 4.7523 10.47 4.75415C10.4613 4.75817 10.4557 4.76775 10.457 4.77638L10.5453 5.65925L9.73135 6.01534C9.72708 6.01732 9.72353 6.02059 9.7212 6.02469C9.71888 6.02879 9.71789 6.03351 9.71839 6.0382C9.72024 6.04836 9.72638 6.05577 9.73627 6.05762Z" fill="white"/>
</g>
</g>
<defs>
<clipPath id="clip0_4044_1620">
<rect width="15" height="15" fill="white"/>
</clipPath>
</defs>
</svg>
