<svg width="133" height="133" viewBox="0 0 133 133" fill="none" xmlns="http://www.w3.org/2000/svg">
<g filter="url(#filter0_d_4028_1121)">
<rect x="28" y="15" width="77" height="77" rx="38.5" fill="#00A8A8" shape-rendering="crispEdges"/>
<g clip-path="url(#clip0_4028_1121)">
<path d="M62.0281 67.3934C62.4253 67.3934 62.7473 67.0714 62.7473 66.6742C62.7473 66.277 62.4253 65.955 62.0281 65.955C61.6309 65.955 61.3088 66.277 61.3088 66.6742C61.3088 67.0714 61.6309 67.3934 62.0281 67.3934Z" fill="white"/>
<path d="M87.1231 50.4592H80.1515V49.2842C80.8422 49.1062 81.5116 48.8498 82.1454 48.4938L83.6409 49.3982C83.8189 49.505 84.0183 49.562 84.2177 49.562C84.5025 49.562 84.7874 49.448 85.001 49.2344L86.0122 48.2232C86.3754 47.86 86.4395 47.3045 86.176 46.863L85.2716 45.3676C85.5921 44.7907 85.8484 44.1854 86.0265 43.5517L87.7213 43.1315C88.2198 43.0104 88.5616 42.5618 88.5616 42.0562V40.6248C88.5616 40.1121 88.2127 39.6706 87.7213 39.5495L86.0265 39.1294C85.8484 38.4956 85.5992 37.8903 85.2716 37.3135L86.176 35.818C86.4395 35.3765 86.3754 34.821 86.0122 34.4579L85.001 33.4395C84.6378 33.0763 84.0824 33.0123 83.6409 33.2757L82.1454 34.1801C81.5686 33.8597 80.9633 33.6033 80.3295 33.4253L79.9093 31.7304C79.7883 31.232 79.3468 30.8901 78.834 30.8901H77.3956C76.8828 30.8901 76.4413 31.2391 76.3203 31.7304L75.9001 33.4253C75.2663 33.6033 74.661 33.8526 74.0842 34.1801L72.5887 33.2757C72.1543 33.0123 71.5918 33.0763 71.2286 33.4395L70.2174 34.4507C69.8542 34.8139 69.783 35.3694 70.0536 35.8109L70.958 37.3063C70.6304 37.8832 70.3812 38.4885 70.2031 39.1223L68.5083 39.5424C68.0098 39.6635 67.668 40.105 67.668 40.6177V42.0491C67.668 42.0847 67.6822 42.1132 67.6822 42.1417H45.8771C44.7947 42.1417 43.9116 43.0247 43.9116 44.1071V68.3121C43.9116 69.3945 44.7947 70.2776 45.8771 70.2776H56.2598V72.1789H53.86C52.7775 72.1789 51.8945 73.062 51.8945 74.1444V75.5757C51.8945 75.8677 52.1366 76.1098 52.4286 76.1098H87.1231C88.2056 76.1098 89.0886 75.2268 89.0886 74.1444V52.4247C89.0886 51.3423 88.2056 50.4592 87.1231 50.4592ZM78.186 42.1488H74.604C74.54 41.8782 74.4972 41.6076 74.4972 41.337C74.4972 39.343 76.1209 37.7194 78.1148 37.7194C80.1087 37.7194 81.7324 39.343 81.7324 41.337C81.7324 42.5547 81.1271 43.6514 80.1515 44.3136V44.1142C80.1515 43.0318 79.2684 42.1488 78.186 42.1488ZM68.7647 40.5821L70.7657 40.0907C70.958 40.0409 71.1147 39.8913 71.1574 39.692C71.3354 38.9513 71.6274 38.2392 72.0333 37.5912C72.1401 37.4203 72.1401 37.2067 72.0333 37.0357L70.9722 35.2198L72.0404 34.2015L73.8065 35.2697C73.9774 35.3765 74.191 35.3765 74.3619 35.2697C75.0171 34.8638 75.7221 34.5718 76.4627 34.3938C76.655 34.351 76.8116 34.1944 76.8615 34.0021L77.3956 31.9654L78.8697 31.9939L79.361 33.995C79.4109 34.1873 79.5604 34.3439 79.7598 34.3867C80.5004 34.5647 81.2125 34.8567 81.8606 35.2626C82.0315 35.3694 82.2451 35.3694 82.416 35.2626L84.2319 34.2015L85.2503 35.2697L84.1821 37.0357C84.0753 37.2067 84.0824 37.4203 84.1821 37.5912C84.588 38.2463 84.88 38.9513 85.058 39.692C85.1007 39.8842 85.2574 40.0409 85.4496 40.0907L87.4863 40.6248L87.4578 42.0989L85.4568 42.5903C85.2645 42.6401 85.1078 42.7897 85.0651 42.9891C84.8886 43.7321 84.5928 44.4415 84.1892 45.0898C84.0824 45.2607 84.0824 45.4744 84.1892 45.6453L85.2503 47.4612L84.1821 48.4795L82.416 47.4114C82.3322 47.3607 82.2362 47.3339 82.1383 47.3339C82.0404 47.3339 81.9443 47.3607 81.8606 47.4114C81.3254 47.7415 80.7481 47.9978 80.1443 48.1733V45.5313C81.7609 44.748 82.7934 43.1457 82.7934 41.3298C82.7934 38.7448 80.6927 36.6441 78.1077 36.6441C75.5227 36.6441 73.4219 38.7448 73.4219 41.3298C73.4219 41.6004 73.4504 41.871 73.5003 42.1417H68.9213C68.8649 42.0968 68.7992 42.0652 68.729 42.0491L68.7647 40.5821ZM45.8771 69.2094C45.3857 69.2094 44.9798 68.8035 44.9798 68.3121V64.1391H64.2356V69.2094H45.8771ZM64.2356 70.2776V72.1789H57.328V70.2776H64.2356ZM52.9627 75.0417V74.1444C52.9627 73.653 53.3686 73.2471 53.86 73.2471H64.2427V74.1444C64.2427 74.472 64.3281 74.771 64.4706 75.0417H52.9627ZM64.2356 52.4247V63.0638H44.9798V44.1142C44.9798 43.6157 45.3857 43.217 45.8771 43.217H78.186C78.6774 43.217 79.0833 43.6229 79.0833 44.1142V50.4592H66.201C65.1186 50.4592 64.2356 51.3423 64.2356 52.4247ZM88.0204 74.1444C88.0204 74.6357 87.6145 75.0417 87.1231 75.0417H66.201C65.7097 75.0417 65.3037 74.6357 65.3037 74.1444V56.2559H88.0204V74.1444ZM88.0204 55.1877H65.3037V52.4318C65.3037 51.9333 65.7097 51.5345 66.201 51.5345H87.1231C87.6216 51.5345 88.0204 51.9404 88.0204 52.4318V55.1877Z" fill="white"/>
<path d="M50.8263 48.7929C50.7258 48.6935 50.5902 48.6378 50.4489 48.6378C50.3076 48.6378 50.172 48.6935 50.0715 48.7929L47.6502 51.2141C47.4437 51.4206 47.4437 51.7624 47.6502 51.9689L50.0715 54.3901C50.1783 54.497 50.3136 54.5468 50.4489 54.5468C50.5842 54.5468 50.7195 54.497 50.8263 54.3901C51.0328 54.1836 51.0328 53.8418 50.8263 53.6353L48.7825 51.5915L50.8263 49.5477C51.0399 49.3412 51.0399 48.9994 50.8263 48.7929ZM58.154 48.7929C57.9475 48.5864 57.6057 48.5864 57.3992 48.7929C57.1927 48.9994 57.1927 49.3412 57.3992 49.5477L59.443 51.5915L57.3992 53.6353C57.1927 53.8418 57.1927 54.1836 57.3992 54.3901C57.506 54.497 57.6413 54.5468 57.7766 54.5468C57.9119 54.5468 58.0472 54.497 58.154 54.3901L60.5752 51.9689C60.6753 51.8688 60.7314 51.733 60.7314 51.5915C60.7314 51.45 60.6753 51.3142 60.5752 51.2141L58.154 48.7929ZM56.4877 46.4998C56.359 46.4414 56.2125 46.4355 56.0795 46.4834C55.9465 46.5312 55.8375 46.6291 55.7756 46.7562L51.4743 55.9782C51.4365 56.0597 51.4198 56.1495 51.4257 56.2392C51.4316 56.3289 51.4599 56.4157 51.5082 56.4915C51.5564 56.5674 51.6229 56.6299 51.7016 56.6734C51.7803 56.7168 51.8687 56.7398 51.9586 56.7401C52.158 56.7401 52.3502 56.6262 52.4428 56.4339L56.744 47.212C56.7741 47.1484 56.7913 47.0795 56.7947 47.0093C56.7981 46.939 56.7876 46.8688 56.7638 46.8026C56.7399 46.7365 56.7033 46.6757 56.6559 46.6237C56.6085 46.5717 56.5514 46.5296 56.4877 46.4998ZM67.6324 70.1992H74.4972C74.7892 70.1992 75.0313 69.9571 75.0313 69.6651C75.0313 69.3732 74.7892 69.1311 74.4972 69.1311H67.6324C67.3404 69.1311 67.0983 69.3732 67.0983 69.6651C67.0983 69.9571 67.3404 70.1992 67.6324 70.1992ZM67.6324 73.2471H70.9152C71.2072 73.2471 71.4493 73.005 71.4493 72.713C71.4493 72.421 71.2072 72.1789 70.9152 72.1789H67.6324C67.3404 72.1789 67.0983 72.421 67.0983 72.713C67.0983 73.005 67.3404 73.2471 67.6324 73.2471ZM85.6918 69.1311H78.8269C78.5349 69.1311 78.2928 69.3732 78.2928 69.6651C78.2928 69.9571 78.5349 70.1992 78.8269 70.1992H85.6918C85.9837 70.1992 86.2259 69.9571 86.2259 69.6651C86.2259 69.3732 85.9837 69.1311 85.6918 69.1311ZM82.1098 72.1789H78.8269C78.5349 72.1789 78.2928 72.421 78.2928 72.713C78.2928 73.005 78.5349 73.2471 78.8269 73.2471H82.1098C82.4018 73.2471 82.6439 73.005 82.6439 72.713C82.6439 72.421 82.4018 72.1789 82.1098 72.1789ZM67.1196 66.717C67.1268 66.7526 67.1268 66.7953 67.141 66.8238V66.8309C67.1695 66.8879 67.2051 66.9377 67.2407 66.9804C67.2549 66.9947 67.2621 67.0018 67.2763 67.0089C67.3119 67.0374 67.3475 67.0659 67.3902 67.0873C67.4045 67.0944 67.4259 67.1015 67.4401 67.1086C67.4971 67.13 67.5612 67.1442 67.6252 67.1442H85.6846C85.7487 67.1442 85.8128 67.13 85.8698 67.1086C85.884 67.1015 85.9054 67.0944 85.9196 67.0873C85.9624 67.0659 85.998 67.0374 86.0336 67.0089C86.0478 66.9947 86.0621 66.9876 86.0692 66.9804C86.1119 66.9377 86.1475 66.8879 86.1689 66.8309V66.8238C86.1831 66.7953 86.1831 66.7597 86.1902 66.7312C86.1974 66.6956 86.2116 66.66 86.2116 66.6173V58.5774C86.2116 58.5418 86.1974 58.5062 86.1902 58.4635C86.1831 58.435 86.1831 58.3994 86.1689 58.3709V58.3638C86.1618 58.3424 86.1404 58.3282 86.1262 58.3068C86.1048 58.2712 86.0834 58.2285 86.0478 58.2C86.0265 58.1786 85.998 58.1644 85.9695 58.1501C85.941 58.1288 85.9054 58.1074 85.8698 58.0932C85.8342 58.0789 85.7915 58.0789 85.7559 58.0718C85.7274 58.0647 85.706 58.0576 85.6704 58.0576H67.6324C67.6039 58.0576 67.5825 58.0718 67.554 58.0718C67.5113 58.0789 67.4686 58.0789 67.433 58.0932C67.3974 58.1074 67.376 58.1288 67.3475 58.1501C67.319 58.1715 67.2906 58.1857 67.2621 58.2071C67.2265 58.2356 67.2051 58.2783 67.1837 58.321C67.1695 58.3424 67.1552 58.3567 67.1481 58.378V58.3851C67.1339 58.4207 67.1339 58.4564 67.1268 58.492C67.1196 58.5276 67.1054 58.556 67.1054 58.5917V66.6386C67.0983 66.6529 67.1125 66.6885 67.1196 66.717ZM70.1462 66.0832L76.6621 63.1848L83.178 66.0832H70.1462ZM85.1577 65.7912L77.9795 62.5938L85.1577 59.3964V65.7912ZM83.178 59.1186L76.6621 62.017L70.1462 59.1186H83.178ZM68.1665 59.4035L75.3446 62.6009L68.1665 65.7983V59.4035ZM67.8246 52.6383C67.7307 52.6383 67.6376 52.6568 67.5508 52.6928C67.4639 52.7288 67.385 52.7815 67.3186 52.8479C67.2521 52.9144 67.1994 52.9933 67.1634 53.0801C67.1275 53.167 67.109 53.26 67.109 53.354C67.109 53.448 67.1275 53.5411 67.1634 53.6279C67.1994 53.7147 67.2521 53.7936 67.3186 53.8601C67.385 53.9265 67.4639 53.9792 67.5508 54.0152C67.6376 54.0512 67.7307 54.0697 67.8246 54.0697C67.9186 54.0697 68.0117 54.0512 68.0985 54.0152C68.1854 53.9792 68.2642 53.9265 68.3307 53.8601C68.3972 53.7936 68.4499 53.7147 68.4858 53.6279C68.5218 53.5411 68.5403 53.448 68.5403 53.354C68.5403 53.26 68.5218 53.167 68.4858 53.0801C68.4499 52.9933 68.3972 52.9144 68.3307 52.8479C68.2642 52.7815 68.1854 52.7288 68.0985 52.6928C68.0117 52.6568 67.9186 52.6383 67.8246 52.6383ZM70.4025 52.6383C70.3085 52.6383 70.2155 52.6568 70.1286 52.6928C70.0418 52.7288 69.9629 52.7815 69.8965 52.8479C69.83 52.9144 69.7773 52.9933 69.7413 53.0801C69.7054 53.167 69.6868 53.26 69.6868 53.354C69.6868 53.448 69.7054 53.5411 69.7413 53.6279C69.7773 53.7147 69.83 53.7936 69.8965 53.8601C69.9629 53.9265 70.0418 53.9792 70.1286 54.0152C70.2155 54.0512 70.3085 54.0697 70.4025 54.0697C70.4965 54.0697 70.5896 54.0512 70.6764 54.0152C70.7632 53.9792 70.8421 53.9265 70.9086 53.8601C70.975 53.7936 71.0278 53.7147 71.0637 53.6279C71.0997 53.5411 71.1182 53.448 71.1182 53.354C71.1182 53.26 71.0997 53.167 71.0637 53.0801C71.0278 52.9933 70.975 52.9144 70.9086 52.8479C70.8421 52.7815 70.7632 52.7288 70.6764 52.6928C70.5896 52.6568 70.4965 52.6383 70.4025 52.6383ZM72.9804 52.6383C72.8864 52.6383 72.7934 52.6568 72.7065 52.6928C72.6197 52.7288 72.5408 52.7815 72.4743 52.8479C72.4079 52.9144 72.3552 52.9933 72.3192 53.0801C72.2832 53.167 72.2647 53.26 72.2647 53.354C72.2647 53.448 72.2832 53.5411 72.3192 53.6279C72.3552 53.7147 72.4079 53.7936 72.4743 53.8601C72.5408 53.9265 72.6197 53.9792 72.7065 54.0152C72.7934 54.0512 72.8864 54.0697 72.9804 54.0697C73.0744 54.0697 73.1674 54.0512 73.2543 54.0152C73.3411 53.9792 73.42 53.9265 73.4865 53.8601C73.5529 53.7936 73.6056 53.7147 73.6416 53.6279C73.6776 53.5411 73.6961 53.448 73.6961 53.354C73.6961 53.26 73.6776 53.167 73.6416 53.0801C73.6056 52.9933 73.5529 52.9144 73.4865 52.8479C73.42 52.7815 73.3411 52.7288 73.2543 52.6928C73.1674 52.6568 73.0744 52.6383 72.9804 52.6383Z" fill="white"/>
</g>
</g>
<defs>
<filter id="filter0_d_4028_1121" x="0.299999" y="0.299999" width="132.4" height="132.4" filterUnits="userSpaceOnUse" color-interpolation-filters="sRGB">
<feFlood flood-opacity="0" result="BackgroundImageFix"/>
<feColorMatrix in="SourceAlpha" type="matrix" values="0 0 0 0 0 0 0 0 0 0 0 0 0 0 0 0 0 0 127 0" result="hardAlpha"/>
<feOffset dy="13"/>
<feGaussianBlur stdDeviation="13.85"/>
<feComposite in2="hardAlpha" operator="out"/>
<feColorMatrix type="matrix" values="0 0 0 0 0 0 0 0 0 0.658824 0 0 0 0 0.658824 0 0 0 0.65 0"/>
<feBlend mode="normal" in2="BackgroundImageFix" result="effect1_dropShadow_4028_1121"/>
<feBlend mode="normal" in="SourceGraphic" in2="effect1_dropShadow_4028_1121" result="shape"/>
</filter>
<clipPath id="clip0_4028_1121">
<rect width="47" height="47" fill="white" transform="translate(43 30)"/>
</clipPath>
</defs>
</svg>
