<svg width="151" height="151" viewBox="0 0 151 151" fill="none" xmlns="http://www.w3.org/2000/svg">
<g filter="url(#filter0_d_4062_2648)">
<rect x="37" y="24" width="77" height="77" rx="38.5" fill="#FF6B6B" shape-rendering="crispEdges"/>
<path d="M77.9844 42.625H73.0156C72.796 42.625 72.5854 42.5378 72.4301 42.3824C72.2747 42.2271 72.1875 42.0165 72.1875 41.7969C72.1875 41.5772 72.2747 41.3666 72.4301 41.2113C72.5854 41.056 72.796 40.9688 73.0156 40.9688H77.9844C78.204 40.9688 78.4146 41.056 78.5699 41.2113C78.7253 41.3666 78.8125 41.5772 78.8125 41.7969C78.8125 42.0165 78.7253 42.2271 78.5699 42.3824C78.4146 42.5378 78.204 42.625 77.9844 42.625ZM84.6094 87.3438H66.3906C65.2929 87.3424 64.2404 86.9058 63.4642 86.1295C62.688 85.3533 62.2513 84.3009 62.25 83.2031V55.0469C62.25 54.8272 62.3372 54.6166 62.4926 54.4613C62.6479 54.306 62.8585 54.2188 63.0781 54.2188C63.2978 54.2188 63.5084 54.306 63.6637 54.4613C63.819 54.6166 63.9062 54.8272 63.9062 55.0469V83.2031C63.9062 84.5728 65.0209 85.6875 66.3906 85.6875H84.6094C85.9791 85.6875 87.0938 84.5728 87.0938 83.2031V55.0469C87.0938 54.8272 87.181 54.6166 87.3363 54.4613C87.4916 54.306 87.7022 54.2188 87.9219 54.2188C88.1415 54.2188 88.3521 54.306 88.5074 54.4613C88.6628 54.6166 88.75 54.8272 88.75 55.0469V83.2031C88.75 85.4854 86.8933 87.3438 84.6094 87.3438Z" fill="white"/>
<path d="M87.9219 60.8437C87.7022 60.8437 87.4916 60.7565 87.3363 60.6012C87.181 60.4459 87.0938 60.2353 87.0938 60.0156V41.7969C87.0938 40.4272 85.9791 39.3125 84.6094 39.3125H66.3906C65.0209 39.3125 63.9062 40.4272 63.9062 41.7969V60.0156C63.9062 60.2353 63.819 60.4459 63.6637 60.6012C63.5084 60.7565 63.2978 60.8437 63.0781 60.8437C62.8585 60.8437 62.6479 60.7565 62.4926 60.6012C62.3372 60.4459 62.25 60.2353 62.25 60.0156V41.7969C62.25 39.5146 64.1067 37.6562 66.3906 37.6562H84.6094C86.8933 37.6562 88.75 39.5146 88.75 41.7969V60.0156C88.75 60.2353 88.6628 60.4459 88.5074 60.6012C88.3521 60.7565 88.1415 60.8437 87.9219 60.8437ZM92.8906 46.0203C92.4335 46.0203 92.0625 45.7321 92.0625 45.275V45.1094C92.0625 44.8897 92.1497 44.6791 92.305 44.5238C92.4604 44.3685 92.671 44.2812 92.8906 44.2812C93.1103 44.2812 93.3209 44.3685 93.4762 44.5238C93.6315 44.6791 93.7188 44.8897 93.7188 45.1094C93.7188 45.5665 93.3478 46.0203 92.8906 46.0203ZM92.8906 49.3328C92.4335 49.3328 92.0625 49.0446 92.0625 48.5875V48.4219C92.0625 48.2022 92.1497 47.9916 92.305 47.8363C92.4604 47.681 92.671 47.5937 92.8906 47.5937C93.1103 47.5937 93.3209 47.681 93.4762 47.8363C93.6315 47.9916 93.7188 48.2022 93.7188 48.4219C93.7188 48.879 93.3478 49.3328 92.8906 49.3328ZM92.8906 52.6453C92.4335 52.6453 92.0625 52.3571 92.0625 51.9V51.7344C92.0625 51.5147 92.1497 51.3041 92.305 51.1488C92.4604 50.9935 92.671 50.9062 92.8906 50.9062C93.1103 50.9062 93.3209 50.9935 93.4762 51.1488C93.6315 51.3041 93.7188 51.5147 93.7188 51.7344C93.7188 52.1915 93.3478 52.6453 92.8906 52.6453ZM58.1094 74.0109C57.6523 74.0109 57.2812 73.7227 57.2812 73.2656V73.1C57.2812 72.8804 57.3685 72.6697 57.5238 72.5144C57.6791 72.3591 57.8897 72.2719 58.1094 72.2719C58.329 72.2719 58.5396 72.3591 58.6949 72.5144C58.8503 72.6697 58.9375 72.8804 58.9375 73.1C58.9375 73.5571 58.5665 74.0109 58.1094 74.0109ZM58.1094 77.3234C57.6523 77.3234 57.2812 77.0352 57.2812 76.5781V76.4125C57.2812 76.1929 57.3685 75.9822 57.5238 75.8269C57.6791 75.6716 57.8897 75.5844 58.1094 75.5844C58.329 75.5844 58.5396 75.6716 58.6949 75.8269C58.8503 75.9822 58.9375 76.1929 58.9375 76.4125C58.9375 76.8696 58.5665 77.3234 58.1094 77.3234ZM58.1094 80.6359C57.6523 80.6359 57.2812 80.3477 57.2812 79.8906V79.725C57.2812 79.5054 57.3685 79.2947 57.5238 79.1394C57.6791 78.9841 57.8897 78.8969 58.1094 78.8969C58.329 78.8969 58.5396 78.9841 58.6949 79.1394C58.8503 79.2947 58.9375 79.5054 58.9375 79.725C58.9375 80.1821 58.5665 80.6359 58.1094 80.6359Z" fill="white"/>
<path d="M90.1429 80.7188C90.0194 80.7188 89.8974 80.6912 89.7859 80.638C89.6744 80.5847 89.5763 80.5073 89.4986 80.4112C89.421 80.3151 89.3658 80.2029 89.3371 80.0827C89.3085 79.9626 89.3071 79.8375 89.333 79.7167L89.8796 77.1827C89.9122 77.0305 89.9872 76.8906 90.0959 76.7792C90.2046 76.6679 90.3427 76.5895 90.494 76.5533C91.2932 76.3573 92.057 76.0383 92.7581 75.6076C92.8903 75.5269 93.0425 75.4849 93.1974 75.4863C93.3523 75.4878 93.5036 75.5327 93.6343 75.6158L95.274 76.6642L96.2893 75.6407L95.2408 74.0142C95.1567 73.8835 95.111 73.7317 95.1089 73.5762C95.1069 73.4207 95.1486 73.2677 95.2293 73.1348C95.6601 72.434 95.9787 71.67 96.1733 70.8707C96.2097 70.7198 96.2877 70.5821 96.3983 70.4732C96.509 70.3643 96.6479 70.2886 96.7994 70.2546L98.6875 69.8355V68.4161L96.801 67.9971C96.6496 67.9631 96.5106 67.8873 96.4 67.7785C96.2894 67.6696 96.2114 67.5319 96.175 67.381C95.9796 66.5819 95.6611 65.818 95.2309 65.1169C95.1496 64.9845 95.1073 64.8319 95.1091 64.6765C95.1108 64.5212 95.1565 64.3695 95.2408 64.2391L96.2909 62.5977L95.2773 61.5841L93.6359 62.6342C93.5054 62.7177 93.354 62.7628 93.199 62.7643C93.0441 62.7657 92.8919 62.7235 92.7598 62.6424C92.0584 62.2123 91.2947 61.8933 90.4957 61.6967C90.3443 61.6605 90.2063 61.5821 90.0976 61.4708C89.9888 61.3594 89.9138 61.2195 89.8812 61.0673L89.4738 59.1875H88.75C88.5304 59.1875 88.3197 59.1003 88.1644 58.9449C88.0091 58.7896 87.9219 58.579 87.9219 58.3594C87.9219 58.1397 88.0091 57.9291 88.1644 57.7738C88.3197 57.6185 88.5304 57.5312 88.75 57.5312H90.1413C90.3304 57.5316 90.5138 57.5967 90.6609 57.7157C90.8079 57.8347 90.9098 58.0005 90.9495 58.1855L91.3917 60.2276C91.9979 60.4115 92.5925 60.6599 93.1656 60.9696L94.9444 59.8318C95.1034 59.7301 95.2925 59.6859 95.4801 59.7064C95.6678 59.7269 95.8428 59.8108 95.9762 59.9444L97.9323 61.8988C98.0656 62.0324 98.1492 62.2075 98.1694 62.3952C98.1896 62.5828 98.1451 62.7717 98.0432 62.9306L96.9054 64.7094C97.2151 65.2842 97.4635 65.8787 97.6474 66.4866L99.6928 66.9404C100.074 67.0249 100.344 67.3628 100.344 67.7503V70.4997C100.344 70.6882 100.279 70.871 100.161 71.018C100.043 71.1649 99.8785 71.2672 99.6945 71.3079L97.649 71.7617C97.4621 72.3771 97.2135 72.9719 96.907 73.5372L98.0432 75.2995C98.1461 75.4578 98.1915 75.6467 98.1719 75.8345C98.1523 76.0223 98.0689 76.1977 97.9356 76.3313L95.9795 78.3023C95.8461 78.4362 95.6709 78.5206 95.4829 78.5414C95.2949 78.5622 95.1055 78.5181 94.946 78.4166L93.1672 77.2787C92.6022 77.5846 92.0079 77.8332 91.3934 78.0207L90.9512 80.0629C90.9115 80.248 90.8097 80.414 90.6627 80.5333C90.5156 80.6526 90.3322 80.718 90.1429 80.7188Z" fill="white"/>
<path d="M91.0539 73.3948C90.8766 73.3945 90.704 73.3373 90.5616 73.2316C90.4192 73.1258 90.3146 72.9772 90.263 72.8075C90.2115 72.6378 90.2157 72.456 90.2752 72.2889C90.3347 72.1219 90.4463 71.9783 90.5935 71.8794C91.2291 71.451 91.6967 70.8156 91.9167 70.0813C92.1367 69.3471 92.0955 68.5593 91.8001 67.8519C91.5048 67.1446 90.9734 66.5615 90.2966 66.2017C89.6197 65.842 88.8391 65.7279 88.0876 65.8788C87.981 65.9007 87.8712 65.9013 87.7643 65.8807C87.6575 65.8601 87.5558 65.8187 87.465 65.7588C87.3741 65.6989 87.296 65.6217 87.235 65.5316C87.1741 65.4415 87.1314 65.3403 87.1096 65.2337C87.0877 65.1271 87.087 65.0173 87.1076 64.9104C87.1282 64.8036 87.1697 64.7019 87.2296 64.6111C87.2895 64.5202 87.3667 64.4421 87.4568 64.3811C87.5469 64.3202 87.6481 64.2775 87.7547 64.2557C88.4766 64.1093 89.2221 64.125 89.9373 64.3018C90.6524 64.4785 91.3194 64.8119 91.89 65.2778C92.4607 65.7437 92.9207 66.3305 93.237 66.9958C93.5532 67.6611 93.7178 68.3884 93.7188 69.125C93.719 69.9414 93.5179 70.7453 93.1334 71.4655C92.7489 72.1857 92.1928 72.8 91.5144 73.2541C91.3783 73.3457 91.218 73.3947 91.0539 73.3948ZM62.2501 60.8438C61.1825 60.8452 60.1429 60.5026 59.2853 59.8668C58.4277 59.2311 57.7978 58.3359 57.4889 57.314C57.1799 56.2921 57.2085 55.1978 57.5703 54.1934C57.9321 53.189 58.6078 52.3279 59.4974 51.7377C59.6801 51.6236 59.9001 51.5853 60.1107 51.6307C60.3213 51.6762 60.5059 51.8019 60.6253 51.9812C60.7446 52.1605 60.7895 52.3793 60.7502 52.5911C60.7109 52.8029 60.5907 52.9911 60.415 53.1157C59.7793 53.5424 59.3109 54.176 59.0892 54.9088C58.8676 55.6416 58.9063 56.4285 59.1989 57.136C59.4915 57.8434 60.0199 58.4279 60.6944 58.7901C61.3689 59.1522 62.148 59.2699 62.8993 59.1229C63.1147 59.0805 63.3382 59.1249 63.5209 59.2465C63.7037 59.3681 63.8309 59.5571 63.8749 59.7722C63.8963 59.8788 63.8966 59.9886 63.8755 60.0952C63.8545 60.2019 63.8126 60.3034 63.7523 60.3939C63.692 60.4843 63.6144 60.562 63.5241 60.6225C63.4337 60.6829 63.3323 60.7249 63.2256 60.7461C62.9046 60.8114 62.5777 60.8442 62.2501 60.8438Z" fill="white"/>
<path d="M62.25 67.4687H60.8588C60.6696 67.4684 60.4862 67.4033 60.3391 67.2843C60.1921 67.1652 60.0902 66.9994 60.0505 66.8145L59.6083 64.7723C58.9936 64.5851 58.3993 64.3365 57.8344 64.0303L56.0556 65.1682C55.8966 65.2698 55.7075 65.3141 55.5199 65.2936C55.3322 65.2731 55.1572 65.1891 55.0238 65.0555L53.0678 63.1012C52.9344 62.9676 52.8508 62.7924 52.8306 62.6048C52.8104 62.4171 52.8549 62.2282 52.9568 62.0693L54.0946 60.2905C53.7884 59.7245 53.5398 59.1291 53.3526 58.5134L51.3072 58.0595C51.1227 58.0188 50.9576 57.9163 50.8392 57.7691C50.7209 57.6218 50.6563 57.4386 50.6562 57.2496V54.5003C50.6563 54.3118 50.7207 54.1289 50.8388 53.982C50.9568 53.835 51.1215 53.7327 51.3055 53.692L53.351 53.2382C53.5348 52.6304 53.7833 52.0358 54.093 51.4627L52.9584 49.6988C52.8556 49.5405 52.8101 49.3516 52.8297 49.1638C52.8493 48.976 52.9328 48.8006 53.0661 48.667L55.0221 46.696C55.1551 46.5612 55.3304 46.4763 55.5186 46.4555C55.7068 46.4347 55.8964 46.4793 56.0556 46.5817L57.8344 47.7196C58.3995 47.4137 58.9937 47.1651 59.6083 46.9776L60.0505 44.9354C60.0706 44.8263 60.1123 44.7224 60.1733 44.6298C60.2343 44.5372 60.3133 44.4577 60.4055 44.3962C60.4978 44.3347 60.6015 44.2923 60.7104 44.2716C60.8194 44.2509 60.9314 44.2523 61.0398 44.2757C61.1482 44.2992 61.2508 44.3441 61.3415 44.4079C61.4322 44.4717 61.5091 44.5531 61.5678 44.6472C61.6264 44.7413 61.6656 44.8463 61.6829 44.9558C61.7002 45.0654 61.6954 45.1773 61.6687 45.2849L61.1221 47.819C61.0895 47.9711 61.0145 48.111 60.9058 48.2224C60.797 48.3338 60.659 48.4121 60.5076 48.4483C59.708 48.6446 58.9437 48.9636 58.2419 49.394C58.1097 49.4747 57.9575 49.5167 57.8026 49.5153C57.6477 49.5138 57.4964 49.4689 57.3657 49.3858L55.726 48.3374L54.7091 49.3609L55.7575 50.9874C55.8424 51.1179 55.8886 51.2697 55.8906 51.4254C55.8927 51.5811 55.8505 51.7341 55.7691 51.8668C55.3382 52.5676 55.0197 53.3316 54.825 54.1309C54.7886 54.2818 54.7107 54.4195 54.6 54.5284C54.4894 54.6373 54.3504 54.713 54.199 54.747L52.3125 55.1644V56.5838L54.199 57.0029C54.3504 57.0369 54.4894 57.1126 54.6 57.2215C54.7107 57.3304 54.7886 57.4681 54.825 57.619C55.0122 58.4007 55.3318 59.1626 55.7691 59.8831C55.9347 60.153 55.9314 60.4942 55.7592 60.7609L54.7091 62.4006L55.7227 63.4142L57.3641 62.3641C57.4949 62.2813 57.6462 62.2367 57.801 62.2352C57.9558 62.2338 58.1079 62.2755 58.2402 62.3559C58.9623 62.7948 59.7242 63.1128 60.5043 63.3016C60.6557 63.3378 60.7937 63.4161 60.9024 63.5275C61.0112 63.6389 61.0862 63.7788 61.1188 63.931L61.5262 65.8125H62.25C62.4696 65.8125 62.6803 65.8997 62.8356 66.055C62.9909 66.2103 63.0781 66.4209 63.0781 66.6406C63.0781 66.8602 62.9909 67.0708 62.8356 67.2261C62.6803 67.3815 62.4696 67.4687 62.25 67.4687ZM74.6719 66.6406C74.546 66.6409 74.4217 66.6124 74.3085 66.5573C74.1953 66.5022 74.0961 66.422 74.0186 66.3228C73.9411 66.2236 73.8873 66.108 73.8613 65.9848C73.8353 65.8616 73.8378 65.7341 73.8686 65.612L75.5248 58.987C75.5504 58.8811 75.5968 58.7813 75.6612 58.6935C75.7257 58.6057 75.807 58.5315 75.9004 58.4754C75.9939 58.4193 76.0975 58.3824 76.2053 58.3667C76.3131 58.351 76.423 58.357 76.5285 58.3842C76.6341 58.4103 76.7335 58.457 76.821 58.5217C76.9085 58.5863 76.9823 58.6676 77.0384 58.7608C77.0944 58.8541 77.1314 58.9575 77.1474 59.0651C77.1633 59.1727 77.1579 59.2824 77.1314 59.3879L75.4752 66.0129C75.431 66.1924 75.3278 66.3518 75.1821 66.4657C75.0364 66.5795 74.8567 66.6411 74.6719 66.6406ZM79.6406 66.6406C79.477 66.6405 79.317 66.592 79.1809 66.5011C79.0448 66.4102 78.9387 66.281 78.8759 66.1299C78.8132 65.9787 78.7967 65.8124 78.8284 65.6518C78.8602 65.4912 78.9388 65.3437 79.0543 65.2278L81.7822 62.5L79.056 59.7738C78.9051 59.6176 78.8216 59.4084 78.8235 59.1913C78.8254 58.9741 78.9125 58.7664 79.0661 58.6129C79.2196 58.4593 79.4273 58.3722 79.6444 58.3704C79.8616 58.3685 80.0708 58.4519 80.2269 58.6028L83.5394 61.9153C83.6947 62.0706 83.7819 62.2812 83.7819 62.5008C83.7819 62.7204 83.6947 62.931 83.5394 63.0863L80.2269 66.3988C80.0711 66.5537 79.8603 66.6406 79.6406 66.6406ZM71.3594 66.6406C71.1397 66.6406 70.9289 66.5537 70.7731 66.3988L67.4606 63.0863C67.3053 62.931 67.2181 62.7204 67.2181 62.5008C67.2181 62.2812 67.3053 62.0706 67.4606 61.9153L70.7731 58.6028C70.9293 58.4519 71.1384 58.3685 71.3556 58.3704C71.5727 58.3722 71.7804 58.4593 71.9339 58.6129C72.0875 58.7664 72.1746 58.9741 72.1765 59.1913C72.1784 59.4084 72.0949 59.6176 71.944 59.7738L69.2178 62.5L71.944 65.2261C72.06 65.3419 72.1391 65.4894 72.1713 65.6501C72.2034 65.8108 72.1871 65.9774 72.1245 66.1288C72.0619 66.2802 71.9558 66.4097 71.8196 66.5008C71.6834 66.5919 71.5232 66.6405 71.3594 66.6406Z" fill="white"/>
</g>
<defs>
<filter id="filter0_d_4062_2648" x="0.700001" y="0.700001" width="149.6" height="149.6" filterUnits="userSpaceOnUse" color-interpolation-filters="sRGB">
<feFlood flood-opacity="0" result="BackgroundImageFix"/>
<feColorMatrix in="SourceAlpha" type="matrix" values="0 0 0 0 0 0 0 0 0 0 0 0 0 0 0 0 0 0 127 0" result="hardAlpha"/>
<feOffset dy="13"/>
<feGaussianBlur stdDeviation="18.15"/>
<feComposite in2="hardAlpha" operator="out"/>
<feColorMatrix type="matrix" values="0 0 0 0 1 0 0 0 0 0.419608 0 0 0 0 0.419608 0 0 0 0.65 0"/>
<feBlend mode="normal" in2="BackgroundImageFix" result="effect1_dropShadow_4062_2648"/>
<feBlend mode="normal" in="SourceGraphic" in2="effect1_dropShadow_4062_2648" result="shape"/>
</filter>
</defs>
</svg>
