<svg width="151" height="151" viewBox="0 0 151 151" fill="none" xmlns="http://www.w3.org/2000/svg">
<g filter="url(#filter0_d_4360_757)">
<rect x="37" y="24" width="77" height="77" rx="38.5" fill="#FFD700" shape-rendering="crispEdges"/>
<g clip-path="url(#clip0_4360_757)">
<path d="M71.75 70H79.25C79.8467 70 80.419 69.7629 80.841 69.341C81.2629 68.919 81.5 68.3467 81.5 67.75V61C81.5 60.4033 81.2629 59.831 80.841 59.409C80.419 58.9871 79.8467 58.75 79.25 58.75V57.25C79.25 56.2554 78.8549 55.3016 78.1517 54.5983C77.4484 53.8951 76.4946 53.5 75.5 53.5C74.5054 53.5 73.5516 53.8951 72.8483 54.5983C72.1451 55.3016 71.75 56.2554 71.75 57.25V58.75C71.1533 58.75 70.581 58.9871 70.159 59.409C69.7371 59.831 69.5 60.4033 69.5 61V67.75C69.5 68.3467 69.7371 68.919 70.159 69.341C70.581 69.7629 71.1533 70 71.75 70ZM73.25 57.25C73.25 56.6533 73.4871 56.081 73.909 55.659C74.331 55.2371 74.9033 55 75.5 55C76.0967 55 76.669 55.2371 77.091 55.659C77.5129 56.081 77.75 56.6533 77.75 57.25V58.75H73.25V57.25ZM71 61C71 60.8011 71.079 60.6103 71.2197 60.4697C71.3603 60.329 71.5511 60.25 71.75 60.25H79.25C79.4489 60.25 79.6397 60.329 79.7803 60.4697C79.921 60.6103 80 60.8011 80 61V67.75C80 67.9489 79.921 68.1397 79.7803 68.2803C79.6397 68.421 79.4489 68.5 79.25 68.5H71.75C71.5511 68.5 71.3603 68.421 71.2197 68.2803C71.079 68.1397 71 67.9489 71 67.75V61Z" fill="white"/>
<path d="M74.75 66.112V66.25C74.75 66.449 74.829 66.6397 74.9697 66.7804C75.1103 66.921 75.3011 67 75.5 67C75.6989 67 75.8897 66.921 76.0303 66.7804C76.171 66.6397 76.25 66.449 76.25 66.25V66.112C76.7504 65.9351 77.1722 65.587 77.4407 65.1292C77.7093 64.6714 77.8074 64.1334 77.7176 63.6102C77.6278 63.0871 77.3561 62.6126 76.9502 62.2705C76.5444 61.9284 76.0308 61.7407 75.5 61.7407C74.9692 61.7407 74.4556 61.9284 74.0498 62.2705C73.644 62.6126 73.3722 63.0871 73.2824 63.6102C73.1927 64.1334 73.2907 64.6714 73.5593 65.1292C73.8278 65.587 74.2496 65.9351 74.75 66.112ZM75.5 63.25C75.6989 63.25 75.8897 63.3291 76.0303 63.4697C76.171 63.6104 76.25 63.8011 76.25 64C76.25 64.199 76.171 64.3897 76.0303 64.5304C75.8897 64.671 75.6989 64.75 75.5 64.75C75.3011 64.75 75.1103 64.671 74.9697 64.5304C74.829 64.3897 74.75 64.199 74.75 64C74.75 63.8011 74.829 63.6104 74.9697 63.4697C75.1103 63.3291 75.3011 63.25 75.5 63.25Z" fill="white"/>
<path d="M62.75 62.5C62.75 69.5417 68.4583 75.25 75.5 75.25C82.5418 75.25 88.25 69.5417 88.25 62.5C88.25 55.4583 82.5418 49.75 75.5 49.75C68.4613 49.7575 62.7575 55.4612 62.75 62.5ZM75.5 51.25C81.713 51.25 86.75 56.287 86.75 62.5C86.75 68.713 81.713 73.75 75.5 73.75C69.287 73.75 64.25 68.713 64.25 62.5C64.2575 56.29 69.29 51.2575 75.5 51.25ZM90.5 79C89.8368 79.0025 89.1932 79.2246 88.6697 79.6317C88.1462 80.0388 87.7723 80.6079 87.6065 81.25H82.25V76.7163C83.9269 75.9269 85.4505 74.8464 86.75 73.525C86.8206 73.455 86.8766 73.3717 86.9147 73.2799C86.9528 73.1881 86.9723 73.0897 86.972 72.9903C86.9717 72.8909 86.9517 72.7925 86.9131 72.701C86.8745 72.6094 86.818 72.5264 86.7471 72.4568C86.6761 72.3872 86.592 72.3324 86.4997 72.2956C86.4073 72.2588 86.3086 72.2408 86.2092 72.2425C86.1098 72.2442 86.0118 72.2656 85.9208 72.3055C85.8298 72.3454 85.7476 72.403 85.679 72.475C84.4056 73.7769 82.8939 74.8221 81.2263 75.5537C81.1255 75.5937 81.0349 75.6555 80.9608 75.7345C80.9525 75.7435 80.948 75.7555 80.9398 75.766C80.8849 75.827 80.8405 75.8967 80.8085 75.9723C80.7938 76.0194 80.784 76.0679 80.7793 76.117C80.7653 76.1595 80.7555 76.2032 80.75 76.2475V81.25C80.75 81.6478 80.908 82.0294 81.1893 82.3107C81.4707 82.592 81.8522 82.75 82.25 82.75H87.6065C87.7477 83.2919 88.0381 83.7834 88.4446 84.1686C88.8511 84.5538 89.3575 84.8173 89.9062 84.9291C90.4549 85.041 91.024 84.9968 91.5489 84.8015C92.0738 84.6061 92.5333 84.2676 92.8755 83.8242C93.2176 83.3808 93.4285 82.8504 93.4843 82.2932C93.5401 81.7359 93.4385 81.1742 93.1912 80.6718C92.9438 80.1694 92.5605 79.7464 92.0848 79.4509C91.6091 79.1554 91.06 78.9992 90.5 79ZM90.5 83.5C90.1022 83.5 89.7206 83.342 89.4393 83.0607C89.158 82.7794 89 82.3978 89 82C89 81.6022 89.158 81.2206 89.4393 80.9393C89.7206 80.658 90.1022 80.5 90.5 80.5C90.8978 80.5 91.2794 80.658 91.5607 80.9393C91.842 81.2206 92 81.6022 92 82C92 82.3978 91.842 82.7794 91.5607 83.0607C91.2794 83.342 90.8978 83.5 90.5 83.5ZM58.8935 70.75H62.5175C62.5235 70.75 62.5288 70.7463 62.5355 70.7463C62.6101 70.7429 62.6837 70.728 62.7538 70.702C62.7887 70.6905 62.8228 70.6765 62.8558 70.66C62.864 70.6555 62.8738 70.654 62.882 70.6488C62.8903 70.6435 62.903 70.6278 62.915 70.6195C62.983 70.5775 63.0434 70.5243 63.0935 70.462C63.1024 70.4504 63.1106 70.4384 63.1183 70.426C63.1668 70.3577 63.2033 70.2816 63.2263 70.201C63.2263 70.1898 63.2308 70.1785 63.233 70.1672C63.2511 70.1131 63.2627 70.0569 63.2675 70C63.2636 69.9716 63.2579 69.9436 63.2503 69.916C63.2503 69.9062 63.2503 69.8972 63.245 69.8867C63.2323 69.7988 63.2036 69.7139 63.1603 69.6362L63.1565 69.6243C62.3875 68.2967 61.8398 66.8528 61.535 65.3492C61.5153 65.2527 61.4768 65.161 61.4217 65.0794C61.3665 64.9978 61.2958 64.9278 61.2137 64.8735C61.1315 64.8191 61.0394 64.7815 60.9427 64.7628C60.846 64.7441 60.7465 64.7446 60.65 64.7643C60.5535 64.7839 60.4618 64.8225 60.3802 64.8776C60.2985 64.9327 60.2285 65.0034 60.1742 65.0856C60.1199 65.1678 60.0823 65.2598 60.0636 65.3566C60.0448 65.4533 60.0453 65.5527 60.065 65.6493C60.317 66.8935 60.7205 68.1018 61.265 69.2493H58.8935C58.711 68.5423 58.2768 67.9261 57.6725 67.5163C57.0682 67.1065 56.3351 66.9312 55.6108 67.0232C54.8864 67.1152 54.2205 67.4682 53.7378 68.0161C53.2551 68.564 52.9888 69.2691 52.9888 69.9993C52.9888 70.7294 53.2551 71.4345 53.7378 71.9824C54.2205 72.5303 54.8864 72.8833 55.6108 72.9753C56.3351 73.0673 57.0682 72.892 57.6725 72.4822C58.2768 72.0724 58.711 71.457 58.8935 70.75ZM56 71.5C55.6022 71.5 55.2207 71.342 54.9393 71.0607C54.658 70.7794 54.5 70.3978 54.5 70C54.5 69.6022 54.658 69.2206 54.9393 68.9393C55.2207 68.658 55.6022 68.5 56 68.5C56.3978 68.5 56.7794 68.658 57.0607 68.9393C57.342 69.2206 57.5 69.6022 57.5 70C57.5 70.3978 57.342 70.7794 57.0607 71.0607C56.7794 71.342 56.3978 71.5 56 71.5Z" fill="white"/>
<path d="M53 55C52.9991 55.7292 53.2644 56.4337 53.746 56.9813C54.2277 57.5288 54.8926 57.8817 55.616 57.9738C56.3394 58.0658 57.0716 57.8907 57.675 57.4813C58.2785 57.0718 58.7117 56.4562 58.8935 55.75H62.5378C62.612 55.7455 62.6848 55.7305 62.7545 55.7058C62.7875 55.6952 62.8195 55.6822 62.8505 55.6668C62.8905 55.6457 62.9282 55.6206 62.963 55.5918C63.0263 55.544 63.081 55.4859 63.125 55.42C63.1348 55.4058 63.1475 55.3953 63.1565 55.3803C64.1182 53.7114 65.4088 52.2552 66.95 51.1C67.0288 51.0409 67.0952 50.9669 67.1454 50.8821C67.1955 50.7974 67.2285 50.7036 67.2425 50.6061C67.2564 50.5086 67.251 50.4093 67.2265 50.3139C67.2021 50.2185 67.1591 50.1288 67.1 50.05C67.0409 49.9712 66.9669 49.9048 66.8821 49.8547C66.7974 49.8045 66.7036 49.7715 66.6061 49.7575C66.5086 49.7436 66.4093 49.749 66.3139 49.7735C66.2185 49.7979 66.1288 49.8409 66.05 49.9C64.4716 51.0889 63.1315 52.5647 62.0998 54.25H58.8935C58.7117 53.5438 58.2785 52.9282 57.675 52.5187C57.0716 52.1093 56.3394 51.9342 55.616 52.0262C54.8926 52.1183 54.2277 52.4712 53.746 53.0187C53.2644 53.5663 52.9991 54.2708 53 55ZM57.5 55C57.5 55.3978 57.342 55.7794 57.0607 56.0607C56.7794 56.342 56.3978 56.5 56 56.5C55.6022 56.5 55.2206 56.342 54.9393 56.0607C54.658 55.7794 54.5 55.3978 54.5 55C54.5 54.6022 54.658 54.2207 54.9393 53.9393C55.2206 53.658 55.6022 53.5 56 53.5C56.3978 53.5 56.7794 53.658 57.0607 53.9393C57.342 54.2207 57.5 54.6022 57.5 55ZM95 67C94.3368 67.0025 93.6932 67.2246 93.1697 67.6317C92.6462 68.0388 92.2723 68.6079 92.1065 69.25H89.7343C90.2794 68.1034 90.6824 66.8944 90.9343 65.65C90.974 65.455 90.9347 65.2521 90.8249 65.0861C90.7152 64.9201 90.5439 64.8044 90.3489 64.7646C90.1538 64.7249 89.951 64.7642 89.785 64.874C89.6189 64.9837 89.5033 65.155 89.4635 65.35C89.1593 66.8535 88.6121 68.2975 87.8435 69.625V69.6348C87.7987 69.7141 87.7692 69.8011 87.7565 69.8913C87.7565 69.8995 87.7565 69.907 87.7513 69.9153C87.7438 69.943 87.737 69.9715 87.7325 70C87.737 70.0589 87.7486 70.1171 87.767 70.1733C87.7887 70.2648 87.8282 70.3512 87.8833 70.4275C87.8908 70.4388 87.8968 70.45 87.905 70.4605C87.9558 70.5231 88.0166 70.5768 88.085 70.6195C88.097 70.6278 88.1045 70.6405 88.1173 70.648C88.13 70.6555 88.1353 70.6548 88.1435 70.6593C88.1765 70.6765 88.211 70.6908 88.247 70.702C88.3167 70.7271 88.3898 70.7418 88.4638 70.7455C88.4705 70.7455 88.4758 70.7493 88.4825 70.7493H92.1065C92.2476 71.2913 92.5379 71.7828 92.9443 72.1681C93.3508 72.5534 93.8571 72.8171 94.4059 72.929C94.9546 73.041 95.5238 72.9969 96.0487 72.8016C96.5736 72.6064 97.0333 72.2678 97.3755 71.8244C97.7176 71.3811 97.9286 70.8506 97.9845 70.2934C98.0403 69.7361 97.9388 69.1743 97.6914 68.6719C97.444 68.1694 97.0606 67.7464 96.5849 67.4509C96.1091 67.1553 95.5601 66.9991 95 67ZM95 71.5C94.6022 71.5 94.2206 71.342 93.9393 71.0607C93.658 70.7794 93.5 70.3978 93.5 70C93.5 69.6022 93.658 69.2207 93.9393 68.9394C94.2206 68.658 94.6022 68.5 95 68.5C95.3978 68.5 95.7794 68.658 96.0607 68.9394C96.342 69.2207 96.5 69.6022 96.5 70C96.5 70.3978 96.342 70.7794 96.0607 71.0607C95.7794 71.342 95.3978 71.5 95 71.5ZM70.25 76.2603V76.2475C70.2452 76.2054 70.237 76.1638 70.2253 76.123C70.22 76.0721 70.2097 76.0219 70.1945 75.973C70.1629 75.8986 70.1194 75.83 70.0655 75.7698C70.0558 75.7585 70.0513 75.745 70.0415 75.7345C69.9671 75.6554 69.8762 75.5937 69.7753 75.5538C67.812 74.6873 66.0679 73.3921 64.6708 71.7633C64.6076 71.6856 64.5296 71.6213 64.4412 71.5742C64.3529 71.5271 64.256 71.4982 64.1563 71.4892C64.0566 71.4802 63.9561 71.4912 63.8607 71.5216C63.7653 71.552 63.677 71.6012 63.6009 71.6663C63.5249 71.7314 63.4626 71.8111 63.4178 71.9006C63.373 71.9901 63.3466 72.0877 63.3402 72.1876C63.3337 72.2875 63.3473 72.3877 63.3802 72.4823C63.413 72.5769 63.4645 72.6639 63.5315 72.7383C64.9738 74.4171 66.7514 75.7757 68.75 76.7268V81.25H63.3935C63.211 80.543 62.7768 79.9269 62.1725 79.5171C61.5682 79.1073 60.8351 78.9319 60.1108 79.0239C59.3864 79.1159 58.7205 79.469 58.2378 80.0168C57.7551 80.5647 57.4888 81.2698 57.4888 82C57.4888 82.7302 57.7551 83.4353 58.2378 83.9832C58.7205 84.5311 59.3864 84.8841 60.1108 84.9761C60.8351 85.0681 61.5682 84.8928 62.1725 84.483C62.7768 84.0732 63.211 83.457 63.3935 82.75H68.75C69.1478 82.75 69.5294 82.592 69.8107 82.3107C70.092 82.0294 70.25 81.6478 70.25 81.25V76.2603ZM60.5 83.5C60.1022 83.5 59.7206 83.342 59.4393 83.0607C59.158 82.7794 59 82.3978 59 82C59 81.6022 59.158 81.2207 59.4393 80.9394C59.7206 80.6581 60.1022 80.5 60.5 80.5C60.8978 80.5 61.2794 80.6581 61.5607 80.9394C61.842 81.2207 62 81.6022 62 82C62 82.3978 61.842 82.7794 61.5607 83.0607C61.2794 83.342 60.8978 83.5 60.5 83.5ZM78.35 76.465C76.4688 76.8428 74.5312 76.8428 72.65 76.465C72.5525 76.4427 72.4516 76.44 72.353 76.4573C72.2545 76.4745 72.1605 76.5113 72.0764 76.5654C71.9923 76.6195 71.9198 76.6899 71.8634 76.7725C71.8069 76.855 71.7675 76.948 71.7475 77.046C71.7275 77.144 71.7273 77.245 71.7469 77.343C71.7665 77.4411 71.8055 77.5343 71.8616 77.617C71.9178 77.6998 71.9899 77.7705 72.0738 77.825C72.1576 77.8795 72.2516 77.9166 72.35 77.9343C73.142 78.088 73.9438 78.1818 74.75 78.2125V84.25C74.75 84.4489 74.829 84.6397 74.9697 84.7803C75.1103 84.921 75.3011 85 75.5 85C75.6989 85 75.8897 84.921 76.0303 84.7803C76.171 84.6397 76.25 84.4489 76.25 84.25V78.2125C77.0559 78.1812 77.8583 78.0881 78.65 77.9343C78.8408 77.8905 79.007 77.7738 79.113 77.6092C79.2189 77.4446 79.2563 77.245 79.2171 77.0532C79.178 76.8614 79.0654 76.6925 78.9033 76.5826C78.7413 76.4727 78.5427 76.4305 78.35 76.465ZM68.75 42.25H63.3935C63.211 41.543 62.7768 40.9269 62.1725 40.5171C61.5682 40.1072 60.8351 39.9319 60.1108 40.0239C59.3864 40.1159 58.7205 40.469 58.2378 41.0168C57.7551 41.5647 57.4888 42.2698 57.4888 43C57.4888 43.7302 57.7551 44.4353 58.2378 44.9832C58.7205 45.5311 59.3864 45.8841 60.1108 45.9761C60.8351 46.0681 61.5682 45.8928 62.1725 45.483C62.7768 45.0732 63.211 44.457 63.3935 43.75H68.75V48.754C68.75 48.784 68.7643 48.8133 68.768 48.8433C68.7755 48.9213 68.7958 48.997 68.8273 49.0683C68.8742 49.169 68.9443 49.2572 69.032 49.3255C69.0994 49.381 69.1758 49.4246 69.2578 49.4545C69.311 49.4718 69.3665 49.4823 69.4228 49.4875C69.4474 49.4943 69.4725 49.4995 69.4978 49.5033C69.6052 49.501 69.7109 49.4754 69.8075 49.4283C70.7212 49.0321 71.6739 48.733 72.65 48.5358C72.845 48.496 73.0163 48.3803 73.1261 48.2143C73.2358 48.0483 73.2752 47.8454 73.2354 47.6504C73.1956 47.4553 73.08 47.2841 72.9139 47.1743C72.7479 47.0645 72.545 47.0252 72.35 47.065C71.6375 47.2105 70.9355 47.4063 70.25 47.65V43.75C70.25 43.3522 70.092 42.9707 69.8107 42.6893C69.5294 42.408 69.1478 42.25 68.75 42.25ZM60.5 44.5C60.1022 44.5 59.7206 44.342 59.4393 44.0607C59.158 43.7794 59 43.3978 59 43C59 42.6022 59.158 42.2207 59.4393 41.9393C59.7206 41.658 60.1022 41.5 60.5 41.5C60.8978 41.5 61.2794 41.658 61.5607 41.9393C61.842 42.2207 62 42.6022 62 43C62 43.3978 61.842 43.7794 61.5607 44.0607C61.2794 44.342 60.8978 44.5 60.5 44.5ZM87.6065 43.75C87.7891 44.457 88.2232 45.0732 88.8275 45.483C89.4318 45.8928 90.1649 46.0681 90.8893 45.9761C91.6136 45.8841 92.2796 45.5311 92.7622 44.9832C93.2449 44.4353 93.5112 43.7302 93.5112 43C93.5112 42.2698 93.2449 41.5647 92.7622 41.0168C92.2796 40.469 91.6136 40.1159 90.8893 40.0239C90.1649 39.9319 89.4318 40.1072 88.8275 40.5171C88.2232 40.9269 87.7891 41.543 87.6065 42.25H82.25C81.8522 42.25 81.4706 42.408 81.1893 42.6893C80.908 42.9707 80.75 43.3522 80.75 43.75V48.7518C80.7546 48.796 80.7633 48.8397 80.7763 48.8823C80.7808 48.9318 80.7913 48.9798 80.8055 49.027C80.8378 49.102 80.882 49.1725 80.9368 49.2333C80.945 49.243 80.9495 49.2558 80.9578 49.2648C81.032 49.3435 81.1228 49.4058 81.2233 49.4455C82.8906 50.1761 84.4023 51.22 85.676 52.5205C85.7435 52.5956 85.8255 52.6562 85.9171 52.6988C86.0086 52.7414 86.1078 52.7651 86.2087 52.7684C86.3096 52.7717 86.4102 52.7547 86.5043 52.7182C86.5985 52.6817 86.6843 52.6267 86.7567 52.5562C86.829 52.4858 86.8864 52.4015 86.9254 52.3084C86.9643 52.2152 86.9841 52.1152 86.9835 52.0142C86.9829 51.9132 86.9619 51.8134 86.9217 51.7208C86.8816 51.6281 86.8232 51.5445 86.75 51.475C85.4505 50.1536 83.9269 49.0731 82.25 48.2838V43.75H87.6065ZM90.5 41.5C90.8978 41.5 91.2794 41.658 91.5607 41.9393C91.842 42.2207 92 42.6022 92 43C92 43.3978 91.842 43.7794 91.5607 44.0607C91.2794 44.342 90.8978 44.5 90.5 44.5C90.1022 44.5 89.7206 44.342 89.4393 44.0607C89.158 43.7794 89 43.3978 89 43C89 42.6022 89.158 42.2207 89.4393 41.9393C89.7206 41.658 90.1022 41.5 90.5 41.5ZM75.5 40C75.3011 40 75.1103 40.079 74.9697 40.2197C74.829 40.3603 74.75 40.5511 74.75 40.75V47.5C74.75 47.6989 74.829 47.8897 74.9697 48.0303C75.1103 48.171 75.3011 48.25 75.5 48.25C76.457 48.25 77.4125 48.3453 78.35 48.535C78.5427 48.5695 78.7413 48.5274 78.9033 48.4175C79.0654 48.3075 79.178 48.1386 79.2171 47.9468C79.2563 47.755 79.2189 47.5554 79.113 47.3908C79.007 47.2262 78.8408 47.1095 78.65 47.0658C77.8583 46.9119 77.0559 46.8189 76.25 46.7875V40.75C76.25 40.5511 76.171 40.3603 76.0303 40.2197C75.8897 40.079 75.6989 40 75.5 40ZM92.1065 55.75C92.2891 56.457 92.7232 57.0732 93.3275 57.483C93.9318 57.8928 94.6649 58.0681 95.3893 57.9761C96.1136 57.8841 96.7796 57.5311 97.2622 56.9832C97.7449 56.4353 98.0112 55.7302 98.0112 55C98.0112 54.2698 97.7449 53.5647 97.2622 53.0168C96.7796 52.469 96.1136 52.1159 95.3893 52.0239C94.6649 51.9319 93.9318 52.1072 93.3275 52.5171C92.7232 52.9269 92.2891 53.543 92.1065 54.25H88.4825C88.4683 54.25 88.457 54.2575 88.4435 54.2575C88.4 54.2622 88.3571 54.271 88.3153 54.2838C88.2536 54.2959 88.1939 54.3161 88.1375 54.3438C88.1315 54.3438 88.124 54.3438 88.1173 54.3513C88.1105 54.3588 88.0978 54.3715 88.085 54.3798C88.0166 54.4225 87.9558 54.4762 87.905 54.5388C87.8968 54.5493 87.8908 54.5605 87.8833 54.5718C87.8336 54.6397 87.7963 54.7159 87.773 54.7968C87.773 54.8065 87.773 54.8163 87.767 54.826C87.7486 54.8824 87.737 54.9408 87.7325 55C87.7363 55.0285 87.7423 55.057 87.749 55.0855C87.749 55.0938 87.7528 55.1013 87.7543 55.1095C87.767 55.1995 87.7963 55.2865 87.8413 55.366V55.3758C89.0921 57.5417 89.7504 59.9988 89.75 62.5C89.75 62.6989 89.829 62.8897 89.9697 63.0303C90.1103 63.171 90.3011 63.25 90.5 63.25H97.25C97.4489 63.25 97.6397 63.171 97.7803 63.0303C97.921 62.8897 98 62.6989 98 62.5C98 62.3011 97.921 62.1103 97.7803 61.9697C97.6397 61.829 97.4489 61.75 97.25 61.75H91.2253C91.1269 59.6705 90.6171 57.6311 89.7253 55.75H92.1065ZM95 53.5C95.3978 53.5 95.7794 53.658 96.0607 53.9393C96.342 54.2207 96.5 54.6022 96.5 55C96.5 55.3978 96.342 55.7794 96.0607 56.0607C95.7794 56.342 95.3978 56.5 95 56.5C94.6022 56.5 94.2206 56.342 93.9393 56.0607C93.658 55.7794 93.5 55.3978 93.5 55C93.5 54.6022 93.658 54.2207 93.9393 53.9393C94.2206 53.658 94.6022 53.5 95 53.5ZM53.75 63.25H60.5C60.6989 63.25 60.8897 63.171 61.0303 63.0303C61.171 62.8897 61.25 62.6989 61.25 62.5C61.2484 60.9846 61.4887 59.4787 61.9618 58.039C61.9925 57.9454 62.0046 57.8467 61.9972 57.7485C61.9898 57.6503 61.9632 57.5545 61.9188 57.4665C61.8744 57.3786 61.8131 57.3003 61.7384 57.2361C61.6638 57.1718 61.5772 57.1229 61.4836 57.0921C61.3901 57.0614 61.2913 57.0493 61.1931 57.0567C61.0949 57.0641 60.9991 57.0907 60.9112 57.1351C60.8232 57.1795 60.7449 57.2408 60.6807 57.3154C60.6164 57.3901 60.5675 57.4767 60.5368 57.5703C60.0962 58.9228 59.8413 60.3289 59.7793 61.75H53.75C53.5511 61.75 53.3603 61.829 53.2197 61.9697C53.079 62.1103 53 62.3011 53 62.5C53 62.6989 53.079 62.8897 53.2197 63.0303C53.3603 63.171 53.5511 63.25 53.75 63.25Z" fill="white"/>
</g>
</g>
<defs>
<filter id="filter0_d_4360_757" x="0.700001" y="0.700001" width="149.6" height="149.6" filterUnits="userSpaceOnUse" color-interpolation-filters="sRGB">
<feFlood flood-opacity="0" result="BackgroundImageFix"/>
<feColorMatrix in="SourceAlpha" type="matrix" values="0 0 0 0 0 0 0 0 0 0 0 0 0 0 0 0 0 0 127 0" result="hardAlpha"/>
<feOffset dy="13"/>
<feGaussianBlur stdDeviation="18.15"/>
<feComposite in2="hardAlpha" operator="out"/>
<feColorMatrix type="matrix" values="0 0 0 0 1 0 0 0 0 0.843137 0 0 0 0 0 0 0 0 0.65 0"/>
<feBlend mode="normal" in2="BackgroundImageFix" result="effect1_dropShadow_4360_757"/>
<feBlend mode="normal" in="SourceGraphic" in2="effect1_dropShadow_4360_757" result="shape"/>
</filter>
<clipPath id="clip0_4360_757">
<rect width="45" height="45" fill="white" transform="translate(53 40)"/>
</clipPath>
</defs>
</svg>
