<svg width="47" height="47" viewBox="0 0 47 47" fill="none" xmlns="http://www.w3.org/2000/svg">
<path d="M19.0281 37.3934C19.4253 37.3934 19.7473 37.0714 19.7473 36.6742C19.7473 36.277 19.4253 35.955 19.0281 35.955C18.6309 35.955 18.3088 36.277 18.3088 36.6742C18.3088 37.0714 18.6309 37.3934 19.0281 37.3934Z" fill="white"/>
<path d="M44.1231 20.4592H37.1515V19.2842C37.8422 19.1062 38.5116 18.8498 39.1454 18.4938L40.6409 19.3982C40.8189 19.505 41.0183 19.562 41.2177 19.562C41.5025 19.562 41.7874 19.448 42.001 19.2344L43.0122 18.2232C43.3754 17.86 43.4395 17.3045 43.176 16.863L42.2716 15.3676C42.5921 14.7907 42.8484 14.1854 43.0265 13.5517L44.7213 13.1315C45.2198 13.0104 45.5616 12.5618 45.5616 12.0562V10.6248C45.5616 10.1121 45.2127 9.67059 44.7213 9.54953L43.0265 9.12938C42.8484 8.49559 42.5992 7.89029 42.2716 7.31347L43.176 5.81802C43.4395 5.3765 43.3754 4.82105 43.0122 4.45786L42.001 3.43953C41.6378 3.07635 41.0824 3.01226 40.6409 3.27574L39.1454 4.18014C38.5686 3.85968 37.9633 3.60332 37.3295 3.42529L36.9093 1.73044C36.7883 1.23195 36.3468 0.890137 35.834 0.890137H34.3956C33.8828 0.890137 33.4413 1.23908 33.3203 1.73044L32.9001 3.42529C32.2663 3.60332 31.661 3.85256 31.0842 4.18014L29.5887 3.27574C29.1543 3.01226 28.5918 3.07635 28.2286 3.43953L27.2174 4.45074C26.8542 4.81392 26.783 5.36938 27.0536 5.81089L27.958 7.30635C27.6304 7.88317 27.3812 8.48847 27.2031 9.12226L25.5083 9.54241C25.0098 9.66347 24.668 10.105 24.668 10.6177V12.0491C24.668 12.0847 24.6822 12.1132 24.6822 12.1417H2.87708C1.79465 12.1417 0.911621 13.0247 0.911621 14.1071V38.3121C0.911621 39.3945 1.79465 40.2776 2.87708 40.2776H13.2598V42.1789H10.86C9.77753 42.1789 8.8945 43.062 8.8945 44.1444V45.5757C8.8945 45.8677 9.13662 46.1098 9.42859 46.1098H44.1231C45.2056 46.1098 46.0886 45.2268 46.0886 44.1444V22.4247C46.0886 21.3423 45.2056 20.4592 44.1231 20.4592ZM35.186 12.1488H31.604C31.54 11.8782 31.4972 11.6076 31.4972 11.337C31.4972 9.34302 33.1209 7.71938 35.1148 7.71938C37.1087 7.71938 38.7324 9.34302 38.7324 11.337C38.7324 12.5547 38.1271 13.6514 37.1515 14.3136V14.1142C37.1515 13.0318 36.2684 12.1488 35.186 12.1488ZM25.7647 10.5821L27.7657 10.0907C27.958 10.0409 28.1147 9.89135 28.1574 9.69196C28.3354 8.95135 28.6274 8.23923 29.0333 7.5912C29.1401 7.42029 29.1401 7.20665 29.0333 7.03574L27.9722 5.21983L29.0404 4.2015L30.8065 5.26968C30.9774 5.3765 31.191 5.3765 31.3619 5.26968C32.0171 4.86377 32.7221 4.5718 33.4627 4.39377C33.655 4.35105 33.8116 4.19438 33.8615 4.00211L34.3956 1.96544L35.8697 1.99392L36.361 3.99499C36.4109 4.18726 36.5604 4.34392 36.7598 4.38665C37.5004 4.56468 38.2125 4.85665 38.8606 5.26256C39.0315 5.36938 39.2451 5.36938 39.416 5.26256L41.2319 4.2015L42.2503 5.26968L41.1821 7.03574C41.0753 7.20665 41.0824 7.42029 41.1821 7.5912C41.588 8.24635 41.88 8.95135 42.058 9.69196C42.1007 9.88423 42.2574 10.0409 42.4496 10.0907L44.4863 10.6248L44.4578 12.0989L42.4568 12.5903C42.2645 12.6401 42.1078 12.7897 42.0651 12.9891C41.8886 13.7321 41.5928 14.4415 41.1892 15.0898C41.0824 15.2607 41.0824 15.4744 41.1892 15.6453L42.2503 17.4612L41.1821 18.4795L39.416 17.4114C39.3322 17.3607 39.2362 17.3339 39.1383 17.3339C39.0404 17.3339 38.9443 17.3607 38.8606 17.4114C38.3254 17.7415 37.7481 17.9978 37.1443 18.1733V15.5313C38.7609 14.748 39.7934 13.1457 39.7934 11.3298C39.7934 8.74483 37.6927 6.64408 35.1077 6.64408C32.5227 6.64408 30.4219 8.74483 30.4219 11.3298C30.4219 11.6004 30.4504 11.871 30.5003 12.1417H25.9213C25.8649 12.0968 25.7992 12.0652 25.729 12.0491L25.7647 10.5821ZM2.87708 39.2094C2.38571 39.2094 1.9798 38.8035 1.9798 38.3121V34.1391H21.2356V39.2094H2.87708ZM21.2356 40.2776V42.1789H14.328V40.2776H21.2356ZM9.96268 45.0417V44.1444C9.96268 43.653 10.3686 43.2471 10.86 43.2471H21.2427V44.1444C21.2427 44.472 21.3281 44.771 21.4706 45.0417H9.96268ZM21.2356 22.4247V33.0638H1.9798V14.1142C1.9798 13.6157 2.38571 13.217 2.87708 13.217H35.186C35.6774 13.217 36.0833 13.6229 36.0833 14.1142V20.4592H23.201C22.1186 20.4592 21.2356 21.3423 21.2356 22.4247ZM45.0204 44.1444C45.0204 44.6357 44.6145 45.0417 44.1231 45.0417H23.201C22.7097 45.0417 22.3037 44.6357 22.3037 44.1444V26.2559H45.0204V44.1444ZM45.0204 25.1877H22.3037V22.4318C22.3037 21.9333 22.7097 21.5345 23.201 21.5345H44.1231C44.6216 21.5345 45.0204 21.9404 45.0204 22.4318V25.1877Z" fill="white"/>
<path d="M7.82631 18.7929C7.7258 18.6935 7.59019 18.6378 7.44888 18.6378C7.30758 18.6378 7.17197 18.6935 7.07146 18.7929L4.65025 21.2141C4.44373 21.4206 4.44373 21.7624 4.65025 21.9689L7.07146 24.3901C7.17828 24.497 7.31358 24.5468 7.44888 24.5468C7.58419 24.5468 7.71949 24.497 7.82631 24.3901C8.03282 24.1836 8.03282 23.8418 7.82631 23.6353L5.78252 21.5915L7.82631 19.5477C8.03994 19.3412 8.03994 18.9994 7.82631 18.7929ZM15.154 18.7929C14.9475 18.5864 14.6057 18.5864 14.3992 18.7929C14.1927 18.9994 14.1927 19.3412 14.3992 19.5477L16.443 21.5915L14.3992 23.6353C14.1927 23.8418 14.1927 24.1836 14.3992 24.3901C14.506 24.497 14.6413 24.5468 14.7766 24.5468C14.9119 24.5468 15.0472 24.497 15.154 24.3901L17.5752 21.9689C17.6753 21.8688 17.7314 21.733 17.7314 21.5915C17.7314 21.45 17.6753 21.3142 17.5752 21.2141L15.154 18.7929ZM13.4877 16.4998C13.359 16.4414 13.2125 16.4355 13.0795 16.4834C12.9465 16.5312 12.8375 16.6291 12.7756 16.7562L8.47434 25.9782C8.43649 26.0597 8.41975 26.1495 8.42566 26.2392C8.43157 26.3289 8.45994 26.4157 8.50816 26.4915C8.55638 26.5674 8.6229 26.6299 8.70161 26.6734C8.78032 26.7168 8.86868 26.7398 8.95858 26.7401C9.15797 26.7401 9.35025 26.6262 9.44282 26.4339L13.744 17.212C13.7741 17.1484 13.7913 17.0795 13.7947 17.0093C13.7981 16.939 13.7876 16.8688 13.7638 16.8026C13.7399 16.7365 13.7033 16.6757 13.6559 16.6237C13.6085 16.5717 13.5514 16.5296 13.4877 16.4998ZM24.6324 40.1992H31.4972C31.7892 40.1992 32.0313 39.9571 32.0313 39.6651C32.0313 39.3732 31.7892 39.1311 31.4972 39.1311H24.6324C24.3404 39.1311 24.0983 39.3732 24.0983 39.6651C24.0983 39.9571 24.3404 40.1992 24.6324 40.1992ZM24.6324 43.2471H27.9152C28.2072 43.2471 28.4493 43.005 28.4493 42.713C28.4493 42.421 28.2072 42.1789 27.9152 42.1789H24.6324C24.3404 42.1789 24.0983 42.421 24.0983 42.713C24.0983 43.005 24.3404 43.2471 24.6324 43.2471ZM42.6918 39.1311H35.8269C35.5349 39.1311 35.2928 39.3732 35.2928 39.6651C35.2928 39.9571 35.5349 40.1992 35.8269 40.1992H42.6918C42.9837 40.1992 43.2259 39.9571 43.2259 39.6651C43.2259 39.3732 42.9837 39.1311 42.6918 39.1311ZM39.1098 42.1789H35.8269C35.5349 42.1789 35.2928 42.421 35.2928 42.713C35.2928 43.005 35.5349 43.2471 35.8269 43.2471H39.1098C39.4018 43.2471 39.6439 43.005 39.6439 42.713C39.6439 42.421 39.4018 42.1789 39.1098 42.1789ZM24.1196 36.717C24.1268 36.7526 24.1268 36.7953 24.141 36.8238V36.8309C24.1695 36.8879 24.2051 36.9377 24.2407 36.9804C24.2549 36.9947 24.2621 37.0018 24.2763 37.0089C24.3119 37.0374 24.3475 37.0659 24.3902 37.0873C24.4045 37.0944 24.4259 37.1015 24.4401 37.1086C24.4971 37.13 24.5612 37.1442 24.6252 37.1442H42.6846C42.7487 37.1442 42.8128 37.13 42.8698 37.1086C42.884 37.1015 42.9054 37.0944 42.9196 37.0873C42.9624 37.0659 42.998 37.0374 43.0336 37.0089C43.0478 36.9947 43.0621 36.9876 43.0692 36.9804C43.1119 36.9377 43.1475 36.8879 43.1689 36.8309V36.8238C43.1831 36.7953 43.1831 36.7597 43.1902 36.7312C43.1974 36.6956 43.2116 36.66 43.2116 36.6173V28.5774C43.2116 28.5418 43.1974 28.5062 43.1902 28.4635C43.1831 28.435 43.1831 28.3994 43.1689 28.3709V28.3638C43.1618 28.3424 43.1404 28.3282 43.1262 28.3068C43.1048 28.2712 43.0834 28.2285 43.0478 28.2C43.0265 28.1786 42.998 28.1644 42.9695 28.1501C42.941 28.1288 42.9054 28.1074 42.8698 28.0932C42.8342 28.0789 42.7915 28.0789 42.7559 28.0718C42.7274 28.0647 42.706 28.0576 42.6704 28.0576H24.6324C24.6039 28.0576 24.5825 28.0718 24.554 28.0718C24.5113 28.0789 24.4686 28.0789 24.433 28.0932C24.3974 28.1074 24.376 28.1288 24.3475 28.1501C24.319 28.1715 24.2906 28.1857 24.2621 28.2071C24.2265 28.2356 24.2051 28.2783 24.1837 28.321C24.1695 28.3424 24.1552 28.3567 24.1481 28.378V28.3851C24.1339 28.4207 24.1339 28.4564 24.1268 28.492C24.1196 28.5276 24.1054 28.556 24.1054 28.5917V36.6386C24.0983 36.6529 24.1125 36.6885 24.1196 36.717ZM27.1462 36.0832L33.6621 33.1848L40.178 36.0832H27.1462ZM42.1577 35.7912L34.9795 32.5938L42.1577 29.3964V35.7912ZM40.178 29.1186L33.6621 32.017L27.1462 29.1186H40.178ZM25.1665 29.4035L32.3446 32.6009L25.1665 35.7983V29.4035ZM24.8246 22.6383C24.7307 22.6383 24.6376 22.6568 24.5508 22.6928C24.4639 22.7288 24.385 22.7815 24.3186 22.8479C24.2521 22.9144 24.1994 22.9933 24.1634 23.0801C24.1275 23.167 24.109 23.26 24.109 23.354C24.109 23.448 24.1275 23.5411 24.1634 23.6279C24.1994 23.7147 24.2521 23.7936 24.3186 23.8601C24.385 23.9265 24.4639 23.9792 24.5508 24.0152C24.6376 24.0512 24.7307 24.0697 24.8246 24.0697C24.9186 24.0697 25.0117 24.0512 25.0985 24.0152C25.1854 23.9792 25.2642 23.9265 25.3307 23.8601C25.3972 23.7936 25.4499 23.7147 25.4858 23.6279C25.5218 23.5411 25.5403 23.448 25.5403 23.354C25.5403 23.26 25.5218 23.167 25.4858 23.0801C25.4499 22.9933 25.3972 22.9144 25.3307 22.8479C25.2642 22.7815 25.1854 22.7288 25.0985 22.6928C25.0117 22.6568 24.9186 22.6383 24.8246 22.6383ZM27.4025 22.6383C27.3085 22.6383 27.2155 22.6568 27.1286 22.6928C27.0418 22.7288 26.9629 22.7815 26.8965 22.8479C26.83 22.9144 26.7773 22.9933 26.7413 23.0801C26.7054 23.167 26.6868 23.26 26.6868 23.354C26.6868 23.448 26.7054 23.5411 26.7413 23.6279C26.7773 23.7147 26.83 23.7936 26.8965 23.8601C26.9629 23.9265 27.0418 23.9792 27.1286 24.0152C27.2155 24.0512 27.3085 24.0697 27.4025 24.0697C27.4965 24.0697 27.5896 24.0512 27.6764 24.0152C27.7632 23.9792 27.8421 23.9265 27.9086 23.8601C27.975 23.7936 28.0278 23.7147 28.0637 23.6279C28.0997 23.5411 28.1182 23.448 28.1182 23.354C28.1182 23.26 28.0997 23.167 28.0637 23.0801C28.0278 22.9933 27.975 22.9144 27.9086 22.8479C27.8421 22.7815 27.7632 22.7288 27.6764 22.6928C27.5896 22.6568 27.4965 22.6383 27.4025 22.6383ZM29.9804 22.6383C29.8864 22.6383 29.7934 22.6568 29.7065 22.6928C29.6197 22.7288 29.5408 22.7815 29.4743 22.8479C29.4079 22.9144 29.3552 22.9933 29.3192 23.0801C29.2832 23.167 29.2647 23.26 29.2647 23.354C29.2647 23.448 29.2832 23.5411 29.3192 23.6279C29.3552 23.7147 29.4079 23.7936 29.4743 23.8601C29.5408 23.9265 29.6197 23.9792 29.7065 24.0152C29.7934 24.0512 29.8864 24.0697 29.9804 24.0697C30.0744 24.0697 30.1674 24.0512 30.2543 24.0152C30.3411 23.9792 30.42 23.9265 30.4865 23.8601C30.5529 23.7936 30.6056 23.7147 30.6416 23.6279C30.6776 23.5411 30.6961 23.448 30.6961 23.354C30.6961 23.26 30.6776 23.167 30.6416 23.0801C30.6056 22.9933 30.5529 22.9144 30.4865 22.8479C30.42 22.7815 30.3411 22.7288 30.2543 22.6928C30.1674 22.6568 30.0744 22.6383 29.9804 22.6383Z" fill="white"/>
</svg>
