<svg width="147" height="147" viewBox="0 0 147 147" fill="none" xmlns="http://www.w3.org/2000/svg">
<g filter="url(#filter0_d_4062_2670)">
<rect x="35" y="22" width="77" height="77" rx="38.5" fill="#00BFFF" shape-rendering="crispEdges"/>
<path d="M92.8438 68.144C91.3358 68.144 90.0878 69.184 89.7238 70.588H86.4998V64.66H86.9678C92.2718 64.66 96.8998 60.032 96.8998 54.78C96.8998 50.204 94.2478 46.616 89.9318 45.316C89.5158 41.988 87.3318 39.284 84.1598 38.088C80.9878 36.892 77.5039 37.568 75.0079 39.752C72.5639 38.66 69.5479 38.66 66.8439 39.804C64.5039 40.792 62.7359 42.56 61.9039 44.692C60.3439 44.588 58.7839 45.108 57.5879 46.2C56.3919 47.292 55.7159 48.748 55.7159 50.308C52.4399 51.088 50.0999 53.948 50.0999 57.432C50.0999 61.384 53.4279 64.712 57.3799 64.712H60.4999V70.588H57.2759C56.9119 69.184 55.6639 68.144 54.1559 68.144C52.3879 68.144 50.9319 69.6 50.9319 71.368C50.9319 73.136 52.3879 74.592 54.1559 74.592C55.6639 74.592 56.9119 73.552 57.2759 72.148H61.2799C61.6959 72.148 62.0599 71.784 62.0599 71.368V64.66H66.6359V72.72L63.6199 75.736C63.1519 75.424 62.5799 75.268 61.9559 75.268C60.1879 75.268 58.7319 76.724 58.7319 78.492C58.7319 80.26 60.1879 81.716 61.9559 81.716C63.7239 81.716 65.1799 80.26 65.1799 78.492C65.1799 77.868 65.0239 77.348 64.7119 76.828L67.8839 73.656C68.0399 73.5 68.0919 73.292 68.0919 73.084V64.66H72.6679V77.192C71.2639 77.556 70.2239 78.804 70.2239 80.312C70.2239 82.08 71.6799 83.536 73.4479 83.536C75.2159 83.536 76.6718 82.08 76.6718 80.312C76.6718 78.804 75.6319 77.556 74.2278 77.192V64.66H78.8039V73.084C78.8039 73.292 78.9078 73.5 79.0118 73.656L82.1838 76.828C81.8718 77.296 81.7159 77.868 81.7159 78.492C81.7159 80.26 83.1718 81.716 84.9398 81.716C86.7078 81.716 88.1638 80.26 88.1638 78.492C88.1638 76.724 86.7078 75.268 84.9398 75.268C84.3158 75.268 83.7958 75.424 83.2758 75.736L80.3118 72.772V64.66H84.9398V71.316C84.9398 71.732 85.3038 72.096 85.7198 72.096H89.7238C90.0878 73.5 91.3358 74.54 92.8438 74.54C94.6118 74.54 96.0678 73.084 96.0678 71.316C96.0678 69.548 94.6118 68.144 92.8438 68.144ZM54.1559 72.98C53.2719 72.98 52.4919 72.252 52.4919 71.316C52.4919 70.432 53.2199 69.652 54.1559 69.652C55.0399 69.652 55.8199 70.38 55.8199 71.316C55.8199 72.252 55.0399 72.98 54.1559 72.98ZM62.0079 80.104C61.1239 80.104 60.3439 79.376 60.3439 78.44C60.3439 77.556 61.0719 76.776 62.0079 76.776C62.8919 76.776 63.6719 77.504 63.6719 78.44C63.6199 79.376 62.8919 80.104 62.0079 80.104ZM75.1639 80.312C75.1639 81.196 74.4359 81.976 73.4998 81.976C72.6159 81.976 71.8358 81.248 71.8358 80.312C71.8358 79.428 72.5639 78.648 73.4998 78.648C74.3839 78.648 75.1639 79.376 75.1639 80.312ZM86.6558 78.44C86.6558 79.324 85.9278 80.104 84.9918 80.104C84.1078 80.104 83.3279 79.376 83.3279 78.44C83.3279 77.556 84.0558 76.776 84.9918 76.776C85.9278 76.828 86.6558 77.556 86.6558 78.44ZM51.6599 57.432C51.6599 54.468 53.6879 52.128 56.6519 51.764C57.0679 51.712 57.3799 51.348 57.3279 50.932C57.2239 49.58 57.6919 48.332 58.6799 47.396C59.4599 46.668 60.4999 46.252 61.5399 46.252C61.7999 46.252 62.0599 46.252 62.3199 46.304C62.7359 46.356 63.0999 46.148 63.2039 45.732C63.7239 43.808 65.2839 42.144 67.4679 41.208C69.9119 40.168 72.7199 40.22 74.7999 41.312C75.1118 41.468 75.4758 41.416 75.7358 41.156C77.8158 39.076 80.8318 38.4 83.6398 39.44C86.3958 40.48 88.2678 42.924 88.4758 45.888C88.4758 46.2 88.7358 46.512 89.0478 46.564C92.9478 47.656 95.3398 50.776 95.3398 54.78C95.3398 59.2 91.4398 63.1 86.9678 63.1H57.3799C54.2599 63.1 51.6599 60.5 51.6599 57.432ZM92.8438 72.98C91.9598 72.98 91.1798 72.252 91.1798 71.316C91.1798 70.432 91.9078 69.652 92.8438 69.652C93.7278 69.652 94.5078 70.38 94.5078 71.316C94.5078 72.252 93.7798 72.98 92.8438 72.98Z" fill="white"/>
</g>
<defs>
<filter id="filter0_d_4062_2670" x="0.299999" y="0.299999" width="146.4" height="146.4" filterUnits="userSpaceOnUse" color-interpolation-filters="sRGB">
<feFlood flood-opacity="0" result="BackgroundImageFix"/>
<feColorMatrix in="SourceAlpha" type="matrix" values="0 0 0 0 0 0 0 0 0 0 0 0 0 0 0 0 0 0 127 0" result="hardAlpha"/>
<feOffset dy="13"/>
<feGaussianBlur stdDeviation="17.35"/>
<feComposite in2="hardAlpha" operator="out"/>
<feColorMatrix type="matrix" values="0 0 0 0 0 0 0 0 0 0.74902 0 0 0 0 1 0 0 0 0.65 0"/>
<feBlend mode="normal" in2="BackgroundImageFix" result="effect1_dropShadow_4062_2670"/>
<feBlend mode="normal" in="SourceGraphic" in2="effect1_dropShadow_4062_2670" result="shape"/>
</filter>
</defs>
</svg>
