<svg width="57" height="57" viewBox="0 0 57 57" fill="none" xmlns="http://www.w3.org/2000/svg">
<path d="M35.3963 17.5059H21.7986C19.3543 17.5059 17.3656 19.4946 17.3656 21.9389V35.0608C17.3656 37.5051 19.3543 39.4938 21.7986 39.4938H35.3963C37.8405 39.4938 39.8292 37.5051 39.8292 35.0608V21.9389C39.8292 19.4946 37.8407 17.5059 35.3963 17.5059ZM38.1492 35.0608C38.1492 36.5787 36.9143 37.8138 35.3963 37.8138H21.7986C20.2805 37.8138 19.0456 36.5787 19.0456 35.0608V21.9389C19.0456 20.421 20.2805 19.1859 21.7986 19.1859H35.3963C36.9143 19.1859 38.1492 20.421 38.1492 21.9389V35.0608ZM22.6274 11.3009V14.4855C22.6274 14.7083 22.7159 14.922 22.8734 15.0795C23.0309 15.237 23.2446 15.3255 23.4674 15.3255C23.6901 15.3255 23.9038 15.237 24.0613 15.0795C24.2189 14.922 24.3074 14.7083 24.3074 14.4855V11.3009C25.8026 10.9249 26.9128 9.56961 26.9128 7.95949C26.9128 6.05964 25.3672 4.51404 23.4674 4.51404C21.5675 4.51404 20.0219 6.05964 20.0219 7.95949C20.0219 9.56961 21.1323 10.9249 22.6274 11.3009ZM23.4674 6.19404C24.4409 6.19404 25.2328 6.98599 25.2328 7.95949C25.2328 8.93289 24.4409 9.72495 23.4674 9.72495C22.4939 9.72495 21.7019 8.93289 21.7019 7.95949C21.7019 6.98599 22.4939 6.19404 23.4674 6.19404ZM32.4981 11.3009V14.4855C32.4981 14.7083 32.5866 14.922 32.7442 15.0795C32.9017 15.237 33.1154 15.3255 33.3381 15.3255C33.5609 15.3255 33.7746 15.237 33.9321 15.0795C34.0896 14.922 34.1781 14.7083 34.1781 14.4855V11.3009C35.6733 10.9249 36.7836 9.56961 36.7836 7.95949C36.7836 6.05964 35.238 4.51404 33.3381 4.51404C31.4383 4.51404 29.8927 6.05964 29.8927 7.95949C29.8927 9.56961 31.0031 10.9249 32.4981 11.3009ZM33.3381 6.19404C34.3116 6.19404 35.1036 6.98599 35.1036 7.95949C35.1036 8.93289 34.3116 9.72495 33.3381 9.72495C32.3646 9.72495 31.5727 8.93289 31.5727 7.95949C31.5727 6.98599 32.3645 6.19404 33.3381 6.19404ZM34.3728 45.6988V42.5142C34.3728 42.2914 34.2843 42.0777 34.1268 41.9202C33.9692 41.7627 33.7556 41.6742 33.5328 41.6742C33.31 41.6742 33.0964 41.7627 32.9388 41.9202C32.7813 42.0777 32.6928 42.2914 32.6928 42.5142V45.6988C31.1976 46.0748 30.0873 47.4301 30.0873 49.0402C30.0873 50.9401 31.6329 52.4857 33.5328 52.4857C35.4327 52.4857 36.9783 50.9401 36.9783 49.0402C36.9783 47.4301 35.8679 46.0748 34.3728 45.6988ZM33.5328 50.8057C32.5593 50.8057 31.7673 50.0137 31.7673 49.0402C31.7673 48.0668 32.5593 47.2747 33.5328 47.2747C34.5063 47.2747 35.2983 48.0668 35.2983 49.0402C35.2983 50.0137 34.5063 50.8057 33.5328 50.8057ZM24.502 45.6988V42.5142C24.502 42.2914 24.4135 42.0777 24.256 41.9202C24.0985 41.7627 23.8848 41.6742 23.662 41.6742C23.4392 41.6742 23.2256 41.7627 23.068 41.9202C22.9105 42.0777 22.822 42.2914 22.822 42.5142V45.6988C21.3268 46.0748 20.2166 47.4301 20.2166 49.0402C20.2166 50.9401 21.7622 52.4857 23.662 52.4857C25.5619 52.4857 27.1075 50.9401 27.1075 49.0402C27.1075 47.4301 25.9971 46.0748 24.502 45.6988ZM23.662 50.8057C22.6885 50.8057 21.8966 50.0137 21.8966 49.0402C21.8966 48.0668 22.6885 47.2747 23.662 47.2747C24.6355 47.2747 25.4275 48.0668 25.4275 49.0402C25.4275 50.0137 24.6356 50.8057 23.662 50.8057ZM42.5144 24.3071H45.699C46.075 25.8023 47.4303 26.9126 49.0405 26.9126C50.9403 26.9126 52.4859 25.367 52.4859 23.4671C52.4859 21.5673 50.9403 20.0217 49.0405 20.0217C47.4304 20.0217 46.075 21.132 45.699 22.6271H42.5144C42.2916 22.6271 42.078 22.7156 41.9204 22.8732C41.7629 23.0307 41.6744 23.2443 41.6744 23.4671C41.6744 23.6899 41.7629 23.9036 41.9204 24.0611C42.078 24.2186 42.2916 24.3071 42.5144 24.3071ZM49.0405 21.7017C50.0138 21.7017 50.8059 22.4937 50.8059 23.4671C50.8059 24.4406 50.0139 25.2326 49.0405 25.2326C48.0669 25.2326 47.275 24.4406 47.275 23.4671C47.275 22.4936 48.0669 21.7017 49.0404 21.7017H49.0405ZM49.0405 29.8925C47.4303 29.8925 46.075 31.0027 45.699 32.4979H42.5144C42.2916 32.4979 42.078 32.5864 41.9204 32.7439C41.7629 32.9015 41.6744 33.1151 41.6744 33.3379C41.6744 33.5607 41.7629 33.7744 41.9204 33.9319C42.078 34.0894 42.2916 34.1779 42.5144 34.1779H45.699C46.075 35.673 47.4303 36.7834 49.0405 36.7834C50.9403 36.7834 52.4859 35.2378 52.4859 33.3379C52.4859 31.4381 50.9403 29.8925 49.0405 29.8925ZM49.0405 35.1034C48.0669 35.1034 47.275 34.3114 47.275 33.3379C47.275 32.3644 48.0669 31.5725 49.0404 31.5725C50.0139 31.5725 50.8059 32.3643 50.8059 33.3379C50.8059 34.3115 50.0139 35.1034 49.0404 35.1034H49.0405ZM14.4857 32.6926H11.3014C10.9253 31.1974 9.56995 30.0871 7.95984 30.0871C6.05998 30.0871 4.51438 31.6327 4.51438 33.5326C4.51438 35.4323 6.05998 36.978 7.95973 36.978C9.56995 36.978 10.9253 35.8677 11.3014 34.3726H14.4859C14.7086 34.3726 14.9223 34.2841 15.0798 34.1265C15.2374 33.969 15.3259 33.7554 15.3259 33.5326C15.3259 33.3098 15.2374 33.0961 15.0798 32.9386C14.9223 32.7811 14.7086 32.6926 14.4859 32.6926H14.4857ZM7.95973 35.298C6.98622 35.298 6.19427 34.506 6.19427 33.5326C6.19427 32.5591 6.98622 31.7671 7.95962 31.7671C8.93323 31.7671 9.72518 32.5591 9.72518 33.5326C9.72518 34.506 8.93334 35.298 7.95973 35.298ZM14.4857 22.8218H11.3014C10.925 21.3267 9.56984 20.2163 7.95962 20.2163C6.05976 20.2163 4.51416 21.7619 4.51416 23.6618C4.51416 25.5616 6.05976 27.1072 7.9595 27.1072C9.56973 27.1072 10.925 25.997 11.3011 24.5018H14.4856C14.7084 24.5018 14.9221 24.4133 15.0796 24.2558C15.2371 24.0982 15.3256 23.8846 15.3256 23.6618C15.3256 23.439 15.2371 23.2253 15.0796 23.0678C14.9221 22.9103 14.7085 22.8218 14.4857 22.8218ZM7.95973 25.4272C6.98622 25.4272 6.19427 24.6354 6.19427 23.6618C6.19427 22.6882 6.98622 21.8963 7.95962 21.8963C8.93323 21.8963 9.72518 22.6883 9.72518 23.6618C9.72518 24.6353 8.93334 25.4272 7.95973 25.4272Z" fill="white"/>
<path d="M27.6669 23.9908C27.5548 23.7376 27.3716 23.5224 27.1395 23.3714C26.9074 23.2203 26.6365 23.1399 26.3596 23.1399C26.0826 23.1399 25.8117 23.2203 25.5796 23.3714C25.3475 23.5224 25.1643 23.7376 25.0522 23.9908L21.4277 32.1758C21.1715 32.7544 21.5952 33.4053 22.228 33.4053C22.3985 33.4053 22.5653 33.3555 22.7078 33.2621C22.8504 33.1686 22.9626 33.0355 23.0306 32.8791L23.7197 31.2947C23.7384 31.2518 23.7691 31.2153 23.8083 31.1897C23.8474 31.1641 23.8931 31.1504 23.9399 31.1504H28.7721C28.8677 31.1504 28.9541 31.2071 28.9922 31.2947L29.6805 32.8772C29.7487 33.0342 29.8613 33.1677 30.0044 33.2616C30.1476 33.3554 30.315 33.4053 30.4861 33.4053C31.1212 33.4053 31.5465 32.752 31.2893 32.1711L27.6669 23.9908ZM27.9193 29.6399H24.8142C24.7744 29.6399 24.7352 29.63 24.7001 29.6111C24.6651 29.5922 24.6353 29.5648 24.6135 29.5316C24.5917 29.4983 24.5784 29.4601 24.575 29.4204C24.5716 29.3807 24.5781 29.3409 24.594 29.3043L26.1466 25.73C26.2302 25.5374 26.5032 25.5374 26.5869 25.73L28.1395 29.3043C28.1553 29.3409 28.1618 29.3807 28.1584 29.4204C28.155 29.4601 28.1418 29.4983 28.1199 29.5316C28.0981 29.5648 28.0683 29.5922 28.0333 29.6111C27.9983 29.63 27.9591 29.6399 27.9193 29.6399ZM33.9689 23.14C33.7278 23.14 33.4966 23.2357 33.3261 23.4062C33.1556 23.5767 33.0598 23.808 33.0598 24.0491V32.4961C33.0598 32.7372 33.1556 32.9685 33.3261 33.1389C33.4966 33.3094 33.7278 33.4052 33.9689 33.4052C34.2101 33.4052 34.4413 33.3094 34.6118 33.1389C34.7823 32.9685 34.878 32.7372 34.878 32.4961V24.0491C34.878 23.808 34.7823 23.5767 34.6118 23.4062C34.4413 23.2357 34.2101 23.14 33.9689 23.14Z" fill="white"/>
</svg>
