<svg width="133" height="133" viewBox="0 0 133 133" fill="none" xmlns="http://www.w3.org/2000/svg">
<g filter="url(#filter0_d_4360_767)">
<rect x="28" y="15" width="77" height="77" rx="38.5" fill="#66CCCC" shape-rendering="crispEdges"/>
<g clip-path="url(#clip0_4360_767)">
<path d="M56.7153 58.4413H53.8777V59.909H56.7153C57.9292 59.909 58.9168 58.9213 58.9168 57.7074C58.9168 56.4935 57.9292 55.5059 56.7153 55.5059H55.7368C55.3321 55.5059 55.0029 55.1767 55.0029 54.772C55.0029 54.3673 55.3321 54.0382 55.7368 54.0382H58.5744V52.5704H55.7368C54.5229 52.5704 53.5352 53.5581 53.5352 54.772C53.5352 55.9859 54.5229 56.9736 55.7368 56.9736H56.7153C57.12 56.9736 57.4491 57.3027 57.4491 57.7074C57.4491 58.1121 57.12 58.4413 56.7153 58.4413ZM65.7661 59.9579V55.2612C65.7661 53.7776 64.559 52.5704 63.0753 52.5704C61.5917 52.5704 60.3845 53.7776 60.3845 55.2612V59.9579H61.8523V58.5391H64.2984V59.9579H65.7661ZM61.8523 57.0714V55.2612C61.8523 54.5868 62.4009 54.0382 63.0753 54.0382C63.7498 54.0382 64.2984 54.5868 64.2984 55.2612V57.0714H61.8523ZM72.6155 59.9579V55.2612C72.6155 53.7776 71.4083 52.5704 69.9247 52.5704C68.441 52.5704 67.2339 53.7776 67.2339 55.2612V59.9579H68.7016V58.5391H71.1477V59.9579H72.6155ZM68.7016 57.0714V55.2612C68.7016 54.5868 69.2502 54.0382 69.9247 54.0382C70.5991 54.0382 71.1477 54.5868 71.1477 55.2612V57.0714H68.7016ZM76.2847 54.0382H79.1223V52.5704H76.2847C75.0708 52.5704 74.0832 53.5581 74.0832 54.772C74.0832 55.9859 75.0708 56.9736 76.2847 56.9736H77.2632C77.6679 56.9736 77.9971 57.3027 77.9971 57.7074C77.9971 58.1121 77.6679 58.4413 77.2632 58.4413H74.4256V59.909H77.2632C78.4771 59.909 79.4648 58.9213 79.4648 57.7074C79.4648 56.4935 78.4771 55.5059 77.2632 55.5059H76.2847C75.88 55.5059 75.5509 55.1767 75.5509 54.772C75.5509 54.3673 75.88 54.0382 76.2847 54.0382ZM43.6553 52.2499L42.299 52.8108C43.2785 55.1813 45.0881 57.1138 47.3891 58.2469L48.0376 56.9301C46.0565 55.9546 44.4986 54.2908 43.6553 52.2499ZM65.3258 29.9677C69.1403 29.9677 72.7909 31.6033 75.3413 34.4552L75.636 34.7845L76.065 34.6782C77.0892 34.4236 78.1596 34.4189 79.1861 34.6643C80.2125 34.9097 81.165 35.3981 81.9633 36.0885L82.9234 34.9783C82.0037 34.1831 80.916 33.6065 79.7418 33.2914C78.5675 32.9764 77.3372 32.9312 76.1431 33.1592C73.3315 30.1927 69.4139 28.5 65.3258 28.5C62.6818 28.5 60.0839 29.2031 57.8129 30.5333L58.5548 31.7997C60.6009 30.6013 62.9423 29.9677 65.3258 29.9677ZM42.9677 48.7706C42.9677 43.838 46.9649 39.7639 51.8779 39.6888L52.3984 39.6809L52.563 39.1869C53.4504 36.5219 55.1204 34.2317 57.3922 32.5641L56.5236 31.3809C54.1434 33.1282 52.3591 35.4923 51.3398 38.2417C48.7585 38.406 46.3556 39.5035 44.5266 41.365C42.5749 43.3512 41.5 45.9813 41.5 48.7706C41.5 49.6304 41.6035 50.4857 41.8076 51.3127L43.2325 50.9611C43.0562 50.2443 42.9673 49.5088 42.9677 48.7706ZM85.7255 40.9573C85.6931 39.1978 85.1089 37.5378 84.0312 36.1474L82.8712 37.0465C83.7794 38.2182 84.2593 39.6243 84.2593 41.1129C84.2593 41.204 84.2568 41.3012 84.2516 41.4186L84.2274 41.9555L84.7318 42.1406C87.9022 43.304 90.0323 46.3629 90.0323 49.7523C90.0323 53.0605 88.0604 56.0057 85.0085 57.2559L85.5649 58.6141C89.1703 57.1372 91.5 53.6587 91.5 49.7523C91.5 45.9263 89.2004 42.4566 85.7255 40.9573Z" fill="white"/>
<path d="M50.5998 60.6428V51.8366C50.5998 51.1621 51.1484 50.6135 51.8229 50.6135H76.4944V49.1458H51.8229C50.3392 49.1458 49.1321 50.3529 49.1321 51.8366V60.6428C49.1321 62.1265 50.3392 63.3336 51.8229 63.3336H55.2475V61.8659H51.8229C51.1484 61.8659 50.5998 61.3173 50.5998 60.6428Z" fill="white"/>
<path d="M81.1772 49.1458H77.9622V50.6135H81.1772C81.8516 50.6135 82.4003 51.1621 82.4003 51.8366V60.6429C82.4003 61.3173 81.8516 61.866 81.1772 61.866H56.7153V63.3337H61.4609V66.1119L58.9169 68.656V71.2641C57.7889 71.5845 56.96 72.6231 56.96 73.8524C56.96 75.336 58.1671 76.5432 59.6508 76.5432C61.1344 76.5432 62.3416 75.336 62.3416 73.8524C62.3416 72.6231 61.5126 71.5845 60.3846 71.2641V69.2639L62.9286 66.7199V63.3337H65.7662V73.2209C64.6382 73.5413 63.8093 74.5799 63.8093 75.8092C63.8093 77.2929 65.0164 78.5 66.5001 78.5C67.9837 78.5 69.1909 77.2929 69.1909 75.8092C69.1909 74.5799 68.3619 73.5413 67.2339 73.2209V63.3337H70.0715V66.7198L72.6155 69.2638V71.264C71.4875 71.5844 70.6586 72.623 70.6586 73.8523C70.6586 75.3359 71.8657 76.5431 73.3494 76.5431C74.833 76.5431 76.0402 75.3359 76.0402 73.8523C76.0402 72.623 75.2112 71.5844 74.0832 71.264V68.6559L71.5392 66.1118V63.3337H81.1772C82.6608 63.3337 83.868 62.1265 83.868 60.6429V51.8366C83.868 50.3529 82.6608 49.1458 81.1772 49.1458ZM60.8738 73.8523C60.8738 74.5267 60.3252 75.0754 59.6508 75.0754C58.9763 75.0754 58.4277 74.5267 58.4277 73.8523C58.4277 73.1778 58.9763 72.6292 59.6508 72.6292C60.3252 72.6292 60.8738 73.1778 60.8738 73.8523ZM67.7232 75.8092C67.7232 76.4837 67.1745 77.0323 66.5001 77.0323C65.8256 77.0323 65.277 76.4837 65.277 75.8092C65.277 75.1347 65.8256 74.5861 66.5001 74.5861C67.1745 74.5861 67.7232 75.1347 67.7232 75.8092ZM74.5725 73.8523C74.5725 74.5267 74.0238 75.0754 73.3494 75.0754C72.6749 75.0754 72.1263 74.5267 72.1263 73.8523C72.1263 73.1778 72.6749 72.6292 73.3494 72.6292C74.0238 72.6292 74.5725 73.1778 74.5725 73.8523ZM65.7662 36.181H67.2339V44.4981H65.7662V36.181ZM65.7662 45.9658H67.2339V47.4335H65.7662V45.9658ZM61.4609 45.9658H62.9286V47.4335H61.4609V45.9658ZM62.9286 42.335L60.3846 39.791V38.138H58.9169V40.3988L61.4609 42.9429V44.4981H62.9286V42.335ZM70.0715 45.9658H71.5392V47.4335H70.0715V45.9658ZM71.5392 42.9429L74.0832 40.3988V38.138H72.6155V39.791L70.0715 42.335V44.4981H71.5392V42.9429ZM65.7662 33.2456H67.2339V34.7133H65.7662V33.2456ZM58.9169 35.2026H60.3846V36.6703H58.9169V35.2026ZM72.6155 35.2026H74.0832V36.6703H72.6155V35.2026Z" fill="white"/>
</g>
</g>
<defs>
<filter id="filter0_d_4360_767" x="0.299999" y="0.299999" width="132.4" height="132.4" filterUnits="userSpaceOnUse" color-interpolation-filters="sRGB">
<feFlood flood-opacity="0" result="BackgroundImageFix"/>
<feColorMatrix in="SourceAlpha" type="matrix" values="0 0 0 0 0 0 0 0 0 0 0 0 0 0 0 0 0 0 127 0" result="hardAlpha"/>
<feOffset dy="13"/>
<feGaussianBlur stdDeviation="13.85"/>
<feComposite in2="hardAlpha" operator="out"/>
<feColorMatrix type="matrix" values="0 0 0 0 0.4 0 0 0 0 0.8 0 0 0 0 0.8 0 0 0 0.65 0"/>
<feBlend mode="normal" in2="BackgroundImageFix" result="effect1_dropShadow_4360_767"/>
<feBlend mode="normal" in="SourceGraphic" in2="effect1_dropShadow_4360_767" result="shape"/>
</filter>
<clipPath id="clip0_4360_767">
<rect width="50" height="50" fill="white" transform="translate(41.5 28.5)"/>
</clipPath>
</defs>
</svg>
