<svg width="53" height="53" viewBox="0 0 53 53" fill="none" xmlns="http://www.w3.org/2000/svg">
<path d="M45.8438 34.144C44.3358 34.144 43.0878 35.184 42.7238 36.588H39.4998V30.66H39.9678C45.2718 30.66 49.8998 26.032 49.8998 20.78C49.8998 16.204 47.2478 12.616 42.9318 11.316C42.5158 7.98798 40.3318 5.28398 37.1598 4.08798C33.9878 2.89198 30.5039 3.56798 28.0079 5.75198C25.5639 4.65998 22.5479 4.65998 19.8439 5.80398C17.5039 6.79198 15.7359 8.55998 14.9039 10.692C13.3439 10.588 11.7839 11.108 10.5879 12.2C9.39185 13.292 8.71585 14.748 8.71585 16.308C5.43985 17.088 3.09985 19.948 3.09985 23.432C3.09985 27.384 6.42785 30.712 10.3799 30.712H13.4999V36.588H10.2759C9.91185 35.184 8.66385 34.144 7.15585 34.144C5.38785 34.144 3.93185 35.6 3.93185 37.368C3.93185 39.136 5.38785 40.592 7.15585 40.592C8.66385 40.592 9.91185 39.552 10.2759 38.148H14.2799C14.6959 38.148 15.0599 37.784 15.0599 37.368V30.66H19.6359V38.72L16.6199 41.736C16.1519 41.424 15.5799 41.268 14.9559 41.268C13.1879 41.268 11.7319 42.724 11.7319 44.492C11.7319 46.26 13.1879 47.716 14.9559 47.716C16.7239 47.716 18.1799 46.26 18.1799 44.492C18.1799 43.868 18.0239 43.348 17.7119 42.828L20.8839 39.656C21.0399 39.5 21.0919 39.292 21.0919 39.084V30.66H25.6679V43.192C24.2639 43.556 23.2239 44.804 23.2239 46.312C23.2239 48.08 24.6799 49.536 26.4479 49.536C28.2159 49.536 29.6718 48.08 29.6718 46.312C29.6718 44.804 28.6319 43.556 27.2278 43.192V30.66H31.8039V39.084C31.8039 39.292 31.9078 39.5 32.0118 39.656L35.1838 42.828C34.8718 43.296 34.7159 43.868 34.7159 44.492C34.7159 46.26 36.1718 47.716 37.9398 47.716C39.7078 47.716 41.1638 46.26 41.1638 44.492C41.1638 42.724 39.7078 41.268 37.9398 41.268C37.3158 41.268 36.7958 41.424 36.2758 41.736L33.3118 38.772V30.66H37.9398V37.316C37.9398 37.732 38.3038 38.096 38.7198 38.096H42.7238C43.0878 39.5 44.3358 40.54 45.8438 40.54C47.6118 40.54 49.0678 39.084 49.0678 37.316C49.0678 35.548 47.6118 34.144 45.8438 34.144ZM7.15585 38.98C6.27185 38.98 5.49185 38.252 5.49185 37.316C5.49185 36.432 6.21985 35.652 7.15585 35.652C8.03985 35.652 8.81985 36.38 8.81985 37.316C8.81985 38.252 8.03985 38.98 7.15585 38.98ZM15.0079 46.104C14.1239 46.104 13.3439 45.376 13.3439 44.44C13.3439 43.556 14.0719 42.776 15.0079 42.776C15.8919 42.776 16.6719 43.504 16.6719 44.44C16.6199 45.376 15.8919 46.104 15.0079 46.104ZM28.1639 46.312C28.1639 47.196 27.4359 47.976 26.4998 47.976C25.6159 47.976 24.8358 47.248 24.8358 46.312C24.8358 45.428 25.5639 44.648 26.4998 44.648C27.3839 44.648 28.1639 45.376 28.1639 46.312ZM39.6558 44.44C39.6558 45.324 38.9278 46.104 37.9918 46.104C37.1078 46.104 36.3279 45.376 36.3279 44.44C36.3279 43.556 37.0558 42.776 37.9918 42.776C38.9278 42.828 39.6558 43.556 39.6558 44.44ZM4.65985 23.432C4.65985 20.468 6.68785 18.128 9.65185 17.764C10.0679 17.712 10.3799 17.348 10.3279 16.932C10.2239 15.58 10.6919 14.332 11.6799 13.396C12.4599 12.668 13.4999 12.252 14.5399 12.252C14.7999 12.252 15.0599 12.252 15.3199 12.304C15.7359 12.356 16.0999 12.148 16.2039 11.732C16.7239 9.80798 18.2839 8.14398 20.4679 7.20798C22.9119 6.16798 25.7199 6.21998 27.7999 7.31198C28.1118 7.46798 28.4758 7.41598 28.7358 7.15598C30.8158 5.07598 33.8318 4.39998 36.6398 5.43998C39.3958 6.47998 41.2678 8.92398 41.4758 11.888C41.4758 12.2 41.7358 12.512 42.0478 12.564C45.9478 13.656 48.3398 16.776 48.3398 20.78C48.3398 25.2 44.4398 29.1 39.9678 29.1H10.3799C7.25985 29.1 4.65985 26.5 4.65985 23.432ZM45.8438 38.98C44.9598 38.98 44.1798 38.252 44.1798 37.316C44.1798 36.432 44.9078 35.652 45.8438 35.652C46.7278 35.652 47.5078 36.38 47.5078 37.316C47.5078 38.252 46.7798 38.98 45.8438 38.98Z" fill="white"/>
</svg>
