<svg width="147" height="147" viewBox="0 0 147 147" fill="none" xmlns="http://www.w3.org/2000/svg">
<g filter="url(#filter0_d_4028_1132)">
<rect x="35" y="22" width="77" height="77" rx="38.5" fill="#E69E21" shape-rendering="crispEdges"/>
<g clip-path="url(#clip0_4028_1132)">
<path d="M96.5923 71.1961L91.7748 68.7874L88.7088 60.8121C88.6727 60.7178 88.6175 60.6319 88.5468 60.5599C88.476 60.4879 88.3911 60.4312 88.2975 60.3935L69.2735 52.789C69.1405 52.7361 68.9949 52.7231 68.8547 52.7519C68.7144 52.7806 68.5856 52.8496 68.4841 52.9506L65.9468 55.4878C65.8472 55.5894 65.7792 55.7178 65.7512 55.8573C65.7232 55.9968 65.7363 56.1414 65.7889 56.2736L73.3934 75.2976C73.4311 75.3913 73.4878 75.4761 73.5598 75.5469C73.6318 75.6176 73.7177 75.6728 73.812 75.7089L81.7873 78.7749L84.196 83.5924C84.2467 83.6986 84.3223 83.7911 84.4162 83.862C84.5101 83.9329 84.6197 83.9803 84.7358 84C84.7749 84.0036 84.8142 84.0036 84.8533 84C85.0477 83.9991 85.2339 83.9212 85.371 83.7833L96.7832 72.3711C96.8672 72.2901 96.9307 72.1902 96.9683 72.0797C97.006 71.9692 97.0168 71.8514 96.9998 71.7359C96.9801 71.6198 96.9328 71.5102 96.8619 71.4163C96.791 71.3224 96.6985 71.2468 96.5923 71.1961ZM67.3274 56.1782L67.735 55.7743L77.2048 65.244C76.5807 66.1284 76.3111 67.2147 76.4495 68.2882C76.5878 69.3617 77.1239 70.3442 77.9517 71.0415C78.7796 71.7388 79.839 72.1 80.9204 72.0538C82.0017 72.0076 83.0264 71.5573 83.7918 70.7919C84.5571 70.0265 85.0075 69.0019 85.0537 67.9205C85.0999 66.8391 84.7386 65.7797 84.0414 64.9518C83.3441 64.124 82.3616 63.5879 81.2881 63.4496C80.2146 63.3112 79.1282 63.5808 78.2439 64.2049L68.7741 54.7351L69.1781 54.3275L87.453 61.6382L90.3354 69.1362L82.1361 77.3355L74.6381 74.4531L67.3274 56.1782ZM80.7334 64.8805C81.3935 64.8815 82.0327 65.1113 82.5423 65.5307C83.0519 65.9501 83.4003 66.5333 83.5282 67.1808C83.6561 67.8283 83.5555 68.5001 83.2436 69.0818C82.9317 69.6635 82.4278 70.119 81.8177 70.3708C81.2076 70.6226 80.529 70.6551 79.8977 70.4627C79.2663 70.2704 78.7212 69.8651 78.3551 69.3159C77.9891 68.7667 77.8248 68.1075 77.8902 67.4508C77.9556 66.794 78.2467 66.1802 78.7139 65.714C79.2501 65.1796 79.9764 64.8798 80.7334 64.8805ZM85.0552 82.0245L83.2193 78.3526L91.3452 70.2268L95.017 72.0627L85.0552 82.0245Z" fill="white"/>
<path d="M64.0448 76.2891C63.9044 76.1564 63.7185 76.0824 63.5252 76.0824C63.332 76.0824 63.1461 76.1564 63.0057 76.2891L62.073 77.2218C59.5841 73.8438 58.2111 69.7736 58.1453 65.5782C58.0795 61.3829 59.3241 57.2716 61.7058 53.8172C62.4194 54.2099 63.2409 54.3607 64.0474 54.2471C64.8539 54.1335 65.6019 53.7616 66.1792 53.1872C66.7566 52.6127 67.1322 51.8666 67.2498 51.0607C67.3675 50.2548 67.2208 49.4325 66.8318 48.717C70.2861 46.3353 74.3974 45.0906 78.5928 45.1565C82.7881 45.2223 86.8583 46.5953 90.2363 49.0842L89.2889 50.0058C89.1524 50.1435 89.0758 50.3296 89.076 50.5236C89.0754 50.6202 89.0939 50.716 89.1305 50.8055C89.167 50.895 89.2209 50.9763 89.2889 51.045L92.5275 54.2579C92.6651 54.3946 92.8513 54.4714 93.0453 54.4714C93.2393 54.4714 93.4254 54.3946 93.563 54.2579L96.7832 51.0376C96.8515 50.9694 96.9057 50.8884 96.9426 50.7993C96.9796 50.7101 96.9986 50.6146 96.9986 50.518C96.9986 50.4215 96.9796 50.326 96.9426 50.2368C96.9057 50.1477 96.8515 50.0667 96.7832 49.9985L93.563 46.7782C93.4254 46.6415 93.2393 46.5647 93.0453 46.5647C92.8513 46.5647 92.6651 46.6415 92.5275 46.7782L91.2828 48.0157C88.2149 45.7071 84.5879 44.2568 80.7742 43.8134C76.9605 43.3701 73.0976 43.9498 69.582 45.4931L73.8157 41.2704C74.2957 41.4998 74.8415 41.5517 75.3561 41.417C75.8708 41.2822 76.3211 40.9695 76.6272 40.5344C76.9333 40.0992 77.0753 39.5697 77.0281 39.0397C76.9808 38.5098 76.7474 38.0138 76.3693 37.6395C75.9911 37.2653 75.4926 37.0372 74.9622 36.9956C74.4318 36.9539 73.9038 37.1015 73.4719 37.4121C73.04 37.7228 72.732 38.1764 72.6027 38.6924C72.4734 39.2085 72.5311 39.7537 72.7655 40.2313L65.62 47.3878C64.8945 46.9011 64.0226 46.6814 63.1531 46.7663C62.2836 46.8511 61.4705 47.2352 60.8528 47.853C60.2351 48.4707 59.851 49.2838 59.7661 50.1532C59.6813 51.0227 59.9009 51.8947 60.3876 52.6202L53.2311 59.7657C52.7517 59.532 52.2049 59.4759 51.688 59.6074C51.1711 59.7388 50.7175 60.0492 50.4079 60.4835C50.0982 60.9178 49.9526 61.4478 49.9968 61.9793C50.041 62.5108 50.2722 63.0094 50.6494 63.3866C51.0265 63.7637 51.5251 63.9949 52.0566 64.0392C52.5882 64.0834 53.1182 63.9377 53.5524 63.6281C53.9867 63.3184 54.2971 62.8649 54.4286 62.3479C54.56 61.831 54.5039 61.2843 54.2703 60.8048L58.5039 56.5822C56.9592 60.0968 56.3776 63.9592 56.819 67.7729C57.2604 71.5866 58.7088 75.2141 61.0155 78.2829L59.7744 79.5277C59.6376 79.6653 59.5609 79.8514 59.5609 80.0454C59.5609 80.2394 59.6376 80.4256 59.7744 80.5632L62.9946 83.7834C63.1317 83.9213 63.3179 83.9992 63.5124 84C63.6093 84.0001 63.7052 83.981 63.7947 83.9438C63.8842 83.9067 63.9655 83.8521 64.0338 83.7834L67.2577 80.5632C67.3945 80.4256 67.4712 80.2394 67.4712 80.0454C67.4712 79.8514 67.3945 79.6653 67.2577 79.5277L64.0448 76.2891ZM93.0526 48.3278L95.2337 50.5089L93.0526 52.69L90.8715 50.5089L93.0526 48.3278ZM74.2343 38.7001C74.3434 38.5901 74.4827 38.515 74.6346 38.4843C74.7865 38.4536 74.9441 38.4687 75.0874 38.5277C75.2306 38.5867 75.3532 38.687 75.4394 38.8157C75.5256 38.9445 75.5716 39.0959 75.5716 39.2509C75.5716 39.4059 75.5256 39.5573 75.4394 39.6861C75.3532 39.8148 75.2306 39.9151 75.0874 39.9741C74.9441 40.0331 74.7865 40.0482 74.6346 40.0175C74.4827 39.9868 74.3434 39.9117 74.2343 39.8017C74.1619 39.7294 74.1044 39.6435 74.0653 39.549C74.0261 39.4545 74.0059 39.3532 74.0059 39.2509C74.0059 39.1486 74.0261 39.0473 74.0653 38.9528C74.1044 38.8583 74.1619 38.7724 74.2343 38.7001ZM61.8968 48.8969C62.11 48.6826 62.3635 48.5126 62.6426 48.3966C62.9218 48.2806 63.2211 48.2209 63.5234 48.2209C63.8257 48.2209 64.125 48.2806 64.4042 48.3966C64.6833 48.5126 64.9368 48.6826 65.15 48.8969C65.4724 49.2187 65.692 49.629 65.7812 50.0757C65.8703 50.5224 65.8249 50.9855 65.6508 51.4064C65.4766 51.8273 65.1815 52.187 64.8028 52.4402C64.4242 52.6933 63.9789 52.8284 63.5234 52.8284C63.0679 52.8284 62.6226 52.6933 62.2439 52.4402C61.8653 52.187 61.5702 51.8273 61.396 51.4064C61.2219 50.9855 61.1765 50.5224 61.2656 50.0757C61.3548 49.629 61.5744 49.2187 61.8968 48.8969ZM52.8052 62.336C52.6553 62.461 52.464 62.5254 52.269 62.5166C52.074 62.5078 51.8893 62.4264 51.7513 62.2884C51.6132 62.1503 51.5318 61.9656 51.523 61.7706C51.5142 61.5756 51.5786 61.3843 51.7036 61.2344C51.8506 61.09 52.0484 61.0091 52.2544 61.0091C52.4604 61.0091 52.6582 61.09 52.8052 61.2344C52.8776 61.3067 52.935 61.3926 52.9742 61.4871C53.0134 61.5816 53.0335 61.6829 53.0335 61.7852C53.0335 61.8875 53.0134 61.9888 52.9742 62.0833C52.935 62.1778 52.8776 62.2637 52.8052 62.336ZM63.5234 82.2118L61.3423 80.0307L63.5234 77.8497L65.7045 80.0307L63.5234 82.2118Z" fill="white"/>
</g>
</g>
<defs>
<filter id="filter0_d_4028_1132" x="0.299999" y="0.299999" width="146.4" height="146.4" filterUnits="userSpaceOnUse" color-interpolation-filters="sRGB">
<feFlood flood-opacity="0" result="BackgroundImageFix"/>
<feColorMatrix in="SourceAlpha" type="matrix" values="0 0 0 0 0 0 0 0 0 0 0 0 0 0 0 0 0 0 127 0" result="hardAlpha"/>
<feOffset dy="13"/>
<feGaussianBlur stdDeviation="17.35"/>
<feComposite in2="hardAlpha" operator="out"/>
<feColorMatrix type="matrix" values="0 0 0 0 0.901961 0 0 0 0 0.619608 0 0 0 0 0.129412 0 0 0 0.65 0"/>
<feBlend mode="normal" in2="BackgroundImageFix" result="effect1_dropShadow_4028_1132"/>
<feBlend mode="normal" in="SourceGraphic" in2="effect1_dropShadow_4028_1132" result="shape"/>
</filter>
<clipPath id="clip0_4028_1132">
<rect width="47" height="47" fill="white" transform="translate(50 37)"/>
</clipPath>
</defs>
</svg>
