<svg width="151" height="151" viewBox="0 0 151 151" fill="none" xmlns="http://www.w3.org/2000/svg">
<g filter="url(#filter0_d_4028_1105)">
<rect x="37" y="24" width="77" height="77" rx="38.5" fill="#7F00FF" shape-rendering="crispEdges"/>
<path d="M82.3963 51.5059H68.7986C66.3543 51.5059 64.3656 53.4946 64.3656 55.9389V69.0608C64.3656 71.5051 66.3543 73.4938 68.7986 73.4938H82.3963C84.8405 73.4938 86.8292 71.5051 86.8292 69.0608V55.9389C86.8292 53.4946 84.8407 51.5059 82.3963 51.5059ZM85.1492 69.0608C85.1492 70.5787 83.9143 71.8138 82.3963 71.8138H68.7986C67.2805 71.8138 66.0456 70.5787 66.0456 69.0608V55.9389C66.0456 54.421 67.2805 53.1859 68.7986 53.1859H82.3963C83.9143 53.1859 85.1492 54.421 85.1492 55.9389V69.0608ZM69.6274 45.3009V48.4855C69.6274 48.7083 69.7159 48.922 69.8734 49.0795C70.0309 49.237 70.2446 49.3255 70.4674 49.3255C70.6901 49.3255 70.9038 49.237 71.0613 49.0795C71.2189 48.922 71.3074 48.7083 71.3074 48.4855V45.3009C72.8026 44.9249 73.9128 43.5696 73.9128 41.9595C73.9128 40.0596 72.3672 38.514 70.4674 38.514C68.5675 38.514 67.0219 40.0596 67.0219 41.9595C67.0219 43.5696 68.1323 44.9249 69.6274 45.3009ZM70.4674 40.194C71.4409 40.194 72.2328 40.986 72.2328 41.9595C72.2328 42.9329 71.4409 43.725 70.4674 43.725C69.4939 43.725 68.7019 42.9329 68.7019 41.9595C68.7019 40.986 69.4939 40.194 70.4674 40.194ZM79.4981 45.3009V48.4855C79.4981 48.7083 79.5866 48.922 79.7442 49.0795C79.9017 49.237 80.1154 49.3255 80.3381 49.3255C80.5609 49.3255 80.7746 49.237 80.9321 49.0795C81.0896 48.922 81.1781 48.7083 81.1781 48.4855V45.3009C82.6733 44.9249 83.7836 43.5696 83.7836 41.9595C83.7836 40.0596 82.238 38.514 80.3381 38.514C78.4383 38.514 76.8927 40.0596 76.8927 41.9595C76.8927 43.5696 78.0031 44.9249 79.4981 45.3009ZM80.3381 40.194C81.3116 40.194 82.1036 40.986 82.1036 41.9595C82.1036 42.9329 81.3116 43.725 80.3381 43.725C79.3646 43.725 78.5727 42.9329 78.5727 41.9595C78.5727 40.986 79.3645 40.194 80.3381 40.194ZM81.3728 79.6988V76.5142C81.3728 76.2914 81.2843 76.0777 81.1268 75.9202C80.9692 75.7627 80.7556 75.6742 80.5328 75.6742C80.31 75.6742 80.0964 75.7627 79.9388 75.9202C79.7813 76.0777 79.6928 76.2914 79.6928 76.5142V79.6988C78.1976 80.0748 77.0873 81.4301 77.0873 83.0402C77.0873 84.9401 78.6329 86.4857 80.5328 86.4857C82.4327 86.4857 83.9783 84.9401 83.9783 83.0402C83.9783 81.4301 82.8679 80.0748 81.3728 79.6988ZM80.5328 84.8057C79.5593 84.8057 78.7673 84.0137 78.7673 83.0402C78.7673 82.0668 79.5593 81.2747 80.5328 81.2747C81.5063 81.2747 82.2983 82.0668 82.2983 83.0402C82.2983 84.0137 81.5063 84.8057 80.5328 84.8057ZM71.502 79.6988V76.5142C71.502 76.2914 71.4135 76.0777 71.256 75.9202C71.0985 75.7627 70.8848 75.6742 70.662 75.6742C70.4392 75.6742 70.2256 75.7627 70.068 75.9202C69.9105 76.0777 69.822 76.2914 69.822 76.5142V79.6988C68.3268 80.0748 67.2166 81.4301 67.2166 83.0402C67.2166 84.9401 68.7622 86.4857 70.662 86.4857C72.5619 86.4857 74.1075 84.9401 74.1075 83.0402C74.1075 81.4301 72.9971 80.0748 71.502 79.6988ZM70.662 84.8057C69.6885 84.8057 68.8966 84.0137 68.8966 83.0402C68.8966 82.0668 69.6885 81.2747 70.662 81.2747C71.6355 81.2747 72.4275 82.0668 72.4275 83.0402C72.4275 84.0137 71.6356 84.8057 70.662 84.8057ZM89.5144 58.3071H92.699C93.075 59.8023 94.4303 60.9126 96.0405 60.9126C97.9403 60.9126 99.4859 59.367 99.4859 57.4671C99.4859 55.5673 97.9403 54.0217 96.0405 54.0217C94.4304 54.0217 93.075 55.132 92.699 56.6271H89.5144C89.2916 56.6271 89.078 56.7156 88.9204 56.8732C88.7629 57.0307 88.6744 57.2443 88.6744 57.4671C88.6744 57.6899 88.7629 57.9036 88.9204 58.0611C89.078 58.2186 89.2916 58.3071 89.5144 58.3071ZM96.0405 55.7017C97.0138 55.7017 97.8059 56.4937 97.8059 57.4671C97.8059 58.4406 97.0139 59.2326 96.0405 59.2326C95.0669 59.2326 94.275 58.4406 94.275 57.4671C94.275 56.4936 95.0669 55.7017 96.0404 55.7017H96.0405ZM96.0405 63.8925C94.4303 63.8925 93.075 65.0027 92.699 66.4979H89.5144C89.2916 66.4979 89.078 66.5864 88.9204 66.7439C88.7629 66.9015 88.6744 67.1151 88.6744 67.3379C88.6744 67.5607 88.7629 67.7744 88.9204 67.9319C89.078 68.0894 89.2916 68.1779 89.5144 68.1779H92.699C93.075 69.673 94.4303 70.7834 96.0405 70.7834C97.9403 70.7834 99.4859 69.2378 99.4859 67.3379C99.4859 65.4381 97.9403 63.8925 96.0405 63.8925ZM96.0405 69.1034C95.0669 69.1034 94.275 68.3114 94.275 67.3379C94.275 66.3644 95.0669 65.5725 96.0404 65.5725C97.0139 65.5725 97.8059 66.3643 97.8059 67.3379C97.8059 68.3115 97.0139 69.1034 96.0404 69.1034H96.0405ZM61.4857 66.6926H58.3014C57.9253 65.1974 56.57 64.0871 54.9598 64.0871C53.06 64.0871 51.5144 65.6327 51.5144 67.5326C51.5144 69.4323 53.06 70.978 54.9597 70.978C56.57 70.978 57.9253 69.8677 58.3014 68.3726H61.4859C61.7086 68.3726 61.9223 68.2841 62.0798 68.1265C62.2374 67.969 62.3259 67.7554 62.3259 67.5326C62.3259 67.3098 62.2374 67.0961 62.0798 66.9386C61.9223 66.7811 61.7086 66.6926 61.4859 66.6926H61.4857ZM54.9597 69.298C53.9862 69.298 53.1943 68.506 53.1943 67.5326C53.1943 66.5591 53.9862 65.7671 54.9596 65.7671C55.9332 65.7671 56.7252 66.5591 56.7252 67.5326C56.7252 68.506 55.9333 69.298 54.9597 69.298ZM61.4857 56.8218H58.3014C57.925 55.3267 56.5698 54.2163 54.9596 54.2163C53.0598 54.2163 51.5142 55.7619 51.5142 57.6618C51.5142 59.5616 53.0598 61.1072 54.9595 61.1072C56.5697 61.1072 57.925 59.997 58.3011 58.5018H61.4856C61.7084 58.5018 61.9221 58.4133 62.0796 58.2558C62.2371 58.0982 62.3256 57.8846 62.3256 57.6618C62.3256 57.439 62.2371 57.2253 62.0796 57.0678C61.9221 56.9103 61.7085 56.8218 61.4857 56.8218ZM54.9597 59.4272C53.9862 59.4272 53.1943 58.6354 53.1943 57.6618C53.1943 56.6882 53.9862 55.8963 54.9596 55.8963C55.9332 55.8963 56.7252 56.6883 56.7252 57.6618C56.7252 58.6353 55.9333 59.4272 54.9597 59.4272Z" fill="white"/>
<path d="M74.6669 57.9908C74.5548 57.7376 74.3716 57.5224 74.1395 57.3714C73.9074 57.2203 73.6365 57.1399 73.3596 57.1399C73.0826 57.1399 72.8117 57.2203 72.5796 57.3714C72.3475 57.5224 72.1643 57.7376 72.0522 57.9908L68.4277 66.1758C68.1715 66.7544 68.5952 67.4053 69.228 67.4053C69.3985 67.4053 69.5653 67.3555 69.7078 67.2621C69.8504 67.1686 69.9626 67.0355 70.0306 66.8791L70.7197 65.2947C70.7384 65.2518 70.7691 65.2153 70.8083 65.1897C70.8474 65.1641 70.8931 65.1504 70.9399 65.1504H75.7721C75.8677 65.1504 75.9541 65.2071 75.9922 65.2947L76.6805 66.8772C76.7487 67.0342 76.8613 67.1677 77.0044 67.2616C77.1476 67.3554 77.315 67.4053 77.4861 67.4053C78.1212 67.4053 78.5465 66.752 78.2893 66.1711L74.6669 57.9908ZM74.9193 63.6399H71.8142C71.7744 63.6399 71.7352 63.63 71.7001 63.6111C71.6651 63.5922 71.6353 63.5648 71.6135 63.5316C71.5917 63.4983 71.5784 63.4601 71.575 63.4204C71.5716 63.3807 71.5781 63.3409 71.594 63.3043L73.1466 59.73C73.2302 59.5374 73.5032 59.5374 73.5869 59.73L75.1395 63.3043C75.1553 63.3409 75.1618 63.3807 75.1584 63.4204C75.155 63.4601 75.1418 63.4983 75.1199 63.5316C75.0981 63.5648 75.0683 63.5922 75.0333 63.6111C74.9983 63.63 74.9591 63.6399 74.9193 63.6399ZM80.9689 57.14C80.7278 57.14 80.4966 57.2357 80.3261 57.4062C80.1556 57.5767 80.0598 57.808 80.0598 58.0491V66.4961C80.0598 66.7372 80.1556 66.9685 80.3261 67.1389C80.4966 67.3094 80.7278 67.4052 80.9689 67.4052C81.2101 67.4052 81.4413 67.3094 81.6118 67.1389C81.7823 66.9685 81.878 66.7372 81.878 66.4961V58.0491C81.878 57.808 81.7823 57.5767 81.6118 57.4062C81.4413 57.2357 81.2101 57.14 80.9689 57.14Z" fill="white"/>
</g>
<defs>
<filter id="filter0_d_4028_1105" x="0.700001" y="0.700001" width="149.6" height="149.6" filterUnits="userSpaceOnUse" color-interpolation-filters="sRGB">
<feFlood flood-opacity="0" result="BackgroundImageFix"/>
<feColorMatrix in="SourceAlpha" type="matrix" values="0 0 0 0 0 0 0 0 0 0 0 0 0 0 0 0 0 0 127 0" result="hardAlpha"/>
<feOffset dy="13"/>
<feGaussianBlur stdDeviation="18.15"/>
<feComposite in2="hardAlpha" operator="out"/>
<feColorMatrix type="matrix" values="0 0 0 0 0.498039 0 0 0 0 0 0 0 0 0 1 0 0 0 0.65 0"/>
<feBlend mode="normal" in2="BackgroundImageFix" result="effect1_dropShadow_4028_1105"/>
<feBlend mode="normal" in="SourceGraphic" in2="effect1_dropShadow_4028_1105" result="shape"/>
</filter>
</defs>
</svg>
