<svg width="45" height="45" viewBox="0 0 45 45" fill="none" xmlns="http://www.w3.org/2000/svg">
<g clip-path="url(#clip0_4363_774)">
<path d="M18.75 30H26.25C26.8467 30 27.419 29.7629 27.841 29.341C28.2629 28.919 28.5 28.3467 28.5 27.75V21C28.5 20.4033 28.2629 19.831 27.841 19.409C27.419 18.9871 26.8467 18.75 26.25 18.75V17.25C26.25 16.2554 25.8549 15.3016 25.1517 14.5983C24.4484 13.8951 23.4946 13.5 22.5 13.5C21.5054 13.5 20.5516 13.8951 19.8483 14.5983C19.1451 15.3016 18.75 16.2554 18.75 17.25V18.75C18.1533 18.75 17.581 18.9871 17.159 19.409C16.7371 19.831 16.5 20.4033 16.5 21V27.75C16.5 28.3467 16.7371 28.919 17.159 29.341C17.581 29.7629 18.1533 30 18.75 30ZM20.25 17.25C20.25 16.6533 20.4871 16.081 20.909 15.659C21.331 15.2371 21.9033 15 22.5 15C23.0967 15 23.669 15.2371 24.091 15.659C24.5129 16.081 24.75 16.6533 24.75 17.25V18.75H20.25V17.25ZM18 21C18 20.8011 18.079 20.6103 18.2197 20.4697C18.3603 20.329 18.5511 20.25 18.75 20.25H26.25C26.4489 20.25 26.6397 20.329 26.7803 20.4697C26.921 20.6103 27 20.8011 27 21V27.75C27 27.9489 26.921 28.1397 26.7803 28.2803C26.6397 28.421 26.4489 28.5 26.25 28.5H18.75C18.5511 28.5 18.3603 28.421 18.2197 28.2803C18.079 28.1397 18 27.9489 18 27.75V21Z" fill="white"/>
<path d="M21.75 26.112V26.25C21.75 26.449 21.829 26.6397 21.9697 26.7804C22.1103 26.921 22.3011 27 22.5 27C22.6989 27 22.8897 26.921 23.0303 26.7804C23.171 26.6397 23.25 26.449 23.25 26.25V26.112C23.7504 25.9351 24.1722 25.587 24.4407 25.1292C24.7093 24.6714 24.8074 24.1334 24.7176 23.6102C24.6278 23.0871 24.3561 22.6126 23.9502 22.2705C23.5444 21.9284 23.0308 21.7407 22.5 21.7407C21.9692 21.7407 21.4556 21.9284 21.0498 22.2705C20.644 22.6126 20.3722 23.0871 20.2824 23.6102C20.1927 24.1334 20.2907 24.6714 20.5593 25.1292C20.8278 25.587 21.2496 25.9351 21.75 26.112ZM22.5 23.25C22.6989 23.25 22.8897 23.3291 23.0303 23.4697C23.171 23.6104 23.25 23.8011 23.25 24C23.25 24.199 23.171 24.3897 23.0303 24.5304C22.8897 24.671 22.6989 24.75 22.5 24.75C22.3011 24.75 22.1103 24.671 21.9697 24.5304C21.829 24.3897 21.75 24.199 21.75 24C21.75 23.8011 21.829 23.6104 21.9697 23.4697C22.1103 23.3291 22.3011 23.25 22.5 23.25Z" fill="white"/>
<path d="M9.75001 22.5C9.75001 29.5417 15.4583 35.25 22.5 35.25C29.5418 35.25 35.25 29.5417 35.25 22.5C35.25 15.4583 29.5418 9.75 22.5 9.75C15.4613 9.7575 9.75751 15.4612 9.75001 22.5ZM22.5 11.25C28.713 11.25 33.75 16.287 33.75 22.5C33.75 28.713 28.713 33.75 22.5 33.75C16.287 33.75 11.25 28.713 11.25 22.5C11.2575 16.29 16.29 11.2575 22.5 11.25ZM37.5 39C36.8368 39.0025 36.1932 39.2246 35.6697 39.6317C35.1462 40.0388 34.7723 40.6079 34.6065 41.25H29.25V36.7163C30.9269 35.9269 32.4505 34.8464 33.75 33.525C33.8206 33.455 33.8766 33.3717 33.9147 33.2799C33.9528 33.1881 33.9723 33.0897 33.972 32.9903C33.9717 32.8909 33.9517 32.7925 33.9131 32.701C33.8745 32.6094 33.818 32.5264 33.7471 32.4568C33.6761 32.3872 33.592 32.3324 33.4997 32.2956C33.4073 32.2588 33.3086 32.2408 33.2092 32.2425C33.1098 32.2442 33.0118 32.2656 32.9208 32.3055C32.8298 32.3454 32.7476 32.403 32.679 32.475C31.4056 33.7769 29.8939 34.8221 28.2263 35.5537C28.1255 35.5937 28.0349 35.6555 27.9608 35.7345C27.9525 35.7435 27.948 35.7555 27.9398 35.766C27.8849 35.827 27.8405 35.8967 27.8085 35.9723C27.7938 36.0194 27.784 36.0679 27.7793 36.117C27.7653 36.1595 27.7555 36.2032 27.75 36.2475V41.25C27.75 41.6478 27.908 42.0294 28.1893 42.3107C28.4707 42.592 28.8522 42.75 29.25 42.75H34.6065C34.7477 43.2919 35.0381 43.7834 35.4446 44.1686C35.8511 44.5538 36.3575 44.8173 36.9062 44.9291C37.4549 45.041 38.024 44.9968 38.5489 44.8015C39.0738 44.6061 39.5333 44.2676 39.8755 43.8242C40.2176 43.3808 40.4285 42.8504 40.4843 42.2932C40.5401 41.7359 40.4385 41.1742 40.1912 40.6718C39.9438 40.1694 39.5605 39.7464 39.0848 39.4509C38.6091 39.1554 38.06 38.9992 37.5 39ZM37.5 43.5C37.1022 43.5 36.7206 43.342 36.4393 43.0607C36.158 42.7794 36 42.3978 36 42C36 41.6022 36.158 41.2206 36.4393 40.9393C36.7206 40.658 37.1022 40.5 37.5 40.5C37.8978 40.5 38.2794 40.658 38.5607 40.9393C38.842 41.2206 39 41.6022 39 42C39 42.3978 38.842 42.7794 38.5607 43.0607C38.2794 43.342 37.8978 43.5 37.5 43.5ZM5.89351 30.75H9.51751C9.52351 30.75 9.52876 30.7463 9.53551 30.7463C9.61011 30.7429 9.68374 30.728 9.75376 30.702C9.78874 30.6905 9.82283 30.6765 9.85576 30.66C9.86401 30.6555 9.87376 30.654 9.88201 30.6488C9.89026 30.6435 9.90301 30.6278 9.91501 30.6195C9.98304 30.5775 10.0434 30.5243 10.0935 30.462C10.1024 30.4504 10.1106 30.4384 10.1183 30.426C10.1668 30.3577 10.2033 30.2816 10.2263 30.201C10.2263 30.1898 10.2308 30.1785 10.233 30.1672C10.2511 30.1131 10.2627 30.0569 10.2675 30C10.2636 29.9716 10.2579 29.9436 10.2503 29.916C10.2503 29.9062 10.2503 29.8972 10.245 29.8867C10.2323 29.7988 10.2036 29.7139 10.1603 29.6362L10.1565 29.6243C9.38746 28.2967 8.83979 26.8528 8.53501 25.3492C8.51531 25.2527 8.47679 25.161 8.42166 25.0794C8.36652 24.9978 8.29584 24.9278 8.21366 24.8735C8.13148 24.8191 8.03941 24.7815 7.9427 24.7628C7.84598 24.7441 7.74653 24.7446 7.65001 24.7643C7.55349 24.7839 7.46179 24.8225 7.38015 24.8776C7.29852 24.9327 7.22854 25.0034 7.17422 25.0856C7.11989 25.1678 7.08229 25.2598 7.06355 25.3566C7.04481 25.4533 7.04531 25.5527 7.06501 25.6493C7.31701 26.8935 7.72051 28.1018 8.26501 29.2493H5.89351C5.71096 28.5423 5.27684 27.9261 4.6725 27.5163C4.06817 27.1065 3.33512 26.9312 2.61076 27.0232C1.8864 27.1152 1.22046 27.4682 0.737765 28.0161C0.255074 28.564 -0.0112305 29.2691 -0.0112305 29.9993C-0.0112305 30.7294 0.255074 31.4345 0.737765 31.9824C1.22046 32.5303 1.8864 32.8833 2.61076 32.9753C3.33512 33.0673 4.06817 32.892 4.6725 32.4822C5.27684 32.0724 5.71096 31.457 5.89351 30.75ZM3.00001 31.5C2.60218 31.5 2.22065 31.342 1.93935 31.0607C1.65804 30.7794 1.50001 30.3978 1.50001 30C1.50001 29.6022 1.65804 29.2206 1.93935 28.9393C2.22065 28.658 2.60218 28.5 3.00001 28.5C3.39783 28.5 3.77936 28.658 4.06067 28.9393C4.34197 29.2206 4.50001 29.6022 4.50001 30C4.50001 30.3978 4.34197 30.7794 4.06067 31.0607C3.77936 31.342 3.39783 31.5 3.00001 31.5Z" fill="white"/>
<path d="M2.32304e-06 15C-0.00090563 15.7292 0.264367 16.4337 0.746031 16.9813C1.22769 17.5288 1.89263 17.8817 2.61604 17.9738C3.33944 18.0658 4.07157 17.8907 4.67502 17.4813C5.27847 17.0718 5.71174 16.4562 5.8935 15.75H9.53775C9.612 15.7455 9.68475 15.7305 9.7545 15.7058C9.78745 15.6952 9.81955 15.6822 9.8505 15.6668C9.89048 15.6457 9.92818 15.6206 9.963 15.5918C10.0263 15.544 10.081 15.4859 10.125 15.42C10.1348 15.4058 10.1475 15.3953 10.1565 15.3803C11.1182 13.7114 12.4088 12.2552 13.95 11.1C14.0288 11.0409 14.0952 10.9669 14.1454 10.8821C14.1955 10.7974 14.2285 10.7036 14.2425 10.6061C14.2564 10.5086 14.251 10.4093 14.2265 10.3139C14.2021 10.2185 14.1591 10.1288 14.1 10.05C14.0409 9.97122 13.9669 9.90483 13.8821 9.85465C13.7974 9.80447 13.7036 9.77148 13.6061 9.75755C13.5086 9.74362 13.4093 9.74903 13.3139 9.77347C13.2185 9.79792 13.1288 9.84091 13.05 9.90001C11.4716 11.0889 10.1315 12.5647 9.09975 14.25H5.8935C5.71174 13.5438 5.27847 12.9282 4.67502 12.5187C4.07157 12.1093 3.33944 11.9342 2.61604 12.0262C1.89263 12.1183 1.22769 12.4712 0.746031 13.0187C0.264367 13.5663 -0.00090563 14.2708 2.32304e-06 15ZM4.5 15C4.5 15.3978 4.34197 15.7794 4.06066 16.0607C3.77936 16.342 3.39783 16.5 3 16.5C2.60218 16.5 2.22065 16.342 1.93934 16.0607C1.65804 15.7794 1.5 15.3978 1.5 15C1.5 14.6022 1.65804 14.2207 1.93934 13.9393C2.22065 13.658 2.60218 13.5 3 13.5C3.39783 13.5 3.77936 13.658 4.06066 13.9393C4.34197 14.2207 4.5 14.6022 4.5 15ZM42 27C41.3368 27.0025 40.6932 27.2246 40.1697 27.6317C39.6462 28.0388 39.2723 28.6079 39.1065 29.25H36.7343C37.2794 28.1034 37.6824 26.8944 37.9343 25.65C37.974 25.455 37.9347 25.2521 37.8249 25.0861C37.7152 24.9201 37.5439 24.8044 37.3489 24.7646C37.1538 24.7249 36.951 24.7642 36.785 24.874C36.6189 24.9837 36.5033 25.155 36.4635 25.35C36.1593 26.8535 35.6121 28.2975 34.8435 29.625V29.6348C34.7987 29.7141 34.7692 29.8011 34.7565 29.8913C34.7565 29.8995 34.7565 29.907 34.7513 29.9153C34.7438 29.943 34.737 29.9715 34.7325 30C34.737 30.0589 34.7486 30.1171 34.767 30.1733C34.7887 30.2648 34.8282 30.3512 34.8833 30.4275C34.8908 30.4388 34.8968 30.45 34.905 30.4605C34.9558 30.5231 35.0166 30.5768 35.085 30.6195C35.097 30.6278 35.1045 30.6405 35.1173 30.648C35.13 30.6555 35.1353 30.6548 35.1435 30.6593C35.1765 30.6765 35.211 30.6908 35.247 30.702C35.3167 30.7271 35.3898 30.7418 35.4638 30.7455C35.4705 30.7455 35.4758 30.7493 35.4825 30.7493H39.1065C39.2476 31.2913 39.5379 31.7828 39.9443 32.1681C40.3508 32.5534 40.8571 32.8171 41.4059 32.929C41.9546 33.041 42.5238 32.9969 43.0487 32.8016C43.5736 32.6064 44.0333 32.2678 44.3755 31.8244C44.7176 31.3811 44.9286 30.8506 44.9845 30.2934C45.0403 29.7361 44.9388 29.1743 44.6914 28.6719C44.444 28.1694 44.0606 27.7464 43.5849 27.4509C43.1091 27.1553 42.5601 26.9991 42 27ZM42 31.5C41.6022 31.5 41.2206 31.342 40.9393 31.0607C40.658 30.7794 40.5 30.3978 40.5 30C40.5 29.6022 40.658 29.2207 40.9393 28.9394C41.2206 28.658 41.6022 28.5 42 28.5C42.3978 28.5 42.7794 28.658 43.0607 28.9394C43.342 29.2207 43.5 29.6022 43.5 30C43.5 30.3978 43.342 30.7794 43.0607 31.0607C42.7794 31.342 42.3978 31.5 42 31.5ZM17.25 36.2603V36.2475C17.2452 36.2054 17.237 36.1638 17.2253 36.123C17.22 36.0721 17.2097 36.0219 17.1945 35.973C17.1629 35.8986 17.1194 35.83 17.0655 35.7698C17.0558 35.7585 17.0513 35.745 17.0415 35.7345C16.9671 35.6554 16.8762 35.5937 16.7753 35.5538C14.812 34.6873 13.0679 33.3921 11.6708 31.7633C11.6076 31.6856 11.5296 31.6213 11.4412 31.5742C11.3529 31.5271 11.256 31.4982 11.1563 31.4892C11.0566 31.4802 10.9561 31.4912 10.8607 31.5216C10.7653 31.552 10.677 31.6012 10.6009 31.6663C10.5249 31.7314 10.4626 31.8111 10.4178 31.9006C10.373 31.9901 10.3466 32.0877 10.3402 32.1876C10.3337 32.2875 10.3473 32.3877 10.3802 32.4823C10.413 32.5769 10.4645 32.6639 10.5315 32.7383C11.9738 34.4171 13.7514 35.7757 15.75 36.7268V41.25H10.3935C10.211 40.543 9.77683 39.9269 9.1725 39.5171C8.56816 39.1073 7.83511 38.9319 7.11075 39.0239C6.38639 39.1159 5.72045 39.469 5.23776 40.0168C4.75507 40.5647 4.48877 41.2698 4.48877 42C4.48877 42.7302 4.75507 43.4353 5.23776 43.9832C5.72045 44.5311 6.38639 44.8841 7.11075 44.9761C7.83511 45.0681 8.56816 44.8928 9.1725 44.483C9.77683 44.0732 10.211 43.457 10.3935 42.75H15.75C16.1478 42.75 16.5294 42.592 16.8107 42.3107C17.092 42.0294 17.25 41.6478 17.25 41.25V36.2603ZM7.5 43.5C7.10218 43.5 6.72065 43.342 6.43934 43.0607C6.15804 42.7794 6 42.3978 6 42C6 41.6022 6.15804 41.2207 6.43934 40.9394C6.72065 40.6581 7.10218 40.5 7.5 40.5C7.89783 40.5 8.27936 40.6581 8.56066 40.9394C8.84197 41.2207 9 41.6022 9 42C9 42.3978 8.84197 42.7794 8.56066 43.0607C8.27936 43.342 7.89783 43.5 7.5 43.5ZM25.35 36.465C23.4688 36.8428 21.5312 36.8428 19.65 36.465C19.5525 36.4427 19.4516 36.44 19.353 36.4573C19.2545 36.4745 19.1605 36.5113 19.0764 36.5654C18.9923 36.6195 18.9198 36.6899 18.8634 36.7725C18.8069 36.855 18.7675 36.948 18.7475 37.046C18.7275 37.144 18.7273 37.245 18.7469 37.343C18.7665 37.4411 18.8055 37.5343 18.8616 37.617C18.9178 37.6998 18.9899 37.7705 19.0738 37.825C19.1576 37.8795 19.2516 37.9166 19.35 37.9343C20.142 38.088 20.9438 38.1818 21.75 38.2125V44.25C21.75 44.4489 21.829 44.6397 21.9697 44.7803C22.1103 44.921 22.3011 45 22.5 45C22.6989 45 22.8897 44.921 23.0303 44.7803C23.171 44.6397 23.25 44.4489 23.25 44.25V38.2125C24.0559 38.1812 24.8583 38.0881 25.65 37.9343C25.8408 37.8905 26.007 37.7738 26.113 37.6092C26.2189 37.4446 26.2563 37.245 26.2171 37.0532C26.178 36.8614 26.0654 36.6925 25.9033 36.5826C25.7413 36.4727 25.5427 36.4305 25.35 36.465ZM15.75 2.25001H10.3935C10.211 1.54301 9.77683 0.926865 9.1725 0.517056C8.56816 0.107247 7.83511 -0.0680876 7.11075 0.0239182C6.38639 0.115924 5.72045 0.468953 5.23776 1.01683C4.75507 1.56471 4.48877 2.26983 4.48877 3.00001C4.48877 3.73019 4.75507 4.4353 5.23776 4.98318C5.72045 5.53106 6.38639 5.88409 7.11075 5.9761C7.83511 6.0681 8.56816 5.89277 9.1725 5.48296C9.77683 5.07315 10.211 4.457 10.3935 3.75001H15.75V8.75401C15.75 8.78401 15.7643 8.81326 15.768 8.84326C15.7755 8.92126 15.7958 8.99701 15.8273 9.06826C15.8742 9.16902 15.9443 9.2572 16.032 9.32551C16.0994 9.38097 16.1758 9.42459 16.2578 9.45451C16.311 9.47176 16.3665 9.48226 16.4228 9.48751C16.4474 9.49425 16.4725 9.49951 16.4978 9.50326C16.6052 9.501 16.7109 9.47541 16.8075 9.42826C17.7212 9.03209 18.6739 8.73295 19.65 8.53576C19.845 8.49598 20.0163 8.38035 20.1261 8.21431C20.2358 8.04827 20.2752 7.84542 20.2354 7.65038C20.1956 7.45535 20.08 7.28411 19.9139 7.17433C19.7479 7.06455 19.545 7.02523 19.35 7.06501C18.6375 7.21051 17.9355 7.40626 17.25 7.65001V3.75001C17.25 3.35218 17.092 2.97065 16.8107 2.68935C16.5294 2.40804 16.1478 2.25001 15.75 2.25001ZM7.5 4.50001C7.10218 4.50001 6.72065 4.34197 6.43934 4.06067C6.15804 3.77936 6 3.39783 6 3.00001C6 2.60218 6.15804 2.22065 6.43934 1.93935C6.72065 1.65804 7.10218 1.50001 7.5 1.50001C7.89783 1.50001 8.27936 1.65804 8.56066 1.93935C8.84197 2.22065 9 2.60218 9 3.00001C9 3.39783 8.84197 3.77936 8.56066 4.06067C8.27936 4.34197 7.89783 4.50001 7.5 4.50001ZM34.6065 3.75001C34.7891 4.457 35.2232 5.07315 35.8275 5.48296C36.4318 5.89277 37.1649 6.0681 37.8893 5.9761C38.6136 5.88409 39.2796 5.53106 39.7622 4.98318C40.2449 4.4353 40.5112 3.73019 40.5112 3.00001C40.5112 2.26983 40.2449 1.56471 39.7622 1.01683C39.2796 0.468953 38.6136 0.115924 37.8893 0.0239182C37.1649 -0.0680876 36.4318 0.107247 35.8275 0.517056C35.2232 0.926865 34.7891 1.54301 34.6065 2.25001H29.25C28.8522 2.25001 28.4706 2.40804 28.1893 2.68935C27.908 2.97065 27.75 3.35218 27.75 3.75001V8.75176C27.7546 8.796 27.7633 8.8397 27.7763 8.88226C27.7808 8.93176 27.7913 8.97976 27.8055 9.02701C27.8378 9.10201 27.882 9.17251 27.9368 9.23326C27.945 9.24301 27.9495 9.25576 27.9578 9.26476C28.032 9.34351 28.1228 9.40576 28.2233 9.44551C29.8906 10.1761 31.4023 11.22 32.676 12.5205C32.7435 12.5956 32.8255 12.6562 32.9171 12.6988C33.0086 12.7414 33.1078 12.7651 33.2087 12.7684C33.3096 12.7717 33.4102 12.7547 33.5043 12.7182C33.5985 12.6817 33.6843 12.6267 33.7567 12.5562C33.829 12.4858 33.8864 12.4015 33.9254 12.3084C33.9643 12.2152 33.9841 12.1152 33.9835 12.0142C33.9829 11.9132 33.9619 11.8134 33.9217 11.7208C33.8816 11.6281 33.8232 11.5445 33.75 11.475C32.4505 10.1536 30.9269 9.07311 29.25 8.28376V3.75001H34.6065ZM37.5 1.50001C37.8978 1.50001 38.2794 1.65804 38.5607 1.93935C38.842 2.22065 39 2.60218 39 3.00001C39 3.39783 38.842 3.77936 38.5607 4.06067C38.2794 4.34197 37.8978 4.50001 37.5 4.50001C37.1022 4.50001 36.7206 4.34197 36.4393 4.06067C36.158 3.77936 36 3.39783 36 3.00001C36 2.60218 36.158 2.22065 36.4393 1.93935C36.7206 1.65804 37.1022 1.50001 37.5 1.50001ZM22.5 7.30429e-06C22.3011 7.30429e-06 22.1103 0.079025 21.9697 0.219677C21.829 0.36033 21.75 0.551095 21.75 0.750007V7.50001C21.75 7.69892 21.829 7.88969 21.9697 8.03034C22.1103 8.17099 22.3011 8.25001 22.5 8.25001C23.457 8.25001 24.4125 8.34526 25.35 8.53501C25.5427 8.56955 25.7413 8.52736 25.9033 8.41745C26.0654 8.30755 26.178 8.13864 26.2171 7.94681C26.2563 7.75499 26.2189 7.55545 26.113 7.39082C26.007 7.2262 25.8408 7.10953 25.65 7.06576C24.8583 6.91187 24.0559 6.81885 23.25 6.78751V0.750007C23.25 0.551095 23.171 0.36033 23.0303 0.219677C22.8897 0.079025 22.6989 7.30429e-06 22.5 7.30429e-06ZM39.1065 15.75C39.2891 16.457 39.7232 17.0732 40.3275 17.483C40.9318 17.8928 41.6649 18.0681 42.3893 17.9761C43.1136 17.8841 43.7796 17.5311 44.2622 16.9832C44.7449 16.4353 45.0112 15.7302 45.0112 15C45.0112 14.2698 44.7449 13.5647 44.2622 13.0168C43.7796 12.469 43.1136 12.1159 42.3893 12.0239C41.6649 11.9319 40.9318 12.1072 40.3275 12.5171C39.7232 12.9269 39.2891 13.543 39.1065 14.25H35.4825C35.4683 14.25 35.457 14.2575 35.4435 14.2575C35.4 14.2622 35.3571 14.271 35.3153 14.2838C35.2536 14.2959 35.1939 14.3161 35.1375 14.3438C35.1315 14.3438 35.124 14.3438 35.1173 14.3513C35.1105 14.3588 35.0978 14.3715 35.085 14.3798C35.0166 14.4225 34.9558 14.4762 34.905 14.5388C34.8968 14.5493 34.8908 14.5605 34.8833 14.5718C34.8336 14.6397 34.7963 14.7159 34.773 14.7968C34.773 14.8065 34.773 14.8163 34.767 14.826C34.7486 14.8824 34.737 14.9408 34.7325 15C34.7363 15.0285 34.7423 15.057 34.749 15.0855C34.749 15.0938 34.7528 15.1013 34.7543 15.1095C34.767 15.1995 34.7963 15.2865 34.8413 15.366V15.3758C36.0921 17.5417 36.7504 19.9988 36.75 22.5C36.75 22.6989 36.829 22.8897 36.9697 23.0303C37.1103 23.171 37.3011 23.25 37.5 23.25H44.25C44.4489 23.25 44.6397 23.171 44.7803 23.0303C44.921 22.8897 45 22.6989 45 22.5C45 22.3011 44.921 22.1103 44.7803 21.9697C44.6397 21.829 44.4489 21.75 44.25 21.75H38.2253C38.1269 19.6705 37.6171 17.6311 36.7253 15.75H39.1065ZM42 13.5C42.3978 13.5 42.7794 13.658 43.0607 13.9393C43.342 14.2207 43.5 14.6022 43.5 15C43.5 15.3978 43.342 15.7794 43.0607 16.0607C42.7794 16.342 42.3978 16.5 42 16.5C41.6022 16.5 41.2206 16.342 40.9393 16.0607C40.658 15.7794 40.5 15.3978 40.5 15C40.5 14.6022 40.658 14.2207 40.9393 13.9393C41.2206 13.658 41.6022 13.5 42 13.5ZM0.750002 23.25H7.5C7.69892 23.25 7.88968 23.171 8.03033 23.0303C8.17099 22.8897 8.25 22.6989 8.25 22.5C8.24842 20.9846 8.48869 19.4787 8.96175 18.039C8.99253 17.9454 9.00458 17.8467 8.99721 17.7485C8.98984 17.6503 8.96319 17.5545 8.91879 17.4665C8.8744 17.3786 8.81312 17.3003 8.73845 17.2361C8.66378 17.1718 8.57719 17.1229 8.48363 17.0921C8.39006 17.0614 8.29135 17.0493 8.19312 17.0567C8.0949 17.0641 7.99909 17.0907 7.91117 17.1351C7.82324 17.1795 7.74492 17.2408 7.68068 17.3154C7.61644 17.3901 7.56753 17.4767 7.53675 17.5703C7.09615 18.9228 6.84132 20.3289 6.77925 21.75H0.750002C0.55109 21.75 0.360325 21.829 0.219672 21.9697C0.07902 22.1103 2.32304e-06 22.3011 2.32304e-06 22.5C2.32304e-06 22.6989 0.07902 22.8897 0.219672 23.0303C0.360325 23.171 0.55109 23.25 0.750002 23.25Z" fill="white"/>
</g>
<defs>
<clipPath id="clip0_4363_774">
<rect width="45" height="45" fill="white"/>
</clipPath>
</defs>
</svg>
