<svg width="51" height="51" viewBox="0 0 51 51" fill="none" xmlns="http://www.w3.org/2000/svg">
<g clip-path="url(#clip0_4363_780)">
<path d="M15.7153 30.4413H12.8777V31.909H15.7153C16.9292 31.909 17.9168 30.9213 17.9168 29.7074C17.9168 28.4935 16.9292 27.5059 15.7153 27.5059H14.7368C14.3321 27.5059 14.0029 27.1767 14.0029 26.772C14.0029 26.3673 14.3321 26.0382 14.7368 26.0382H17.5744V24.5704H14.7368C13.5229 24.5704 12.5352 25.5581 12.5352 26.772C12.5352 27.9859 13.5229 28.9736 14.7368 28.9736H15.7153C16.12 28.9736 16.4491 29.3027 16.4491 29.7074C16.4491 30.1121 16.12 30.4413 15.7153 30.4413ZM24.7661 31.9579V27.2612C24.7661 25.7776 23.559 24.5704 22.0753 24.5704C20.5917 24.5704 19.3845 25.7776 19.3845 27.2612V31.9579H20.8523V30.5391H23.2984V31.9579H24.7661ZM20.8523 29.0714V27.2612C20.8523 26.5868 21.4009 26.0382 22.0753 26.0382C22.7498 26.0382 23.2984 26.5868 23.2984 27.2612V29.0714H20.8523ZM31.6155 31.9579V27.2612C31.6155 25.7776 30.4083 24.5704 28.9247 24.5704C27.441 24.5704 26.2339 25.7776 26.2339 27.2612V31.9579H27.7016V30.5391H30.1477V31.9579H31.6155ZM27.7016 29.0714V27.2612C27.7016 26.5868 28.2502 26.0382 28.9247 26.0382C29.5991 26.0382 30.1477 26.5868 30.1477 27.2612V29.0714H27.7016ZM35.2847 26.0382H38.1223V24.5704H35.2847C34.0708 24.5704 33.0832 25.5581 33.0832 26.772C33.0832 27.9859 34.0708 28.9736 35.2847 28.9736H36.2632C36.6679 28.9736 36.9971 29.3027 36.9971 29.7074C36.9971 30.1121 36.6679 30.4413 36.2632 30.4413H33.4256V31.909H36.2632C37.4771 31.909 38.4648 30.9213 38.4648 29.7074C38.4648 28.4935 37.4771 27.5059 36.2632 27.5059H35.2847C34.88 27.5059 34.5509 27.1767 34.5509 26.772C34.5509 26.3673 34.88 26.0382 35.2847 26.0382ZM2.65528 24.2499L1.29902 24.8108C2.27854 27.1813 4.08806 29.1138 6.38914 30.2469L7.03757 28.9301C5.05648 27.9546 3.49859 26.2908 2.65528 24.2499ZM24.3258 1.96771C28.1403 1.96771 31.7909 3.60333 34.3413 6.45519L34.636 6.78454L35.065 6.67818C36.0892 6.42364 37.1596 6.41889 38.1861 6.66431C39.2125 6.90973 40.165 7.39815 40.9633 8.08845L41.9234 6.97828C41.0037 6.18314 39.916 5.60645 38.7418 5.29142C37.5675 4.97639 36.3372 4.93119 35.1431 5.1592C32.3315 2.19266 28.4139 0.5 24.3258 0.5C21.6818 0.5 19.0839 1.20313 16.8129 2.53327L17.5548 3.79971C19.6009 2.60127 21.9423 1.96771 24.3258 1.96771ZM1.96771 20.7706C1.96771 15.838 5.96487 11.7639 10.8779 11.6888L11.3984 11.6809L11.563 11.1869C12.4504 8.52192 14.1204 6.2317 16.3922 4.56409L15.5236 3.38092C13.1434 5.12818 11.3591 7.49227 10.3398 10.2417C7.75851 10.406 5.35558 11.5035 3.52661 13.365C1.57485 15.3512 0.5 17.9813 0.5 20.7706C0.5 21.6304 0.603523 22.4857 0.807632 23.3127L2.23249 22.9611C2.0562 22.2443 1.96729 21.5088 1.96771 20.7706ZM44.7255 12.9573C44.6931 11.1978 44.1089 9.53777 43.0312 8.14736L41.8712 9.04648C42.7794 10.2182 43.2593 11.6243 43.2593 13.1129C43.2593 13.204 43.2568 13.3012 43.2516 13.4186L43.2274 13.9555L43.7318 14.1406C46.9022 15.304 49.0323 18.3629 49.0323 21.7523C49.0323 25.0605 47.0604 28.0057 44.0085 29.2559L44.5649 30.6141C48.1703 29.1372 50.5 25.6587 50.5 21.7523C50.5 17.9263 48.2004 14.4566 44.7255 12.9573Z" fill="white"/>
<path d="M9.59979 32.6428V23.8366C9.59979 23.1621 10.1484 22.6135 10.8229 22.6135H35.4944V21.1458H10.8229C9.33922 21.1458 8.13208 22.3529 8.13208 23.8366V32.6428C8.13208 34.1265 9.33922 35.3336 10.8229 35.3336H14.2475V33.8659H10.8229C10.1484 33.8659 9.59979 33.3173 9.59979 32.6428Z" fill="white"/>
<path d="M40.1772 21.1458H36.9622V22.6135H40.1772C40.8516 22.6135 41.4003 23.1621 41.4003 23.8366V32.6429C41.4003 33.3173 40.8516 33.866 40.1772 33.866H15.7153V35.3337H20.4609V38.1119L17.9169 40.656V43.2641C16.7889 43.5845 15.96 44.6231 15.96 45.8524C15.96 47.336 17.1671 48.5432 18.6508 48.5432C20.1344 48.5432 21.3416 47.336 21.3416 45.8524C21.3416 44.6231 20.5126 43.5845 19.3846 43.2641V41.2639L21.9286 38.7199V35.3337H24.7662V45.2209C23.6382 45.5413 22.8093 46.5799 22.8093 47.8092C22.8093 49.2929 24.0164 50.5 25.5001 50.5C26.9837 50.5 28.1909 49.2929 28.1909 47.8092C28.1909 46.5799 27.3619 45.5413 26.2339 45.2209V35.3337H29.0715V38.7198L31.6155 41.2638V43.264C30.4875 43.5844 29.6586 44.623 29.6586 45.8523C29.6586 47.3359 30.8657 48.5431 32.3494 48.5431C33.833 48.5431 35.0402 47.3359 35.0402 45.8523C35.0402 44.623 34.2112 43.5844 33.0832 43.264V40.6559L30.5392 38.1118V35.3337H40.1772C41.6608 35.3337 42.868 34.1265 42.868 32.6429V23.8366C42.868 22.3529 41.6608 21.1458 40.1772 21.1458ZM19.8738 45.8523C19.8738 46.5267 19.3252 47.0754 18.6508 47.0754C17.9763 47.0754 17.4277 46.5267 17.4277 45.8523C17.4277 45.1778 17.9763 44.6292 18.6508 44.6292C19.3252 44.6292 19.8738 45.1778 19.8738 45.8523ZM26.7232 47.8092C26.7232 48.4837 26.1745 49.0323 25.5001 49.0323C24.8256 49.0323 24.277 48.4837 24.277 47.8092C24.277 47.1347 24.8256 46.5861 25.5001 46.5861C26.1745 46.5861 26.7232 47.1347 26.7232 47.8092ZM33.5725 45.8523C33.5725 46.5267 33.0238 47.0754 32.3494 47.0754C31.6749 47.0754 31.1263 46.5267 31.1263 45.8523C31.1263 45.1778 31.6749 44.6292 32.3494 44.6292C33.0238 44.6292 33.5725 45.1778 33.5725 45.8523ZM24.7662 8.18103H26.2339V16.4981H24.7662V8.18103ZM24.7662 17.9658H26.2339V19.4335H24.7662V17.9658ZM20.4609 17.9658H21.9286V19.4335H20.4609V17.9658ZM21.9286 14.335L19.3846 11.791V10.138H17.9169V12.3988L20.4609 14.9429V16.4981H21.9286V14.335ZM29.0715 17.9658H30.5392V19.4335H29.0715V17.9658ZM30.5392 14.9429L33.0832 12.3988V10.138H31.6155V11.791L29.0715 14.335V16.4981H30.5392V14.9429ZM24.7662 5.24561H26.2339V6.71332H24.7662V5.24561ZM17.9169 7.20255H19.3846V8.67026H17.9169V7.20255ZM31.6155 7.20255H33.0832V8.67026H31.6155V7.20255Z" fill="white"/>
</g>
<defs>
<clipPath id="clip0_4363_780">
<rect width="50" height="50" fill="white" transform="translate(0.5 0.5)"/>
</clipPath>
</defs>
</svg>
