<svg width="133" height="133" viewBox="0 0 133 133" fill="none" xmlns="http://www.w3.org/2000/svg">
<g filter="url(#filter0_d_4062_2659)">
<rect x="28" y="15" width="77" height="77" rx="38.5" fill="#B39DDB" shape-rendering="crispEdges"/>
<g clip-path="url(#clip0_4062_2659)">
<path d="M45.9228 38.8882C45.8234 37.7619 45.8891 36.627 46.1177 35.5197C46.4235 34.1404 47.0241 32.9954 47.9023 32.1175C49.1329 30.8859 50.8636 30.2109 53.0395 30.111C54.0935 30.0714 55.1488 30.1433 56.1876 30.3256L56.4643 28.7523C55.3121 28.5502 54.1418 28.4707 52.9729 28.5153C50.3799 28.635 48.2938 29.4667 46.7734 30.9883C45.6752 32.0862 44.9293 33.496 44.5574 35.1805C44.5567 35.1836 44.5558 35.1871 44.5551 35.1901C44.2936 36.4518 44.2185 37.745 44.3321 39.0284L45.9228 38.8882ZM49.4253 49.3236C48.9443 48.4459 48.5033 47.5639 48.1141 46.7012L46.6583 47.3581C47.0644 48.2578 47.5241 49.1776 48.0251 50.0912L49.4253 49.3236ZM44.7964 41.9741C44.9967 42.8297 45.24 43.6747 45.5255 44.5058L47.0368 43.9895C46.7687 43.2096 46.5403 42.4166 46.3523 41.6136L44.7964 41.9741ZM55.6617 58.1185C55.592 58.0389 55.5226 57.9598 55.4536 57.8803L54.2483 58.9275C54.3189 59.009 54.3899 59.0905 54.4617 59.172C54.8726 59.6396 55.2907 60.1009 55.716 60.5556C55.908 60.7607 56.1015 60.9644 56.2963 61.1669L57.4473 60.0596C56.8377 59.426 56.2423 58.7788 55.6617 58.1185ZM52.3188 56.581L53.5793 55.6008C53.4638 55.4519 53.349 55.3024 53.2351 55.1523C52.7541 54.5199 52.2878 53.8766 51.8365 53.2227L50.5216 54.1291C50.9869 54.8032 51.4677 55.4665 51.9636 56.1184C52.081 56.2733 52.1993 56.4275 52.3187 56.5809L52.3188 56.581ZM57.6546 62.5342C59.1633 64.0065 60.7509 65.3956 62.4104 66.6954C64.661 68.4668 67.0633 70.0363 69.5895 71.3857C71.065 72.1712 72.594 72.8516 74.1652 73.4218L72.7065 73.8395L73.1457 75.3749L77.2291 74.2065C77.6529 74.0853 77.8981 73.643 77.7769 73.2188L76.7129 69.4996L75.1772 69.9388L75.8536 72.3015C73.9473 71.6983 72.101 70.9196 70.3385 69.9753C67.8959 68.6703 65.573 67.1525 63.397 65.4396C61.7824 64.1751 60.2377 62.8238 58.7698 61.3917L57.6546 62.5342ZM90.3712 62.7954C90.0451 60.7583 89.3714 58.567 88.3685 56.2823L86.9061 56.9241C87.8544 59.0846 88.4893 61.1453 88.7939 63.0474C89.3654 66.6186 88.7377 69.4356 86.9789 71.195C86.1078 72.066 84.975 72.6632 83.6116 72.9706C82.5094 73.2185 81.2598 73.2776 79.8964 73.147C79.5604 73.1148 79.2137 73.0702 78.8658 73.0152L78.6165 74.5925C78.9957 74.6525 79.3752 74.7008 79.744 74.7364C80.2634 74.7862 80.7694 74.8111 81.2619 74.8111C82.1699 74.8166 83.0756 74.7217 83.9627 74.5281C85.6256 74.1531 87.0201 73.4115 88.108 72.3237C90.244 70.1877 91.0265 66.8932 90.3711 62.7954H90.3712ZM86.4998 52.5843L85.1124 53.3751C85.4907 54.0381 85.8501 54.7116 86.1903 55.3949L87.6207 54.685C87.2675 53.9741 86.8937 53.2735 86.4998 52.5843ZM82.793 47.0333L81.5244 48.0033C82.1217 48.7847 82.6977 49.5822 83.2518 50.3948L84.5718 49.4956C84.0011 48.659 83.408 47.8379 82.793 47.0333ZM78.8452 42.4178L77.6904 43.5204C78.3695 44.2321 79.0291 44.962 79.6685 45.7095L80.8822 44.6717C80.2237 43.9021 79.5444 43.1506 78.8452 42.4178ZM59.0564 34.1188L60.618 33.785L60.1024 31.3729C61.568 31.8928 62.9938 32.5187 64.3685 33.2456C66.7795 34.5184 69.0743 36 71.2268 37.6732C72.2415 38.4563 73.2638 39.306 74.2648 40.1985C75.0795 40.9263 75.8737 41.677 76.6463 42.4494L77.7754 41.3203C77.5308 41.0757 77.284 40.8332 77.0352 40.5929C76.4766 40.0531 75.9077 39.5242 75.3286 39.0065C74.2991 38.0893 73.2475 37.215 72.2053 36.4108C71.1902 35.6215 70.1392 34.8738 69.061 34.166C69.6626 33.8262 70.2729 33.5021 70.8913 33.194L70.1808 31.7639C69.4643 32.1193 68.7327 32.511 68.0069 32.927L68.5141 33.8121C67.408 33.1074 66.274 32.4473 65.115 31.8335C64.083 31.2887 63.0235 30.7977 61.9407 30.3624L63.3479 30.062L63.0148 28.5L58.8619 29.3877C58.7593 29.4096 58.6621 29.4514 58.5757 29.5109C58.4894 29.5704 58.4156 29.6463 58.3585 29.7343C58.3015 29.8223 58.2624 29.9206 58.2434 30.0237C58.2244 30.1269 58.2259 30.2327 58.2478 30.3353L59.0564 34.1188ZM44.2483 62.9203C44.0462 64.0725 43.9668 65.2429 44.0117 66.4118C44.1306 69.0045 44.9624 71.0903 46.4843 72.6117C47.5822 73.7099 48.993 74.4551 50.6765 74.8268C50.6797 74.827 50.6831 74.828 50.6868 74.8286C51.5674 75.0114 52.4644 75.1034 53.3638 75.1034C53.7508 75.1034 54.1378 75.0866 54.5244 75.0526L54.3842 73.4612C53.2578 73.5611 52.1229 73.4953 51.0157 73.266C49.6361 72.9611 48.4914 72.3612 47.6135 71.4826C46.3822 70.2514 45.707 68.5204 45.6071 66.345C45.5672 65.2909 45.6391 64.2354 45.8216 63.1964L44.2483 62.9203ZM62.854 72.726C63.7544 72.3203 64.674 71.8599 65.5869 71.3595L64.8199 69.9594C63.9425 70.44 63.0602 70.8813 62.1972 71.2702L62.854 72.726ZM57.4701 74.5881C58.3257 74.388 59.1707 74.1447 60.0018 73.8591L59.4855 72.3475C58.7056 72.6156 57.9126 72.8442 57.1096 73.0324L57.4701 74.5881ZM73.3765 63.9304L74.4231 65.1366C74.5052 65.0657 74.5869 64.9945 74.6684 64.923C75.1358 64.5118 75.597 64.0936 76.0519 63.6687C76.2571 63.4765 76.461 63.283 76.6635 63.088L75.556 61.9374C75.3591 62.1273 75.1606 62.3155 74.9607 62.5021C74.5183 62.916 74.0694 63.3229 73.6142 63.7227C73.5352 63.7923 73.4561 63.8617 73.3765 63.9304Z" fill="white"/>
<path d="M68.7188 67.5472L69.6252 68.8624C70.2995 68.3974 70.9629 67.9167 71.6148 67.4207C71.7695 67.3032 71.9236 67.1848 72.077 67.0655L71.097 65.8044C70.3213 66.4081 69.5283 66.9893 68.7189 67.5472H68.7188ZM78.5436 30.5901C82.1145 30.0192 84.9318 30.6467 86.6911 32.4057C87.5615 33.2761 88.1591 34.4093 88.4667 35.7726C88.7144 36.8752 88.7741 38.1251 88.6429 39.4882C88.6111 39.8236 88.5669 40.17 88.5114 40.5186L90.0887 40.768C90.1486 40.3877 90.197 40.0082 90.2326 39.6406C90.3795 38.1092 90.3095 36.69 90.0243 35.4219C89.6495 33.759 88.9081 32.3638 87.8202 31.276C85.6838 29.14 82.3884 28.3573 78.2915 29.0131C76.2554 29.3389 74.0635 30.0129 71.7785 31.0155L72.4203 32.4782C74.5807 31.5299 76.6408 30.8946 78.5436 30.5901V30.5901ZM61.2051 39.7158L60.1669 38.5025C59.3977 39.1609 58.6463 39.8399 57.9134 40.5386L59.0163 41.6939C59.7279 41.0148 60.4578 40.3553 61.2051 39.7158ZM65.8914 36.1327L64.9915 34.8128C64.155 35.3836 63.334 35.9767 62.5294 36.5916L63.4995 37.8602C64.2808 37.2627 65.0784 36.6866 65.8913 36.1328L65.8914 36.1327ZM89.7026 42.1559C89.5814 41.7316 89.1392 41.4865 88.7153 41.6077L84.9957 42.6721L85.4349 44.2075L87.7981 43.5313C87.1944 45.4376 86.4155 47.2839 85.4711 49.0465C84.1662 51.4891 82.6484 53.812 80.9354 55.988C79.6708 57.6025 78.3194 59.1471 76.8873 60.6149L78.0301 61.7303C79.5023 60.2216 80.8914 58.6339 82.1913 56.9745C83.9627 54.724 85.5322 52.3217 86.8816 49.7954C87.6669 48.3199 88.3473 46.7909 88.9177 45.2197L89.3353 46.6784L90.8707 46.2392L89.7026 42.1559ZM45.6643 61.1546C45.7203 61.1546 45.7765 61.1487 45.8317 61.1366L49.6148 60.3282L49.2809 58.7662L46.869 59.2822C47.3887 57.8165 48.0146 56.3907 48.7418 55.0161C50.0143 52.6049 51.4957 50.31 53.169 48.1576C53.9518 47.1431 54.8017 46.1208 55.6943 45.1195C56.1977 44.5557 56.7122 44.002 57.2375 43.4585C57.4714 43.2163 57.7075 42.9761 57.9456 42.7379L56.8165 41.6089C56.0222 42.4028 55.2506 43.2189 54.5025 44.0564C53.5842 45.0855 52.7106 46.1374 51.9067 47.1793C50.1769 49.4046 48.6454 51.7771 47.3297 54.2696C46.7844 55.3013 46.2933 56.3609 45.8586 57.4439L45.5578 56.0359L43.9958 56.3694L44.8835 60.5225C44.9218 60.7012 45.0201 60.8615 45.1622 60.9765C45.3043 61.0916 45.4815 61.1544 45.6643 61.1546ZM60.5463 45.6105V58.2781C60.5463 58.954 60.9256 59.9056 62.8483 60.6012C64.0932 61.0516 65.7208 61.2999 67.4492 61.2999H67.5111C68.5096 61.2999 69.506 61.2088 70.4879 61.0278C72.9772 60.5503 74.4205 59.5481 74.4205 58.2781V45.6105C74.4205 44.9343 73.9979 43.9833 72.0749 43.287C70.8296 42.8367 69.1802 42.5883 67.4495 42.5883C65.7183 42.5883 64.0982 42.8367 62.8529 43.287C60.9302 43.983 60.5463 44.9342 60.5463 45.6105ZM70.1891 59.4583C69.2857 59.6257 68.3686 59.7077 67.4499 59.703C65.8986 59.703 64.4715 59.4884 63.3965 59.0998C62.3449 58.7191 62.1434 58.3374 62.1434 58.2781V56.0492C62.3705 56.1695 62.6061 56.2731 62.8483 56.359C64.0932 56.8098 65.7208 57.0577 67.4525 57.0577C69.1843 57.0577 70.8366 56.8098 72.0815 56.359C72.3545 56.2603 72.5241 56.1563 72.8236 56.0486V58.2777C72.8236 58.4276 72.1771 59.0769 70.1891 59.4583V59.4583ZM72.8237 54.0356C72.8237 54.0956 72.5834 54.477 71.5321 54.8577C70.4567 55.2469 69.001 55.4608 67.4496 55.4608C65.8986 55.4608 64.4715 55.2469 63.3965 54.8577C62.3449 54.477 62.1434 54.0953 62.1434 54.0357V51.8362C62.3704 51.9567 62.606 52.0604 62.8483 52.1464C64.0932 52.5971 65.7208 52.8451 67.4525 52.8451C69.1843 52.8451 70.8366 52.5971 72.0815 52.1463C72.3545 52.0477 72.5241 51.9436 72.8236 51.8362L72.8237 54.0356ZM71.5321 50.6447C70.4567 51.0338 69.001 51.2478 67.4496 51.2478C65.8986 51.2478 64.4715 51.0338 63.3965 50.6447C62.3449 50.2642 62.1434 49.8826 62.1434 49.8233V47.6232C62.3706 47.7434 62.6062 47.847 62.8483 47.9333C64.0936 48.384 65.7212 48.632 67.4525 48.632C69.1838 48.632 70.8363 48.3837 72.0815 47.9333C72.3545 47.8343 72.5241 47.7302 72.8236 47.6232V49.8233C72.8236 49.8826 72.5834 50.2642 71.5321 50.6447ZM63.3675 44.7888C64.4428 44.3993 65.8892 44.1853 67.4399 44.1853C68.9903 44.1853 70.4371 44.3993 71.5125 44.7888C72.5634 45.1694 72.7849 45.5508 72.7849 45.6105C72.7849 45.6695 72.5634 46.0509 71.5125 46.4316C70.437 46.821 68.9904 47.0351 67.4399 47.0351C65.8892 47.0351 64.4428 46.8205 63.3675 46.4316C62.3158 46.0509 62.0947 45.6695 62.0947 45.6105C62.0947 45.5508 62.3162 45.1694 63.3678 44.7888H63.3675Z" fill="white"/>
</g>
</g>
<defs>
<filter id="filter0_d_4062_2659" x="0.299999" y="0.299999" width="132.4" height="132.4" filterUnits="userSpaceOnUse" color-interpolation-filters="sRGB">
<feFlood flood-opacity="0" result="BackgroundImageFix"/>
<feColorMatrix in="SourceAlpha" type="matrix" values="0 0 0 0 0 0 0 0 0 0 0 0 0 0 0 0 0 0 127 0" result="hardAlpha"/>
<feOffset dy="13"/>
<feGaussianBlur stdDeviation="13.85"/>
<feComposite in2="hardAlpha" operator="out"/>
<feColorMatrix type="matrix" values="0 0 0 0 0.701961 0 0 0 0 0.615686 0 0 0 0 0.858824 0 0 0 0.65 0"/>
<feBlend mode="normal" in2="BackgroundImageFix" result="effect1_dropShadow_4062_2659"/>
<feBlend mode="normal" in="SourceGraphic" in2="effect1_dropShadow_4062_2659" result="shape"/>
</filter>
<clipPath id="clip0_4062_2659">
<rect width="50" height="50" fill="white" transform="translate(44 28.5)"/>
</clipPath>
</defs>
</svg>
