<svg width="10" height="16" viewBox="0 0 10 16" fill="none" xmlns="http://www.w3.org/2000/svg">
<path d="M0.856995 8.04809C0.856897 8.1419 0.875338 8.2348 0.911253 8.32147C0.947169 8.40813 0.999852 8.48684 1.06628 8.55309L8.20914 15.6959C8.48824 15.9751 8.94021 15.9751 9.21914 15.6959C9.49807 15.4168 9.49824 14.9649 9.21914 14.6859L2.58128 8.04809L9.21914 1.41023C9.49824 1.13112 9.49824 0.679156 9.21914 0.400228C8.94003 0.121299 8.48807 0.12112 8.20914 0.400228L1.06628 7.54309C0.999852 7.60933 0.947169 7.68804 0.911253 7.77471C0.875338 7.86137 0.856897 7.95428 0.856995 8.04809Z" fill="white"/>
</svg>
