<svg width="15" height="15" viewBox="0 0 15 15" fill="none" xmlns="http://www.w3.org/2000/svg">
<g clip-path="url(#clip0_4044_1632)">
<mask id="mask0_4044_1632" style="mask-type:luminance" maskUnits="userSpaceOnUse" x="0" y="0" width="15" height="15">
<path d="M14.536 7.49834C14.536 9.36374 13.795 11.1527 12.4759 12.4718C11.1569 13.7908 9.3679 14.5318 7.50249 14.5318C5.63709 14.5318 3.8481 13.7908 2.52906 12.4718C1.21002 11.1527 0.468994 9.36374 0.468994 7.49834C0.468994 5.63294 1.21002 3.84394 2.52906 2.52491C3.8481 1.20587 5.63709 0.464844 7.50249 0.464844C9.3679 0.464844 11.1569 1.20587 12.4759 2.52491C13.795 3.84394 14.536 5.63294 14.536 7.49834Z" fill="white"/>
</mask>
<g mask="url(#mask0_4044_1632)">
<path d="M1.14048 0.171875C0.605975 0.171875 0.176028 0.602768 0.176028 1.1373V13.8605C0.17571 13.9872 0.200438 14.1128 0.24879 14.2299C0.297143 14.3471 0.368167 14.4536 0.457784 14.5432C0.5474 14.6328 0.653842 14.7039 0.770996 14.7522C0.888149 14.8006 1.0137 14.8253 1.14045 14.825H13.8637C14.3982 14.825 14.8291 14.3951 14.8291 13.8605V1.13733C14.8291 0.602799 14.3982 0.171906 13.8637 0.171906L1.14048 0.171875Z" fill="#479951"/>
<path fill-rule="evenodd" clip-rule="evenodd" d="M6.13509 3.99368C6.12496 3.99338 6.10975 3.99902 6.08848 4.01163C6.04067 4.04369 5.94585 4.14247 5.94295 4.2561C5.94005 4.3202 5.92796 4.31996 5.96994 4.36074C6.00025 4.40446 6.03057 4.40015 6.09174 4.3681C6.12691 4.34221 6.13875 4.32567 6.15063 4.28226C6.16519 4.20942 6.07401 4.31672 6.06231 4.23567C6.04195 4.16039 6.10017 4.12944 6.15551 4.0566C6.1568 4.02232 6.15741 3.99432 6.13506 3.99365L6.13509 3.99368ZM7.02622 3.99857C7.00912 4.00086 6.98821 4.02277 6.95918 4.0754C6.93836 4.13054 6.84864 4.214 6.91339 4.38608C6.96638 4.49522 6.98812 4.67252 6.96406 4.87009C6.92737 4.92623 6.919 4.94556 6.87089 5.0017C6.80327 5.07441 6.73004 5.05582 6.67384 5.02868C6.62133 4.99327 6.58012 4.97514 6.55612 4.8627C6.56046 4.68354 6.5709 4.39026 6.53811 4.32802C6.48988 4.23164 6.41026 4.2662 6.37626 4.29532C6.21281 4.44475 6.1321 4.69706 6.08274 4.89784C6.03743 5.04419 5.98911 5.00185 5.95519 4.94281C5.87265 4.86545 5.86685 4.26043 5.76715 4.35992C5.60752 4.81618 5.85879 5.316 6.03286 5.26741C6.15847 5.31942 6.23815 5.08033 6.28959 4.81859C6.32476 4.74511 6.35165 4.73666 6.36969 4.77442C6.36505 5.12255 6.39467 5.20018 6.48417 5.30584C6.68382 5.45985 6.84894 5.32535 6.86189 5.31237L7.01724 5.15705C7.05183 5.12063 7.09753 5.11843 7.1464 5.15049C7.1939 5.19365 7.1878 5.26802 7.28948 5.31973C7.37505 5.35395 7.55776 5.32806 7.60016 5.25434C7.65718 5.15656 7.67101 5.12298 7.69745 5.08592C7.73814 5.03173 7.80781 5.0557 7.80781 5.07282C7.80133 5.10305 7.7604 5.13287 7.78818 5.1873C7.83659 5.2236 7.84786 5.20028 7.87649 5.19219C7.97778 5.14377 8.05389 4.92403 8.05389 4.92403C8.05837 4.84207 8.01176 4.8483 7.98197 4.86518C7.94307 4.88893 7.94069 4.89699 7.90183 4.92074C7.85232 4.92812 7.75637 4.96079 7.7089 4.88725C7.66039 4.79884 7.66011 4.67557 7.62305 4.58637C7.62305 4.5799 7.55825 4.44616 7.61814 4.43758C7.64836 4.4432 7.71335 4.45999 7.72361 4.40571C7.7553 4.35278 7.65523 4.20264 7.58706 4.1269C7.52793 4.062 7.44624 4.0541 7.36714 4.12037C7.31174 4.17135 7.31995 4.22828 7.30908 4.28226C7.29498 4.34423 7.29769 4.42103 7.36061 4.50297C7.4159 4.61204 7.51636 4.75192 7.48324 4.94937C7.48324 4.94937 7.42487 5.04333 7.32218 5.03112C7.27938 5.02178 7.20965 5.00328 7.17259 4.72945C7.14451 4.52217 7.17961 4.2318 7.09163 4.09583C7.07179 4.04454 7.0547 3.99475 7.02622 3.99857ZM6.7442 4.02055C6.71758 4.02287 6.68809 4.05385 6.66407 4.11375C6.64346 4.15929 6.61828 4.39744 6.62237 4.39744C6.60591 4.46832 6.69643 4.49836 6.73764 4.40724C6.79943 4.24025 6.79973 4.16906 6.80388 4.09824C6.79424 4.04427 6.77079 4.01826 6.7442 4.02055ZM7.78577 4.03935C7.75841 4.04179 7.73665 4.05782 7.72853 4.09821C7.71763 4.19315 7.72318 4.2448 7.73915 4.32387C7.75136 4.37656 7.82811 4.46481 7.86587 4.51597C8.04629 4.75848 8.21986 5.00215 8.38749 5.25425C8.41349 5.43771 8.43286 5.62205 8.44555 5.80692C8.47272 6.20676 8.48097 6.70454 8.45618 7.12564C8.53109 7.1286 8.65112 7.00466 8.69325 6.82314C8.72067 6.57205 8.68348 6.05974 8.68101 5.91156C8.67924 5.85005 8.67545 5.77663 8.67118 5.69983C8.87563 6.03385 9.06574 6.37645 9.241 6.72667C9.30871 6.6945 9.29369 6.31336 9.2541 6.25985C9.10549 5.93995 8.90017 5.62421 8.83468 5.50277C8.81106 5.4589 8.73059 5.33652 8.63522 5.19536C8.61767 4.99394 8.59859 4.82335 8.58616 4.77185C8.55548 4.55893 8.67365 4.79585 8.65729 4.67209C8.61895 4.4595 8.5016 4.31498 8.36298 4.12025C8.31825 4.05691 8.31914 4.04399 8.25015 4.13579C8.20891 4.22935 8.20945 4.3072 8.22151 4.38022C8.19878 4.34695 8.1745 4.31476 8.14877 4.28375C8.02904 4.18106 8.02165 4.17544 7.92231 4.09164C7.89096 4.06939 7.83134 4.0352 7.78577 4.03935ZM10.8729 4.07122C10.8596 4.06915 10.845 4.07571 10.8287 4.09986C10.7975 4.12721 10.7639 4.17679 10.7649 4.24047C10.7726 4.35265 10.7925 4.46756 10.8001 4.57975C10.8028 4.59477 10.8056 4.60969 10.8083 4.62471C10.7962 4.60933 10.7857 4.59733 10.7796 4.59119C10.5609 4.36145 10.8801 4.55365 10.738 4.37619C10.6177 4.24416 10.5825 4.20215 10.4796 4.12275C10.428 4.08939 10.3968 4.02568 10.3799 4.1342C10.3731 4.22954 10.3661 4.33995 10.3725 4.42036C10.3721 4.46502 10.4184 4.5491 10.4583 4.59858C10.6102 4.78544 10.7585 4.97515 10.9031 5.16761C10.9346 5.57353 10.9431 5.94563 10.975 6.35223C10.9705 6.52614 10.917 6.75711 10.8663 6.779C10.8663 6.779 10.7889 6.82348 10.7371 6.77411C10.6995 6.75897 10.5491 6.52309 10.5491 6.52309C10.4721 6.45251 10.4208 6.47269 10.366 6.52309C10.2149 6.66901 10.1465 6.94229 10.0439 7.13055C10.0174 7.17256 9.94283 7.2083 9.85992 7.12728C9.64934 6.83959 9.77249 6.4301 9.74626 6.53536C9.55873 6.7467 9.6418 7.09694 9.68414 7.17225C9.74599 7.29595 9.79599 7.37514 9.91633 7.43631C10.0259 7.517 10.1112 7.46666 10.1583 7.41015C10.2686 7.29589 10.2701 7.00362 10.3218 6.9458C10.3582 6.83956 10.4491 6.85785 10.4935 6.90489C10.5366 6.96674 10.5873 7.00698 10.6505 7.04062C10.7534 7.13137 10.8761 7.14786 10.9972 7.06516C11.0798 7.01876 11.1335 6.9585 11.1819 6.8395C11.2339 6.70057 11.2082 5.97243 11.1966 5.5674C11.2748 5.6779 11.3517 5.78937 11.4272 5.90176C11.4606 6.25732 11.4758 6.60749 11.4648 6.94333C11.4569 7.01009 11.6978 6.74398 11.6962 6.6179C11.6951 6.50761 11.6964 6.40766 11.6962 6.31458C11.813 6.50114 11.9261 6.6908 12.033 6.88282C12.0992 6.84771 12.0765 6.47263 12.0346 6.42088C11.9227 6.23308 11.7794 6.03013 11.6684 5.8731C11.6464 5.67495 11.6166 5.44114 11.603 5.36949C11.5818 5.25779 11.5606 5.09001 11.5285 4.95743C11.5198 4.90569 11.4933 4.74035 11.5016 4.72445C11.5146 4.68745 11.564 4.72564 11.5883 4.68275C11.6246 4.64312 11.4622 4.22233 11.3798 4.10227C11.3501 4.04845 11.2965 4.06707 11.2302 4.15459C11.1686 4.21217 11.1911 4.34356 11.2146 4.46854C11.2757 4.78703 11.3301 5.11138 11.3732 5.43491C11.2831 5.30077 11.1921 5.16723 11.1002 5.0343C11.0976 5.02096 11.0879 4.97202 11.0879 4.97135C11.0879 4.96564 11.0747 4.7108 11.0633 4.65005C11.0614 4.62542 11.0555 4.6183 11.0813 4.62145C11.1087 4.6445 11.1125 4.64575 11.1296 4.65335C11.1572 4.65838 11.1814 4.61162 11.1647 4.5683C11.0791 4.41047 10.9936 4.25194 10.908 4.09412C10.8977 4.08398 10.8862 4.0733 10.8728 4.07122H10.8729ZM2.90576 4.0794C2.85835 4.07806 2.80605 4.10743 2.82648 4.16442C2.81457 4.1955 2.91928 4.30048 2.93766 4.35818C2.95414 4.39927 2.92129 4.53157 2.95564 4.54379C2.9872 4.55746 3.03067 4.4522 3.04722 4.35491C3.05638 4.30164 3.04942 4.11924 2.92542 4.08185C2.91896 4.08039 2.91237 4.07958 2.90576 4.0794ZM11.9816 4.08044C11.9708 4.08151 11.9576 4.099 11.9375 4.14177C11.8889 4.22123 11.8722 4.36355 11.8917 4.48923C12.0085 5.2794 12.0953 6.04454 12.1132 6.7449C12.1032 6.81136 12.1003 6.84671 12.0691 6.93047C12.0001 7.01885 11.9241 7.12966 11.8524 7.18309C11.7808 7.23651 11.6284 7.2874 11.5785 7.32699C11.4204 7.41839 11.4196 7.5235 11.5475 7.52728C11.7678 7.5017 12.0285 7.48363 12.2081 7.21255C12.2561 7.13653 12.3127 6.9306 12.3152 6.80455C12.332 6.06557 12.3057 5.34299 12.195 4.80892C12.1879 4.75687 12.1649 4.63729 12.1737 4.62169C12.188 4.58512 12.2601 4.62535 12.2857 4.58326C12.3234 4.54479 12.0993 4.2579 12.0209 4.13524C12.0052 4.10441 11.9955 4.07907 11.9816 4.08044ZM9.6712 4.09271C9.6621 4.09427 9.64867 4.10813 9.62376 4.14095C9.56221 4.34218 9.5406 4.50651 9.56407 4.63149C9.72218 5.45649 9.88415 6.20808 9.85842 6.99339C9.93339 6.99391 10.0201 6.82192 10.0571 6.6517C10.0774 6.41719 10.0435 6.27444 10.0375 6.13661C10.0314 5.99878 9.88144 4.88047 9.85106 4.77619C9.81443 4.57898 9.99686 4.75024 9.97696 4.63558C9.91389 4.49097 9.75646 4.28046 9.70719 4.15484C9.68866 4.1212 9.68637 4.09012 9.6712 4.09271ZM4.04562 4.10825C4.02617 4.11161 4.00743 4.12761 4.00062 4.15404C3.99635 4.17132 4.0081 4.20011 3.99244 4.20881C3.98346 4.21787 3.94933 4.21177 3.95074 4.16384C3.95074 4.14858 3.93953 4.13264 3.93276 4.12294C3.92595 4.11851 3.92137 4.11723 3.90907 4.11723C3.89405 4.11784 3.89441 4.12181 3.88617 4.13441C3.88251 4.14724 3.87778 4.15978 3.87778 4.17444C3.87595 4.1915 3.86908 4.19727 3.85653 4.19977C3.84249 4.19977 3.84585 4.2013 3.83446 4.19406C3.82771 4.18668 3.81974 4.18378 3.81974 4.17117C3.81974 4.1581 3.81633 4.13728 3.81239 4.12864C3.80643 4.1208 3.797 4.11671 3.78623 4.11393C3.72743 4.11414 3.72316 4.1817 3.72654 4.20713C3.72215 4.21195 3.71995 4.33165 3.80012 4.36493C3.90772 4.41624 4.10954 4.39454 4.10099 4.22105C4.10099 4.20569 4.09764 4.15417 4.09611 4.14009C4.08512 4.11451 4.06482 4.10483 4.0454 4.10822L4.04562 4.10825ZM5.48941 4.10987C5.45515 4.11176 5.4217 4.12096 5.39129 4.13686C5.31998 4.20515 5.30325 4.31465 5.35942 4.38294C5.41407 4.40876 5.46862 4.46377 5.43217 4.49412C5.27761 4.65927 4.87526 4.93515 4.85499 4.98549C4.85484 4.98588 4.85426 4.98674 4.85419 4.9871C4.85413 4.98747 4.85419 4.98842 4.85419 4.98875V4.98958C4.85439 4.99015 4.85466 4.99069 4.85499 4.99119L4.85581 4.99202C4.85593 4.99211 4.85648 4.99193 4.85664 4.99202C4.85679 4.99211 4.85725 4.99278 4.85746 4.99284C4.85764 4.99287 4.85807 4.99278 4.85825 4.99284L4.85908 4.99364C4.87953 5.00737 5.13126 5.00704 5.15913 4.99446C5.15935 4.99437 5.15977 4.99376 5.15996 4.99364C5.16002 4.99361 5.16069 4.9937 5.16075 4.99364C5.16081 4.99361 5.16072 4.9929 5.16075 4.99284C5.24726 4.96094 5.65783 4.49168 5.65783 4.49168C5.63655 4.47345 5.61695 4.46002 5.5957 4.44179C5.57293 4.42207 5.57522 4.40272 5.5957 4.38294C5.69736 4.32377 5.66515 4.19358 5.61207 4.13441C5.56802 4.11466 5.52659 4.10798 5.48941 4.10987ZM9.26326 4.11152C9.25245 4.11259 9.2393 4.12922 9.21912 4.17202C9.17058 4.25149 9.13761 4.3899 9.14145 4.51949C9.24656 5.24713 9.2788 5.88394 9.34748 6.61162C9.35307 6.68201 9.34275 6.78425 9.29598 6.825C9.12292 7.00569 8.87343 7.22851 8.60188 7.33108C8.57264 7.36387 8.67454 7.50372 8.80626 7.50356C9.02658 7.47801 9.22022 7.35435 9.39981 7.02856C9.44783 6.95261 9.53223 6.78999 9.53474 6.66394C9.55153 5.92493 9.4975 5.35035 9.38674 4.81624C9.37966 4.76422 9.38448 4.70268 9.39327 4.68708C9.40756 4.67005 9.45592 4.68748 9.48159 4.64538C9.51923 4.60692 9.381 4.28815 9.30252 4.16549C9.28686 4.13466 9.27718 4.11014 9.26329 4.11152H9.26326ZM3.41688 4.13374C3.38647 4.13731 3.35787 4.16207 3.3441 4.19507C3.339 4.31178 3.33833 4.42842 3.35146 4.536C3.40457 4.72466 3.42136 4.89058 3.44713 5.08375C3.45427 5.34253 3.2977 5.1957 3.30487 5.06742C3.34101 4.90077 3.33125 4.63845 3.29913 4.57196C3.27367 4.50547 3.24418 4.48908 3.18221 4.50001C3.13306 4.49702 3.00601 4.63543 2.97047 4.86466C2.97047 4.86466 2.94086 4.98231 2.92795 5.08705C2.91058 5.2054 2.83215 5.28923 2.77754 5.07069C2.73032 4.91182 2.70128 4.52046 2.62219 4.61204C2.59954 4.91762 2.57264 5.45536 2.83231 5.51056C3.14637 5.54075 2.97289 4.97962 3.08657 4.87772C3.10806 4.82741 3.1479 4.8265 3.15117 4.89V5.36665C3.1483 5.52161 3.25026 5.56764 3.32938 5.59967C3.41175 5.59328 3.46633 5.59554 3.49863 5.67568C3.51148 5.95042 3.525 6.22587 3.53786 6.50059C3.53786 6.50059 3.72825 6.55529 3.73735 6.03703C3.74648 5.7327 3.67675 5.47734 3.71772 5.41815C3.71919 5.35996 3.79374 5.35709 3.84527 5.38545C3.92735 5.44336 3.96377 5.51462 4.09135 5.48601C4.2855 5.43253 4.40242 5.33829 4.40529 5.18923C4.39396 5.04758 4.37757 4.90575 4.31618 4.7641C4.32473 4.73834 4.27903 4.6713 4.28758 4.64556C4.32244 4.70021 4.37522 4.69563 4.38731 4.64556C4.35428 4.53667 4.30284 4.43233 4.21971 4.38721C4.15103 4.32668 4.0505 4.33947 4.01368 4.46567C3.99662 4.61113 4.06638 4.78346 4.17231 4.92434C4.19477 4.97935 4.22625 5.07087 4.21236 5.15323C4.156 5.18538 4.10014 5.17201 4.05291 5.12219C4.05291 5.12219 3.89841 5.00649 3.89841 4.98075C3.93941 4.71822 3.90727 4.68815 3.88449 4.61528C3.86862 4.51472 3.821 4.48285 3.78232 4.41417C3.74367 4.3732 3.69122 4.3732 3.66622 4.41417C3.59793 4.53255 3.62996 4.78675 3.67929 4.90062C3.71494 5.00533 3.76965 5.07066 3.74388 5.07066C3.7227 5.12985 3.67849 5.11608 3.64659 5.04776C3.60111 4.90663 3.59183 4.69624 3.59183 4.60142C3.57815 4.48383 3.56295 4.23265 3.48553 4.16894C3.46489 4.14079 3.4405 4.13099 3.41684 4.13377L3.41688 4.13374ZM4.51974 4.13539C4.50417 4.13737 4.48692 4.14623 4.46662 4.15093C4.39983 4.17218 4.33734 4.2299 4.35703 4.34224C4.43597 4.82183 4.48744 5.18785 4.56635 5.6675C4.57847 5.72367 4.5314 5.7977 4.47071 5.79013C4.3675 5.72031 4.34188 5.57888 4.16574 5.58492C4.03826 5.58645 3.89286 5.72519 3.87469 5.85881C3.85345 5.96499 3.84588 6.08013 3.87469 6.17275C3.96429 6.28052 4.07163 6.26901 4.16574 6.24471C4.24316 6.21284 4.30684 6.13658 4.33416 6.15477C4.33425 6.15484 4.33492 6.15465 4.33499 6.15477C4.33508 6.15487 4.33489 6.15548 4.33499 6.15557C4.35187 6.18509 4.3334 6.43456 3.97034 6.62731C3.74724 6.7275 3.56963 6.75143 3.47408 6.56924C3.41486 6.45541 3.47836 6.02186 3.33265 6.12202C2.9016 7.23306 4.34243 7.38814 4.50337 6.16781C4.51381 6.1334 4.54556 6.09885 4.56797 6.10733C4.5778 6.11152 4.58681 6.12486 4.59004 6.14983C4.55664 7.2548 3.4754 7.33053 3.29177 6.98292C3.24626 6.90102 3.23255 6.71861 3.22797 6.60933C3.21967 6.5432 3.20306 6.50505 3.18383 6.48996C3.14002 6.45706 3.08117 6.5429 3.06856 6.6919C3.05036 6.81181 3.05549 6.84472 3.05549 6.96005C3.11316 7.8328 4.50453 7.4578 4.73065 6.73687C4.84259 6.36416 4.72839 6.08297 4.76582 6.04848C4.76612 6.04823 4.7671 6.0479 4.76747 6.04768C4.7678 6.04747 4.76869 6.04704 4.76908 6.04686C4.76948 6.04671 4.77031 6.04619 4.77073 6.04604C4.77233 6.0456 4.77397 6.04533 4.77562 6.04524C4.91375 6.194 5.10757 6.06414 5.15007 6.01252C5.16829 5.98672 5.21387 5.97014 5.24571 6.00354C5.35347 6.08099 5.54231 6.04445 5.58175 5.90787C5.60453 5.77431 5.62379 5.63679 5.62834 5.49422C5.55812 5.51599 5.50153 5.53232 5.47872 5.55635C5.47329 5.56227 5.46926 5.56886 5.4681 5.57598C5.46199 5.61545 5.45619 5.65504 5.45009 5.69451C5.44951 5.69766 5.44841 5.70069 5.44685 5.70349C5.44386 5.70837 5.43892 5.7128 5.43376 5.71576C5.40894 5.72931 5.36568 5.72156 5.36345 5.68554C5.33005 5.53373 5.19268 5.51397 5.10916 5.74928C5.05299 5.7948 4.9506 5.80368 4.93995 5.73539C4.95362 5.57756 4.89 5.55635 4.76255 5.63074C4.72155 5.31808 4.68092 5.01958 4.63989 4.70692C4.69301 4.7054 4.74176 4.74389 4.79033 4.6832C4.73776 4.51973 4.62655 4.1871 4.56388 4.15587L4.56223 4.15505C4.55833 4.15051 4.55395 4.14641 4.54916 4.14281C4.54538 4.1403 4.54125 4.13838 4.53689 4.1371C4.53135 4.13538 4.52551 4.13482 4.51974 4.13545V4.13539ZM8.81921 4.13783C8.76408 4.13621 8.70305 4.17095 8.7268 4.24004C8.71297 4.27771 8.84528 4.40553 8.86662 4.4755C8.90502 4.58295 8.83731 4.68552 8.87724 4.70033C8.914 4.71691 8.96516 4.58936 8.98436 4.47141C9.00652 4.37607 8.93851 4.18063 8.8421 4.14031C8.83457 4.13872 8.8269 4.1379 8.81921 4.13786V4.13783ZM5.46969 4.25558C5.49481 4.25301 5.52512 4.27609 5.53999 4.30869C5.55587 4.3435 5.5479 4.37677 5.52201 4.38312C5.49612 4.38944 5.46263 4.36642 5.44679 4.33159C5.43092 4.29679 5.43888 4.26272 5.4648 4.2564C5.46639 4.25597 5.46801 4.25573 5.46969 4.25558ZM11.6832 4.41664C11.6329 4.41487 11.5781 4.45303 11.5998 4.52782C11.5872 4.5686 11.707 4.70717 11.7265 4.78291C11.744 4.83679 11.6999 5.01049 11.7363 5.02651C11.7698 5.04449 11.8169 4.90654 11.8344 4.77882C11.8441 4.70891 11.7923 4.46359 11.7044 4.41991C11.6975 4.41798 11.6903 4.41687 11.6832 4.41661V4.41664ZM8.24783 4.50166C8.25241 4.52214 8.25702 4.54278 8.2601 4.56378C8.27039 4.60908 8.27927 4.65408 8.2887 4.69871C8.24902 4.64407 8.21617 4.59989 8.20204 4.58423C8.11226 4.47751 8.20405 4.51414 8.24783 4.50166ZM9.03922 4.89082C9.0198 4.89418 9.00106 4.911 8.99425 4.9374C8.98998 4.95471 9.00255 4.98268 8.98692 4.99138C8.97792 5.00044 8.94297 4.99516 8.94437 4.94723C8.94437 4.93197 8.93317 4.91518 8.92639 4.90553C8.91958 4.90108 8.915 4.89979 8.9027 4.89979C8.88768 4.90041 8.88805 4.90437 8.8798 4.91698C8.87632 4.9298 8.87162 4.94247 8.87162 4.95703C8.86976 4.9741 8.86375 4.97987 8.85117 4.98237C8.83713 4.98237 8.83966 4.9839 8.82827 4.97666C8.82156 4.96928 8.81356 4.96638 8.81356 4.95377C8.81356 4.9407 8.81014 4.91988 8.80623 4.91124C8.80025 4.9034 8.79085 4.90013 8.78004 4.89735C8.72128 4.89757 8.71783 4.9643 8.72118 4.98973C8.71679 4.99452 8.7138 5.11507 8.79396 5.14835C8.90157 5.19963 9.10418 5.17714 9.09563 5.00365C9.09563 4.98829 9.09142 4.93676 9.08989 4.92269C9.0789 4.89711 9.05863 4.88743 9.03922 4.89082ZM5.42573 4.92678C5.41248 4.92544 5.39508 4.93029 5.37505 4.94232C5.27987 4.99379 5.24302 5.14649 5.30227 5.23584C5.35762 5.31451 5.44514 5.28569 5.4568 5.28569C5.55003 5.29735 5.60559 5.11077 5.60559 5.11077C5.60559 5.11077 5.6084 5.05826 5.49768 5.15735C5.4511 5.16605 5.44475 5.14923 5.43308 5.12301C5.42338 5.07447 5.42545 5.02523 5.4478 4.97666C5.45812 4.94754 5.44786 4.92904 5.42573 4.92678ZM10.5339 4.9505C10.481 4.94794 10.4248 4.98213 10.4104 5.05432C10.4106 5.09691 10.4296 5.12032 10.4259 5.15897C10.4204 5.18107 10.3977 5.19561 10.3433 5.1696C10.3519 5.16181 10.3082 5.10012 10.3082 5.10012C10.2659 5.07432 10.2093 5.10152 10.1725 5.12545C10.1522 5.16227 10.1373 5.22537 10.1602 5.28978C10.221 5.40209 10.4295 5.59374 10.529 5.59557C10.5308 5.49432 10.5406 5.35966 10.5461 5.27589C10.5485 5.24427 10.5559 5.20943 10.5862 5.2015C10.6164 5.19356 10.669 5.23196 10.6696 5.19905C10.6641 5.13464 10.6512 5.03955 10.6148 4.99464C10.5962 4.96705 10.5656 4.95206 10.5339 4.9505ZM6.30556 5.30288C6.30415 5.3034 6.30278 5.30459 6.30147 5.30532C6.30085 5.30572 6.29963 5.30651 6.29902 5.30697C6.28849 5.31485 6.2761 5.3331 6.24835 5.35276C6.20152 5.40597 6.19312 5.44306 6.19602 5.54978C6.19868 5.56108 6.28486 5.80072 6.35788 5.96917C6.40712 6.14427 6.45267 6.34475 6.41921 6.53411C6.30394 6.78443 6.0722 7.00896 5.84856 7.13092C5.7346 7.16743 5.63618 7.15497 5.60984 7.13009L5.60901 7.1293C5.54356 7.08528 5.54207 7.00698 5.54607 6.99357V6.99275L5.54689 6.99193C5.73561 6.86047 5.95119 6.75412 6.11998 6.39921C6.16983 6.2636 6.18503 6.18216 6.13552 5.97243C6.11623 5.89432 6.09235 5.83002 6.03905 5.77462L6.03988 5.77379C6.07199 5.75844 6.15533 5.81983 6.16821 5.78115C6.14849 5.68102 6.08069 5.54661 6.00388 5.47783C5.93666 5.41678 5.86349 5.40969 5.80195 5.46556C5.73265 5.50414 5.71787 5.64271 5.75127 5.76396C5.78833 5.85524 5.88843 5.87127 5.95974 6.05501V6.05584C5.96124 6.06737 5.98422 6.19299 5.94829 6.24388C5.91914 6.33476 5.54478 6.62999 5.51826 6.64776C5.51795 6.64807 5.51609 6.64913 5.51581 6.64941L5.51499 6.6502L5.51416 6.65103L5.51334 6.65185H5.51172C5.51144 6.65159 5.51116 6.65131 5.5109 6.65103V6.6502L5.51007 6.64858C5.50894 6.6412 5.51093 6.62245 5.51007 6.59217C5.50763 6.53685 5.53053 6.41172 5.52888 6.39023V6.38941L5.52805 6.38861V6.38779H5.52726C5.4035 6.46768 5.36263 6.7126 5.34004 6.78513C5.02674 7.00157 4.67097 7.16263 4.46604 7.38194C4.35935 7.54862 5.20132 7.19057 5.29916 7.14731C5.30002 7.14792 5.30084 7.14896 5.3016 7.14975C5.32022 7.17021 5.32181 7.24158 5.37765 7.3059C5.46517 7.42447 5.65117 7.49746 5.8322 7.45225C6.13576 7.34253 6.31065 7.13565 6.48872 6.90611C6.51418 6.86908 6.55405 6.83993 6.59093 6.8685C6.71328 7.14243 7.06605 7.33734 7.52213 7.35743C7.62766 7.22909 7.57717 7.16599 7.53437 7.13916C7.52122 7.13037 7.30755 7.04709 7.2744 6.96418C7.25352 6.88703 7.30432 6.81859 7.40604 6.76715C7.69885 6.73174 7.98673 6.69239 8.26529 6.60282C8.2681 6.50923 8.32323 6.36929 8.36014 6.30851C8.38575 6.26632 8.4022 6.26214 8.40837 6.25619L8.40919 6.25536C8.40926 6.25524 8.40993 6.25466 8.40999 6.25454L8.41081 6.25371V6.2521C8.41096 6.24934 8.41068 6.24658 8.40999 6.24391L8.36258 6.21613L7.42811 6.21201C7.41657 6.20759 7.40796 6.20313 7.40277 6.19895C7.40237 6.19864 7.40149 6.19763 7.40112 6.1973L7.4003 6.19651L7.3995 6.19568L7.39868 6.19403L7.39785 6.19324V6.19241L7.39703 6.19159V6.18506L7.39785 6.18423C7.39807 6.18381 7.3984 6.18301 7.39868 6.18262C7.40326 6.17648 7.41428 6.17068 7.42811 6.16546C7.65126 6.13505 8.04766 6.07006 8.074 5.6888C8.06988 5.49022 7.98902 5.36018 7.74535 5.32416C7.5663 5.33798 7.43861 5.5112 7.45918 5.70187C7.45064 5.75322 7.47658 5.85399 7.42402 5.86541C7.08058 5.89676 6.70571 6.11197 6.69313 6.26599H6.69231L6.69148 6.26681L6.68986 6.2676H6.68822C6.68767 6.26779 6.68632 6.26828 6.68577 6.26843H6.68086C6.67997 6.26824 6.67836 6.26782 6.67759 6.2676C6.65525 6.26141 6.62649 6.22456 6.63098 6.17279C6.61791 5.90653 6.53124 5.60525 6.39552 5.37321C6.3471 5.3248 6.32601 5.30517 6.31215 5.30291C6.31169 5.30285 6.31093 5.30291 6.3105 5.30291H6.30562L6.30556 5.30288ZM7.20001 5.44349C7.18056 5.44684 7.16182 5.46287 7.15501 5.48928C7.15074 5.50659 7.16331 5.53537 7.14768 5.54404C7.13868 5.55311 7.10372 5.54783 7.10516 5.4999C7.10516 5.48464 7.09392 5.46788 7.08715 5.4582C7.08037 5.45374 7.07658 5.45249 7.06425 5.45249C7.04929 5.4531 7.04877 5.45707 7.04056 5.46965C7.03708 5.48247 7.03238 5.49517 7.03238 5.5097C7.03052 5.5268 7.02451 5.53254 7.01193 5.53504C6.99792 5.53504 7.00124 5.53657 6.98986 5.52933C6.98314 5.52194 6.97435 5.51904 6.97435 5.50643C6.97435 5.4934 6.97172 5.47255 6.96779 5.46394C6.96183 5.45606 6.95161 5.4528 6.94083 5.45002C6.88203 5.45023 6.87855 5.51697 6.88194 5.54243C6.87755 5.54722 6.87455 5.66774 6.95472 5.70102C7.06233 5.75233 7.31879 5.72211 7.25639 5.55632C7.25639 5.54096 7.25221 5.48943 7.25065 5.47536C7.23966 5.44981 7.21939 5.44013 7.19998 5.44349H7.20001ZM10.8096 5.59145C10.8065 5.59095 10.8034 5.59123 10.8006 5.59228C10.8006 5.59228 10.3019 5.94701 10.2896 5.95937C10.2401 6.00333 10.2649 6.15789 10.2896 6.14003C10.3253 6.15377 10.8273 5.8136 10.8177 5.77376C10.8396 5.77504 10.8501 5.59878 10.8096 5.59145ZM7.67117 5.64405C7.6915 5.64191 7.71818 5.64881 7.74391 5.66368C7.78116 5.6852 7.80408 5.71771 7.80115 5.74134C7.80106 5.74198 7.80127 5.74317 7.80115 5.74378C7.801 5.7444 7.79972 5.74562 7.7995 5.74623C7.79932 5.74684 7.79895 5.74812 7.79871 5.74867C7.79856 5.7491 7.7981 5.74995 7.79789 5.75035L7.79706 5.75197C7.79566 5.75406 7.79402 5.75599 7.79218 5.75771C7.77426 5.7744 7.73295 5.77202 7.69406 5.74952C7.65718 5.72815 7.63438 5.6954 7.63682 5.67183C7.63691 5.67122 7.63753 5.67 7.63765 5.66939C7.63829 5.66651 7.63939 5.66374 7.64091 5.66121C7.64143 5.66029 7.64192 5.6588 7.64256 5.65794C7.64268 5.65779 7.64323 5.6573 7.64336 5.65712C7.64445 5.65584 7.6461 5.65413 7.64745 5.65306C7.65337 5.64839 7.66179 5.64506 7.67117 5.64405ZM3.30447 5.73399C3.04609 5.73872 2.66773 6.07266 2.65778 6.25805C2.93039 6.12709 3.19821 6.0011 3.47534 5.86562C3.43061 5.79883 3.47262 5.73869 3.30447 5.73399ZM4.14166 5.85008C4.16699 5.85039 4.1937 5.86287 4.2079 5.89831C4.22063 5.93083 4.20848 5.96483 4.19316 5.98171C4.19309 5.98184 4.19325 5.98239 4.19316 5.98251C4.19291 5.98291 4.19261 5.98379 4.19233 5.98416C4.18149 5.99814 4.14343 5.99234 4.11632 5.99234C4.0835 5.99087 4.06732 5.9855 4.04763 5.95882C4.03823 5.92915 4.06686 5.89999 4.07953 5.87786C4.07965 5.87768 4.0802 5.87725 4.08033 5.87707C4.0817 5.87499 4.08396 5.87252 4.08607 5.8705C4.09586 5.86153 4.11284 5.85313 4.13103 5.85091C4.13457 5.85048 4.13805 5.85005 4.14166 5.85008ZM10.7125 5.9529C10.6665 5.95854 10.6229 6.00202 10.643 6.07143C10.6304 6.11222 10.7053 6.25487 10.7248 6.33061C10.7422 6.38449 10.7022 6.53698 10.7386 6.55297C10.7722 6.57095 10.8603 6.46249 10.8572 6.32652C10.8669 6.25661 10.8323 5.99905 10.7444 5.95531C10.734 5.95243 10.7232 5.9516 10.7125 5.95287V5.9529ZM5.13187 6.20472C5.09127 6.20756 5.05506 6.22923 5.0714 6.28647C5.06895 6.32799 5.18612 6.37845 5.1932 6.47452C5.20996 6.51411 5.16817 6.64095 5.203 6.65274C5.23502 6.66592 5.27944 6.56506 5.2962 6.47122C5.30548 6.41984 5.256 6.24007 5.17195 6.20798C5.15881 6.20502 5.14532 6.20392 5.13187 6.20472ZM6.80217 6.43282C6.80523 6.4326 6.80797 6.43282 6.81115 6.43282H6.8128C6.9169 6.46109 7.07036 6.46402 7.20361 6.47778C7.3121 6.48465 7.36571 6.56961 7.26411 6.6053C7.16383 6.63964 7.06752 6.66647 7.06706 6.81136C7.08025 6.8831 7.07744 6.92077 7.06627 6.93804C7.06526 6.93948 7.06415 6.94084 7.06297 6.94214C7.06285 6.94232 7.0623 6.94281 7.06218 6.94296L7.06135 6.94378L7.06053 6.94461L7.05973 6.9454L7.05809 6.94623C7.05654 6.94719 7.0549 6.94801 7.0532 6.94867C7.05177 6.94916 7.04975 6.94925 7.04829 6.94949C7.02444 6.953 6.98983 6.93026 6.96406 6.9168C6.90224 6.87241 6.72879 6.76489 6.70409 6.53417C6.70055 6.48212 6.73953 6.43721 6.80217 6.43282ZM2.7225 6.61021C2.71597 6.61043 2.70296 6.62984 2.68568 6.65191C2.53198 6.89677 2.5183 7.26231 2.60311 7.37135C2.64817 7.42288 2.72247 7.44553 2.77727 7.42941C2.87382 7.38753 2.91626 7.19194 2.89333 7.12038C2.86113 7.06995 2.83557 7.06196 2.80343 7.10485C2.73547 7.24283 2.70718 7.14844 2.70122 7.07133C2.69081 6.9251 2.70498 6.79048 2.72085 6.68381C2.72931 6.62917 2.72897 6.61003 2.72247 6.61024L2.7225 6.61021ZM7.95904 6.93176C7.94662 6.93098 7.93421 6.93351 7.92308 6.93908C7.92064 6.93908 7.81306 7.01186 7.77838 7.06257C7.75722 7.07865 7.7596 7.09264 7.76611 7.1206C7.78259 7.15848 7.81162 7.14661 7.84459 7.12878C7.88834 7.12283 7.90949 7.15146 7.90592 7.204C7.88571 7.26948 7.9149 7.2939 7.9149 7.29802C7.9149 7.30211 7.95702 7.33829 8.00648 7.30947C8.11085 7.2696 8.1759 7.23086 8.32204 7.19908C8.36041 7.19832 8.35818 7.09566 8.2975 7.09199C8.21834 7.09596 8.14529 7.10002 8.06613 7.1623C8.01744 7.17356 8.0091 7.14392 7.99827 7.11733C7.9859 7.05139 8.02614 7.0049 8.0179 6.95545C8.02009 6.95761 7.99332 6.93359 7.95904 6.93176ZM11.3119 7.05683C11.2925 7.05744 11.2721 7.06012 11.2425 7.06257C11.2104 7.06934 11.1992 7.08339 11.1934 7.12225C11.1957 7.18116 11.2318 7.17823 11.2686 7.20153C11.29 7.2287 11.3039 7.25333 11.267 7.29799C11.232 7.33005 11.2071 7.34775 11.1722 7.37978C11.1557 7.40792 11.1454 7.45121 11.1959 7.46479C11.2891 7.49099 11.5049 7.35081 11.5049 7.34787C11.5399 7.32165 11.5283 7.27186 11.5253 7.27186C11.5049 7.24854 11.4589 7.26252 11.428 7.25873C11.4133 7.25873 11.365 7.25162 11.388 7.20888C11.4072 7.18232 11.4142 7.16645 11.4272 7.13366C11.4418 7.10164 11.429 7.08003 11.3765 7.06254C11.3498 7.05771 11.3314 7.05622 11.3119 7.05683ZM9.91126 9.89279C9.91105 9.89288 9.91065 9.89346 9.91044 9.89361C9.75536 9.93339 9.76018 10.0944 9.85976 10.165C8.22215 10.165 5.70914 10.1372 5.17021 10.1372C4.86869 10.1372 3.91478 10.1013 3.89646 10.1013C4.10102 10.4005 4.39738 10.4614 4.78514 10.4675C5.51249 10.4675 8.88261 10.4585 9.84172 10.4585C9.77352 10.5796 9.84792 10.7744 9.9014 10.8101C9.90253 10.8108 9.90436 10.812 9.90549 10.8125C9.90748 10.8136 9.91013 10.8145 9.91203 10.815C9.91264 10.8152 9.91386 10.8149 9.91447 10.815C9.97796 10.83 10.0059 10.784 10.0273 10.7504C10.1303 10.7595 10.71 10.7679 10.7631 10.7496C10.7633 10.7495 10.7637 10.7489 10.7639 10.7488C10.7998 10.8016 10.8354 10.8515 10.9037 10.8428C11.0233 10.8172 11.1174 10.8041 11.1204 10.5615C11.1204 10.5615 11.1082 10.1481 10.8367 10.174C10.7724 10.1837 10.5922 10.2018 10.5922 10.2018C10.3837 10.177 10.2307 10.1745 9.99622 10.1659C10.0179 10.1384 10.0561 10.0271 10.0093 9.98681C9.99711 9.97668 9.97891 9.97103 9.95373 9.97292H9.9529C9.95254 9.97292 9.95162 9.97298 9.95128 9.97292C9.9511 9.97286 9.95061 9.97216 9.95046 9.9721C9.94979 9.97188 9.94863 9.9717 9.94802 9.9713C9.9465 9.9701 9.94513 9.96873 9.94393 9.96721C9.94362 9.96685 9.94255 9.96599 9.94228 9.96556C9.93043 9.94832 9.92396 9.90597 9.91612 9.89526L9.91529 9.89443L9.9145 9.89364C9.91397 9.89333 9.91342 9.89305 9.91285 9.89282H9.91123L9.91126 9.89279ZM10.0224 10.4839C10.0227 10.4838 10.023 10.484 10.0233 10.4839C10.2622 10.4955 10.4866 10.4861 10.7255 10.4978C10.7634 10.53 10.7445 10.6037 10.7198 10.6171C10.7185 10.6178 10.7171 10.6183 10.7158 10.6188C10.7148 10.619 10.7134 10.6188 10.7125 10.6188C10.7115 10.6188 10.7101 10.619 10.7092 10.6188C10.6315 10.6168 10.5866 10.615 10.5089 10.613C10.5088 10.6092 10.5083 10.6053 10.5072 10.6016C10.4888 10.547 10.3555 10.5507 10.3241 10.5935L10.3225 10.5959C10.322 10.5967 10.3213 10.5983 10.3208 10.5992C10.3202 10.6005 10.3197 10.6019 10.3192 10.6032C10.3187 10.6049 10.3186 10.6073 10.3184 10.609C10.3182 10.6109 10.3174 10.6134 10.3176 10.6155C10.2127 10.6281 10.1183 10.612 10.0135 10.6082C9.9827 10.5699 9.9863 10.5005 10.0224 10.4839Z" fill="white"/>
</g>
</g>
<defs>
<clipPath id="clip0_4044_1632">
<rect width="15" height="15" fill="white"/>
</clipPath>
</defs>
</svg>
