<svg width="15" height="15" viewBox="0 0 15 15" fill="none" xmlns="http://www.w3.org/2000/svg">
<g clip-path="url(#clip0_4002_957)">
<path d="M7.5 15C11.6421 15 15 11.6421 15 7.5C15 3.35786 11.6421 0 7.5 0C3.35786 0 0 3.35786 0 7.5C0 11.6421 3.35786 15 7.5 15Z" fill="#F55B4B"/>
<path d="M14.9998 7.5001C15.0005 7.88889 14.9711 8.27716 14.9119 8.66143C14.734 9.80485 14.2927 10.8913 13.6229 11.8349C13.5733 11.9043 13.5232 11.9729 13.4717 12.0399C13.3252 12.2321 13.1699 12.4169 13.0059 12.5942C11.9493 13.7357 10.5643 14.5209 9.04229 14.8413C8.84307 14.8829 8.64102 14.9165 8.43614 14.9421C7.81547 15.019 7.18767 15.019 6.567 14.9421C6.36231 14.9167 6.16026 14.8831 5.96085 14.8413C4.7645 14.5913 3.64784 14.0513 2.70889 13.2689C2.61475 13.1908 2.52286 13.1106 2.43321 13.0284C2.25587 12.8659 2.08663 12.6951 1.92549 12.516C0.722719 11.1809 0.0397282 9.45805 0.00100882 7.66147C-0.0377106 5.86489 0.570419 4.11421 1.71456 2.72852C1.77813 2.65117 1.84376 2.57529 1.91026 2.50059C2.07081 2.32129 2.23956 2.15 2.41651 1.98672C3.41105 1.06787 4.63618 0.435962 5.96143 0.158301C6.15909 0.116895 6.36036 0.0836918 6.56524 0.0586918C7.18591 -0.0182618 7.81371 -0.0182618 8.43438 0.0586918C8.63926 0.0840824 8.84132 0.117676 9.04053 0.159473C10.0367 0.367546 10.9797 0.777432 11.8114 1.36387C11.9069 1.43066 12.0008 1.5 12.093 1.57188C12.284 1.71953 12.4673 1.87627 12.6429 2.04209C12.8648 2.25143 13.0739 2.474 13.269 2.70859C14.1346 3.74799 14.7017 5.00303 14.9096 6.33965C14.9695 6.72357 14.9996 7.11154 14.9998 7.5001Z" fill="#3E436D"/>
<path d="M8.43443 14.9143C8.46822 14.9195 8.50191 14.9245 8.5355 14.9292C8.50171 14.9339 8.46802 14.9383 8.43443 14.9424C7.81376 15.0193 7.18596 15.0193 6.56529 14.9424C6.3606 14.917 6.15855 14.8834 5.95914 14.8416C4.76279 14.5916 3.64613 14.0516 2.70718 13.2692C2.61304 13.1911 2.52115 13.1109 2.4315 13.0287C2.25416 12.8662 2.08492 12.6954 1.92379 12.5163C0.72101 11.1812 0.0380192 9.45834 -0.000700161 7.66176C-0.0394195 5.86518 0.56871 4.1145 1.71285 2.72881C1.77642 2.65147 1.84205 2.57559 1.90855 2.50088C2.0691 2.32158 2.23785 2.15029 2.4148 1.98701C3.40934 1.06816 4.63447 0.436255 5.95972 0.158594C6.15855 0.116993 6.36041 0.0836918 6.56529 0.0586918C7.18596 -0.0182618 7.81376 -0.0182618 8.43443 0.0586918C8.46822 0.0627933 8.50191 0.0671879 8.5355 0.0718754C8.50171 0.0765629 8.46802 0.0815433 8.43443 0.0868168C8.29771 0.106348 8.16295 0.130567 8.03013 0.159473C7.52694 0.264574 7.03602 0.421667 6.56529 0.628223C6.35826 0.717286 6.15621 0.816407 5.95914 0.925586C5.70965 1.06271 5.46824 1.21403 5.23609 1.37881C4.97332 1.56527 4.7228 1.76842 4.48609 1.98701C4.36285 2.10068 4.24322 2.21865 4.1272 2.34092C4.0774 2.39326 4.02857 2.44658 3.98072 2.50088C3.91422 2.57559 3.84859 2.65147 3.78502 2.72881C3.69009 2.84365 3.59869 2.96084 3.5108 3.08037C3.36607 3.27842 3.23111 3.4835 3.10591 3.69561C3.05357 3.78506 3.00279 3.87549 2.95357 3.96689C2.55808 4.70688 2.29016 5.50825 2.16109 6.33731C2.04195 7.10694 2.04195 7.89033 2.16109 8.65996C2.30767 9.60004 2.63254 10.5034 3.11822 11.3216C3.21763 11.4888 3.3231 11.6517 3.43463 11.8103C3.46392 11.8521 3.49322 11.894 3.52457 11.9354C3.59683 12.0344 3.67183 12.1314 3.74957 12.2266C3.82925 12.3242 3.91138 12.4203 3.99595 12.5148C4.15709 12.6936 4.32632 12.8644 4.50367 13.0272C4.59371 13.1095 4.6856 13.1896 4.77935 13.2678C5.14628 13.5733 5.54164 13.843 5.96002 14.0731C6.1567 14.1815 6.35875 14.2812 6.56617 14.372C7.0369 14.5785 7.52782 14.7356 8.03101 14.8407C8.16402 14.8688 8.29849 14.8934 8.43443 14.9143Z" fill="#343A5B"/>
<path d="M13.2689 2.70752L10.4488 5.52764L9.63848 6.33857L9.04111 6.93594L8.88203 7.09502L8.43437 7.54209L7.31523 8.66123L6.56523 9.41123L6.50371 9.47217L5.9585 10.0174L2.70654 13.2693C2.6124 13.1912 2.52051 13.111 2.43086 13.0288C2.25352 12.8663 2.08428 12.6955 1.92314 12.5164C1.72205 12.293 1.5346 12.0577 1.36182 11.8118L3.70117 9.47246L5.95703 7.2166L6.07744 7.09648L6.56318 6.61045L6.83359 6.34004L7.47812 5.69551L7.64424 5.5291L8.43203 4.74131L9.03818 4.13516L11.8091 1.36426C11.9046 1.43105 11.9984 1.50039 12.0906 1.57227C12.2816 1.71992 12.4649 1.87666 12.6405 2.04248C12.8632 2.25128 13.0731 2.47336 13.2689 2.70752Z" fill="white"/>
<path d="M13.6211 11.8361C13.5716 11.9056 13.5215 11.9741 13.47 12.0412C13.3235 12.2334 13.1682 12.4182 13.0042 12.5955C12.7757 12.8423 12.531 13.0736 12.2717 13.2878L9.04058 10.0563L8.45669 9.47246L8.43442 9.45019L7.64634 8.66152L7.48052 8.49629L6.56528 7.58105L6.07954 7.09531L5.95913 6.9749L5.3231 6.33887L4.51157 5.52793L1.71313 2.72891C1.77671 2.65156 1.84233 2.57568 1.90884 2.50098C2.06938 2.32168 2.23813 2.15039 2.41509 1.98711C2.65142 1.76856 2.90155 1.56541 3.16392 1.37891L13.6211 11.8361Z" fill="white"/>
<path d="M5.80981 9.65059L2.43159 13.0285C2.25425 12.866 2.08501 12.6952 1.92388 12.5161L4.7894 9.65059H5.80981ZM12.643 2.04102L9.15669 5.52734L9.0395 5.64307L8.97681 5.70576H7.95786L8.13628 5.52734L8.43452 5.22939L12.0931 1.5708C12.2841 1.71846 12.4674 1.8752 12.643 2.04102ZM13.4701 12.0409C13.3236 12.2331 13.1683 12.4179 13.0042 12.5952L10.0605 9.65059H11.0806L13.4701 12.0409ZM6.13442 5.70606H5.11431L4.93589 5.52764L1.90894 2.50068C2.06948 2.32139 2.23823 2.1501 2.41519 1.98682L5.95601 5.52764L5.95923 5.53086L6.13442 5.70606Z" fill="#DB1B1B"/>
<path d="M14.9121 6.33877C14.8696 6.06545 14.8119 5.79472 14.7393 5.52783H9.04072V0.158594C8.8415 0.116993 8.63945 0.0836918 8.43457 0.0586918C7.8139 -0.0182618 7.1861 -0.0182618 6.56543 0.0586918C6.36074 0.0840824 6.15869 0.117676 5.95928 0.159473V5.52783H0.263672C0.191012 5.79472 0.133305 6.06545 0.0908203 6.33877C-0.0283203 7.10841 -0.0283203 7.89179 0.0908203 8.66143C0.133305 8.93474 0.191012 9.20548 0.263672 9.47236H5.95928V14.8416C6.1585 14.8832 6.36055 14.9168 6.56543 14.9424C7.1861 15.0193 7.8139 15.0193 8.43457 14.9424C8.63945 14.917 8.8415 14.8834 9.04072 14.8416V9.47236H14.7378C14.8105 9.20548 14.8682 8.93474 14.9106 8.66143C15.0298 7.89179 15.0298 7.10841 14.9106 6.33877H14.9121Z" fill="white"/>
<path d="M3.52383 11.9368C3.59609 12.0358 3.67109 12.1329 3.74883 12.228L2.70762 13.2692C2.61348 13.1911 2.52158 13.1109 2.43193 13.0287C2.25459 12.8662 2.08535 12.6954 1.92422 12.5163C1.72313 12.2929 1.53568 12.0576 1.36289 11.8117L2.68916 10.4854C2.81411 10.7734 2.95717 11.0532 3.11748 11.323C3.21689 11.4902 3.32236 11.6531 3.43389 11.8117C3.46348 11.8536 3.49336 11.8946 3.52383 11.9368ZM4.12734 2.34092C4.07754 2.39326 4.02871 2.44658 3.98086 2.50088C3.91436 2.57559 3.84873 2.65147 3.78516 2.72881C3.69023 2.84365 3.59883 2.96084 3.51094 3.08037C3.36621 3.27842 3.23125 3.4835 3.10605 3.69561C3.05371 3.78506 3.00293 3.87549 2.95371 3.96689L1.71328 2.72881C1.77686 2.65147 1.84248 2.57559 1.90898 2.50088C2.06953 2.32158 2.23828 2.15029 2.41523 1.98701C2.65157 1.76846 2.9017 1.56531 3.16406 1.37881L4.12734 2.34092ZM2.16035 6.33877C2.04121 7.10841 2.04121 7.89179 2.16035 8.66143C2.20284 8.93474 2.26054 9.20548 2.3332 9.47236H0.263672C0.191012 9.20548 0.133305 8.93474 0.0908203 8.66143C-0.0283203 7.89179 -0.0283203 7.10841 0.0908203 6.33877C0.133305 6.06545 0.191012 5.79472 0.263672 5.52783H2.3332C2.26054 5.79472 2.20284 6.06545 2.16035 6.33877ZM6.56543 0.626758C6.3584 0.716797 6.15635 0.816407 5.95928 0.925586V0.158594C6.1585 0.116993 6.36055 0.0836918 6.56543 0.0586918C7.1861 -0.0182618 7.8139 -0.0182618 8.43457 0.0586918C8.46836 0.0627933 8.50205 0.0671879 8.53565 0.0718754C8.50186 0.0765629 8.46816 0.0815433 8.43457 0.0868168C8.29785 0.106348 8.16309 0.130567 8.03027 0.159473C7.52713 0.264102 7.03622 0.420703 6.56543 0.626758Z" fill="#E0E0E0"/>
<path d="M15 7.5001C15.0006 7.1113 14.9713 6.72304 14.9121 6.33877H8.4375V0.0586918C7.81683 -0.0182618 7.18903 -0.0182618 6.56836 0.0586918V6.33877H0.0893555C-0.0297852 7.10841 -0.0297852 7.89179 0.0893555 8.66143H6.56543V14.9415C7.1861 15.0185 7.8139 15.0185 8.43457 14.9415V8.66143H14.9121C14.9713 8.27716 15.0006 7.88889 15 7.5001Z" fill="#DB1B1B"/>
<path d="M3.52383 11.9368L2.43164 13.0287C2.2543 12.8662 2.08506 12.6954 1.92393 12.5163L3.11719 11.323C3.2166 11.4902 3.32207 11.6531 3.43359 11.8117C3.46348 11.8536 3.49336 11.8946 3.52383 11.9368ZM3.51006 3.08184C3.36533 3.27988 3.23037 3.48496 3.10518 3.69707L1.90898 2.50088C2.06953 2.32158 2.23828 2.15029 2.41523 1.98701L3.51006 3.08184ZM2.16035 6.33877C2.04121 7.10841 2.04121 7.89179 2.16035 8.66143H0.0893555C-0.0297852 7.89179 -0.0297852 7.10841 0.0893555 6.33877H2.16035ZM8.43457 0.0586918V0.0879887C8.29785 0.10752 8.16309 0.131739 8.03027 0.160645C7.52708 0.265745 7.03616 0.422839 6.56543 0.629395V0.0586918C7.1861 -0.0182618 7.8139 -0.0182618 8.43457 0.0586918Z" fill="#C11717"/>
<path d="M13.8971 7.97441C14.1605 7.97441 14.3741 7.76087 14.3741 7.49746C14.3741 7.23405 14.1605 7.02051 13.8971 7.02051C13.6337 7.02051 13.4202 7.23405 13.4202 7.49746C13.4202 7.76087 13.6337 7.97441 13.8971 7.97441Z" fill="#E23737"/>
<path d="M12.9037 7.83525C13.0903 7.83525 13.2415 7.68402 13.2415 7.49746C13.2415 7.3109 13.0903 7.15967 12.9037 7.15967C12.7172 7.15967 12.5659 7.3109 12.5659 7.49746C12.5659 7.68402 12.7172 7.83525 12.9037 7.83525Z" fill="#E23737"/>
</g>
<defs>
<clipPath id="clip0_4002_957">
<rect width="15" height="15" fill="white"/>
</clipPath>
</defs>
</svg>
