<svg width="222" height="40" viewBox="0 0 222 40" fill="none" xmlns="http://www.w3.org/2000/svg">
<mask id="mask0_1954_4512" style="mask-type:luminance" maskUnits="userSpaceOnUse" x="0" y="0" width="222" height="40">
<path d="M221.287 0.75H0.349609V39.9162H221.287V0.75Z" fill="white"/>
</mask>
<g mask="url(#mask0_1954_4512)">
<path d="M102.986 31.3154H104.802L107.588 37.7086L110.375 31.3154H112.19V39.7969H110.545V34.4677H110.486L108.19 39.7969H106.977L104.694 34.4677H104.637V39.7969H102.991V31.3154H102.986Z" fill="#00E1FF"/>
<path d="M123.245 31.3154L126.535 39.7969H124.756L124.19 38.2673H120.56L119.994 39.7969H118.215L121.496 31.3154H123.24H123.245ZM123.641 36.7643L122.38 33.3593L121.118 36.7643H123.641Z" fill="#00E1FF"/>
<path d="M132.562 31.3154H134.208L138.123 37.1101H138.181V31.3154H139.826V39.7969H138.181L134.266 34.0022H134.208V39.7969H132.562V31.3154Z" fill="#00E1FF"/>
<path d="M150.885 31.3154L154.176 39.7969H152.397L151.83 38.2673H148.201L147.635 39.7969H145.855L149.137 31.3154H150.881H150.885ZM151.282 36.7643L150.02 33.3593L148.759 36.7643H151.282Z" fill="#00E1FF"/>
<path d="M159.361 35.5579C159.361 32.9155 161.381 31.1953 163.785 31.1953C164.926 31.1953 166.33 31.6032 167.231 33.0353L166.041 33.8599C165.475 33.0707 164.672 32.7471 163.807 32.7471C162.282 32.7471 161.043 33.8111 161.043 35.5535C161.043 37.2959 162.256 38.4088 163.807 38.4088C164.85 38.4088 165.8 37.9211 166.054 36.6043H164.012V35.2299H167.655C168.038 38.1694 166.094 39.9117 163.736 39.9117C161.377 39.9117 159.361 38.1915 159.361 35.5491V35.5579Z" fill="#00E1FF"/>
<path d="M174.083 31.3154H178.912V32.8228H175.729V34.7958H178.408V36.2766H175.729V38.2939H179.019V39.8013H174.078V31.3198L174.083 31.3154Z" fill="#00E1FF"/>
<path d="M188.255 36.9904H186.979V39.7969H185.334V31.3154H188.326C190.141 31.3154 191.34 32.4637 191.34 34.1928C191.34 35.4121 190.751 36.2943 189.766 36.7156L191.759 39.7969H190.007L188.255 36.9904ZM188.157 35.5672C189.058 35.5672 189.672 35.186 189.672 34.1928C189.672 33.1997 189.058 32.8185 188.157 32.8185H186.979V35.5672H188.157Z" fill="#00E1FF"/>
<path d="M43.7969 7.87891H49.9366V26.2339H43.7969V7.87891Z" fill="#00E1FF"/>
<path d="M53.7754 7.87857H59.9152V10.0333C60.9808 8.55251 62.7197 7.52832 65.1676 7.52832C68.8952 7.52832 72.0208 9.82489 72.0208 15.4334V26.2335H65.881V16.4886C65.881 14.5821 64.9581 12.924 62.8624 12.924C60.7668 12.924 59.9152 14.5821 59.9152 16.4886V26.2335H53.7754V7.87857Z" fill="#00E1FF"/>
<path d="M74.7891 21.2951L79.618 19.9872C79.8677 20.6212 80.2911 21.8582 81.9276 21.8582C82.7789 21.8582 83.4881 21.468 83.4881 20.6921C83.4881 20.3019 83.2738 19.8098 82.3149 19.5261L79.618 18.5374C76.5632 17.4778 75.2523 15.465 75.2523 13.1019C75.2523 9.5727 78.4853 7.52441 82.2126 7.52441C85.9405 7.52441 88.4592 9.5727 89.066 12.6408L84.2724 13.8068C83.8799 12.3969 82.9932 12.1841 82.4622 12.1841C81.5041 12.1841 81.183 12.8181 81.183 13.2082C81.183 13.6339 81.4326 14.126 82.4983 14.4098L85.017 15.3275C86.7919 15.8906 89.5249 17.2694 89.5249 20.6921C89.5249 24.3986 86.3279 26.5888 82.0343 26.5888C78.2357 26.5888 75.3598 24.8952 74.7935 21.2951H74.7891Z" fill="#00E1FF"/>
<path d="M92.4629 7.8791H98.6027V9.6082H98.7095C98.8524 9.28895 100.591 7.52441 103.824 7.52441C107.944 7.52441 112.559 10.6323 112.559 17.0566C112.559 23.4809 107.944 26.5888 103.824 26.5888C100.591 26.5888 98.8524 24.8242 98.7095 24.505H98.6027V39.7964H92.4629V7.8791ZM102.509 21.1887C104.64 21.1887 106.522 19.6369 106.522 17.0566C106.522 14.4763 104.64 12.9245 102.509 12.9245C100.378 12.9245 98.4599 14.4408 98.4599 17.0566C98.4599 19.6724 100.306 21.1887 102.509 21.1887Z" fill="#00E1FF"/>
<path d="M114.616 17.0921C114.616 10.8806 119.303 7.52441 124.095 7.52441C128.888 7.52441 134.426 10.7387 133.147 19.4197H120.613C121.358 20.9005 122.954 21.6454 125.085 21.6454C126.574 21.6454 127.926 21.3616 129.276 20.4438L131.974 23.3035C130.485 25.1745 127.89 26.5844 124.412 26.5844C119.231 26.5844 114.611 23.1262 114.611 17.0877L114.616 17.0921ZM127.752 15.1147C127.323 13.3856 125.727 12.6097 124.167 12.6097C122.606 12.6097 121.041 13.3856 120.404 15.1147H127.752Z" fill="#00E1FF"/>
<path d="M135.379 17.0212C135.379 10.8097 140.315 7.52441 145.282 7.52441C148.546 7.52441 151.386 9.00525 153.267 12.0423L148.831 14.9373C148.015 13.9132 146.878 12.9955 145.282 12.9955C143.151 12.9955 141.412 14.6182 141.412 17.0212C141.412 19.4241 143.151 21.1178 145.282 21.1178C146.878 21.1178 148.015 20.2 148.831 19.1759L153.267 22.071C151.386 25.0371 148.546 26.5888 145.282 26.5888C140.31 26.5888 135.379 23.3079 135.379 17.0212Z" fill="#00E1FF"/>
<path d="M158.136 20.0932V12.6803H155.332V7.87875H158.136V3.18359H164.276V7.87875H168.182V12.6803H164.276V19.1755C164.276 20.0223 164.771 21.0819 166.514 21.0819C166.942 21.0819 167.615 21.011 168.253 20.7982V25.4224C167.545 26.1982 165.877 26.4466 164.49 26.4466C160.798 26.4466 158.136 24.682 158.136 20.0932Z" fill="#00E1FF"/>
<path d="M171.303 7.87891H177.443V26.2339H171.303V7.87891Z" fill="#00E1FF"/>
<path d="M180.389 17.0566C180.389 10.8097 185.396 7.52441 190.256 7.52441C195.116 7.52441 200.087 10.8097 200.087 17.0566C200.087 23.3035 195.08 26.5888 190.256 26.5888C185.432 26.5888 180.389 23.3079 180.389 17.0566ZM190.256 21.1178C192.352 21.1178 194.055 19.4951 194.055 17.0566C194.055 14.6182 192.352 12.9955 190.256 12.9955C188.161 12.9955 186.422 14.6182 186.422 17.0566C186.422 19.4951 188.125 21.1178 190.256 21.1178Z" fill="#00E1FF"/>
<path d="M203.043 7.87857H209.182V10.0333C210.248 8.55249 211.987 7.52832 214.435 7.52832C218.162 7.52832 221.288 9.82494 221.288 15.4334V26.2336H215.148V16.4886C215.148 14.5822 214.225 12.924 212.129 12.924C210.034 12.924 209.182 14.5822 209.182 16.4886V26.2336H203.043V7.87857Z" fill="#00E1FF"/>
<path d="M29.626 4.89062H6.29764C3.01263 4.89062 0.349609 7.53859 0.349609 10.805V34.0015C0.349609 37.2679 3.01263 39.9158 6.29764 39.9158H29.626C32.911 39.9158 35.574 37.2679 35.574 34.0015V10.805C35.574 7.53859 32.911 4.89062 29.626 4.89062Z" fill="#0066FF"/>
<path d="M24.6223 10.1895H24.5466C21.6408 10.1895 19.2852 12.5318 19.2852 15.421V29.3558C19.2852 32.2451 21.6408 34.5874 24.5466 34.5874H24.6223C27.5281 34.5874 29.8837 32.2451 29.8837 29.3558V15.421C29.8837 12.5318 27.5281 10.1895 24.6223 10.1895Z" fill="#00E1FF"/>
<path d="M11.3821 14.9502H11.3063C8.40055 14.9502 6.04492 17.2924 6.04492 20.1818V24.5977C6.04492 27.487 8.40055 29.8292 11.3063 29.8292H11.3821C14.2879 29.8292 16.6434 27.487 16.6434 24.5977V20.1818C16.6434 17.2924 14.2879 14.9502 11.3821 14.9502Z" fill="#00E1FF"/>
<path d="M46.8689 6.85947C48.5656 6.85947 49.9411 5.49181 49.9411 3.80473C49.9411 2.11765 48.5656 0.75 46.8689 0.75C45.1723 0.75 43.7969 2.11765 43.7969 3.80473C43.7969 5.49181 45.1723 6.85947 46.8689 6.85947Z" fill="#00E1FF"/>
<path d="M174.375 6.85947C176.071 6.85947 177.447 5.49181 177.447 3.80473C177.447 2.11765 176.071 0.75 174.375 0.75C172.678 0.75 171.303 2.11765 171.303 3.80473C171.303 5.49181 172.678 6.85947 174.375 6.85947Z" fill="#00E1FF"/>
</g>
</svg>
