<svg width="164" height="79" viewBox="0 0 164 79" fill="none" xmlns="http://www.w3.org/2000/svg">
<g clip-path="url(#clip0_1954_4581)">
<mask id="mask0_1954_4581" style="mask-type:luminance" maskUnits="userSpaceOnUse" x="56" y="0" width="52" height="36">
<path d="M101.773 3.69292C101.738 5.30224 101.565 6.90559 101.257 8.48543C101.257 8.57711 101.257 8.67713 101.257 8.78549C101.197 12.947 100.037 17.0185 97.8933 20.5862C95.7501 24.1539 92.7004 27.0905 89.0544 29.0974C87.6498 29.8828 86.1699 30.5251 84.6369 31.0144C81.3662 32.0737 77.9082 32.4283 74.4905 32.0548C71.0729 31.6813 67.7731 30.5881 64.8084 28.8474C64.4822 28.6545 64.2101 28.3821 64.0177 28.0556C63.8253 27.7291 63.7188 27.3592 63.7082 26.9804C62.9497 26.622 62.1996 26.2469 61.4745 25.8135C60.773 25.4065 59.9392 25.2931 59.1545 25.4978C58.3699 25.7026 57.6978 26.2089 57.2846 26.9067C56.8714 27.6045 56.7506 28.4373 56.9483 29.2237C57.1461 30.0102 57.6465 30.6867 58.3406 31.1061C63.3343 34.0153 68.9984 35.5765 74.7775 35.6364C80.5565 35.6963 86.2518 34.2529 91.3047 31.4478C96.2619 28.7173 100.408 24.7236 103.323 19.8724C106.237 15.0212 107.816 9.48509 107.899 3.82627C107.915 3.01196 107.607 2.22469 107.043 1.63718C106.479 1.04967 105.705 0.70989 104.89 0.692383H104.824C104.022 0.694258 103.252 1.00866 102.677 1.56887C102.103 2.12908 101.77 2.89099 101.748 3.69292" fill="white"/>
</mask>
<g mask="url(#mask0_1954_4581)">
<path d="M107.958 0.692383H56.4238V36.9238H107.958V0.692383Z" fill="url(#paint0_linear_1954_4581)"/>
</g>
<mask id="mask1_1954_4581" style="mask-type:luminance" maskUnits="userSpaceOnUse" x="63" y="6" width="39" height="24">
<path d="M96.7656 8.68531C96.7293 10.3762 96.483 12.0561 96.0322 13.6862C96.243 13.9158 96.3853 14.2 96.4428 14.5065C96.5002 14.813 96.4706 15.1294 96.3572 15.4198C95.4856 17.6737 94.1555 19.7221 92.451 21.4352C90.7466 23.1482 88.705 24.4887 86.4555 25.3716C83.4653 26.9504 80.122 27.7406 76.7414 27.6677C73.3608 27.5948 70.0547 26.6611 67.1354 24.9549C66.6202 24.6503 66.0052 24.5625 65.4254 24.711C64.8457 24.8595 64.3485 25.232 64.0431 25.7467C63.8221 26.1189 63.7149 26.5477 63.7348 26.9802C67.6175 28.7832 71.8722 29.6409 76.1503 29.483C80.4283 29.3251 84.6082 28.1561 88.3475 26.0717C91.6684 24.2805 94.5495 21.7734 96.7824 18.7318C99.0153 15.6902 100.544 12.1903 101.258 8.48527C101.198 7.94185 100.942 7.43879 100.539 7.0694C100.136 6.70001 99.6126 6.48938 99.066 6.47658C98.4749 6.47429 97.9066 6.70469 97.4839 7.11798C97.0613 7.53127 96.8182 8.09427 96.8073 8.68531" fill="white"/>
</mask>
<g mask="url(#mask1_1954_4581)">
<path d="M101.259 6.47656H63.7188V30.6142H101.259V6.47656Z" fill="url(#paint1_linear_1954_4581)"/>
</g>
<mask id="mask2_1954_4581" style="mask-type:luminance" maskUnits="userSpaceOnUse" x="65" y="13" width="32" height="14">
<path d="M93.2484 14.2205C92.3706 16.5593 90.8799 18.6189 88.9325 20.1836C86.9851 21.7482 84.6528 22.7603 82.1798 23.1138C79.6469 23.5074 77.0551 23.2331 74.6607 22.318C72.2663 21.4029 70.1522 19.8787 68.5274 17.8962C68.2477 17.5524 67.843 17.3339 67.4022 17.2885C66.9614 17.2432 66.5207 17.3748 66.177 17.6545C65.8332 17.9341 65.6146 18.3388 65.5693 18.7796C65.524 19.2204 65.6556 19.6611 65.9352 20.0049C67.9322 22.4353 70.5287 24.3027 73.4683 25.4224C76.4079 26.542 79.5887 26.8754 82.6966 26.3893C83.986 26.1905 85.2495 25.8494 86.4639 25.3725L86.8973 25.1475C89.1184 23.9529 91.0754 22.3221 92.6508 20.3528C94.2263 18.3835 95.3877 16.1162 96.0656 13.6871C95.8958 13.4974 95.6848 13.3492 95.4488 13.2537C95.2546 13.1789 95.0485 13.1394 94.8404 13.137C94.4955 13.1307 94.1572 13.2316 93.8721 13.4256C93.587 13.6197 93.3691 13.8974 93.2484 14.2205Z" fill="white"/>
</mask>
<g mask="url(#mask2_1954_4581)">
<path d="M96.032 13.1445H65.3516V26.6469H96.032V13.1445Z" fill="url(#paint2_linear_1954_4581)"/>
</g>
<path d="M44.5222 78.0056C44.269 78.2886 43.9596 78.5157 43.6138 78.6724C43.2223 78.8531 42.7946 78.9415 42.3635 78.9308C41.9498 78.9365 41.539 78.86 41.155 78.7057C40.8118 78.5749 40.5016 78.37 40.2465 78.1056C39.9926 77.839 39.7942 77.5245 39.6631 77.1805C39.5272 76.8008 39.4595 76.4001 39.463 75.9969C39.4616 75.606 39.5352 75.2183 39.6797 74.8551C39.8157 74.5071 40.0197 74.1897 40.2798 73.9216C40.5414 73.655 40.8529 73.4426 41.1967 73.2965C41.5645 73.1362 41.9624 73.0566 42.3635 73.0631C42.7881 73.0546 43.2093 73.14 43.5971 73.3131C43.945 73.4742 44.2568 73.7038 44.5139 73.9882L43.8138 74.6634C43.6405 74.4477 43.419 74.2758 43.1671 74.1615C42.9152 74.0471 42.6399 73.9935 42.3635 74.0049C42.0993 73.9991 41.8371 74.0533 41.5967 74.1633C41.376 74.2644 41.1819 74.4156 41.03 74.605C40.8706 74.791 40.7489 75.0061 40.6716 75.2385C40.5883 75.4826 40.546 75.7389 40.5465 75.9969C40.5468 76.2494 40.589 76.5001 40.6716 76.7387C40.7489 76.9736 40.8706 77.1915 41.03 77.3805C41.1912 77.5768 41.3952 77.7337 41.6263 77.8392C41.8574 77.9446 42.1096 77.9959 42.3635 77.989C42.6514 77.989 42.9358 77.9265 43.197 77.8056C43.4414 77.6897 43.6576 77.5219 43.8305 77.3138L44.5222 78.0056Z" fill="#55B0FF"/>
<path d="M47.9153 78.9324C47.5119 78.934 47.1123 78.8546 46.7401 78.6991C46.3971 78.5479 46.086 78.3329 45.8232 78.0656C45.565 77.7943 45.3588 77.4779 45.2148 77.1321C45.0703 76.7717 44.9967 76.3869 44.9981 75.9986C44.9959 75.6102 45.0695 75.2252 45.2148 74.8651C45.3588 74.5193 45.565 74.2028 45.8232 73.9316C46.0838 73.6616 46.3954 73.4463 46.7401 73.2981C47.1111 73.1387 47.5115 73.0591 47.9153 73.0647C48.3164 73.0591 48.7141 73.1386 49.0822 73.2981C49.4305 73.4439 49.7454 73.6595 50.0073 73.9316C50.2682 74.2007 50.4748 74.5177 50.6158 74.8651C50.7678 75.2234 50.8444 75.6093 50.8408 75.9986C50.8435 76.3878 50.7669 76.7735 50.6158 77.1321C50.3323 77.837 49.7808 78.4006 49.0822 78.6991C48.7129 78.8546 48.316 78.934 47.9153 78.9324ZM47.9153 78.0073C48.184 78.0123 48.4499 77.9522 48.6904 77.8323C48.9131 77.7229 49.1115 77.5698 49.2739 77.3822C49.4333 77.1931 49.5549 76.9753 49.6323 76.7404C49.7987 76.2627 49.7987 75.7428 49.6323 75.2651C49.5534 75.0292 49.4288 74.8111 49.2655 74.6233C49.104 74.4327 48.9055 74.2768 48.6821 74.1649C48.4441 74.0463 48.1812 73.9862 47.9153 73.9899C47.6494 73.9862 47.3865 74.0463 47.1485 74.1649C46.9258 74.2743 46.7274 74.4274 46.565 74.615C46.4056 74.8041 46.284 75.0219 46.2066 75.2568C46.1241 75.4954 46.0819 75.7461 46.0816 75.9986C46.081 76.2484 46.1233 76.4965 46.2066 76.7321C46.2855 76.968 46.4101 77.1861 46.5734 77.3738C46.733 77.5664 46.9319 77.7227 47.1568 77.8323C47.3916 77.9515 47.652 78.0116 47.9153 78.0073Z" fill="#55B0FF"/>
<path d="M52.0488 78.7653V73.5893C52.0488 73.5143 52.0488 73.3976 52.0488 73.2393H53.0657V74.0728C53.1389 73.9618 53.2197 73.856 53.3074 73.756C53.5392 73.511 53.8244 73.3227 54.1409 73.2059C54.3602 73.1423 54.5877 73.1114 54.816 73.1143C55.1849 73.1008 55.5506 73.1872 55.8745 73.3643C56.1615 73.5422 56.3904 73.8 56.533 74.1061C56.7734 73.8338 57.0546 73.6005 57.3664 73.4143C57.7272 73.2031 58.1406 73.099 58.5583 73.1143C58.8521 73.0892 59.1478 73.1334 59.4214 73.2434C59.695 73.3534 59.9389 73.5262 60.1336 73.7477C60.4903 74.2285 60.6726 74.8164 60.6504 75.4147V78.7486H59.6335V75.5147C59.6683 75.1222 59.5715 74.7293 59.3585 74.3978C59.2487 74.2742 59.1118 74.1775 58.9586 74.1153C58.8054 74.0532 58.6399 74.0272 58.475 74.0394C58.2645 74.0352 58.056 74.0809 57.8665 74.1728C57.6813 74.2635 57.5146 74.3879 57.3748 74.5395C57.2376 74.6934 57.1302 74.8715 57.058 75.0646C56.9817 75.2671 56.9422 75.4816 56.9414 75.698V78.7653H55.8495V75.5313C55.8808 75.1304 55.775 74.7308 55.5494 74.3978C55.4402 74.2758 55.3046 74.1802 55.153 74.1181C55.0015 74.056 54.8378 74.0291 54.6743 74.0394C54.416 74.027 54.16 74.0938 53.9408 74.2311C53.7441 74.3557 53.5787 74.524 53.4574 74.7229C53.3294 74.9356 53.2419 75.1701 53.199 75.4147C53.1425 75.6719 53.1145 75.9347 53.1157 76.1981V78.7653H52.0488Z" fill="#55B0FF"/>
<path d="M62.1426 78.7646V73.5887C62.1426 73.5137 62.1426 73.397 62.1426 73.2386H63.1594V74.0721C63.2261 73.9804 63.3095 73.8721 63.4095 73.7554C63.5203 73.6398 63.6433 73.5364 63.7762 73.447C63.9338 73.3434 64.1048 73.2621 64.2846 73.2053C64.5012 73.1422 64.7259 73.1113 64.9514 73.1136C65.3231 73.0991 65.6918 73.1855 66.0183 73.3637C66.3053 73.5415 66.5342 73.7993 66.6767 74.1055C66.9172 73.8332 67.1983 73.5998 67.5102 73.4137C67.8709 73.2025 68.2843 73.0984 68.7021 73.1136C68.9958 73.0898 69.291 73.1347 69.5644 73.2446C69.8378 73.3546 70.0819 73.5266 70.2774 73.7471C70.6311 74.2289 70.8104 74.8168 70.7858 75.414V78.7479H69.7189V75.514C69.7502 75.1131 69.6444 74.7135 69.4189 74.3805C69.3087 74.2574 69.1718 74.161 69.0187 74.0989C68.8655 74.0368 68.7002 74.0105 68.5354 74.0221C68.3223 74.0188 68.1113 74.0644 67.9186 74.1555C67.7371 74.2482 67.5734 74.3724 67.4352 74.5222C67.2952 74.674 67.1874 74.8526 67.1185 75.0473C67.0388 75.2488 66.9991 75.464 67.0018 75.6807V78.7479H65.9433V75.514C65.9769 75.1117 65.8677 74.7103 65.6349 74.3805C65.5312 74.2627 65.4026 74.1695 65.2585 74.1075C65.1143 74.0455 64.9582 74.0163 64.8014 74.0221C64.5405 74.0106 64.2822 74.0773 64.0596 74.2138C63.8653 74.3387 63.7027 74.5071 63.5845 74.7056C63.4574 74.9196 63.3672 75.1534 63.3178 75.3974C63.2681 75.6556 63.243 75.9179 63.2428 76.1808V78.7479L62.1426 78.7646Z" fill="#55B0FF"/>
<path d="M72.2025 73.2389H73.2693V76.4812C73.2335 76.885 73.3461 77.2879 73.586 77.6147C73.7065 77.7355 73.8513 77.8291 74.0109 77.8895C74.1704 77.9499 74.341 77.9755 74.5112 77.9648C74.7789 77.9765 75.0446 77.913 75.278 77.7814C75.4747 77.6539 75.6422 77.4863 75.7698 77.2897C75.899 77.0767 75.9893 76.8425 76.0365 76.5979C76.0966 76.3242 76.1246 76.0445 76.1198 75.7644V73.1973H77.1867V78.3982C77.1867 78.5149 77.1867 78.6316 77.1867 78.7399H76.1698L76.1282 77.9064C76.0615 77.9981 75.9698 78.0981 75.8698 78.2148C75.7574 78.3297 75.6315 78.4305 75.4947 78.5149C75.3282 78.6107 75.1523 78.6889 74.9696 78.7482C74.7501 78.8108 74.5227 78.8416 74.2945 78.8399C73.999 78.8648 73.7017 78.8213 73.4256 78.7129C73.1496 78.6046 72.9022 78.4341 72.7025 78.2148C72.3464 77.7342 72.1668 77.1455 72.1941 76.5479L72.2025 73.2389Z" fill="#55B0FF"/>
<path d="M78.6699 78.765V73.5891C78.6699 73.514 78.6699 73.3973 78.6699 73.239H79.6951V74.0725C79.7701 73.9808 79.8535 73.8724 79.9618 73.7557C80.0721 73.6362 80.1983 73.5324 80.3369 73.4474C80.5026 73.3424 80.6821 73.261 80.8703 73.2056C81.0898 73.1431 81.3172 73.1123 81.5454 73.114C81.8434 73.0897 82.143 73.1333 82.4216 73.2416C82.7003 73.3498 82.9507 73.52 83.1541 73.7391C83.5132 74.2186 83.6957 74.8075 83.6708 75.406V78.74H82.604V75.5061C82.635 75.1002 82.5164 74.697 82.2706 74.3725C82.1502 74.2487 82.0044 74.1526 81.8432 74.0907C81.682 74.0288 81.5093 74.0027 81.3371 74.0141C81.0656 74.0019 80.7964 74.0685 80.5619 74.2058C80.3608 74.3277 80.192 74.4964 80.0702 74.6976C79.9445 74.9093 79.8544 75.1402 79.8035 75.381C79.7433 75.6547 79.7154 75.9344 79.7201 76.2145V78.7816L78.6699 78.765Z" fill="#55B0FF"/>
<path d="M85.1055 71.0547H86.3057V72.2549H85.1055V71.0547ZM85.1721 73.2384H86.2473V78.7644H85.1972L85.1721 73.2384Z" fill="#55B0FF"/>
<path d="M92.555 78.0057C92.3048 78.2885 91.9982 78.5156 91.6548 78.6725C91.2602 78.8525 90.8299 78.9408 90.3963 78.9309C89.9852 78.9366 89.5771 78.8601 89.1961 78.7059C88.8498 78.5761 88.5367 78.3711 88.2792 78.1058C88.0251 77.8408 87.8292 77.5257 87.7041 77.1806C87.5683 76.8009 87.5006 76.4003 87.5041 75.997C87.4998 75.6066 87.5706 75.219 87.7125 74.8552C87.8484 74.5072 88.0524 74.1898 88.3126 73.9217C88.5756 73.6569 88.8868 73.4447 89.2294 73.2966C89.5972 73.1363 89.9951 73.0567 90.3963 73.0632C90.8209 73.0539 91.2423 73.1393 91.6298 73.3132C91.979 73.4721 92.2913 73.702 92.5467 73.9884L91.8465 74.6635C91.6809 74.4603 91.4734 74.2954 91.2381 74.1801C90.9774 74.0586 90.6922 73.9987 90.4046 74.005C90.1403 73.9992 89.8782 74.0534 89.6378 74.1634C89.417 74.2645 89.223 74.4157 89.071 74.6051C88.9117 74.7911 88.79 75.0062 88.7126 75.2386C88.6293 75.4827 88.5871 75.7391 88.5876 75.997C88.5878 76.2495 88.6301 76.5002 88.7126 76.7388C88.79 76.9737 88.9116 77.1916 89.071 77.3806C89.2322 77.577 89.4362 77.7338 89.6674 77.8393C89.8985 77.9447 90.1506 77.996 90.4046 77.9891C90.6924 77.9891 90.9768 77.9266 91.2381 77.8057C91.484 77.6922 91.7006 77.524 91.8715 77.3139L92.555 78.0057Z" fill="#55B0FF"/>
<path d="M97.0734 78.0977C96.8584 78.3769 96.5697 78.5905 96.2399 78.7145C95.9113 78.8463 95.5605 78.9142 95.2064 78.9145C94.9759 78.9161 94.7462 78.8881 94.5229 78.8312C94.2972 78.7724 94.0849 78.6705 93.8978 78.5311C93.7096 78.3894 93.5558 78.2071 93.4477 77.9977C93.3255 77.7375 93.2683 77.4514 93.281 77.1642C93.2716 76.8958 93.322 76.6286 93.4287 76.382C93.5354 76.1355 93.6956 75.9158 93.8978 75.739C94.4141 75.3502 95.0534 75.1608 95.6981 75.2055H96.1065H96.5066H96.84H97.0401V75.0055C97.0558 74.8375 97.0298 74.6681 96.9643 74.5126C96.8989 74.357 96.7961 74.22 96.665 74.1137C96.366 73.9192 96.0125 73.8257 95.6565 73.847C95.3143 73.8315 94.9729 73.8912 94.6563 74.022C94.4418 74.1223 94.2356 74.2394 94.0395 74.3721L93.5394 73.6469C93.6465 73.5595 93.7608 73.4815 93.8811 73.4135C94.0321 73.3238 94.1912 73.2485 94.3562 73.1885C94.5581 73.1199 94.7641 73.0642 94.973 73.0218C95.2485 72.9772 95.5275 72.9577 95.8065 72.9635C96.4051 72.9276 96.9967 73.108 97.4735 73.4719C97.6803 73.654 97.8433 73.8806 97.9501 74.1346C98.0569 74.3887 98.1048 74.6636 98.0902 74.9388V78.3644C98.0902 78.4394 98.0902 78.5395 98.0902 78.6478H97.0984L97.0734 78.0977ZM97.0734 76.1474H96.89H96.5733H96.1982H95.8065C95.5574 76.1382 95.3088 76.175 95.073 76.2557C94.9097 76.3095 94.7613 76.4009 94.6396 76.5224C94.535 76.6206 94.4575 76.744 94.4146 76.8808C94.3749 77.0019 94.3552 77.1285 94.3562 77.2559C94.3471 77.3852 94.3705 77.5148 94.4244 77.6328C94.4782 77.7507 94.5609 77.8533 94.6646 77.931C94.9103 78.0959 95.2025 78.1777 95.4981 78.1644C95.6978 78.1664 95.8959 78.1296 96.0815 78.056C96.2605 77.9904 96.4268 77.8945 96.5733 77.7727C96.714 77.6559 96.8326 77.5147 96.9234 77.3559C97.0046 77.2077 97.0475 77.0415 97.0484 76.8725L97.0734 76.1474Z" fill="#55B0FF"/>
<path d="M100.016 74.1316H99.0156V73.2398H100.016V71.4395H101.083V73.2398H102.7V74.1316H101.083V76.8571C101.053 77.1744 101.126 77.4928 101.291 77.7656C101.364 77.8499 101.455 77.9163 101.558 77.9597C101.66 78.0031 101.772 78.0222 101.883 78.0156C102.057 78.0196 102.23 77.9884 102.391 77.9239C102.54 77.8491 102.675 77.7506 102.791 77.6322L103.283 78.2907C103.077 78.4923 102.837 78.656 102.575 78.7741C102.307 78.8703 102.025 78.9182 101.741 78.9158C101.504 78.9365 101.265 78.9047 101.042 78.8226C100.819 78.7404 100.616 78.6101 100.449 78.4407C100.141 78.0105 99.9962 77.4845 100.041 76.9571L100.016 74.1316Z" fill="#55B0FF"/>
<path d="M104.074 71.0547H105.274V72.2549H104.074V71.0547ZM104.149 73.2384H105.199V78.7644H104.133L104.149 73.2384Z" fill="#55B0FF"/>
<path d="M109.366 78.9324C108.963 78.934 108.563 78.8546 108.191 78.6991C107.848 78.5479 107.537 78.3329 107.274 78.0656C107.016 77.7943 106.81 77.4779 106.666 77.1321C106.521 76.7717 106.448 76.3869 106.449 75.9986C106.447 75.6102 106.521 75.2252 106.666 74.8651C106.81 74.5193 107.016 74.2028 107.274 73.9316C107.535 73.6616 107.847 73.4463 108.191 73.2981C108.562 73.1387 108.963 73.0591 109.366 73.0647C109.768 73.0591 110.165 73.1386 110.533 73.2981C110.882 73.4439 111.197 73.6595 111.458 73.9316C111.719 74.2007 111.926 74.5177 112.067 74.8651C112.219 75.2234 112.296 75.6093 112.292 75.9986C112.295 76.3878 112.218 76.7735 112.067 77.1321C111.784 77.837 111.232 78.4006 110.533 78.6991C110.164 78.8546 109.767 78.934 109.366 78.9324ZM109.366 78.0073C109.635 78.0123 109.901 77.9522 110.142 77.8323C110.364 77.7233 110.562 77.5705 110.724 77.3828C110.886 77.1951 111.008 76.9766 111.083 76.7404C111.25 76.2627 111.25 75.7428 111.083 75.2651C111.001 75.0307 110.877 74.8132 110.717 74.6233C110.555 74.4327 110.357 74.2768 110.133 74.1649C109.895 74.0463 109.632 73.9862 109.366 73.9899C109.101 73.9862 108.838 74.0463 108.6 74.1649C108.377 74.2743 108.179 74.4274 108.016 74.615C107.854 74.8036 107.73 75.0214 107.649 75.2568C107.573 75.4968 107.534 75.7469 107.533 75.9986C107.534 76.2476 107.573 76.4951 107.649 76.7321C107.731 76.9684 107.859 77.1864 108.025 77.3738C108.183 77.5642 108.379 77.7202 108.6 77.8323C108.838 77.9509 109.101 78.0109 109.366 78.0073Z" fill="#55B0FF"/>
<path d="M113.535 78.7644V73.5884C113.535 73.5134 113.535 73.3967 113.535 73.2384H114.552V74.0718C114.627 73.9802 114.71 73.8718 114.819 73.7551C114.929 73.6356 115.055 73.5318 115.194 73.4467C115.36 73.3433 115.54 73.262 115.727 73.205C115.95 73.1421 116.18 73.1112 116.411 73.1134C116.707 73.0903 117.005 73.1346 117.282 73.2428C117.559 73.3511 117.808 73.5205 118.011 73.7385C118.373 74.2169 118.559 74.8058 118.536 75.4054V78.7393H117.461V75.5054C117.492 75.0996 117.373 74.6964 117.127 74.3719C117.007 74.2481 116.861 74.152 116.7 74.0901C116.539 74.0282 116.366 74.0021 116.194 74.0135C115.923 74.0013 115.653 74.0679 115.419 74.2052C115.22 74.3295 115.051 74.4977 114.927 74.697C114.805 74.9104 114.715 75.1407 114.66 75.3804C114.605 75.6547 114.577 75.934 114.577 76.2139V78.781L113.535 78.7644Z" fill="#55B0FF"/>
<path d="M120.343 77.3728C120.545 77.5776 120.786 77.7392 121.052 77.8479C121.359 77.9724 121.687 78.0348 122.019 78.0313C122.323 78.0414 122.625 77.9815 122.902 77.8562C123.011 77.8146 123.104 77.74 123.168 77.6428C123.232 77.5457 123.265 77.4309 123.261 77.3145C123.267 77.1976 123.239 77.0814 123.18 76.9805C123.12 76.8796 123.033 76.7986 122.927 76.7477C122.772 76.6609 122.607 76.5937 122.435 76.5477C122.235 76.4893 121.985 76.4226 121.685 76.356C121.468 76.3036 121.254 76.2396 121.043 76.1643C120.843 76.0871 120.654 75.9804 120.485 75.8475C120.321 75.7156 120.182 75.5545 120.077 75.3725C119.972 75.1662 119.92 74.937 119.927 74.7057C119.919 74.4568 119.982 74.2109 120.11 73.9972C120.234 73.793 120.402 73.6192 120.602 73.4888C120.812 73.3435 121.046 73.2363 121.294 73.1721C121.565 73.0952 121.845 73.0587 122.127 73.0637C122.535 73.0529 122.941 73.115 123.327 73.2471C123.651 73.3638 123.95 73.5389 124.211 73.7638L123.627 74.4973C123.446 74.3365 123.237 74.2095 123.01 74.1222C122.732 74.014 122.434 73.9603 122.135 73.9639C121.848 73.9491 121.561 74.0064 121.302 74.1306C121.202 74.1823 121.12 74.2618 121.066 74.3596C121.011 74.4573 120.986 74.5689 120.993 74.6807C120.996 74.8004 121.037 74.9161 121.111 75.0107C121.184 75.1052 121.286 75.1736 121.402 75.2058C121.749 75.3473 122.109 75.4562 122.477 75.5308C122.722 75.5934 122.964 75.6686 123.202 75.7559C123.414 75.8325 123.613 75.9391 123.794 76.0726C123.965 76.2011 124.104 76.3663 124.202 76.556C124.308 76.7709 124.36 77.0084 124.352 77.2478C124.356 77.5025 124.29 77.7535 124.161 77.9729C124.029 78.1836 123.856 78.3651 123.652 78.5063C123.424 78.6514 123.173 78.7583 122.91 78.8231C122.638 78.8909 122.358 78.9272 122.077 78.9314C121.649 78.9643 121.218 78.9071 120.814 78.7636C120.409 78.62 120.038 78.3933 119.727 78.0979L120.343 77.3728Z" fill="#55B0FF"/>
<path d="M9.44162 43.8086H12.9172L22.1689 67.4545H18.3765L15.9261 60.895H6.21604L3.77394 67.4878H0.181641L9.44162 43.8086ZM14.9009 57.9778L11.0752 47.6009L7.20789 57.9861L14.9009 57.9778Z" fill="#293272"/>
<path d="M36.6628 65.3624C36.5461 65.5041 36.3544 65.7208 36.0794 66.0209C35.7558 66.3444 35.3915 66.6245 34.9959 66.8543C34.5023 67.1637 33.9734 67.4128 33.4206 67.5961C32.7412 67.8227 32.0278 67.9298 31.3119 67.9129C30.3107 67.9211 29.3192 67.7166 28.403 67.3128C27.5171 66.9264 26.722 66.3586 26.0693 65.6458C25.3794 64.8676 24.8548 63.9574 24.5273 62.9703C24.1469 61.8344 23.9609 60.6425 23.9772 59.4447C23.9438 58.0567 24.2289 56.6796 24.8107 55.419C25.2954 54.3669 25.9903 53.4252 26.8528 52.6518C27.6554 51.9575 28.5833 51.4228 29.5866 51.0766C30.4811 50.7604 31.4217 50.5942 32.3704 50.5848C33.1523 50.5687 33.9325 50.6642 34.6875 50.8682C35.3666 51.0624 36.0254 51.322 36.6545 51.6433V43.8086H39.8551V66.4459C39.8551 66.7877 39.8551 67.1211 39.8551 67.4545H36.7712L36.6628 65.3624ZM36.6628 54.6188C36.1639 54.2279 35.5995 53.9288 34.9959 53.7354C34.2154 53.4844 33.3984 53.3661 32.5788 53.3853C31.843 53.377 31.1136 53.5218 30.4367 53.8104C29.8052 54.0929 29.238 54.5013 28.7698 55.0106C28.2851 55.5715 27.9168 56.2231 27.6862 56.9276C27.4025 57.7474 27.2643 58.6106 27.2778 59.478C27.2557 60.2357 27.337 60.9928 27.5195 61.7284C27.6836 62.3826 27.9661 63.0013 28.353 63.5538C28.7476 64.0733 29.2586 64.493 29.845 64.779C30.5161 65.0871 31.2487 65.2382 31.987 65.2207C32.7228 65.2396 33.4522 65.0795 34.1124 64.754C34.6717 64.4812 35.164 64.0885 35.5543 63.6038C35.9258 63.1525 36.2086 62.6349 36.3878 62.0785C36.559 61.5822 36.649 61.0615 36.6545 60.5366L36.6628 54.6188Z" fill="#293272"/>
<path d="M41.6309 50.9688H45.2815L50.4157 63.8377L55.525 50.9688H58.9589L51.9077 67.455H48.7154L41.6309 50.9688Z" fill="#293272"/>
<path d="M71.0279 65.4704C70.4098 66.3014 69.5688 66.9401 68.6024 67.3123C67.6166 67.7081 66.5642 67.9118 65.5019 67.9125C64.8124 67.9147 64.1257 67.825 63.4599 67.6457C62.786 67.4654 62.1544 67.1538 61.6012 66.7289C61.0411 66.3046 60.5827 65.7608 60.2593 65.137C59.8916 64.3947 59.714 63.5727 59.7425 62.7449C59.7104 61.9407 59.8609 61.1396 60.1829 60.4019C60.5048 59.6642 60.9897 59.0091 61.6012 58.4858C62.8459 57.4245 64.6351 56.8938 66.9688 56.8938C67.3522 56.8938 67.7523 56.8938 68.1774 56.8938L69.3859 56.9689C69.761 56.9689 70.0944 56.9689 70.3778 57.0355C70.579 57.0498 70.7793 57.0748 70.9779 57.1105V56.5021C71.0241 56.0037 70.9463 55.5017 70.7514 55.0407C70.5565 54.5797 70.2506 54.1741 69.861 53.86C68.9611 53.273 67.9005 52.9817 66.8271 53.0265C65.8104 52.9826 64.796 53.1559 63.8516 53.5349C63.2082 53.8307 62.5919 54.1821 62.0096 54.5851L60.5177 52.5597C60.8464 52.3013 61.1916 52.0647 61.5512 51.8513C62.0039 51.5942 62.478 51.3767 62.9681 51.2012C63.5678 50.9857 64.1838 50.8184 64.8101 50.7011C65.5946 50.5664 66.3896 50.5023 67.1855 50.5094C68.983 50.4108 70.7565 50.9577 72.1864 52.0513C72.8034 52.5938 73.2886 53.2699 73.6049 54.0282C73.9212 54.7865 74.0603 55.6069 74.0117 56.4271V66.6539C74.0117 66.8789 74.0117 67.154 74.0117 67.4874H71.0362L71.0279 65.4704ZM71.0279 59.636L70.4778 59.5526C70.2111 59.5526 69.8943 59.486 69.5359 59.461L68.4024 59.3859C68.0023 59.3859 67.5689 59.3859 67.2355 59.3859C66.4939 59.3612 65.754 59.4713 65.0518 59.711C64.5613 59.8926 64.1152 60.1767 63.7432 60.5445C63.4424 60.8429 63.2167 61.2086 63.0848 61.6113C62.9723 61.9731 62.9133 62.3494 62.9098 62.7282C62.8846 63.1172 62.9559 63.5063 63.1173 63.8611C63.2787 64.2159 63.5252 64.5253 63.8349 64.7619C64.5875 65.2631 65.4827 65.5059 66.3854 65.4537C66.9836 65.4599 67.5776 65.3524 68.1357 65.137C68.6687 64.9395 69.1667 64.6581 69.611 64.3035C70.0278 63.9578 70.3756 63.5364 70.6361 63.0616C70.8872 62.6191 71.022 62.1201 71.0279 61.6113V59.636Z" fill="#293272"/>
<path d="M78.3867 67.4554V52.0194C78.3867 51.7943 78.3867 51.4443 78.3867 50.9692H81.4289L81.5373 53.4696C81.754 53.1862 82.0124 52.8695 82.3208 52.5278C82.6538 52.1658 83.0352 51.8517 83.4543 51.5943C83.9457 51.2894 84.4754 51.0511 85.0296 50.8858C85.6916 50.6869 86.3804 50.5913 87.0716 50.6024C89.222 50.6024 90.8167 51.2276 91.8558 52.4778C92.9454 53.9408 93.4854 55.7407 93.3811 57.562V67.4554H90.1971V57.8121C90.2962 56.6002 89.9429 55.3947 89.2053 54.4281C88.8433 54.0575 88.406 53.769 87.9228 53.582C87.4396 53.3951 86.922 53.3141 86.4048 53.3446C85.6002 53.3153 84.8034 53.5116 84.1044 53.9114C83.5029 54.2795 82.9973 54.7851 82.6291 55.3866C82.2375 56.0181 81.9556 56.7113 81.7957 57.437C81.6357 58.2131 81.5547 59.0033 81.5539 59.7957V67.4554H78.3867Z" fill="#293272"/>
<path d="M99.0913 53.6271H96.1074V50.9683H99.0913V45.584H102.275V50.9683H107.101V53.6271H102.275V61.7285C102.18 62.6836 102.399 63.6436 102.9 64.4623C103.116 64.7119 103.386 64.9085 103.689 65.0372C103.993 65.1658 104.322 65.2229 104.651 65.2041C105.174 65.2238 105.695 65.127 106.176 64.9208C106.618 64.7039 107.025 64.423 107.384 64.0873L108.835 66.0376C108.234 66.666 107.507 67.1585 106.7 67.482C105.893 67.8054 105.027 67.9524 104.159 67.9129C103.452 67.9754 102.741 67.8807 102.075 67.6358C101.409 67.3908 100.806 67.0016 100.308 66.496C99.4747 65.5542 99.0913 64.0789 99.0913 62.0702V53.6271Z" fill="#293272"/>
<path d="M121.595 65.4713C120.975 66.3004 120.135 66.9386 119.17 67.3133C118.184 67.7091 117.132 67.9128 116.069 67.9134C115.38 67.9161 114.693 67.8264 114.027 67.6467C113.361 67.4777 112.734 67.1774 112.185 66.7632C111.62 66.3417 111.159 65.7974 110.835 65.1713C110.474 64.4269 110.3 63.606 110.327 62.7792C110.294 61.975 110.445 61.1739 110.767 60.4362C111.089 59.6985 111.574 59.0434 112.185 58.5201C113.427 57.4616 115.211 56.9281 117.553 56.9281C117.928 56.9281 118.336 56.9281 118.761 56.9281L119.962 57.0032C120.345 57.0032 120.67 57.0032 120.953 57.0698C121.157 57.0843 121.36 57.1093 121.562 57.1448V56.5364C121.608 56.038 121.53 55.536 121.335 55.075C121.141 54.614 120.835 54.2084 120.445 53.8943C119.544 53.3094 118.484 53.0182 117.411 53.0608C116.394 53.0169 115.38 53.1902 114.436 53.5692C113.791 53.8631 113.175 54.2146 112.594 54.6194L111.102 52.5607C111.426 52.3003 111.769 52.0635 112.127 51.8522C112.583 51.5953 113.059 51.3778 113.552 51.2021C114.151 50.9854 114.767 50.8181 115.394 50.702C116.179 50.5674 116.974 50.5032 117.77 50.5103C119.568 50.4073 121.343 50.9546 122.77 52.0523C123.387 52.5948 123.873 53.2709 124.189 54.0292C124.505 54.7874 124.644 55.6079 124.596 56.428V66.6549C124.596 66.8799 124.596 67.155 124.637 67.4883H121.654L121.595 65.4713ZM121.595 59.637L121.045 59.5536C120.77 59.5536 120.462 59.4869 120.103 59.4619L118.97 59.3869C118.57 59.3869 118.178 59.3869 117.803 59.3869C117.061 59.3621 116.321 59.4723 115.619 59.712C115.128 59.8914 114.681 60.1758 114.311 60.5454C114.004 60.8394 113.777 61.2065 113.652 61.6123C113.54 61.9741 113.481 62.3503 113.477 62.7292C113.452 63.1172 113.523 63.5054 113.683 63.8599C113.843 64.2144 114.087 64.5244 114.394 64.7629C115.149 65.2658 116.047 65.5087 116.953 65.4547C117.551 65.4592 118.144 65.3518 118.703 65.1379C119.236 64.9405 119.734 64.6591 120.178 64.3044C120.595 63.9587 120.943 63.5374 121.203 63.0626C121.455 62.62 121.589 62.1211 121.595 61.6123V59.637Z" fill="#293272"/>
<path d="M131.162 70.8217C131.785 71.2354 132.46 71.5634 133.17 71.7969C134.103 72.0881 135.077 72.226 136.054 72.2053C136.705 72.2563 137.359 72.1649 137.971 71.9375C138.582 71.71 139.137 71.352 139.597 70.8884C140.41 69.9346 140.831 68.7068 140.772 67.4545V65.4374L140.113 66.0209C139.798 66.2933 139.454 66.5308 139.088 66.7293C138.617 66.9767 138.123 67.1777 137.613 67.3294C136.98 67.5152 136.322 67.6051 135.663 67.5962C134.563 67.6171 133.472 67.404 132.462 66.971C131.561 66.5985 130.755 66.0289 130.103 65.3041C129.445 64.5523 128.948 63.6727 128.645 62.7203C128.31 61.6582 128.144 60.55 128.153 59.4364C128.14 58.2279 128.37 57.029 128.828 55.9107C129.257 54.856 129.902 53.9023 130.72 53.1103C131.561 52.3057 132.556 51.6792 133.646 51.2683C134.859 50.8211 136.145 50.6008 137.438 50.6181C138.699 50.6099 139.959 50.7271 141.197 50.9682C142.152 51.1463 143.089 51.4085 143.997 51.7517V67.4878C144.06 68.5056 143.907 69.525 143.549 70.4799C143.192 71.4349 142.637 72.3039 141.922 73.0304C140.538 74.3473 138.588 74.9975 136.088 74.9975C134.733 75.0468 133.38 74.8636 132.087 74.4557C131.226 74.1573 130.415 73.7332 129.678 73.1971L131.162 70.8217ZM140.805 53.8771L139.722 53.577C138.971 53.4236 138.204 53.3592 137.438 53.3853C136.603 53.3703 135.773 53.5204 134.996 53.827C134.288 54.1071 133.645 54.5299 133.107 55.069C132.569 55.6081 132.148 56.2521 131.87 56.9609C131.57 57.7283 131.421 58.5459 131.428 59.3697C131.425 60.0867 131.514 60.8012 131.695 61.4951C131.85 62.1269 132.134 62.7199 132.529 63.237C132.923 63.7323 133.424 64.1314 133.996 64.4039C134.677 64.7053 135.418 64.8506 136.163 64.829C136.865 64.8422 137.563 64.7235 138.221 64.4789C138.765 64.2698 139.259 63.949 139.672 63.5371C140.032 63.1591 140.315 62.7146 140.505 62.2285C140.694 61.7482 140.79 61.2362 140.788 60.7199L140.805 53.8771Z" fill="#293272"/>
<path d="M163.385 65.0629C163.194 65.2712 162.91 65.5463 162.552 65.8963C162.09 66.2648 161.583 66.5729 161.043 66.8132C160.365 67.1631 159.653 67.4424 158.918 67.6466C158.009 67.8824 157.073 67.9945 156.134 67.98C154.935 67.9951 153.743 67.78 152.625 67.3466C151.598 66.9442 150.669 66.3276 149.9 65.5379C149.129 64.7335 148.531 63.7807 148.141 62.7374C147.718 61.5789 147.509 60.3533 147.524 59.1201C147.516 57.965 147.719 56.818 148.124 55.7362C148.499 54.7267 149.074 53.8033 149.815 53.0214C150.555 52.2394 151.446 51.6149 152.433 51.1854C153.484 50.7248 154.621 50.4945 155.767 50.5103C157.035 50.4779 158.29 50.7645 159.418 51.3438C160.407 51.8604 161.263 52.5993 161.918 53.5025C162.582 54.4333 163.068 55.4788 163.352 56.5864C163.662 57.767 163.816 58.9831 163.81 60.2037H150.8C150.815 60.9029 150.979 61.5907 151.283 62.2207C151.569 62.8263 151.971 63.37 152.467 63.821C152.957 64.2669 153.521 64.625 154.134 64.8795C154.777 65.1396 155.465 65.2726 156.159 65.2712C157.344 65.3168 158.523 65.0737 159.593 64.5628C160.317 64.2165 160.977 63.7486 161.543 63.1792L163.385 65.0629ZM160.518 57.7949C160.447 56.5877 159.972 55.4395 159.168 54.536C158.734 54.0761 158.205 53.7169 157.617 53.4836C157.03 53.2504 156.398 53.1487 155.767 53.1858C155.067 53.1755 154.372 53.3088 153.725 53.5775C153.151 53.818 152.627 54.1659 152.183 54.6027C151.759 55.0246 151.422 55.5259 151.191 56.0779C150.958 56.622 150.826 57.2036 150.8 57.7949H160.518Z" fill="#293272"/>
</g>
<defs>
<linearGradient id="paint0_linear_1954_4581" x1="56.8572" y1="18.8123" x2="107.916" y2="18.8123" gradientUnits="userSpaceOnUse">
<stop stop-color="#333B8C"/>
<stop offset="0.38" stop-color="#3F64B5"/>
<stop offset="1" stop-color="#55B0FF"/>
</linearGradient>
<linearGradient id="paint1_linear_1954_4581" x1="63.7188" y1="18.5454" x2="101.259" y2="18.5454" gradientUnits="userSpaceOnUse">
<stop stop-color="#333B8C"/>
<stop offset="0.38" stop-color="#3F64B5"/>
<stop offset="1" stop-color="#55B0FF"/>
</linearGradient>
<linearGradient id="paint2_linear_1954_4581" x1="65.5599" y1="19.8874" x2="96.032" y2="19.8874" gradientUnits="userSpaceOnUse">
<stop stop-color="#333B8C"/>
<stop offset="0.38" stop-color="#3F64B5"/>
<stop offset="1" stop-color="#55B0FF"/>
</linearGradient>
<clipPath id="clip0_1954_4581">
<rect width="163.621" height="78.2389" fill="white" transform="translate(0.189453 0.692383)"/>
</clipPath>
</defs>
</svg>
