<svg width="215" height="42" viewBox="0 0 215 42" fill="none" xmlns="http://www.w3.org/2000/svg">
<mask id="mask0_1954_4540" style="mask-type:luminance" maskUnits="userSpaceOnUse" x="0" y="0" width="215" height="42">
<path d="M214.512 0.0332031H0.546875V41.1259H214.512V0.0332031Z" fill="white"/>
</mask>
<g mask="url(#mask0_1954_4540)">
<path d="M68.9632 4.03722C68.2609 3.74907 67.5089 3.60043 66.7497 3.59961H61.3164V16.3842H66.7497C67.5088 16.3843 68.2607 16.2368 68.9632 15.9497C69.6731 15.6597 70.3151 15.2259 70.8489 14.6759C72.0083 13.3905 72.6499 11.7219 72.6499 9.99188C72.6499 8.26192 72.0083 6.59326 70.8489 5.30789C70.3156 4.75811 69.6734 4.32536 68.9632 4.03722ZM70.7581 9.99188C70.7954 11.1718 70.3993 12.3247 69.6448 13.2334C69.2902 13.6694 68.8393 14.0175 68.3274 14.2503C67.8156 14.4831 67.2566 14.5945 66.6944 14.5754H63.1989V5.41486H66.6848C67.2469 5.3958 67.8058 5.50706 68.3178 5.73989C68.8296 5.97273 69.2805 6.32081 69.6351 6.75685C70.3878 7.66663 70.7835 8.81874 70.7483 9.99837" fill="#25344D"/>
<path d="M84.0817 3.59961H82.1895V16.3874H84.0817V3.59961Z" fill="#25344D"/>
<path d="M97.5258 3.59961L92.0859 16.3842H94.1696L95.6757 12.8185H101.44L102.943 16.3842H105.03L99.5997 3.59961H97.5258ZM100.697 11.0551H96.4287L98.5773 5.93351L100.697 11.0551Z" fill="#25344D"/>
<path d="M119.988 9.26222L115.706 3.60254H113.717V16.3839H115.609V6.67874L119.991 12.2152L124.294 6.68846V16.3839H126.183V3.60254H124.194L119.988 9.26222Z" fill="#25344D"/>
<path d="M141.546 3.45319C140.672 3.42614 139.803 3.58237 138.994 3.9118C138.185 4.24124 137.454 4.73653 136.849 5.36569C135.692 6.62983 135.051 8.28041 135.051 9.99296C135.051 11.7055 135.692 13.3561 136.849 14.6202C138.103 15.8463 139.789 16.533 141.544 16.533C143.3 16.533 144.984 15.8463 146.238 14.6202C147.395 13.3554 148.035 11.7051 148.035 9.99296C148.035 8.28084 147.395 6.63051 146.238 5.36569C145.633 4.73703 144.902 4.24206 144.093 3.91265C143.284 3.58326 142.415 3.42674 141.542 3.45319H141.546ZM146.145 9.99133C146.189 11.2229 145.745 12.4224 144.911 13.3301C144.005 14.1978 142.798 14.6824 141.542 14.6824C140.287 14.6824 139.08 14.1978 138.173 13.3301C137.377 12.3993 136.94 11.2154 136.94 9.99133C136.94 8.76728 137.377 7.58338 138.173 6.65257C139.08 5.78482 140.287 5.30037 141.542 5.30037C142.798 5.30037 144.005 5.78482 144.911 6.65257C145.745 7.5603 146.189 8.75975 146.145 9.99133Z" fill="#25344D"/>
<path d="M166.139 13.4279L158.914 3.59961H156.92V16.3842H158.813V6.52346L166.038 16.3842H168.031V3.59961H166.139V13.4279Z" fill="#25344D"/>
<path d="M186.511 4.03722C185.81 3.74907 185.057 3.60043 184.298 3.59961H178.865V16.3842H184.298C185.057 16.3843 185.81 16.2368 186.511 15.9497C187.221 15.6588 187.863 15.2252 188.397 14.6759C189.556 13.3905 190.198 11.7219 190.198 9.99188C190.198 8.26192 189.556 6.59326 188.397 5.30789C187.865 4.75848 187.221 4.32577 186.511 4.03722ZM188.307 9.99188C188.345 11.1721 187.95 12.3254 187.193 13.2334C186.839 13.6694 186.388 14.0175 185.876 14.2503C185.364 14.4831 184.805 14.5945 184.243 14.5754H180.757V5.41486H184.243C184.805 5.39604 185.365 5.50739 185.878 5.74019C186.389 5.97298 186.841 6.32094 187.197 6.75685C187.95 7.6662 188.345 8.81888 188.307 9.99837" fill="#25344D"/>
<path d="M61.3164 36.4935H70.8652V34.662H63.2087V31.0185H70.0473V29.1677H63.2087V25.5437H70.8652V23.709H61.3164V36.4935Z" fill="#25344D"/>
<path d="M88.3429 29.3725L84.0619 23.7129H82.0723V36.4941H83.9645V26.789L88.3461 32.3255L92.65 26.7988V36.4941H94.5389V23.7129H92.5494L88.3429 29.3725Z" fill="#25344D"/>
<path d="M111.724 23.709H105.934V36.4968H107.826V32.1141H111.721C113.077 32.1141 114.178 31.7317 114.986 30.9797C115.768 30.1509 116.203 29.0551 116.203 27.9165C116.203 26.7778 115.768 25.682 114.986 24.8532C114.171 24.0947 113.071 23.709 111.714 23.709H111.724ZM114.311 27.923C114.333 28.2455 114.287 28.569 114.175 28.8724C114.063 29.1757 113.888 29.452 113.662 29.683C113.214 30.1044 112.535 30.3314 111.64 30.3314H107.826V25.5241H111.63C112.526 25.5241 113.204 25.7381 113.652 26.1726C113.879 26.4024 114.055 26.678 114.166 26.981C114.278 27.2839 114.324 27.6073 114.301 27.9293" fill="#25344D"/>
<path d="M131.214 23.5605C130.341 23.5342 129.473 23.6913 128.664 24.0211C127.856 24.3511 127.126 24.8468 126.521 25.4761C125.364 26.7403 124.723 28.3908 124.723 30.1034C124.723 31.816 125.364 33.4665 126.521 34.7307C127.775 35.9569 129.461 36.6434 131.216 36.6434C132.971 36.6434 134.656 35.9569 135.911 34.7307C137.067 33.4665 137.709 31.816 137.709 30.1034C137.709 28.3908 137.067 26.7403 135.911 25.4761C135.305 24.8468 134.575 24.351 133.766 24.0211C132.957 23.6911 132.088 23.5341 131.214 23.5605ZM135.817 30.1019C135.861 31.3328 135.419 32.5317 134.586 33.4406C133.68 34.3093 132.472 34.7944 131.216 34.7944C129.959 34.7944 128.752 34.3093 127.845 33.4406C127.049 32.5097 126.612 31.3259 126.612 30.1019C126.612 28.8777 127.049 27.6938 127.845 26.763C128.752 25.8952 129.959 25.4108 131.214 25.4108C132.47 25.4108 133.677 25.8952 134.583 26.763C135.418 27.6707 135.861 28.8702 135.817 30.1019Z" fill="#25344D"/>
<path d="M156.236 33.6773C155.545 32.9558 154.903 32.1879 154.315 31.3791C154.428 31.3142 154.541 31.2591 154.639 31.2039L154.714 31.1651C156.083 30.5687 156.779 29.4341 156.779 27.8003C156.804 27.2446 156.709 26.6898 156.5 26.1743C156.291 25.6588 155.971 25.1949 155.564 24.815C154.684 24.0532 153.547 23.6576 152.383 23.7096H146.252V36.4974H148.148V31.7809H152.159C152.866 32.7502 153.625 33.6807 154.432 34.5687C156.113 36.4521 158.326 36.5135 159.161 36.5135H159.485V34.8928H159.236C158.685 34.8985 158.139 34.7957 157.628 34.5905C157.117 34.3854 156.653 34.0816 156.259 33.6967L156.236 33.6773ZM154.918 27.8199C154.935 28.1887 154.852 28.555 154.675 28.8798C154.224 29.6222 153.406 29.9852 152.176 29.9852H148.148V25.5443H152.227C152.93 25.5098 153.622 25.7295 154.176 26.1634C154.414 26.3663 154.601 26.6214 154.724 26.9086C154.847 27.196 154.903 27.5077 154.886 27.8199" fill="#25344D"/>
<path d="M169.929 23.709H168.037V36.4968H169.929V23.709Z" fill="#25344D"/>
<path d="M190.027 30.9184C190.027 32.1761 189.654 33.1584 188.917 33.8358C188.231 34.4399 187.34 34.7569 186.427 34.7207C185.521 34.7588 184.635 34.4426 183.958 33.8391C183.221 33.1518 182.847 32.1665 182.847 30.9216V23.6348H180.955V30.8924C180.955 32.5846 181.471 33.9687 182.487 35.0092C183.554 36.019 184.968 36.5818 186.437 36.5818C187.907 36.5818 189.321 36.019 190.387 35.0092C191.403 33.9687 191.915 32.5846 191.915 30.8924V23.6348H190.027V30.9184Z" fill="#25344D"/>
<path d="M212.522 23.709L208.315 29.3718L204.037 23.709H202.045V36.4968H203.937V26.7884L208.319 32.3249L212.623 26.7982V36.4968H214.512V23.709H212.522Z" fill="#25344D"/>
<path d="M21.1765 0.0335082H0.556641C0.683223 0.89251 0.809806 1.75475 0.978581 2.60727C2.30282 9.19079 5.32456 15.5734 9.79388 20.588C5.3343 25.6123 2.31255 31.9722 0.981826 38.546C0.809803 39.4018 0.676731 40.2607 0.556641 41.123H21.1862C29.1252 41.123 36.8239 36.1472 40.0112 28.8636C41.3624 25.7342 41.9173 22.3195 41.6266 18.924C41.3356 15.5284 40.2081 12.2576 38.3442 9.40291C36.4805 6.54823 33.9384 4.19846 30.9447 2.56311C27.9509 0.927759 24.5984 0.0576238 21.1862 0.0302734L21.1765 0.0335082ZM34.4513 28.0953C31.9132 33.9074 26.4248 38.144 20.021 38.5395H7.4018C7.27197 33.0678 9.11552 27.5022 12.2541 23.045C14.6721 25.1553 17.7231 27.0483 21.0337 27.045H21.329H21.4849C24.8668 26.896 27.59 23.9526 27.5932 20.588C27.5825 18.9141 26.9285 17.308 25.7665 16.1016C24.6044 14.8952 23.023 14.1805 21.3486 14.1049H21.1992H20.9266H20.774C17.551 14.2605 14.6527 16.0271 12.2736 18.105C9.1285 13.6446 7.29144 8.07572 7.40504 2.59755H19.849C22.6462 2.79403 25.3518 3.67585 27.7266 5.16505C30.1015 6.65423 32.0722 8.7049 33.4647 11.1357C34.9357 13.6913 35.7895 16.5543 35.9586 19.4973C36.1276 22.4402 35.607 25.3821 34.4384 28.0888C33.403 30.4649 35.4802 25.7095 34.4384 28.0888L34.4513 28.0953ZM14.2729 20.5718C16.3177 18.4226 20.2936 15.3561 23.3349 17.3918C26.256 19.3368 25.0454 24.4259 21.3582 24.3709H21.0792C18.4144 24.2703 16.0353 22.4259 14.2632 20.5751C14.3151 20.6302 14.3184 20.5167 14.2632 20.5751" fill="#25344D"/>
<path d="M47.6054 3.43457H46.0312V36.8999H47.6054V3.43457Z" fill="#25344D"/>
</g>
</svg>
