<svg width="221" height="55" viewBox="0 0 221 55" fill="none" xmlns="http://www.w3.org/2000/svg">
<g clip-path="url(#clip0_1954_4562)">
<path d="M65.0164 1.07617V12.8405H65.1617C65.3554 12.3954 67.7165 9.93497 72.1058 9.93497C77.6999 9.93497 83.9661 14.2685 83.9661 23.2262C83.9661 32.184 77.6999 36.5175 72.1058 36.5175C67.7165 36.5175 65.3554 34.0571 65.1617 33.612H65.0164V36.023H56.6797V1.07617H65.0164ZM70.3198 28.9817C73.2138 28.9817 75.7686 26.818 75.7686 23.2201C75.7686 19.6221 73.2138 17.4584 70.3198 17.4584C67.4259 17.4584 64.8226 19.5727 64.8226 23.2201C64.8226 26.8674 67.3291 28.9817 70.3198 28.9817Z" fill="#192A50"/>
<path d="M87.9629 10.4298H96.2995V17.4216C97.1169 13.187 99.5264 9.94141 103.964 9.94141C104.545 9.94141 105.169 9.99086 105.847 10.1887V18.3118C105.217 18.1635 104.691 18.114 104.013 18.114C98.9997 18.114 96.2995 21.4585 96.2995 26.0888V36.0294H87.9629V10.4298Z" fill="#192A50"/>
<path d="M109.781 10.4297H118.118V36.0231H109.781V10.4297Z" fill="#192A50"/>
<path d="M122.121 23.1764C122.121 14.5154 128.823 9.93457 135.568 9.93457C139.999 9.93457 143.856 11.9994 146.411 16.234L140.387 20.2709C139.279 18.8428 137.735 17.5631 135.568 17.5631C132.674 17.5631 130.312 19.8258 130.312 23.1764C130.312 26.527 132.674 28.8886 135.568 28.8886C137.735 28.8886 139.279 27.6089 140.387 26.1808L146.411 30.2177C143.856 34.3534 139.999 36.5171 135.568 36.5171C128.817 36.5171 122.121 31.9425 122.121 23.1764Z" fill="#192A50"/>
<path d="M150.418 1.07617H158.755V19.1399L166.08 10.4295H175.961L166.322 21.3593L176.978 36.0291H167.866L161.213 27.2198L158.755 30.0264V36.0291H150.418V1.07617Z" fill="#192A50"/>
<path d="M177.42 29.1358L183.977 27.3121C184.316 28.1962 184.891 29.9209 187.107 29.9209C188.263 29.9209 189.226 29.3769 189.226 28.2951C189.226 27.7511 188.935 27.0649 187.633 26.6692L183.971 25.2906C179.823 23.8131 178.044 21.0065 178.044 17.7115C178.044 12.7907 182.433 9.93457 187.494 9.93457C192.555 9.93457 195.976 12.7907 196.799 17.0686L190.291 18.6945C189.758 16.7286 188.554 16.4318 187.833 16.4318C186.532 16.4318 186.096 17.3159 186.096 17.8599C186.096 18.4534 186.435 19.1396 187.882 19.5352L191.302 20.8149C193.712 21.6 197.423 23.5226 197.423 28.2951C197.423 33.4632 193.082 36.5171 187.252 36.5171C182.094 36.5171 178.189 34.1556 177.42 29.1358Z" fill="#192A50"/>
<path d="M201.473 18.5521H207.545V12.3516H214.532V18.5521H220.652V25.6861H214.532V31.8372H207.545V25.6861H201.473V18.5521Z" fill="#192A50"/>
<path d="M63.6788 42.6191L68.1468 54.4453H65.7312L64.9623 52.3125H60.0341L59.2652 54.4453H56.8496L61.3055 42.6191H63.6727H63.6788ZM64.2176 50.2168L62.5043 45.469L60.7909 50.2168H64.2176Z" fill="#00E5FF"/>
<path d="M75.1934 48.5359C75.1934 44.8514 77.9359 42.459 81.1992 42.459C82.749 42.459 84.6561 43.0277 85.8791 45.0245L84.2626 46.1744C83.4937 45.074 82.4039 44.6227 81.2294 44.6227C79.1589 44.6227 77.4758 46.1064 77.4758 48.5359C77.4758 50.9654 79.1225 52.5171 81.2294 52.5171C82.6461 52.5171 83.9357 51.8371 84.2807 50.001H81.5079V48.0846H86.4542C86.9749 52.1833 84.3352 54.6128 81.1326 54.6128C77.9299 54.6128 75.1934 52.2142 75.1934 48.5297V48.5359Z" fill="#00E5FF"/>
<path d="M95.174 42.6191H101.731V44.721H97.408V47.472H101.047V49.5368H97.408V52.3496H101.876V54.4515H95.168V42.6253L95.174 42.6191Z" fill="#00E5FF"/>
<path d="M110.461 42.6191H112.695L118.011 50.699H118.089V42.6191H120.323V54.4453H118.089L112.774 46.3654H112.695V54.4453H110.461V42.6191Z" fill="#00E5FF"/>
<path d="M131.553 44.721H128.762V42.6191H136.578V44.721H133.787V54.4515H131.553V44.721Z" fill="#00E5FF"/>
<path d="M40.1524 5.78027H8.47672C4.01629 5.78027 0.400391 9.47248 0.400391 14.0271V46.3712C0.400391 50.9258 4.01629 54.618 8.47672 54.618H40.1524C44.6128 54.618 48.2287 50.9258 48.2287 46.3712V14.0271C48.2287 9.47248 44.6128 5.78027 40.1524 5.78027Z" fill="#0060FF"/>
<path d="M33.3602 13.168H33.2573C29.3117 13.168 26.1133 16.4339 26.1133 20.4627V39.8927C26.1133 43.9215 29.3117 47.1875 33.2573 47.1875H33.3602C37.3057 47.1875 40.5042 43.9215 40.5042 39.8927V20.4627C40.5042 16.4339 37.3057 13.168 33.3602 13.168Z" fill="white"/>
<path d="M15.3778 19.8008H15.2748C11.3293 19.8008 8.13086 23.0668 8.13086 27.0955V33.2528C8.13086 37.2816 11.3293 40.5475 15.2748 40.5475H15.3778C19.3233 40.5475 22.5217 37.2816 22.5217 33.2528V27.0955C22.5217 23.0668 19.3233 19.8008 15.3778 19.8008Z" fill="#00E5FF"/>
<path d="M113.954 9.00122C116.248 9.00122 118.107 7.10253 118.107 4.76038C118.107 2.41822 116.248 0.519531 113.954 0.519531C111.66 0.519531 109.801 2.41822 109.801 4.76038C109.801 7.10253 111.66 9.00122 113.954 9.00122Z" fill="#192A50"/>
</g>
<defs>
<clipPath id="clip0_1954_4562">
<rect width="220.259" height="54.0986" fill="white" transform="translate(0.400391 0.519531)"/>
</clipPath>
</defs>
</svg>
