<svg width="215" height="65" viewBox="0 0 215 65" fill="none" xmlns="http://www.w3.org/2000/svg">
<path d="M75.51 28.0469C73.8282 28.8699 72.4327 30.015 71.3949 31.4105L71.0729 31.8399C70.894 32.1977 70.894 32.6629 71.0729 33.0565C71.3949 33.7722 72.2537 34.0585 72.9336 33.7006C73.0767 33.6291 73.2199 33.5217 73.3272 33.4144L73.5419 33.0923C74.3292 32.0546 75.4026 31.16 76.6551 30.5517C80.9848 28.4763 86.2091 30.3012 88.2845 34.631C89.859 37.8872 89.2149 41.6445 86.9606 44.1851C86.7817 44.364 86.6027 44.5787 86.4238 44.7576L86.6743 44.5071C82.6666 48.479 77.9432 46.6899 77.9432 46.6899C75.009 45.6522 72.862 43.6841 70.7508 40.6425L68.8901 37.8872L68.8543 37.8515L68.7112 37.6368L66.9936 35.0604C66.4211 34.2732 65.8128 33.4859 65.1687 32.7345C63.63 30.838 61.984 29.2277 59.9801 28.3689C57.0102 26.8661 54.5769 27.045 54.5769 27.045L54.6485 27.0808C52.8951 27.0808 51.106 27.4744 49.4241 28.4047C43.8778 31.4105 41.8024 38.3524 44.8081 43.8988C47.8139 49.4452 54.7558 51.5206 60.3022 48.5148C61.9482 47.6202 63.2722 46.4036 64.2383 44.9723C64.3457 44.8291 64.453 44.686 64.5246 44.5429C64.6677 44.1493 64.6677 43.7199 64.453 43.3263C64.0952 42.6464 63.2364 42.3959 62.5565 42.7537C62.4134 42.8253 62.2703 42.9326 62.1629 43.0758L61.9482 43.3978C61.1968 44.4713 60.1948 45.4017 58.9424 46.0816C54.72 48.3717 49.4242 46.7972 47.134 42.5748C44.8439 38.3524 46.4184 33.0565 50.6408 30.7664C51.106 30.5159 51.5711 30.3012 52.0363 30.1581L52.2152 30.0508C54.0759 29.4782 55.722 29.6929 56.6523 29.9076C58.692 30.4086 60.4095 31.5894 61.9124 33.0565L62.1629 33.307C62.9859 34.2016 63.8089 35.2035 64.5962 36.3486L66.4569 39.1039L66.4927 39.1396L66.6358 39.3543L68.3534 41.9307C68.3892 41.9665 68.4249 42.0023 68.4249 42.0381V60.3232C68.4249 61.1462 69.069 61.7903 69.8921 61.7903C70.7151 61.7903 71.3592 61.1462 71.3592 60.3232V45.6522C72.6831 47.0477 74.1145 48.1928 75.7963 48.8011C76.5477 49.1231 77.3349 49.4094 78.1579 49.5883H78.1222C80.3765 50.1608 82.9529 49.8388 85.3145 48.6937C91.0041 45.9026 93.4015 39.1039 90.6462 33.4144C88.0341 27.6891 81.1995 25.2916 75.51 28.0469Z" fill="#14CDEB"/>
<path d="M86.9953 44.1506L86.709 44.4727C86.7806 44.3653 86.8879 44.258 86.9953 44.1506ZM114.155 30.3026C111.9 28.0483 109.145 26.939 105.996 26.939C102.847 26.939 100.092 28.084 97.8733 30.3026C95.619 32.5569 94.5097 35.2764 94.5097 38.4253C94.5097 41.5743 95.6548 44.3295 97.8733 46.5481C100.092 48.8024 102.847 49.9117 105.996 49.9117C108.859 49.9117 111.399 48.9813 113.51 47.1206C113.761 46.8701 113.904 46.5123 113.904 46.1187C113.904 45.6893 113.797 45.3673 113.51 45.081C113.224 44.7947 112.902 44.6874 112.473 44.6874C112.115 44.6874 111.793 44.8305 111.507 45.0452C110.755 45.6893 109.896 46.1903 109.002 46.5123C108.107 46.8344 107.105 47.0133 106.032 47.0133C105.101 47.0133 104.171 46.8701 103.277 46.5839C102.418 46.2976 101.595 45.8682 100.879 45.3315C100.163 44.7947 99.5193 44.1506 98.9826 43.3992C98.9826 43.3992 97.8733 41.8605 97.4081 39.7851H116.087C116.516 39.7851 116.838 39.642 117.125 39.3915C117.411 39.141 117.518 38.819 117.518 38.3896C117.518 36.8151 117.232 35.3122 116.695 33.9525C116.123 32.6285 115.264 31.3761 114.155 30.3026ZM97.3724 36.994C97.3724 36.994 97.9091 34.847 98.911 33.3799C99.4478 32.6285 100.092 31.9844 100.843 31.4476C101.595 30.9109 102.382 30.5173 103.277 30.1952C105.03 29.6227 106.998 29.6227 108.751 30.1952C109.61 30.4815 110.433 30.9109 111.149 31.4476C111.864 31.9844 112.509 32.6285 113.081 33.3799C113.618 34.1314 114.047 34.9544 114.334 35.8847L114.691 37.0298H97.3724V36.994ZM42.9463 28.263C42.839 28.1914 42.7316 28.1556 42.6243 28.084C41.2645 27.3326 39.7974 26.939 38.1872 26.939C37.0421 26.939 35.9329 27.0821 34.8952 27.4757C33.929 27.8336 33.0702 28.3345 32.283 28.9786C32.2114 29.0144 32.1756 29.0502 32.1041 29.1218C31.2811 29.8016 30.6012 30.6604 30.0644 31.5908C29.5277 32.5569 29.1699 33.5946 28.991 34.7039V34.7755L28.9552 48.5519C28.9552 48.9456 29.0625 49.2676 29.313 49.5539C29.5993 49.8401 29.9929 50.019 30.4223 50.019H30.5654C30.637 50.019 30.6728 50.0191 30.7443 49.9833C30.7801 49.9833 30.8517 49.9475 30.8875 49.9475C30.9232 49.9475 30.9948 49.9117 31.0306 49.9117C31.2095 49.8401 31.3526 49.7328 31.4958 49.6254C31.782 49.375 31.8894 49.0529 31.9252 48.6235V36.0637C31.9252 35.348 32.0325 34.7039 32.2472 34.1314C32.5335 33.2368 33.0344 32.378 33.7501 31.6623C33.7859 31.6266 33.8217 31.5908 33.8574 31.5908C35.1099 30.4099 36.5412 29.8016 38.2588 29.8016C39.368 29.8016 40.37 30.1595 41.3003 30.6962C41.3361 30.6962 41.3719 30.732 41.3719 30.732C41.5866 30.8751 41.8371 30.9467 42.1233 30.9467C42.9463 30.9467 43.5904 30.3026 43.5904 29.4796C43.5547 28.9786 43.3042 28.5492 42.9463 28.263ZM134.336 28.2272C134.229 28.1556 134.122 28.1198 134.014 28.0483C132.654 27.2968 131.187 26.9032 129.577 26.9032C128.432 26.9032 127.323 27.0463 126.285 27.4399C125.319 27.7978 124.46 28.2987 123.673 28.9428C123.601 28.9786 123.566 29.0144 123.494 29.086C122.671 29.7658 121.991 30.6246 121.454 31.555C120.918 32.5211 120.56 33.5588 120.381 34.6681V34.7397L120.345 48.5162C120.345 48.9098 120.452 49.2318 120.703 49.5181C120.989 49.8044 121.383 49.9833 121.812 49.9833H121.955C122.027 49.9833 122.063 49.9833 122.134 49.9475C122.17 49.9475 122.242 49.9117 122.277 49.9117C122.313 49.9117 122.385 49.8759 122.42 49.8759C122.599 49.8044 122.743 49.697 122.886 49.5897C123.172 49.3392 123.279 49.0171 123.315 48.5877V36.0279C123.315 35.3122 123.422 34.6681 123.637 34.0956C123.923 33.201 124.424 32.3422 125.14 31.6266C125.176 31.5908 125.212 31.555 125.247 31.555C126.5 30.3742 127.931 29.7658 129.649 29.7658C130.758 29.7658 131.76 30.1237 132.69 30.6604C132.726 30.6604 132.762 30.6962 132.762 30.6962C132.976 30.8393 133.227 30.9109 133.513 30.9109C134.336 30.9109 134.98 30.2668 134.98 29.4438C134.945 28.9071 134.694 28.4777 134.336 28.2272ZM147.147 23.5396H142.745V19.0309C142.745 18.2437 142.101 17.5996 141.314 17.5996C140.527 17.5996 139.883 18.2437 139.883 19.0309V23.5038H135.481C134.694 23.5038 134.05 24.1479 134.05 24.9351C134.05 25.7224 134.694 26.3665 135.481 26.3665H139.883V48.5162C139.883 49.3034 140.527 49.9475 141.314 49.9475C142.101 49.9475 142.745 49.3034 142.745 48.5162V26.4022H147.147C147.934 26.4022 148.578 25.7581 148.578 24.9709C148.578 24.1837 147.934 23.5396 147.147 23.5396ZM9.2745 28.0125C7.59269 28.8355 6.23294 29.9805 5.15945 31.3761L4.8374 31.8055C4.65848 32.1633 4.65848 32.6285 4.8374 33.0221C5.15945 33.7378 6.01824 34.024 6.69812 33.6662C6.84125 33.5946 6.98438 33.4873 7.09173 33.3799L7.30643 33.0579C8.09366 32.0202 9.16715 31.1256 10.4553 30.5173C14.7851 28.4419 20.0094 30.2668 22.0848 34.5966C23.7666 38.1033 22.9078 42.1468 20.2241 44.6874C16.2522 48.373 11.7077 46.6554 11.7077 46.6554C9.02401 45.7251 7.05595 44.0075 5.12366 41.4311C4.94475 40.8228 4.408 40.3576 3.72812 40.3576C2.90511 40.3576 2.26102 41.0017 2.26102 41.8247L2.18945 41.8605C2.22524 41.8963 2.22524 41.9321 2.26102 41.9679V60.2888C2.26102 61.1118 2.90511 61.7559 3.72812 61.7559C4.55113 61.7559 5.19523 61.1118 5.19523 60.2888V45.582C6.5192 46.9775 7.95052 48.1225 9.63233 48.7666C10.3838 49.0887 11.171 49.375 11.994 49.5539H11.9582C14.2126 50.1264 16.7889 49.8044 19.1506 48.6235C24.8401 45.8324 27.2376 39.0337 24.5181 33.3441C21.8343 27.6546 14.964 25.2572 9.2745 28.0125ZM20.2957 44.6874L20.904 44.0791C20.6893 44.2938 20.4746 44.4727 20.2957 44.6874ZM177.169 44.8663H173.59C173.483 44.8663 173.411 44.9021 173.376 44.9736C173.304 45.0452 173.268 45.1168 173.268 45.1883C173.268 45.2957 173.304 45.3673 173.376 45.403C173.447 45.4746 173.519 45.5104 173.59 45.5104H175.022V49.7686C175.022 49.8759 175.057 49.9475 175.129 50.019C175.2 50.0906 175.272 50.1264 175.379 50.1264C175.487 50.1264 175.558 50.0906 175.63 50.019C175.701 49.9475 175.737 49.8759 175.737 49.7686V45.5104H177.169C177.276 45.5104 177.347 45.4746 177.383 45.403C177.455 45.3315 177.491 45.2599 177.491 45.1883C177.491 45.081 177.455 45.0094 177.383 44.9736C177.347 44.8663 177.276 44.8663 177.169 44.8663ZM183.144 44.8663C183.001 44.8663 182.894 44.9379 182.822 45.0452L180.89 49.0171L178.886 45.0452C178.815 44.9379 178.707 44.8663 178.564 44.8663C178.457 44.8663 178.385 44.9021 178.314 44.9736C178.242 45.0452 178.206 45.1168 178.206 45.2241V49.7686C178.206 49.8759 178.242 49.9475 178.314 50.019C178.385 50.0906 178.457 50.1264 178.564 50.1264C178.671 50.1264 178.743 50.0906 178.815 50.019C178.886 49.9475 178.922 49.8759 178.922 49.7686V46.5123L180.532 49.7328C180.604 49.8759 180.711 49.9475 180.854 49.9475C180.962 49.9475 181.069 49.8759 181.14 49.7686L182.751 46.4765V49.8044C182.751 49.9117 182.786 49.9833 182.858 50.0548C182.93 50.1264 183.001 50.1622 183.109 50.1622C183.216 50.1622 183.287 50.1264 183.359 50.0548C183.431 49.9833 183.466 49.9117 183.466 49.8044V45.2599C183.466 45.1526 183.431 45.081 183.359 45.0094C183.323 44.8663 183.252 44.8663 183.144 44.8663ZM168.473 50.019V28.7639C168.473 28.4061 168.366 28.1198 168.115 27.8693C167.865 27.6189 167.579 27.5115 167.221 27.5115C166.863 27.5115 166.577 27.6189 166.326 27.8693C166.076 28.1198 165.968 28.4061 165.968 28.7639V40.4292C165.968 41.3953 165.79 42.2899 165.432 43.1487C165.074 43.9717 164.573 44.7232 163.929 45.3673C163.285 46.0113 162.533 46.5123 161.71 46.8701C160.064 47.5858 157.953 47.5858 156.271 46.8701C155.448 46.5123 154.697 46.0113 154.053 45.3673C153.409 44.7232 152.908 44.0075 152.55 43.1487C152.192 42.2899 152.013 41.3953 152.013 40.4292V28.7281C152.013 28.3703 151.906 28.084 151.655 27.8336C151.405 27.5831 151.118 27.4757 150.761 27.4757C150.403 27.4757 150.117 27.5831 149.866 27.8336C149.616 28.084 149.508 28.3703 149.508 28.7281V40.3934C149.508 41.6816 149.759 42.934 150.26 44.0791C150.761 45.2241 151.441 46.2618 152.299 47.1206C153.158 47.9794 154.196 48.6593 155.341 49.1603C156.486 49.6612 157.738 49.9117 159.027 49.9117C160.136 49.9117 161.138 49.7686 162.068 49.4823C162.998 49.196 163.857 48.6951 164.716 48.051L165.968 47.0848L166.004 49.9833V51.1283L165.933 52.3807C165.611 56.1022 162.533 59.0722 158.74 59.0722C156.593 59.0722 154.661 58.1418 153.337 56.6747C153.087 56.4242 152.764 56.2453 152.371 56.2453C151.655 56.2453 151.083 56.8178 151.083 57.5335C151.083 57.9629 151.297 58.3207 151.619 58.5712C153.409 60.4319 155.913 61.6128 158.704 61.6128C163.857 61.6128 168.115 57.6051 168.509 52.5239V52.3807C168.509 52.166 168.545 51.9871 168.545 51.7724C168.545 51.5935 168.545 51.4146 168.509 51.2357V50.019H168.473ZM203.612 19.1383C202.503 19.1383 201.537 19.5319 200.75 20.3191C200.213 20.8559 199.855 21.5 199.676 22.1798H207.513C207.334 21.5 206.976 20.8559 206.439 20.3191C205.688 19.5319 204.721 19.1383 203.612 19.1383Z" fill="#14CDEB"/>
<path d="M193.236 3.57227C182.286 3.57227 173.412 12.4465 173.412 23.3961C173.412 34.3457 182.286 43.2199 193.236 43.2199C204.186 43.2199 213.06 34.3457 213.06 23.3961C213.06 12.4465 204.186 3.57227 193.236 3.57227ZM195.777 28.4415C195.777 29.0856 195.347 29.5508 194.739 29.5508H194.703C194.417 29.5508 194.166 29.4434 193.952 29.2645C193.808 29.1214 193.63 28.8709 193.63 28.4415V23.1098C193.63 22.6804 193.63 22.3584 193.594 22.0721C193.415 20.6408 192.198 19.5673 190.767 19.5673H190.731C189.55 19.5673 188.656 20.1398 188.119 21.2133C188.226 21.6427 188.262 22.0721 188.262 22.5015V28.4415C188.262 29.0856 187.833 29.5508 187.224 29.5508C186.902 29.5508 186.652 29.4434 186.473 29.2645C186.33 29.1214 186.151 28.8709 186.151 28.4415V23.1098C186.151 22.8235 186.151 22.4657 186.115 22.0721C186.079 21.7501 185.972 21.3922 185.829 21.106C185.793 21.0344 185.757 20.9628 185.721 20.927L185.686 20.8913C185.221 20.2114 184.576 19.782 183.825 19.6389C183.753 19.6389 183.682 19.6031 183.61 19.6031H182.966C182.859 19.6031 182.787 19.6389 182.716 19.6389C181.928 19.782 181.284 20.2114 180.855 20.8913L180.819 20.9628C180.783 21.0344 180.748 21.0702 180.712 21.1417C180.533 21.4638 180.461 21.7858 180.39 22.1079C180.354 22.4657 180.354 22.8593 180.354 23.1456V28.513C180.354 28.9424 180.175 29.1929 180.032 29.3361C179.853 29.515 179.567 29.6223 179.281 29.6223C178.672 29.6223 178.243 29.1571 178.243 28.513V22.6088C178.243 21.106 178.887 20.104 178.887 20.0682L178.994 19.8893C179.603 18.8874 180.569 18.136 181.714 17.7781L181.785 17.7424L182.107 17.635L182.251 17.5992C182.358 17.5634 182.429 17.5634 182.537 17.5634C182.608 17.5634 182.644 17.5634 182.716 17.5277C182.823 17.5277 182.895 17.5277 183.002 17.4919H183.646C183.753 17.4919 183.825 17.4919 183.932 17.5277C184.004 17.5277 184.04 17.5277 184.111 17.5634C184.219 17.5992 184.29 17.5992 184.398 17.5992C184.469 17.5992 184.541 17.635 184.612 17.6708C184.72 17.7066 184.755 17.7066 184.827 17.7424L185.149 17.8497L185.221 17.8855C185.9 18.1717 186.509 18.6011 187.01 19.1737C188.548 17.4561 191.053 16.9909 193.129 18.1002C193.916 18.5296 194.596 19.1737 195.097 20.0325C195.168 20.104 195.741 21.106 195.741 22.5731L195.777 28.4415ZM208.623 24.1833H199.677C199.856 24.8632 200.214 25.5073 200.75 26.044C201.538 26.8312 202.504 27.2249 203.613 27.2249C204.615 27.2249 205.474 26.9028 206.225 26.2587C206.619 25.9367 207.191 25.9725 207.549 26.3303C207.728 26.5092 207.835 26.7597 207.835 27.0459C207.835 27.3322 207.728 27.5469 207.549 27.7616C206.44 28.7277 205.116 29.2287 203.613 29.2287C201.967 29.2287 200.536 28.6204 199.355 27.4753C198.174 26.2945 197.601 24.8632 197.601 23.2172C197.601 21.5711 198.21 20.1398 199.355 18.959C200.536 17.7781 201.967 17.2056 203.613 17.2056C205.259 17.2056 206.69 17.8139 207.871 18.959C209.052 20.1398 209.625 21.5711 209.625 23.2172C209.625 23.5034 209.517 23.7181 209.338 23.9328C209.159 24.076 208.909 24.1833 208.623 24.1833Z" fill="#14CDEB"/>
</svg>
