<svg width="216" height="75" viewBox="0 0 216 75" fill="none" xmlns="http://www.w3.org/2000/svg">
<g clip-path="url(#clip0_1954_4626)">
<mask id="mask0_1954_4626" style="mask-type:luminance" maskUnits="userSpaceOnUse" x="0" y="0" width="214" height="75">
<path d="M213.048 0.389648H0.285156V74.4232H213.048V0.389648Z" fill="white"/>
</mask>
<g mask="url(#mask0_1954_4626)">
<path opacity="0.220261" d="M137.348 -76.9785H4.62093C-37.1876 -76.9785 -71.0801 -43.086 -71.0801 -1.27751C-71.0801 40.531 -37.1876 74.4235 4.62093 74.4235H137.348C179.156 74.4235 213.049 40.531 213.049 -1.27751C213.049 -43.086 179.156 -76.9785 137.348 -76.9785Z" fill="#F93A73"/>
<path d="M130.678 -83.6484H-2.049C-43.8575 -83.6484 -77.75 -49.7559 -77.75 -7.94743C-77.75 33.8611 -43.8575 67.7536 -2.049 67.7536H130.678C172.486 67.7536 206.379 33.8611 206.379 -7.94743C206.379 -49.7559 172.486 -83.6484 130.678 -83.6484Z" fill="#F93A73"/>
<path fill-rule="evenodd" clip-rule="evenodd" d="M76.7527 20.493C76.7527 19.7805 76.2749 19.2773 75.5498 19.2773H74.3831V21.7086H75.5498C76.2749 21.7086 76.7527 21.205 76.7527 20.493ZM79.5853 20.4867C79.5853 22.5875 78.006 24.118 75.8798 24.118H74.3831V26.8853H71.6223V16.8675H75.8798C78.006 16.8675 79.5853 18.3859 79.5853 20.4867ZM85.7308 19.1202V21.5559H84.6989C83.7581 21.5559 83.3643 21.9692 83.3643 22.955V26.8851H80.7067V19.1568H82.4874L82.9017 20.0147C83.446 19.3845 84.1086 19.1202 85.0271 19.1202H85.7308ZM92.1485 23.0215C92.1485 22.0058 91.4533 21.2955 90.4843 21.2955C89.5159 21.2955 88.8207 21.9995 88.8207 23.021C88.8207 24.043 89.5159 24.747 90.4843 24.747C91.4533 24.747 92.1485 24.043 92.1485 23.0215ZM86.159 23.021C86.159 20.6255 87.9692 18.904 90.4843 18.904C92.9919 18.904 94.8101 20.6255 94.8101 23.021C94.8101 25.4085 92.9919 27.1385 90.4843 27.1385C87.9692 27.1385 86.159 25.4085 86.159 23.021ZM101.918 23.021C101.918 22.0053 101.186 21.2526 100.191 21.2526C99.1952 21.2526 98.4638 22.0053 98.4638 23.021C98.4638 24.0363 99.1952 24.7895 100.191 24.7895C101.18 24.7895 101.918 24.0363 101.918 23.021ZM104.591 23.021C104.591 25.4291 102.905 27.1466 100.546 27.1466C99.8484 27.1466 99.2099 26.9628 98.6656 26.6331V29.6758H96.0379V19.1567H97.8454L98.178 19.7708C98.813 19.2216 99.6292 18.9036 100.546 18.9036C102.905 18.9036 104.591 20.6134 104.591 23.021ZM108.024 22.1785H111.143C110.91 21.4061 110.354 20.9897 109.552 20.9897C108.778 20.9897 108.239 21.411 108.024 22.1785ZM113.761 22.9482C113.761 23.1808 113.741 23.4138 113.706 23.6527H107.977C108.151 24.5391 108.713 24.9976 109.553 24.9976C110.173 24.9976 110.692 24.7252 110.947 24.273H113.592C113.049 26.0366 111.488 27.1386 109.553 27.1386C107.145 27.1386 105.362 25.376 105.362 23.0153C105.362 20.6457 107.131 18.9041 109.553 18.9041C112.039 18.9041 113.761 20.6815 113.761 22.9482ZM119.994 19.1202V21.5559H118.962C118.021 21.5559 117.627 21.9692 117.627 22.955V26.8851H114.97V19.1568H116.75L117.165 20.0147C117.709 19.3845 118.371 19.1202 119.29 19.1202H119.994ZM126.331 24.5537V26.8853H124.503C122.797 26.8853 121.759 25.8405 121.759 24.123V21.2073H120.347V20.5847L123.804 16.8975H124.35V19.1571H126.288V21.2073H124.417V23.6664C124.417 24.2196 124.75 24.5537 125.311 24.5537H126.331ZM135.638 19.1569L132.404 26.5412C131.364 28.9067 130.408 29.761 128.416 29.761H127.506V27.4737H128.237C129.254 27.4737 129.561 27.2085 129.92 26.2469L126.732 19.1569H129.62L131.257 23.4144L132.783 19.1569H135.638ZM71.1356 40.825H73.9781C73.9781 41.5411 74.5295 41.889 75.1577 41.889C75.7346 41.889 76.2856 41.5813 76.2856 41.0343C76.2856 40.4059 75.5073 40.2234 74.555 39.9927C73.1101 39.6326 71.2646 39.1889 71.2646 36.9083C71.2646 34.9355 72.7113 33.8052 75.0698 33.8052C77.4675 33.8052 78.8423 35.0383 78.8423 37.0765H76.0793C76.0793 36.4427 75.6078 36.1458 75.0363 36.1458C74.5456 36.1458 74.0745 36.3587 74.0745 36.8265C74.0745 37.3954 74.8282 37.5837 75.7699 37.8203C77.242 38.2009 79.1665 38.6934 79.1665 40.9816C79.1665 43.1691 77.4881 44.3047 75.1653 44.3047C72.7176 44.3047 71.1356 43.009 71.1356 40.825ZM86.3578 40.1956C86.3578 39.1803 85.626 38.4272 84.6312 38.4272C83.6355 38.4272 82.9041 39.1803 82.9041 40.1956C82.9041 41.2114 83.6355 41.9641 84.6312 41.9641C85.6202 41.9641 86.3578 41.2114 86.3578 40.1956ZM89.0315 40.1961C89.0315 42.6037 87.3455 44.3216 84.9866 44.3216C84.2887 44.3216 83.6502 44.1373 83.1059 43.8082V46.8509H80.4782V36.3317H82.2857L82.6183 36.9454C83.2533 36.3961 84.0695 36.0786 84.9866 36.0786C87.3455 36.0786 89.0315 37.788 89.0315 40.1961ZM95.9359 40.1939C95.9359 39.1907 95.2041 38.437 94.2093 38.437C93.2078 38.437 92.4822 39.1907 92.4822 40.1939C92.4822 41.2029 93.2136 41.9561 94.2093 41.9561C95.2041 41.9561 95.9359 41.2029 95.9359 40.1939ZM98.4636 36.3237V44.052H96.4097L96.1819 43.505C95.5501 44.018 94.75 44.3132 93.8539 44.3132C91.4945 44.3132 89.8081 42.589 89.8081 40.1876C89.8081 37.7943 91.4945 36.0907 93.8539 36.0907C94.7621 36.0907 95.5738 36.3948 96.211 36.9213L96.4829 36.3237H98.4636ZM99.6955 40.1852C99.6955 37.7936 101.473 36.0905 103.965 36.0905C106.132 36.0905 107.758 37.4595 108.049 39.5156H105.46C105.237 38.885 104.649 38.4757 103.956 38.4757C103.021 38.4757 102.357 39.1869 102.357 40.1937C102.357 41.2009 103.03 41.9277 103.956 41.9277C104.669 41.9277 105.247 41.4903 105.466 40.8006H108.077C107.777 42.8987 106.128 44.3129 103.956 44.3129C101.481 44.3129 99.6955 42.5767 99.6955 40.1852ZM111.439 39.3535H114.557C114.325 38.5811 113.769 38.1642 112.967 38.1642C112.192 38.1642 111.654 38.5856 111.439 39.3535ZM117.121 40.8277H111.392C111.566 41.7137 112.128 42.1726 112.967 42.1726C113.588 42.1726 114.107 41.8998 114.362 41.448H117.006C116.463 43.2116 114.903 44.3136 112.967 44.3136C110.56 44.3136 108.776 42.5505 108.776 40.1899C108.776 37.8208 110.545 36.0787 112.967 36.0787C115.454 36.0787 117.176 37.8556 117.176 40.1228C117.176 40.3558 117.156 40.5889 117.121 40.8277ZM44.7538 38.412C44.757 38.412 44.8007 48.1379 44.8007 48.1379L34.9688 48.1756V29.9372H41.8511C41.8511 31.6798 43.1982 32.5292 44.7338 32.5292C46.1437 32.5292 47.4915 31.7792 47.4915 30.4464C47.4915 28.9163 45.5891 28.4726 43.261 27.9089C39.7284 27.0334 35.2172 25.9529 35.2172 20.3996C35.2172 15.8222 38.4307 13.1129 43.7181 12.8662L45.1006 12.861L49.9519 12.8419C57.4663 12.8129 63.0689 18.1392 63.0987 25.5356C63.1267 32.9329 57.5658 38.3452 50.0512 38.3743L45.3972 38.392L44.7538 38.412Z" fill="white"/>
</g>
</g>
<defs>
<clipPath id="clip0_1954_4626">
<rect width="215.431" height="74.0336" fill="white" transform="translate(0.285156 0.389648)"/>
</clipPath>
</defs>
</svg>
